<svg width="550" height="189" viewBox="0 0 550 189" fill="none" xmlns="http://www.w3.org/2000/svg">
<g id="Mark=Wordmark, Colour=Violet">
<g id="NVK_Logo_Wordmark_Black">
<path id="Vector" d="M265.361 184.795L280.39 187.177C280.39 187.177 284.422 164.091 284.972 159.327L269.943 156.945C268.843 160.793 265.361 184.795 265.361 184.795Z" fill="currentColor"/>
<path id="Vector_2" d="M298.171 41.8813C295.788 41.1484 289.006 42.7974 279.476 51.9585C246.485 85.4881 232.739 140.088 232.739 140.088C237.871 143.02 251.8 145.951 257.665 147.051C259.131 141.004 260.598 135.325 262.247 129.828C272.878 134.042 290.656 137.34 301.836 137.157C301.47 142.653 301.103 148.7 300.187 154.746C306.052 155.662 320.164 157.861 326.029 156.762C326.029 156.762 330.428 99.5962 311.184 56.7223C304.402 44.0799 300.37 42.4309 298.171 41.8813ZM288.457 112.971C280.209 113.888 272.694 107.841 272.694 99.5962C272.511 89.519 277.643 83.4727 286.074 82.7398C295.971 82.0069 301.836 87.3204 302.936 96.115C303.669 104.543 298.354 111.872 288.457 112.971Z" fill="currentColor"/>
<path id="Vector_3" d="M243.368 169.587C246.117 171.602 252.349 176.183 256.014 177.466C259.68 172.152 262.063 168.488 264.995 162.625L252.349 155.479C252.166 155.296 247.217 164.457 243.368 169.587Z" fill="currentColor"/>
<path id="Vector_4" d="M287.723 166.472C288.639 174.167 291.205 183.512 291.205 183.512C294.504 183.695 302.568 181.496 305.868 180.58C304.401 175.45 302.385 163.541 302.385 163.541L287.723 166.472Z" fill="currentColor"/>
<path id="Vector_5" d="M513.343 57.8219C501.98 57.089 484.568 57.8219 473.204 58.0051C472.654 58.1883 474.487 134.958 474.854 136.791C475.22 137.157 504.362 137.157 514.993 137.157C532.954 137.157 550 123.049 550 96.665C549.816 71.7468 531.855 58.0051 513.343 57.8219ZM505.462 113.155C504.362 113.155 502.713 113.155 501.43 113.155C499.964 113.155 499.964 112.972 499.964 111.872C499.964 109.674 499.78 105.093 499.78 98.6804C499.78 91.1683 499.964 84.9388 499.964 83.2898C499.964 82.9233 499.964 82.7401 500.513 82.7401C501.98 82.7401 505.462 82.5569 507.478 82.7401C515.909 83.2898 520.858 89.5193 520.858 99.5965C520.858 108.025 513.893 113.521 505.462 113.155Z" fill="currentColor"/>
<path id="Vector_6" d="M118.92 57.8219C94.5429 57.8219 79.5138 77.2434 79.5138 96.665C79.5138 122.316 97.1089 137.707 119.286 137.707C144.396 137.157 158.875 119.018 158.875 98.6804C159.058 73.0293 141.28 57.8219 118.92 57.8219ZM118.186 112.972C109.755 112.972 103.157 106.193 104.074 97.7643C105.173 87.8703 110.855 82.1904 119.286 82.5569C129.183 82.9233 134.499 88.9697 134.499 97.7643C134.315 106.193 128.267 112.972 118.186 112.972Z" fill="currentColor"/>
<path id="Vector_7" d="M211.661 59.8374C210.744 60.2038 197.548 101.795 197.548 101.795C197.548 101.795 184.351 60.0206 182.702 59.6541C177.753 58.5548 157.592 58.9212 157.592 60.0206C157.409 64.4179 183.618 135.691 183.802 136.058C185.085 137.34 208.545 137.707 211.294 136.058C212.027 135.325 235.304 69.9146 237.503 60.0206C237.687 59.2877 216.243 58.3716 211.661 59.8374Z" fill="currentColor"/>
<path id="Vector_8" d="M421.336 68.2658C421.153 66.0671 408.323 56.1731 401.175 56.1731C391.277 67.3496 376.981 84.5725 371.483 91.1685C371.666 74.4953 371.483 59.2879 371.3 59.1046C370.75 58.555 346.923 57.4557 345.823 59.1046C344.907 60.7536 346.373 135.691 346.74 136.241C347.106 136.791 370.017 136.974 370.567 135.875C370.75 135.691 370.933 131.111 370.933 124.515C374.415 121.4 381.747 114.987 382.663 114.804C383.946 114.621 399.342 138.257 400.625 138.257C405.94 138.989 424.085 131.294 424.268 130.012C424.635 128.912 399.892 96.8484 399.892 96.8484C399.892 96.8484 421.336 70.4644 421.336 68.2658Z" fill="currentColor"/>
<path id="Vector_9" d="M432.15 59.4703C431.233 61.1193 433.616 136.057 433.983 136.607C434.349 137.156 456.71 137.156 457.259 136.057C457.809 134.958 458.176 59.4703 457.443 59.1039C456.893 58.5542 433.066 57.8213 432.15 59.4703Z" fill="currentColor"/>
<path id="Vector_10" d="M48.1719 60.0203C48.1719 62.5854 47.9886 78.1593 47.9886 94.6493C38.8245 81.2741 24.1619 60.0203 23.0622 60.0203C21.7792 59.1042 1.98466 59.2874 0.151836 60.0203C-0.214729 93.3667 0.151836 135.508 0.518402 136.058C1.80138 137.523 20.3129 137.34 22.6956 136.058C23.0622 135.691 23.2455 116.086 23.4287 103.261C25.6281 106.742 27.6442 109.49 29.1105 111.506C35.892 120.484 48.3552 136.241 48.3552 136.241C51.471 137.157 66.1336 137.34 70.7157 135.874C71.2655 128.179 71.6321 70.2808 71.6321 59.8371C66.8667 58.7378 54.4035 58.921 48.1719 60.0203Z" fill="currentColor"/>
</g>
</g>
</svg>
