<svg xmlns="http://www.w3.org/2000/svg" width="155" height="155" viewBox="0 0 155 155" fill="none">
<path fill-rule="evenodd" clip-rule="evenodd" d="M62.6621 152.451L78.5374 155C78.5374 155 82.9002 130.415 83.3627 125.417L67.4874 122.868C66.45 126.819 62.6621 152.451 62.6621 152.451ZM111.224 15.6933C104.288 2.54504 99.8968 0.829521 97.5525 0.152981C95.0434 -0.571882 87.7853 1.05101 77.7527 10.8045C42.7933 46.6892 28.0078 104.715 28.0078 104.715C33.4001 107.864 48.2902 110.944 54.4746 112.1C55.9383 105.677 57.5829 99.5479 59.3562 93.7208C70.6514 98.2069 89.5505 101.731 101.356 101.429C101.051 107.368 100.496 113.695 99.6435 120.106C105.848 121.149 120.891 123.376 127.035 122.268C127.027 122.268 131.76 61.3959 111.224 15.6933ZM39.335 136.105C42.2382 138.304 48.881 143.068 52.8257 144.562C56.698 138.976 59.1951 135.018 62.3034 128.663L48.8247 121.012C48.8247 121.012 43.5692 130.789 39.335 136.105ZM86.4307 132.855C87.3193 141.147 90.1261 151.001 90.1261 151.001C93.6968 151.154 102.29 148.891 105.732 147.819C104.087 142.327 102.057 129.678 102.057 129.678L86.4307 132.855Z" fill="#6D46FC"/>
</svg>
