<svg width="155" height="155" viewBox="0 0 155 155" fill="none" xmlns="http://www.w3.org/2000/svg">
<path d="M62.6621 152.451L78.5374 155C78.5374 155 82.9002 130.415 83.3627 125.417L67.4874 122.868C66.45 126.819 62.6621 152.451 62.6621 152.451Z" fill="#6D46FC"/>
<path d="M111.224 15.6933C104.288 2.54504 99.8968 0.829521 97.5525 0.152981C95.0434 -0.571882 87.7853 1.05101 77.7527 10.8045C42.7933 46.6892 28.0078 104.715 28.0078 104.715C33.4001 107.864 48.2902 110.944 54.4746 112.1C55.9383 105.677 57.5829 99.5479 59.3562 93.7208C70.6514 98.2069 89.5505 101.731 101.356 101.429C101.051 107.368 100.496 113.695 99.6435 120.106C105.848 121.149 120.891 123.376 127.035 122.268C127.027 122.268 131.76 61.3959 111.224 15.6933ZM105.494 82.4734C103.025 83.2546 95.2846 83.1177 93.5877 82.6465C93.5877 82.6465 86.9851 74.1898 83.3902 69.4459C82.586 68.4029 81.5325 66.8445 80.3543 65.0404C80.3141 71.8581 80.2136 82.2317 79.9884 82.4734C78.782 83.2022 68.9103 83.2788 68.2388 82.4734C68.0055 82.1915 67.8367 59.7811 68.0458 42.0018C68.9867 41.5991 79.4978 41.4581 80.2055 42.0018H80.2337C80.7886 42.0018 88.5774 53.2412 93.4751 60.3972C93.5113 51.6465 93.5716 43.3508 93.5716 42.0018C96.8528 41.4139 103.5 41.3253 106.009 42.0018C106.001 47.5953 105.792 78.3819 105.494 82.4734Z" fill="#6D46FC"/>
<path d="M39.335 136.105C42.2382 138.304 48.881 143.068 52.8257 144.562C56.698 138.976 59.1951 135.018 62.3034 128.663L48.8247 121.012C48.8247 121.012 43.5692 130.789 39.335 136.105Z" fill="#6D46FC"/>
<path d="M86.4307 132.855C87.3193 141.147 90.1261 151.001 90.1261 151.001C93.6968 151.154 102.29 148.891 105.732 147.819C104.087 142.327 102.057 129.678 102.057 129.678L86.4307 132.855Z" fill="#6D46FC"/>
</svg>
