<svg xmlns="http://www.w3.org/2000/svg" width="1024" height="613" fill="none" viewBox="0 0 1024 613"><g clip-path="url(#a)"><path fill="#FFE60A" d="M0 0h1024v613H0z"/><g fill="#C76EF2" opacity=".27"><path d="M87.67 90.54s.04-.08 0-.12h-.12s-.04.08 0 .12c0 0 .08.04.12 0m27.49-24.83s.08-.2 0-.25c-.08-.08-.2-.08-.25 0-.08.08-.08.2 0 .25.08.08.2.08.25 0m27.52-24.88s.13-.29 0-.41c-.08-.13-.28-.13-.4 0-.12.08-.12.29 0 .4s.28.13.4 0m27.45-24.91s.12-.29 0-.41c-.08-.13-.28-.13-.4 0-.13.08-.13.28 0 .4.08.13.28.13.4 0M197.58-9s.12-.29 0-.41c-.08-.12-.29-.12-.4 0-.13.08-.13.29 0 .4.07.13.28.13.4 0m27.44-24.91s.13-.29 0-.41c-.12-.12-.28-.12-.4 0-.12.08-.12.29 0 .41s.28.12.4 0m27.45-24.92s.12-.29 0-.41c-.08-.12-.28-.12-.4 0-.13.08-.13.29 0 .41q.2.18.4 0m27.37-25s.08-.2 0-.25q-.12-.12-.25 0-.12.16 0 .25c.09.08.2.08.25 0m27.4-25v-.13h-.12s-.04.09 0 .13zm27.45-24.92s.04-.08 0-.12h-.12s-.04.08 0 .12c0 0 .08.04.12 0M29.97 193.1s.04-.09 0-.13c0 0-.08-.04-.12 0 0 0-.04.08 0 .12 0 0 .08.05.12 0m27.49-24.87s.08-.2 0-.25q-.12-.12-.24 0c-.08.08-.08.2 0 .25.08.08.2.08.24 0M85 143.38s.12-.29 0-.41c-.08-.13-.28-.13-.4 0-.13.12-.13.29 0 .4.07.13.28.13.4 0m27.57-24.79s.2-.45 0-.65c-.16-.2-.45-.2-.65 0-.2.16-.2.45 0 .65.16.2.44.2.65 0m27.57-24.8c.24-.24.28-.65.04-.9a.6.6 0 0 0-.9-.04c-.24.25-.28.66-.04.9a.6.6 0 0 0 .9.05m27.48-24.84a.8.8 0 0 0 .04-1.07.75.75 0 0 0-1.05-.04c-.33.29-.33.74-.04 1.07a.75.75 0 0 0 1.05.04m27.5-24.92a.8.8 0 0 0 .03-1.07.75.75 0 0 0-1.05-.04.77.77 0 0 0-.04 1.07.75.75 0 0 0 1.05.04m27.49-24.88a.9.9 0 0 0 .08-1.19.87.87 0 0 0-1.18-.08.9.9 0 0 0-.08 1.19.87.87 0 0 0 1.18.08M250-5.81a.8.8 0 0 0 .05-1.07.75.75 0 0 0-1.06-.04.8.8 0 0 0-.04 1.07.75.75 0 0 0 1.05.04m27.45-24.96a.77.77 0 0 0 .04-1.07c-.28-.32-.73-.32-1.05-.04a.8.8 0 0 0-.04 1.07.75.75 0 0 0 1.05.04m27.37-24.96a.6.6 0 0 0 .04-.9.6.6 0 0 0-.9-.04.6.6 0 0 0-.04.9.6.6 0 0 0 .9.04m27.32-25.08s.2-.46 0-.66c-.16-.2-.44-.2-.65 0-.2.16-.2.45 0 .66.16.2.45.2.65 0m27.4-25s.17-.37 0-.54c-.11-.16-.36-.16-.52 0-.16.12-.16.37 0 .53.12.17.37.17.53 0m27.32-25.04s.08-.2 0-.24q-.12-.13-.24 0c-.08.08-.08.2 0 .24.08.09.2.09.24 0m27.37-25v-.12s-.08-.04-.12 0v.12s.08.04.12 0M27.21 245.84s.08-.2 0-.24c-.08-.08-.2-.08-.24 0-.08.08-.08.2 0 .25q.12.12.24 0m27.57-24.8s.16-.37 0-.53c-.12-.17-.36-.17-.53 0-.16.12-.16.37 0 .53.13.17.37.17.53 0m27.57-24.8a.54.54 0 0 0 .04-.77.52.52 0 0 0-.77-.04.54.54 0 0 0-.04.78.53.53 0 0 0 .77.04M110 171.54a.9.9 0 0 0 .08-1.19.87.87 0 0 0-1.18-.08.9.9 0 0 0-.08 1.19.87.87 0 0 0 1.18.08m27.57-24.8c.4-.36.45-1.02.08-1.43a1 1 0 0 0-1.42-.08 1.04 1.04 0 0 0-.08 1.43 1 1 0 0 0 1.42.09m27.57-24.76a1.24 1.24 0 0 0 .08-1.72 1.2 1.2 0 0 0-1.7-.09 1.24 1.24 0 0 0-.09 1.73 1.2 1.2 0 0 0 1.7.08m27.58-24.8a1.43 1.43 0 0 0 .12-1.97 1.4 1.4 0 0 0-1.95-.12 1.43 1.43 0 0 0-.12 1.97 1.4 1.4 0 0 0 1.95.12m27.52-24.87c.61-.54.65-1.48.13-2.1-.53-.61-1.47-.65-2.07-.12s-.65 1.48-.13 2.1 1.47.65 2.07.12m27.45-24.92a1.5 1.5 0 0 0 .12-2.1 1.46 1.46 0 0 0-2.07-.12c-.6.53-.65 1.48-.12 2.1s1.46.65 2.07.12m27.45-24.92c.6-.54.65-1.48.12-2.1s-1.46-.65-2.07-.12-.65 1.48-.12 2.1 1.46.65 2.07.12m27.36-25a1.43 1.43 0 0 0 .12-1.98 1.4 1.4 0 0 0-1.94-.12 1.43 1.43 0 0 0-.13 1.97 1.4 1.4 0 0 0 1.95.13m27.33-25.05a1.24 1.24 0 0 0 .08-1.72 1.2 1.2 0 0 0-1.7-.08 1.24 1.24 0 0 0-.09 1.72c.45.5 1.18.53 1.7.08m27.33-25.08a1.04 1.04 0 0 0 .08-1.44 1 1 0 0 0-1.42-.08 1.04 1.04 0 0 0-.08 1.44c.37.4 1.02.45 1.42.08m27.33-25.04a.9.9 0 0 0 .08-1.2.87.87 0 0 0-1.18-.08.9.9 0 0 0-.08 1.2.87.87 0 0 0 1.18.08m27.28-25.13a.54.54 0 0 0 .04-.78.53.53 0 0 0-.77-.04.54.54 0 0 0-.04.78.53.53 0 0 0 .77.04m27.33-25.08s.16-.37 0-.53c-.12-.17-.37-.17-.53 0-.16.12-.16.37 0 .53.12.16.36.16.53 0m27.32-25.04s.08-.2 0-.25c-.08-.08-.2-.08-.24 0q-.12.12 0 .25.12.12.24 0M-3.08 323.36s.04-.08 0-.13c0 0-.08-.04-.12 0v.13s.08.04.12 0m27.49-24.84s.08-.2 0-.25c-.08-.08-.2-.08-.24 0-.08.08-.08.2 0 .25.08.08.2.08.24 0m27.65-24.71s.2-.46 0-.66c-.16-.2-.45-.2-.65 0-.2.16-.2.45 0 .66.16.2.45.2.65 0m27.61-24.72a.77.77 0 0 0 .04-1.07.76.76 0 0 0-1.05-.04.77.77 0 0 0-.04 1.07.75.75 0 0 0 1.05.04m27.73-24.67a1.1 1.1 0 0 0 .08-1.56 1.1 1.1 0 0 0-1.54-.08 1.1 1.1 0 0 0-.08 1.56 1.1 1.1 0 0 0 1.54.08m27.61-24.72a1.43 1.43 0 0 0 .12-1.97 1.4 1.4 0 0 0-1.95-.12 1.43 1.43 0 0 0-.12 1.97 1.4 1.4 0 0 0 1.95.12m27.7-24.63c.72-.65.76-1.76.11-2.5s-1.74-.78-2.47-.12-.77 1.76-.13 2.5c.65.74 1.75.78 2.48.12m27.65-24.71c.85-.74.9-2.05.16-2.88a2.02 2.02 0 1 0-3 2.71c.73.87 2.03.9 2.84.17m27.49-24.88a2.2 2.2 0 0 0 .16-3.04 2.14 2.14 0 0 0-3-.16 2.2 2.2 0 0 0-.17 3.04c.77.86 2.11.94 3 .16m27.62-24.76a2.35 2.35 0 0 0 .16-3.28c-.85-.94-2.31-1.03-3.25-.16s-1.01 2.34-.16 3.28a2.3 2.3 0 0 0 3.25.17m27.49-24.88c.97-.9 1.05-2.43.16-3.41a2.36 2.36 0 0 0-3.37-.16 2.43 2.43 0 0 0-.17 3.4c.9.99 2.4 1.07 3.37.17m27.41-25a2.35 2.35 0 0 0 .16-3.29c-.85-.94-2.31-1.03-3.24-.16s-1.02 2.34-.17 3.28a2.3 2.3 0 0 0 3.25.16m27.37-24.95a2.3 2.3 0 0 0 .16-3.17 2.2 2.2 0 0 0-3.13-.16 2.3 2.3 0 0 0-.16 3.16 2.2 2.2 0 0 0 3.13.17M355.03.8c.86-.74.9-2.05.16-2.87a2.04 2.04 0 1 0-3.04 2.71c.73.82 2.03.9 2.84.16zm27.29-25.12c.73-.66.77-1.77.12-2.5a1.73 1.73 0 0 0-2.48-.13 1.77 1.77 0 0 0-.12 2.5c.65.74 1.75.78 2.48.13m27.24-25.13c.6-.53.65-1.48.12-2.1s-1.46-.65-2.07-.12a1.5 1.5 0 0 0-.12 2.1c.53.61 1.46.65 2.07.12m27.2-25.2c.45-.41.5-1.11.09-1.56a1.1 1.1 0 0 0-1.55-.09 1.1 1.1 0 0 0-.08 1.56 1.1 1.1 0 0 0 1.54.09m27.29-25.13a.9.9 0 0 0 .08-1.19.87.87 0 0 0-1.18-.08.9.9 0 0 0-.08 1.19.87.87 0 0 0 1.18.08m27.2-25.2s.2-.46 0-.66c-.16-.2-.45-.2-.65 0-.2.16-.2.45 0 .65.16.2.45.2.65 0m27.33-25.08s.12-.29 0-.41q-.21-.18-.41 0c-.12.12-.12.29 0 .41s.29.12.4 0M-5.87 376.03s.04-.08 0-.13c0 0-.08-.04-.12 0v.13zm27.57-24.76s.12-.28 0-.4c-.08-.13-.28-.13-.4 0-.13.07-.13.28 0 .4.08.13.28.13.4 0m27.61-24.71a.54.54 0 0 0 .04-.78.53.53 0 0 0-.77-.04.5.5 0 0 0 0 .78.53.53 0 0 0 .77.04zm27.73-24.67c.37-.33.4-.95.08-1.32a.94.94 0 0 0-1.3-.08.97.97 0 0 0-.08 1.31c.33.37.93.41 1.3.09m27.7-24.64a1.3 1.3 0 0 0 .07-1.84 1.3 1.3 0 0 0-1.82-.09 1.3 1.3 0 0 0-.09 1.85c.5.54 1.3.58 1.83.08m27.73-24.59c.73-.65.77-1.76.12-2.5a1.73 1.73 0 0 0-2.47-.12 1.77 1.77 0 0 0-.12 2.5c.65.74 1.74.78 2.47.12m27.7-24.63a2.2 2.2 0 0 0 .15-3.04 2.1 2.1 0 0 0-3-.16 2.2 2.2 0 0 0-.16 3.04c.77.86 2.11.94 3 .16m27.78-24.59a2.67 2.67 0 0 0 .2-3.7c-.94-1.06-2.6-1.14-3.66-.2s-1.13 2.63-.2 3.7a2.6 2.6 0 0 0 3.66.2m27.64-24.71a2.9 2.9 0 0 0 .2-4.07 2.8 2.8 0 0 0-4.01-.2 2.9 2.9 0 0 0-.2 4.06 2.8 2.8 0 0 0 4.01.2m27.61-24.7a3.2 3.2 0 0 0 .25-4.48c-1.14-1.32-3.13-1.4-4.43-.25s-1.38 3.16-.24 4.48a3.1 3.1 0 0 0 4.42.24m27.57-24.8a3.35 3.35 0 0 0 .25-4.71 3.26 3.26 0 0 0-4.67-.25 3.35 3.35 0 0 0-.25 4.72 3.26 3.26 0 0 0 4.67.25m27.45-24.92a3.4 3.4 0 0 0 .24-4.72 3.26 3.26 0 0 0-4.67-.25 3.35 3.35 0 0 0-.24 4.72 3.26 3.26 0 0 0 4.67.25m27.45-24.92a3.4 3.4 0 0 0 .24-4.72 3.26 3.26 0 0 0-4.67-.25 3.35 3.35 0 0 0-.24 4.72 3.26 3.26 0 0 0 4.67.25m27.32-25.09c1.3-1.15 1.38-3.16.25-4.47s-3.13-1.4-4.43-.25a3.2 3.2 0 0 0-.24 4.48 3.1 3.1 0 0 0 4.42.24m27.33-25.04a3 3 0 0 0 .24-4.19 2.93 2.93 0 1 0-4.34 3.95 2.9 2.9 0 0 0 4.14.2zm27.2-25.2a2.66 2.66 0 0 0 .2-3.7 2.6 2.6 0 0 0-3.65-.2 2.66 2.66 0 0 0-.2 3.69 2.6 2.6 0 0 0 3.65.2m27.2-25.2c.9-.82.98-2.22.16-3.16a2.2 2.2 0 0 0-3.12-.17c-.9.82-.98 2.22-.16 3.16.8.9 2.19.99 3.12.17m27.17-25.25c.73-.66.77-1.77.12-2.5-.65-.74-1.75-.79-2.48-.13s-.77 1.77-.12 2.5 1.74.79 2.48.13m27.2-25.2a1.43 1.43 0 0 0 .12-1.98 1.4 1.4 0 0 0-1.95-.12 1.43 1.43 0 0 0-.12 1.97 1.4 1.4 0 0 0 1.95.12m27.12-25.29c.37-.32.4-.94.08-1.31s-.93-.41-1.3-.08a.96.96 0 0 0-.08 1.31c.33.37.94.41 1.3.08m27.2-25.2a.54.54 0 0 0 .05-.78.53.53 0 0 0-.78-.04.54.54 0 0 0-.04.78.52.52 0 0 0 .77.04m27.29-25.13s.12-.28 0-.4c-.12-.13-.29-.13-.4 0-.13.07-.13.28 0 .4.11.13.28.13.4 0M18.8 403.86s.08-.2 0-.24c-.08-.09-.2-.09-.25 0-.08.08-.08.2 0 .24.08.09.2.09.25 0m27.73-24.63a.5.5 0 0 0 0-.78.53.53 0 0 0-.77-.04.54.54 0 0 0-.04.78.52.52 0 0 0 .77.04zm27.73-24.59c.4-.37.45-1.03.08-1.44a1 1 0 0 0-1.42-.08 1.04 1.04 0 0 0-.08 1.44 1 1 0 0 0 1.42.08m27.77-24.6a1.5 1.5 0 0 0 .12-2.09 1.46 1.46 0 0 0-2.07-.12 1.5 1.5 0 0 0-.12 2.1c.53.61 1.46.65 2.07.12m27.73-24.55a1.97 1.97 0 0 0 .16-2.75 1.9 1.9 0 0 0-2.72-.17 1.97 1.97 0 0 0-.16 2.75c.7.78 1.95.87 2.72.17m27.86-24.51a2.54 2.54 0 0 0 .2-3.53 2.47 2.47 0 0 0-3.5-.2 2.54 2.54 0 0 0-.2 3.53 2.5 2.5 0 0 0 3.54.2zm27.8-24.5a3.13 3.13 0 0 0 .25-4.36 3.05 3.05 0 0 0-4.3-.25 3.13 3.13 0 0 0-.25 4.35 3.05 3.05 0 0 0 4.3.25m27.74-24.59a3.63 3.63 0 0 0 .28-5 3.53 3.53 0 0 0-4.95-.3 3.63 3.63 0 0 0-.28 5.01 3.53 3.53 0 0 0 4.95.29m27.77-24.6a4.05 4.05 0 0 0 .29-5.66 3.94 3.94 0 0 0-5.6-.28 4.05 4.05 0 0 0-.3 5.66 3.94 3.94 0 0 0 5.61.29m27.65-24.72a4.3 4.3 0 0 0 .33-6.03 4.2 4.2 0 0 0-5.97-.33 4.3 4.3 0 0 0-.33 6.04 4.2 4.2 0 0 0 5.97.33m27.57-24.76c1.83-1.64 1.95-4.47.32-6.32s-4.42-1.97-6.25-.33-1.95 4.47-.32 6.32 4.42 1.97 6.25.33m27.49-24.88c1.86-1.68 1.99-4.55.32-6.44s-4.5-2.02-6.37-.33-2 4.55-.33 6.44a4.47 4.47 0 0 0 6.38.33m27.4-25c1.83-1.64 1.95-4.47.33-6.32s-4.43-1.97-6.26-.33a4.5 4.5 0 0 0-.32 6.32 4.4 4.4 0 0 0 6.25.33m27.33-25.04a4.3 4.3 0 0 0 .32-6.04 4.2 4.2 0 0 0-5.97-.33c-1.74 1.56-1.86 4.27-.32 6.04s4.22 1.89 5.97.33m27.24-25.13a4.05 4.05 0 0 0 .29-5.66 3.94 3.94 0 0 0-5.6-.29 4.05 4.05 0 0 0-.3 5.67 3.94 3.94 0 0 0 5.61.28M432.8 32.5a3.63 3.63 0 0 0 .28-5 3.53 3.53 0 0 0-4.95-.3 3.63 3.63 0 0 0-.29 5.02 3.53 3.53 0 0 0 4.96.28m27.1-25.3a3.13 3.13 0 0 0 .24-4.35 3.04 3.04 0 0 0-4.3-.24 3.13 3.13 0 0 0-.25 4.35 3.05 3.05 0 0 0 4.3.24m27.17-25.24c1.06-.95 1.14-2.63.2-3.7s-2.6-1.15-3.65-.2a2.66 2.66 0 0 0-.2 3.7 2.6 2.6 0 0 0 3.65.2m27.08-25.33c.81-.74.9-2.06.16-2.88s-2.03-.9-2.88-.16-.9 2.05-.16 2.87 2.03.9 2.84.17zm27.08-25.37c.61-.54.65-1.48.12-2.1s-1.46-.65-2.07-.12a1.5 1.5 0 0 0-.12 2.1c.53.6 1.46.65 2.07.12M568.35-94a1.04 1.04 0 0 0 .09-1.44 1 1 0 0 0-1.43-.08 1.04 1.04 0 0 0-.08 1.44c.37.4 1.02.45 1.42.08m27.17-25.29a.54.54 0 0 0 .04-.78.53.53 0 0 0-.77-.04.54.54 0 0 0-.04.78.53.53 0 0 0 .77.04m27.2-25.2s.08-.21 0-.25q-.12-.13-.24 0c-.09.08-.09.2 0 .24.08.09.2.09.24 0M16.01 456.53s.08-.2 0-.24q-.15-.12-.25 0c-.08.08-.08.2 0 .24.08.09.2.09.25 0m27.65-24.71s.2-.45 0-.66c-.17-.2-.45-.2-.65 0-.2.17-.2.45 0 .66.16.2.44.2.65 0m27.77-24.55c.36-.33.4-.94.08-1.31a.94.94 0 0 0-1.3-.09.97.97 0 0 0-.08 1.32c.32.37.93.4 1.3.08m27.81-24.5c.61-.54.65-1.49.12-2.1s-1.46-.66-2.07-.13a1.5 1.5 0 0 0-.12 2.1c.53.61 1.46.66 2.07.12m27.81-24.5c.86-.75.9-2.06.17-2.88-.74-.86-2.03-.9-2.85-.17s-.9 2.06-.16 2.88c.73.86 2.03.9 2.84.16m27.9-24.47c1.1-.98 1.17-2.7.2-3.81a2.67 2.67 0 0 0-3.78-.2c-1.1.98-1.18 2.7-.2 3.8s2.68 1.2 3.78.21m27.85-24.42a3.35 3.35 0 0 0 .24-4.72 3.26 3.26 0 0 0-4.67-.25 3.4 3.4 0 0 0-.24 4.72 3.26 3.26 0 0 0 4.67.25m27.9-24.43a4.05 4.05 0 0 0 .28-5.66 3.95 3.95 0 0 0-5.6-.3 4.05 4.05 0 0 0-.3 5.67 3.94 3.94 0 0 0 5.61.3m27.9-24.48a4.7 4.7 0 0 0 .36-6.56 4.6 4.6 0 0 0-6.5-.37 4.7 4.7 0 0 0-.36 6.56 4.6 4.6 0 0 0 6.5.37m27.73-24.55a5.16 5.16 0 0 0 .36-7.22 5.03 5.03 0 0 0-7.14-.37 5.13 5.13 0 0 0-.37 7.22 5 5 0 0 0 7.15.37M294 211.24a5.5 5.5 0 0 0 .4-7.76 5.37 5.37 0 0 0-7.67-.4 5.55 5.55 0 0 0-.4 7.75 5.37 5.37 0 0 0 7.67.41m27.65-24.71a5.83 5.83 0 0 0 .44-8.17 5.67 5.67 0 0 0-8.08-.46 5.83 5.83 0 0 0-.44 8.17 5.7 5.7 0 0 0 8.08.46m27.52-24.84a5.9 5.9 0 0 0 .45-8.3 5.75 5.75 0 0 0-8.2-.44 5.9 5.9 0 0 0-.45 8.29 5.75 5.75 0 0 0 8.2.45m27.37-25a5.83 5.83 0 0 0 .45-8.17 5.7 5.7 0 0 0-8.08-.45 5.87 5.87 0 0 0-.45 8.17 5.7 5.7 0 0 0 8.08.45m27.33-25.09a5.6 5.6 0 0 0 .4-7.88 5.44 5.44 0 0 0-7.8-.4 5.6 5.6 0 0 0-.4 7.87 5.44 5.44 0 0 0 7.8.41m27.16-25.24a5.16 5.16 0 0 0 .36-7.23 5.03 5.03 0 0 0-7.14-.37 5.16 5.16 0 0 0-.37 7.23 5 5 0 0 0 7.15.37m27.12-25.3a4.7 4.7 0 0 0 .37-6.56 4.6 4.6 0 0 0-6.5-.37 4.7 4.7 0 0 0-.36 6.57 4.6 4.6 0 0 0 6.5.37m27.07-25.33a4.16 4.16 0 0 0 .33-5.8 4.06 4.06 0 0 0-5.73-.32 4.17 4.17 0 0 0-.32 5.79 4.06 4.06 0 0 0 5.72.33m27-25.42a3.5 3.5 0 0 0 .25-4.88 3.37 3.37 0 0 0-4.8-.25 3.5 3.5 0 0 0-.24 4.89 3.4 3.4 0 0 0 4.83.24zm27.04-25.4a2.8 2.8 0 0 0 .2-3.95 2.74 2.74 0 0 0-3.9-.2 2.8 2.8 0 0 0-.2 3.94 2.74 2.74 0 0 0 3.9.2m26.96-25.45c.86-.74.9-2.05.17-2.87a2 2 0 0 0-2.85-.17 2.04 2.04 0 0 0 2.72 3.04zm27.09-25.37c.6-.53.64-1.48.12-2.1a1.46 1.46 0 0 0-2.07-.12c-.61.54-.65 1.48-.13 2.1s1.47.65 2.08.12m27.08-25.33c.36-.33.4-.94.08-1.31s-.94-.41-1.3-.09-.4.95-.08 1.32.93.4 1.3.08m27.12-25.29s.2-.45 0-.66c-.16-.2-.45-.2-.65 0-.2.17-.2.45 0 .66.16.2.45.2.65 0m27.28-25.12s.08-.2 0-.25c-.08-.08-.2-.08-.24 0-.08.08-.08.2 0 .25q.12.12.24 0M13.16 509.16v-.12s-.08-.04-.12 0c0 0-.04.08 0 .12 0 0 .08.04.12 0m27.65-24.71s.17-.37 0-.53c-.12-.17-.36-.17-.52 0-.17.16-.17.37 0 .53.12.16.36.16.52 0m27.7-24.67a.77.77 0 0 0 .03-1.07.75.75 0 0 0-1.05-.04.77.77 0 0 0-.04 1.07.75.75 0 0 0 1.05.04m27.82-24.51a1.3 1.3 0 0 0 .08-1.85 1.3 1.3 0 0 0-1.83-.08 1.3 1.3 0 0 0-.08 1.85c.49.53 1.3.57 1.83.08m27.89-24.43a1.97 1.97 0 0 0 .16-2.75 1.9 1.9 0 0 0-2.72-.16 1.97 1.97 0 0 0-.16 2.75 1.9 1.9 0 0 0 2.72.16m27.93-24.38c1.1-.99 1.18-2.71.2-3.82s-2.67-1.2-3.77-.2a2.74 2.74 0 0 0-.2 3.81 2.67 2.67 0 0 0 3.77.2m27.98-24.3c1.42-1.31 1.54-3.53.28-5s-3.49-1.57-4.95-.3a3.6 3.6 0 0 0-.24 5.01 3.53 3.53 0 0 0 4.95.3zm27.97-24.34a4.3 4.3 0 0 0 .33-6.04c-1.54-1.76-4.22-1.89-5.97-.33s-1.87 4.27-.32 6.04 4.22 1.89 5.96.33m27.94-24.39a5.1 5.1 0 0 0 .36-7.1 4.96 4.96 0 0 0-7.02-.37c-2.03 1.85-2.2 5.05-.37 7.1s5 2.26 7.03.37m27.93-24.34a5.83 5.83 0 0 0 .45-8.17 5.7 5.7 0 0 0-8.08-.45 5.87 5.87 0 0 0-.45 8.17 5.7 5.7 0 0 0 8.08.45m27.81-24.51a6.4 6.4 0 0 0 .5-8.95 6.23 6.23 0 0 0-8.86-.5 6.4 6.4 0 0 0-.49 8.96 6.23 6.23 0 0 0 8.85.49m27.78-24.6c2.76-2.5 3-6.8.52-9.6s-6.74-3.04-9.5-.53-3 6.81-.52 9.6 6.74 3.04 9.5.54m27.69-24.63a7.2 7.2 0 0 0 .52-10.14 7 7 0 0 0-10.02-.54 7.2 7.2 0 0 0-.53 10.14 7 7 0 0 0 10.03.54m27.48-24.88a7.3 7.3 0 0 0 .53-10.27 7.1 7.1 0 0 0-10.15-.53 7.3 7.3 0 0 0-.53 10.26 7.1 7.1 0 0 0 10.15.54m27.41-25a7.2 7.2 0 0 0 .53-10.14 7 7 0 0 0-10.03-.54 7.2 7.2 0 0 0-.53 10.14 7 7 0 0 0 10.03.54m27.24-25.13a6.94 6.94 0 0 0 .53-9.73c-2.51-2.83-6.82-3.08-9.62-.53s-3.05 6.9-.53 9.73a6.76 6.76 0 0 0 9.62.53m27.17-25.29a6.5 6.5 0 0 0 .48-9.07c-2.35-2.63-6.37-2.87-8.97-.5s-2.84 6.45-.49 9.08a6.3 6.3 0 0 0 8.98.5m27-25.38a5.83 5.83 0 0 0 .44-8.17 5.63 5.63 0 0 0-8.04-.45 5.83 5.83 0 0 0-.44 8.17 5.7 5.7 0 0 0 8.08.45zm27.04-25.41a5.16 5.16 0 0 0 .36-7.23 5 5 0 0 0-7.14-.37 5.13 5.13 0 0 0-.37 7.23 5.03 5.03 0 0 0 7.15.37m26.96-25.5a4.4 4.4 0 0 0 .32-6.15 4.27 4.27 0 0 0-6.09-.33 4.44 4.44 0 0 0-.32 6.2 4.27 4.27 0 0 0 6.09.33zm26.88-25.53a3.63 3.63 0 0 0 .28-5 3.53 3.53 0 0 0-4.95-.3 3.6 3.6 0 0 0-.29 5.01 3.53 3.53 0 0 0 4.96.29m26.96-25.5a2.8 2.8 0 0 0 .2-3.93 2.74 2.74 0 0 0-3.9-.21 2.8 2.8 0 0 0-.2 3.94 2.74 2.74 0 0 0 3.9.2m26.96-25.49a2.02 2.02 0 0 0-2.68-3.04c-.82.74-.9 2.06-.17 2.88a2 2 0 0 0 2.85.16m27-25.37c.56-.53.6-1.4.12-1.97a1.4 1.4 0 0 0-1.95-.12 1.43 1.43 0 0 0-.12 1.97 1.4 1.4 0 0 0 1.95.12m27.08-25.37a.9.9 0 0 0 .08-1.19c-.29-.37-.81-.37-1.18-.08a.9.9 0 0 0-.08 1.19.87.87 0 0 0 1.18.08m27.16-25.25s.16-.37 0-.53-.37-.17-.53 0c-.16.12-.16.37 0 .53.12.17.37.17.53 0m27.24-25.12v-.13h-.12s-.04.09 0 .13c0 0 .08.04.12 0M37.9 537s.08-.2 0-.25c-.08-.08-.2-.08-.24 0-.08.08-.08.2 0 .25q.12.12.24 0m27.7-24.67a.54.54 0 0 0 .03-.78.53.53 0 0 0-.77-.05.54.54 0 0 0-.04.78.52.52 0 0 0 .77.05m27.81-24.51a1.1 1.1 0 0 0 .09-1.56 1.1 1.1 0 0 0-1.55-.09 1.1 1.1 0 0 0-.08 1.56 1.1 1.1 0 0 0 1.54.09m27.9-24.43c.73-.66.77-1.76.12-2.5a1.73 1.73 0 0 0-2.48-.13 1.8 1.8 0 0 0-.12 2.5c.65.75 1.75.79 2.48.13M149.22 439a2.54 2.54 0 0 0 .2-3.53 2.47 2.47 0 0 0-3.49-.2 2.54 2.54 0 0 0-.2 3.53 2.47 2.47 0 0 0 3.5.2m28-24.3a3.4 3.4 0 0 0 .25-4.72 3.26 3.26 0 0 0-4.67-.25 3.35 3.35 0 0 0-.24 4.72 3.26 3.26 0 0 0 4.67.25m28.05-24.22a4.3 4.3 0 0 0 .33-6.04 4.2 4.2 0 0 0-5.97-.32 4.3 4.3 0 0 0-.33 6.03 4.2 4.2 0 0 0 5.97.33m27.98-24.3a5.16 5.16 0 0 0 .36-7.23 5.03 5.03 0 0 0-7.14-.37c-2.07 1.89-2.24 5.13-.37 7.23s5.08 2.3 7.15.37m28.1-24.23a6.05 6.05 0 0 0 .44-8.53 5.9 5.9 0 0 0-8.44-.46 6.05 6.05 0 0 0-.45 8.54c2.2 2.5 6 2.71 8.44.45m27.98-24.3c2.8-2.54 3.04-6.9.53-9.73s-6.82-3.08-9.63-.53-3.04 6.9-.52 9.73a6.76 6.76 0 0 0 9.62.53m27.93-24.38a7.7 7.7 0 0 0 .57-10.8 7.5 7.5 0 0 0-10.68-.58 7.7 7.7 0 0 0-.57 10.8 7.5 7.5 0 0 0 10.68.57m27.9-24.42a8.33 8.33 0 0 0 .6-11.7 8.1 8.1 0 0 0-11.57-.62c-3.37 3.08-3.65 8.3-.6 11.7s8.2 3.7 11.57.62m27.69-24.63a8.7 8.7 0 0 0 .65-12.24 8.5 8.5 0 0 0-12.1-.66 8.7 8.7 0 0 0-.65 12.24 8.5 8.5 0 0 0 12.1.66m27.52-24.88a8.8 8.8 0 0 0 .65-12.36 8.56 8.56 0 0 0-12.22-.66 8.8 8.8 0 0 0-.65 12.36 8.56 8.56 0 0 0 12.22.66m27.37-25a8.7 8.7 0 0 0 .65-12.24 8.5 8.5 0 0 0-12.1-.65 8.7 8.7 0 0 0-.65 12.23 8.5 8.5 0 0 0 12.1.66m27.2-25.21a8.33 8.33 0 0 0 .61-11.7 8.1 8.1 0 0 0-11.57-.62c-3.37 3.08-3.65 8.3-.6 11.7s8.2 3.7 11.56.62m27.09-25.33a7.8 7.8 0 0 0 .56-10.92 7.6 7.6 0 0 0-10.8-.58 7.8 7.8 0 0 0-.57 10.92 7.6 7.6 0 0 0 10.8.58M509 118.34c2.85-2.59 3.09-6.98.53-9.86s-6.9-3.12-9.74-.53-3.09 6.98-.53 9.85 6.9 3.12 9.74.54m26.92-25.58a6.13 6.13 0 0 0 .45-8.66 5.97 5.97 0 0 0-8.57-.45 6.13 6.13 0 0 0-.44 8.66 6 6 0 0 0 8.56.45m26.84-25.62a5.3 5.3 0 0 0 .4-7.35 5.14 5.14 0 0 0-7.26-.4 5.3 5.3 0 0 0-.4 7.34 5.14 5.14 0 0 0 7.26.41m26.88-25.53c1.79-1.6 1.9-4.4.33-6.2a4.3 4.3 0 0 0-6.14-.33 4.4 4.4 0 0 0-.32 6.16 4.3 4.3 0 0 0 6.13.33zm26.84-25.62a3.46 3.46 0 0 0 .24-4.84 3.4 3.4 0 0 0-4.83-.25 3.5 3.5 0 0 0-.24 4.89 3.4 3.4 0 0 0 4.83.24zm26.88-25.54c1.05-.94 1.13-2.62.2-3.69s-2.6-1.15-3.65-.2a2.66 2.66 0 0 0-.2 3.69 2.6 2.6 0 0 0 3.65.2m26.91-25.57c.74-.66.78-1.77.13-2.5s-1.75-.79-2.48-.13-.77 1.77-.12 2.5c.65.75 1.74.79 2.48.13m27-25.41c.44-.41.48-1.11.08-1.56a1.1 1.1 0 0 0-1.55-.09 1.1 1.1 0 0 0-.08 1.56 1.1 1.1 0 0 0 1.54.09m27.17-25.25a.6.6 0 0 0 .04-.9.6.6 0 0 0-.9-.04.6.6 0 0 0-.04.9c.25.24.65.29.9.04m27.12-25.29s.08-.2 0-.25c-.08-.08-.2-.08-.24 0-.09.09-.09.21 0 .25.08.08.2.08.24 0M62.58 564.8s.12-.29 0-.4c-.09-.13-.29-.13-.4 0-.13.07-.13.28 0 .4.07.13.27.13.4 0m27.85-24.5a.9.9 0 0 0 .08-1.2.87.87 0 0 0-1.18-.08.85.85 0 0 0-.04 1.2.87.87 0 0 0 1.18.07zm27.81-24.52a1.43 1.43 0 0 0 .12-1.97 1.4 1.4 0 0 0-1.94-.12 1.43 1.43 0 0 0-.13 1.97c.49.57 1.38.62 1.95.12m27.94-24.34a2.2 2.2 0 0 0 .16-3.04 2.14 2.14 0 0 0-3-.16 2.2 2.2 0 0 0-.17 3.03c.77.87 2.11.95 3 .17m28.06-24.26a3.13 3.13 0 0 0 .25-4.36 3.04 3.04 0 0 0-4.3-.24 3.13 3.13 0 0 0-.25 4.35 3.05 3.05 0 0 0 4.3.25m28.06-24.23a4.05 4.05 0 0 0 .28-5.66 3.95 3.95 0 0 0-5.6-.29 4.05 4.05 0 0 0-.29 5.67 3.94 3.94 0 0 0 5.6.28m28.15-24.13a5.1 5.1 0 0 0 .36-7.1 4.96 4.96 0 0 0-7.02-.38 5.1 5.1 0 0 0-.37 7.1 4.96 4.96 0 0 0 7.03.38m28.13-24.18a6.05 6.05 0 0 0 .45-8.54 5.9 5.9 0 0 0-8.45-.46 6.05 6.05 0 0 0-.44 8.54 5.9 5.9 0 0 0 8.44.46m28.18-24.1a7.2 7.2 0 0 0 .53-10.14 7 7 0 0 0-10.03-.54 7.2 7.2 0 0 0-.53 10.14 7 7 0 0 0 10.03.54m28.06-24.22c3.28-3 3.57-8.13.6-11.46s-8.04-3.61-11.32-.61-3.58 8.12-.61 11.45 8.04 3.61 11.33.62m28.05-24.23a9.14 9.14 0 0 0 .7-12.76 8.9 8.9 0 0 0-12.64-.7 9.14 9.14 0 0 0-.69 12.77 8.9 8.9 0 0 0 12.63.7m27.94-24.4a9.83 9.83 0 0 0 .73-13.78 9.57 9.57 0 0 0-13.65-.74 9.83 9.83 0 0 0-.73 13.79 9.57 9.57 0 0 0 13.65.74m27.85-24.51a10.4 10.4 0 0 0 .77-14.57c-3.78-4.23-10.23-4.6-14.41-.78s-4.55 10.34-.78 14.57 10.24 4.6 14.42.78m27.57-24.8a10.6 10.6 0 0 0 .77-14.86 10.33 10.33 0 0 0-14.7-.78 10.6 10.6 0 0 0-.77 14.86 10.33 10.33 0 0 0 14.7.78m27.32-25.04c4.18-3.82 4.55-10.34.77-14.57s-10.23-4.6-14.41-.78-4.55 10.34-.77 14.57a10.13 10.13 0 0 0 14.41.78m27.12-25.29a9.9 9.9 0 0 0 .74-13.91 9.65 9.65 0 0 0-13.77-.74 9.9 9.9 0 0 0-.73 13.91 9.65 9.65 0 0 0 13.76.74m26.96-25.45c3.7-3.37 4.02-9.16.7-12.9s-9.06-4.06-12.76-.69-4.01 9.15-.69 12.9 9.06 4.06 12.75.69M534.45 147a8.25 8.25 0 0 0 .61-11.58c-3-3.36-8.12-3.65-11.45-.61s-3.61 8.21-.6 11.58 8.11 3.65 11.44.61m26.76-25.7a7.2 7.2 0 0 0 .53-10.14 7 7 0 0 0-10.03-.53 7.2 7.2 0 0 0-.53 10.14 7 7 0 0 0 10.03.53M588 95.6a6.13 6.13 0 0 0 .44-8.66 6 6 0 0 0-8.57-.45 6.13 6.13 0 0 0-.44 8.66 5.97 5.97 0 0 0 8.57.45m26.75-25.7a5.16 5.16 0 0 0 .37-7.22 5.03 5.03 0 0 0-7.15-.37 5.16 5.16 0 0 0-.36 7.22 5.03 5.03 0 0 0 7.14.37m26.8-25.65a4.17 4.17 0 0 0 .32-5.8 4.06 4.06 0 0 0-5.72-.32 4.17 4.17 0 0 0-.33 5.79 4.06 4.06 0 0 0 5.73.33m26.8-25.62a3.2 3.2 0 0 0 .24-4.48c-1.14-1.31-3.13-1.4-4.42-.24s-1.39 3.16-.25 4.47 3.13 1.4 4.43.25M695.2-7c.89-.82.97-2.22.16-3.16a2.2 2.2 0 0 0-3.13-.16c-.9.82-.97 2.21-.16 3.16a2.2 2.2 0 0 0 3.13.16m26.95-25.5c.61-.53.65-1.47.13-2.09s-1.47-.65-2.08-.12-.64 1.48-.12 2.1c.53.6 1.46.65 2.07.12M749.2-57.9a.9.9 0 0 0 .08-1.2.87.87 0 0 0-1.18-.08c-.37.29-.37.82-.08 1.2a.87.87 0 0 0 1.18.07m27.12-25.24s.16-.37 0-.54c-.13-.16-.37-.16-.53 0q-.24.27 0 .54c.12.16.37.16.53 0m27.28-25.17s.04-.08 0-.12h-.12c-.04 0-.04.08 0 .12 0 0 .08.04.12 0M59.65 617.34s.04-.08 0-.12c0 0-.08-.04-.12 0s0 .08 0 .12zm27.73-24.63s.2-.45 0-.66c-.16-.2-.44-.2-.65 0-.2.16-.2.45 0 .66.2.2.45.2.65 0m27.82-24.51a1.04 1.04 0 0 0 .08-1.44 1 1 0 0 0-1.42-.08 1.04 1.04 0 0 0-.08 1.44c.36.4 1.01.45 1.42.08m27.93-24.39c.73-.65.77-1.76.12-2.5s-1.74-.78-2.47-.12-.78 1.76-.13 2.5 1.75.78 2.48.12m28.02-24.3a2.66 2.66 0 0 0 .2-3.7 2.6 2.6 0 0 0-3.66-.2c-1.05.94-1.13 2.63-.2 3.7s2.6 1.14 3.66.2m28.05-24.22a3.63 3.63 0 0 0 .29-5.01 3.53 3.53 0 0 0-4.96-.29 3.63 3.63 0 0 0-.28 5.01 3.53 3.53 0 0 0 4.95.29m28.18-24.1a4.7 4.7 0 0 0 .37-6.57 4.6 4.6 0 0 0-6.5-.37 4.7 4.7 0 0 0-.37 6.57 4.6 4.6 0 0 0 6.5.37m28.18-24.1a5.87 5.87 0 0 0 .44-8.17 5.7 5.7 0 0 0-8.08-.45 5.83 5.83 0 0 0-.44 8.17 5.7 5.7 0 0 0 8.08.45m28.18-24.1a6.94 6.94 0 0 0 .52-9.73c-2.51-2.83-6.82-3.07-9.62-.53s-3.04 6.9-.53 9.73a6.76 6.76 0 0 0 9.63.53m28.25-24.01c3.3-3 3.58-8.13.61-11.46-2.96-3.32-8.04-3.6-11.33-.61s-3.57 8.13-.6 11.45 8.04 3.61 11.32.62m28.26-24.02c3.78-3.45 4.1-9.32.7-13.14s-9.22-4.14-13-.7c-3.78 3.45-4.1 9.33-.69 13.14s9.22 4.15 13 .7m28.17-24.1a10.53 10.53 0 0 0 .77-14.74 10.25 10.25 0 0 0-14.57-.78 10.53 10.53 0 0 0-.78 14.74 10.25 10.25 0 0 0 14.58.78m28.06-24.22c4.63-4.19 5-11.37.85-16.05s-11.25-5.05-15.88-.86-4.99 11.37-.85 16.05a11.15 11.15 0 0 0 15.88.86m27.89-24.47c4.87-4.43 5.28-12.03.9-16.95s-11.9-5.34-16.78-.9a12.1 12.1 0 0 0-.89 16.95 11.8 11.8 0 0 0 16.77.9m27.65-24.71c5-4.52 5.4-12.32.93-17.37a12.1 12.1 0 0 0-17.17-.94c-5 4.52-5.4 12.32-.94 17.37s12.19 5.46 17.18.94m27.33-25.04a12.2 12.2 0 0 0 .89-17.08c-4.43-4.97-11.98-5.38-16.9-.9s-5.31 12.1-.89 17.07a11.86 11.86 0 0 0 16.9.9m27-25.4c4.66-4.23 5.03-11.46.85-16.18s-11.33-5.1-16-.86a11.53 11.53 0 0 0-.85 16.17 11.23 11.23 0 0 0 16 .87m26.83-25.62a10.6 10.6 0 0 0 .77-14.86 10.33 10.33 0 0 0-14.7-.78c-4.26 3.9-4.62 10.55-.76 14.86s10.43 4.68 14.7.78m26.7-25.74a9.44 9.44 0 0 0 .7-13.26 9.2 9.2 0 0 0-13.11-.7c-3.82 3.49-4.15 9.4-.7 13.26s9.3 4.19 13.12.7m26.63-25.87c3.33-3.04 3.62-8.2.61-11.57s-8.12-3.66-11.45-.62-3.61 8.21-.6 11.58 8.11 3.65 11.44.61m26.68-25.82c2.84-2.58 3.09-6.98.53-9.85s-6.9-3.12-9.75-.54-3.08 6.98-.52 9.86 6.9 3.12 9.74.53m26.67-25.74a5.9 5.9 0 0 0 .45-8.3 5.75 5.75 0 0 0-8.2-.44 5.9 5.9 0 0 0-.45 8.29 5.75 5.75 0 0 0 8.2.45m26.68-25.82a4.7 4.7 0 0 0 .37-6.57 4.6 4.6 0 0 0-6.5-.37 4.7 4.7 0 0 0-.37 6.57 4.6 4.6 0 0 0 6.5.37m26.76-25.7a3.7 3.7 0 0 0 .28-5.13 3.6 3.6 0 0 0-5.07-.3 3.7 3.7 0 0 0-.29 5.14 3.6 3.6 0 0 0 5.08.29m26.83-25.62a2.74 2.74 0 0 0 .2-3.82c-.97-1.1-2.67-1.19-3.77-.2s-1.18 2.7-.2 3.82 2.68 1.19 3.78.2M747-4.54c.73-.65.77-1.76.12-2.5a1.73 1.73 0 0 0-2.47-.12c-.73.65-.77 1.76-.12 2.5s1.74.78 2.47.12m27-25.4c.45-.42.49-1.12.08-1.57a1.1 1.1 0 0 0-1.54-.08 1.1 1.1 0 0 0-.08 1.56 1.1 1.1 0 0 0 1.54.08m27.04-25.41s.2-.45 0-.66c-.16-.2-.44-.2-.65 0-.2.17-.2.46 0 .66.17.2.45.2.65 0m27.2-25.17s.05-.08 0-.12c0 0-.07-.04-.12 0q-.06.06 0 .12zM84.39 645.17s.08-.2 0-.24q-.12-.12-.24 0c-.09.08-.09.2 0 .24.08.09.2.09.24 0m27.77-24.59a.6.6 0 0 0 .04-.9c-.24-.25-.65-.29-.9-.04a.6.6 0 0 0-.03.9.6.6 0 0 0 .9.04m27.8-24.5a1.24 1.24 0 0 0 .08-1.73 1.2 1.2 0 0 0-1.7-.08 1.24 1.24 0 0 0-.08 1.72 1.2 1.2 0 0 0 1.7.08m27.98-24.3c.81-.74.9-2.05.16-2.87-.73-.87-2.03-.9-2.84-.17s-.9 2.05-.16 2.88c.73.86 2.03.9 2.84.16m28.01-24.3a2.9 2.9 0 0 0 .2-4.07c-1.05-1.19-2.83-1.27-4.01-.2s-1.26 2.87-.2 4.06a2.8 2.8 0 0 0 4.01.2m28.18-24.1a4.05 4.05 0 0 0 .29-5.66 3.94 3.94 0 0 0-5.6-.28 4.05 4.05 0 0 0-.3 5.66 3.95 3.95 0 0 0 5.61.29m28.22-24.06a5.1 5.1 0 0 0 .37-7.22 5 5 0 0 0-7.15-.37 5.16 5.16 0 0 0-.37 7.22 5.03 5.03 0 0 0 7.15.37m28.22-24.06a6.4 6.4 0 0 0 .48-8.94 6.23 6.23 0 0 0-8.85-.5 6.4 6.4 0 0 0-.48 8.95 6.23 6.23 0 0 0 8.85.5m28.34-23.94a7.7 7.7 0 0 0 .57-10.8 7.5 7.5 0 0 0-10.68-.57 7.7 7.7 0 0 0-.57 10.8 7.5 7.5 0 0 0 10.68.57m28.34-23.9a9.14 9.14 0 0 0 .69-12.76 8.9 8.9 0 0 0-12.63-.7 9.14 9.14 0 0 0-.69 12.77 8.9 8.9 0 0 0 12.63.7m28.38-23.9a10.53 10.53 0 0 0 .77-14.73 10.25 10.25 0 0 0-14.58-.78 10.53 10.53 0 0 0-.77 14.73 10.25 10.25 0 0 0 14.58.78M394 379.64c4.8-4.35 5.2-11.82.9-16.7a11.64 11.64 0 0 0-16.53-.91 11.95 11.95 0 0 0-.9 16.7 11.64 11.64 0 0 0 16.53.91m28.26-24.01c5.28-4.8 5.72-13.06.97-18.4s-12.9-5.79-18.19-.98-5.72 13.05-.97 18.39a12.8 12.8 0 0 0 18.19.99m27.97-24.3a14 14 0 0 0 1.06-19.6 13.63 13.63 0 0 0-19.37-1.06 14 14 0 0 0-1.05 19.58 13.63 13.63 0 0 0 19.36 1.07m27.65-24.71c5.77-5.22 6.21-14.17 1.06-20s-14-6.28-19.77-1.06-6.22 14.16-1.06 19.99a13.9 13.9 0 0 0 19.77 1.07m27.29-25.13a14 14 0 0 0 1.05-19.58 13.63 13.63 0 0 0-19.36-1.07 14 14 0 0 0-1.06 19.59 13.63 13.63 0 0 0 19.37 1.06m26.88-25.53a13.14 13.14 0 0 0 .97-18.4c-4.75-5.33-12.91-5.78-18.19-.98s-5.72 13.06-.97 18.4 12.9 5.78 18.19.98m26.71-25.78c4.83-4.4 5.24-11.95.9-16.84s-11.82-5.3-16.65-.9a12.03 12.03 0 0 0-.9 16.83 11.7 11.7 0 0 0 16.65.9m26.51-25.94c4.27-3.9 4.63-10.55.78-14.86s-10.44-4.68-14.7-.78-4.63 10.55-.77 14.86a10.33 10.33 0 0 0 14.7.78m26.5-25.99a9.2 9.2 0 0 0 .7-12.89 8.97 8.97 0 0 0-12.75-.7 9.2 9.2 0 0 0-.7 12.9 8.97 8.97 0 0 0 12.76.7m26.55-25.95a7.8 7.8 0 0 0 .57-10.92 7.6 7.6 0 0 0-10.8-.58 7.8 7.8 0 0 0-.57 10.92 7.6 7.6 0 0 0 10.8.58m26.6-25.9a6.5 6.5 0 0 0 .48-9.08 6.3 6.3 0 0 0-8.97-.5 6.5 6.5 0 0 0-.49 9.08 6.3 6.3 0 0 0 8.98.5m26.63-25.83a5.24 5.24 0 0 0 .4-7.35 5.14 5.14 0 0 0-7.26-.4 5.3 5.3 0 0 0-.4 7.34 5.14 5.14 0 0 0 7.26.41m26.72-25.74a4.16 4.16 0 0 0 .32-5.79 4.06 4.06 0 0 0-5.72-.33 4.17 4.17 0 0 0-.33 5.8 4.06 4.06 0 0 0 5.73.32M745 49.04a3 3 0 0 0 .25-4.19 2.97 2.97 0 0 0-4.18-.25 2.97 2.97 0 0 0-.2 4.2 2.93 2.93 0 0 0 4.13.24m26.84-25.62c.85-.74.9-2.05.16-2.87a2.03 2.03 0 0 0-2.88-.17c-.81.74-.9 2.06-.16 2.88.73.86 2.03.9 2.84.16zM798.8-2.03a1.3 1.3 0 0 0 .08-1.85 1.3 1.3 0 0 0-1.82-.08 1.3 1.3 0 0 0-.09 1.85 1.3 1.3 0 0 0 1.83.08m27-25.41c.25-.25.29-.66.04-.9-.24-.25-.65-.3-.9-.05-.23.25-.28.66-.03.9a.6.6 0 0 0 .9.05m27.11-25.3s.08-.2 0-.24c-.08-.08-.2-.08-.24 0-.08.08-.08.2 0 .25.08.08.2.08.24 0M109.11 673s.12-.29 0-.41c-.09-.13-.29-.13-.41 0a.3.3 0 0 0 0 .4c.08.13.28.13.4 0m27.74-24.58a.77.77 0 0 0 .04-1.07.75.75 0 0 0-1.06-.04.77.77 0 0 0-.04 1.07.75.75 0 0 0 1.06.04m27.9-24.43a1.43 1.43 0 0 0 .11-1.97 1.4 1.4 0 0 0-1.95-.12 1.43 1.43 0 0 0-.12 1.97 1.4 1.4 0 0 0 1.95.12m27.94-24.38a2.2 2.2 0 0 0 .16-3.04c-.77-.87-2.11-.95-3-.17s-.94 2.14-.17 3.04c.77.86 2.11.95 3 .17m28.14-24.19c1.3-1.14 1.38-3.16.25-4.47s-3.13-1.4-4.43-.25-1.38 3.16-.24 4.48a3.1 3.1 0 0 0 4.42.24m28.18-24.05a4.3 4.3 0 0 0 .33-6.04 4.2 4.2 0 0 0-5.97-.33 4.3 4.3 0 0 0-.33 6.04 4.2 4.2 0 0 0 5.97.33m28.26-24.06a5.55 5.55 0 0 0 .4-7.76 5.37 5.37 0 0 0-7.67-.41 5.5 5.5 0 0 0-.4 7.76 5.37 5.37 0 0 0 7.67.41m28.3-23.93c2.76-2.5 3-6.82.53-9.61s-6.74-3.04-9.5-.53-3 6.81-.5 9.6a6.7 6.7 0 0 0 9.5.54zm28.42-23.81a8.33 8.33 0 0 0 .6-11.7 8.1 8.1 0 0 0-11.56-.62c-3.37 3.04-3.66 8.3-.61 11.7s8.2 3.7 11.57.62m28.46-23.82a9.83 9.83 0 0 0 .73-13.79 9.57 9.57 0 0 0-13.64-.74 9.83 9.83 0 0 0-.73 13.8 9.57 9.57 0 0 0 13.64.73m28.46-23.77c4.63-4.18 5-11.37.86-16.05s-11.25-5.05-15.88-.86-5 11.37-.85 16.05a11.15 11.15 0 0 0 15.87.86m28.59-23.68a13.14 13.14 0 0 0 .97-18.4c-4.75-5.33-12.91-5.78-18.19-.98s-5.72 13.05-.97 18.4 12.9 5.78 18.19.98m28.42-23.81c5.89-5.38 6.37-14.54 1.1-20.53s-14.38-6.45-20.3-1.11a14.7 14.7 0 0 0-1.1 20.53 14.3 14.3 0 0 0 20.3 1.1m28.26-24.01a15.9 15.9 0 0 0 1.18-22.21 15.4 15.4 0 0 0-21.97-1.2 15.84 15.84 0 0 0-1.18 22.22 15.43 15.43 0 0 0 21.97 1.19m27.77-24.6c6.58-5.99 7.14-16.2 1.22-22.86s-16.04-7.18-22.62-1.23c-6.58 6-7.14 16.22-1.22 22.87s16.04 7.22 22.62 1.23m27.2-25.2a15.95 15.95 0 0 0 1.18-22.34 15.5 15.5 0 0 0-22.09-1.2 15.9 15.9 0 0 0-1.18 22.34 15.54 15.54 0 0 0 22.1 1.2m26.63-25.83a14.77 14.77 0 0 0 1.1-20.65 14.4 14.4 0 0 0-20.43-1.1 14.76 14.76 0 0 0-1.1 20.64c5.32 6 14.5 6.49 20.43 1.1m26.47-26.02a13.26 13.26 0 0 0 .97-18.55 12.9 12.9 0 0 0-18.35-.99 13.26 13.26 0 0 0-.97 18.56 12.9 12.9 0 0 0 18.35.98m26.4-26.1a11.6 11.6 0 0 0 .84-16.3 11.3 11.3 0 0 0-16.12-.87 11.6 11.6 0 0 0-.85 16.3 11.3 11.3 0 0 0 16.12.86m26.35-26.15a9.9 9.9 0 0 0 .73-13.92 9.65 9.65 0 0 0-13.76-.74 9.9 9.9 0 0 0-.73 13.92 9.65 9.65 0 0 0 13.76.74m26.47-26.03a8.44 8.44 0 0 0 .65-11.82 8.2 8.2 0 0 0-11.69-.62 8.4 8.4 0 0 0-.6 11.83 8.2 8.2 0 0 0 11.68.61zm26.44-26.03c2.8-2.54 3.04-6.9.52-9.73s-6.82-3.07-9.62-.53-3.04 6.9-.53 9.73 6.82 3.08 9.63.54m26.59-25.91a5.6 5.6 0 0 0 .4-7.88 5.44 5.44 0 0 0-7.79-.41 5.6 5.6 0 0 0-.4 7.88 5.44 5.44 0 0 0 7.79.41m26.63-25.82c1.8-1.6 1.91-4.4.33-6.2a4.27 4.27 0 0 0-6.1-.33 4.4 4.4 0 0 0-.31 6.16 4.27 4.27 0 0 0 6.09.33zM769.83 77c1.34-1.2 1.42-3.25.24-4.6s-3.2-1.44-4.54-.25c-1.34 1.2-1.42 3.24-.25 4.6s3.21 1.44 4.55.25m26.8-25.66c.9-.82.97-2.22.16-3.16a2.2 2.2 0 0 0-3.13-.17 2.3 2.3 0 0 0-.16 3.16 2.2 2.2 0 0 0 3.13.17m26.88-25.58a1.43 1.43 0 0 0 .12-1.97 1.4 1.4 0 0 0-1.95-.12 1.43 1.43 0 0 0-.12 1.97 1.4 1.4 0 0 0 1.95.12M850.54.4c.32-.29.32-.74.04-1.07a.75.75 0 0 0-1.06-.04.8.8 0 0 0-.04 1.07.75.75 0 0 0 1.06.04m27.12-25.29s.12-.29 0-.4q-.2-.2-.4 0c-.2.2-.13.28 0 .4q.2.18.4 0m-743.9 725.66s.11-.29 0-.41c-.09-.12-.3-.12-.41 0-.13.08-.13.29 0 .41.08.12.28.12.4 0m27.73-24.6a.77.77 0 0 0 .04-1.06.75.75 0 0 0-1.05-.04.77.77 0 0 0-.04 1.07.75.75 0 0 0 1.05.04m27.98-24.39c.6-.53.65-1.47.12-2.09s-1.46-.66-2.07-.12a1.5 1.5 0 0 0-.12 2.09c.53.62 1.46.66 2.07.12m27.97-24.3a2.35 2.35 0 0 0 .16-3.28 2.3 2.3 0 0 0-3.24-.17 2.35 2.35 0 0 0-.17 3.29 2.3 2.3 0 0 0 3.25.16m28.14-24.14a3.35 3.35 0 0 0 .24-4.72 3.26 3.26 0 0 0-4.67-.25 3.4 3.4 0 0 0-.24 4.72 3.26 3.26 0 0 0 4.67.25m28.18-24.1c1.82-1.64 1.95-4.47.32-6.32s-4.42-1.97-6.25-.33-1.95 4.48-.33 6.32 4.43 1.97 6.26.33m28.34-23.97a5.83 5.83 0 0 0 .44-8.17 5.67 5.67 0 0 0-8.08-.45 5.87 5.87 0 0 0-.44 8.17 5.7 5.7 0 0 0 8.08.45m28.34-23.86a7.2 7.2 0 0 0 .53-10.14 7 7 0 0 0-10.03-.53 7.2 7.2 0 0 0-.53 10.14 7 7 0 0 0 10.03.53m28.46-23.85a8.7 8.7 0 0 0 .65-12.23 8.5 8.5 0 0 0-12.1-.66 8.7 8.7 0 0 0-.65 12.24 8.5 8.5 0 0 0 12.1.65m28.54-23.64a10.4 10.4 0 0 0 .77-14.58c-3.77-4.23-10.23-4.6-14.41-.78s-4.55 10.35-.77 14.58 10.23 4.6 14.41.78m28.55-23.7a12.1 12.1 0 0 0 .89-16.95 11.8 11.8 0 0 0-16.77-.9c-4.87 4.43-5.28 12.03-.9 16.96s11.9 5.33 16.78.9m28.7-23.53a14 14 0 0 0 1.06-19.58 13.63 13.63 0 0 0-19.37-1.07 14 14 0 0 0-1.06 19.59 13.63 13.63 0 0 0 19.37 1.07m28.67-23.57a15.84 15.84 0 0 0 1.17-22.2 15.43 15.43 0 0 0-21.96-1.2c-6.38 5.79-6.9 15.77-1.18 22.21s15.6 6.98 21.97 1.2m28.54-23.7a17.54 17.54 0 0 0 1.3-24.59 17.1 17.1 0 0 0-24.32-1.31 17.54 17.54 0 0 0-1.3 24.59 17.1 17.1 0 0 0 24.32 1.31m28.06-24.22a18.47 18.47 0 0 0 1.38-25.9 18 18 0 0 0-25.62-1.4 18.47 18.47 0 0 0-1.38 25.9 18 18 0 0 0 25.62 1.4m26.91-25.53a17.6 17.6 0 0 0 1.3-24.72 17.16 17.16 0 0 0-24.44-1.31 17.6 17.6 0 0 0-1.3 24.71 17.15 17.15 0 0 0 24.44 1.32m26.36-26.2a15.95 15.95 0 0 0 1.17-22.33 15.54 15.54 0 0 0-22.08-1.19 15.95 15.95 0 0 0-1.18 22.33 15.54 15.54 0 0 0 22.09 1.2m26.18-26.32c5.69-5.13 6.13-14 1.06-19.7a13.7 13.7 0 0 0-19.49-1.07 14.07 14.07 0 0 0-1.06 19.7 13.7 13.7 0 0 0 19.5 1.07m26.3-26.23a12.34 12.34 0 0 0 .94-17.25c-4.43-5.05-12.06-5.42-17.02-.94s-5.36 12.2-.93 17.2 12.06 5.42 17.05.95zm26.27-26.24a10.53 10.53 0 0 0 .77-14.73 10.25 10.25 0 0 0-14.57-.78 10.53 10.53 0 0 0-.77 14.73 10.25 10.25 0 0 0 14.57.78m26.35-26.15a8.8 8.8 0 0 0 .65-12.35 8.56 8.56 0 0 0-12.22-.66 8.8 8.8 0 0 0-.65 12.35 8.56 8.56 0 0 0 12.22.66m26.47-26.07a7.3 7.3 0 0 0 .53-10.26 7.1 7.1 0 0 0-10.15-.53 7.3 7.3 0 0 0-.52 10.26 7.1 7.1 0 0 0 10.15.53m26.5-25.94a5.9 5.9 0 0 0 .46-8.3 5.75 5.75 0 0 0-8.2-.45 5.9 5.9 0 0 0-.45 8.3 5.75 5.75 0 0 0 8.2.45m26.6-25.9a4.6 4.6 0 0 0 .32-6.45c-1.67-1.9-4.5-2.01-6.38-.33s-1.99 4.56-.32 6.44a4.47 4.47 0 0 0 6.37.33m26.72-25.74a3.5 3.5 0 0 0 .24-4.88 3.37 3.37 0 0 0-4.79-.25 3.5 3.5 0 0 0-.24 4.89 3.37 3.37 0 0 0 4.79.24m26.75-25.7a2.4 2.4 0 0 0 .17-3.4 2.36 2.36 0 0 0-3.37-.17 2.4 2.4 0 0 0-.16 3.4c.89 1 2.4 1.08 3.37.17m26.83-25.61c.61-.54.65-1.48.12-2.1s-1.46-.66-2.07-.12a1.5 1.5 0 0 0-.12 2.1c.53.6 1.46.65 2.07.11m27-25.4a.9.9 0 0 0 .08-1.2.87.87 0 0 0-1.17-.08.9.9 0 0 0-.08 1.2.87.87 0 0 0 1.17.07M902.3 2.85s.13-.28 0-.4-.28-.13-.4 0c-.12.07-.12.28 0 .4q.2.2.4 0M158.4 728.51s.12-.29 0-.4-.29-.13-.4 0-.13.28 0 .4c.07.12.28.12.4 0m27.8-24.5a.9.9 0 0 0 .1-1.2.87.87 0 0 0-1.19-.08.9.9 0 0 0-.08 1.2.87.87 0 0 0 1.18.07m27.9-24.46c.6-.54.64-1.48.11-2.1a1.46 1.46 0 0 0-2.07-.12 1.5 1.5 0 0 0-.12 2.1c.53.6 1.46.65 2.07.12m28.06-24.23a2.43 2.43 0 0 0 .16-3.4 2.36 2.36 0 0 0-3.37-.17 2.43 2.43 0 0 0-.16 3.41 2.36 2.36 0 0 0 3.37.16m28.05-24.22a3.35 3.35 0 0 0 .25-4.72 3.26 3.26 0 0 0-4.67-.25 3.35 3.35 0 0 0-.25 4.73 3.27 3.27 0 0 0 4.67.24m28.26-24.01a4.6 4.6 0 0 0 .33-6.45c-1.67-1.89-4.5-2.01-6.38-.33s-1.99 4.56-.32 6.45 4.5 2.01 6.37.33m28.3-23.98a5.94 5.94 0 0 0 .45-8.3 5.75 5.75 0 0 0-8.2-.44 5.9 5.9 0 0 0-.45 8.29 5.75 5.75 0 0 0 8.2.45m28.38-23.9a7.3 7.3 0 0 0 .53-10.26 7.1 7.1 0 0 0-10.15-.53 7.3 7.3 0 0 0-.53 10.26 7.1 7.1 0 0 0 10.15.54m28.43-23.81a8.8 8.8 0 0 0 .65-12.36 8.56 8.56 0 0 0-12.23-.66 8.8 8.8 0 0 0-.65 12.36 8.56 8.56 0 0 0 12.22.66m28.63-23.6a10.6 10.6 0 0 0 .77-14.87c-3.86-4.31-10.43-4.68-14.7-.78s-4.63 10.55-.77 14.86a10.33 10.33 0 0 0 14.7.78m28.62-23.6c5-4.52 5.4-12.32.94-17.37s-12.18-5.46-17.18-.94-5.4 12.31-.93 17.36 12.18 5.46 17.17.95m28.67-23.53a14.26 14.26 0 0 0 1.05-19.99 13.9 13.9 0 0 0-19.77-1.07 14.27 14.27 0 0 0-1.05 20 13.9 13.9 0 0 0 19.77 1.06m28.83-23.4c6.57-6 7.14-16.21 1.21-22.86s-16.03-7.19-22.61-1.24a16.3 16.3 0 0 0-1.22 22.87 15.9 15.9 0 0 0 22.62 1.23m28.86-23.36a18.47 18.47 0 0 0 1.38-25.9 18 18 0 0 0-25.61-1.4 18.47 18.47 0 0 0-1.39 25.9 18 18 0 0 0 25.62 1.4"/><path d="M555.6 394.1c8.04-7.32 8.73-19.88 1.5-28s-19.64-8.83-27.68-1.53-8.73 19.87-1.5 28 19.65 8.83 27.69 1.52"/><path d="M582.12 368.15a18.54 18.54 0 0 0 1.38-26.03c-6.74-7.6-18.27-8.21-25.74-1.4s-8.12 18.48-1.38 26.03a18.06 18.06 0 0 0 25.74 1.4m26.1-26.44a16.5 16.5 0 0 0 1.22-23.16 16.07 16.07 0 0 0-22.9-1.23 16.5 16.5 0 0 0-1.21 23.16 16.07 16.07 0 0 0 22.9 1.23m26.1-26.48c5.8-5.3 6.3-14.37 1.06-20.24a14.04 14.04 0 0 0-20.02-1.07 14.45 14.45 0 0 0-1.05 20.24 14.04 14.04 0 0 0 20.01 1.07m26.15-26.36a12.5 12.5 0 0 0 .93-17.49 12.16 12.16 0 0 0-17.3-.94 12.5 12.5 0 0 0-.93 17.49 12.16 12.16 0 0 0 17.3.94m26.27-26.23c4.3-3.9 4.67-10.63.81-14.98-3.86-4.36-10.51-4.73-14.82-.83s-4.67 10.64-.81 14.99 10.52 4.72 14.82.82m26.35-26.2c3.61-3.28 3.94-8.94.69-12.6s-8.85-3.98-12.46-.65a9 9 0 0 0-.65 12.6 8.8 8.8 0 0 0 12.46.7zm26.4-26.1a7.4 7.4 0 0 0 .56-10.39 7.2 7.2 0 0 0-10.27-.57 7.4 7.4 0 0 0-.57 10.38 7.2 7.2 0 0 0 10.27.58m26.55-25.95a6 6 0 0 0 .45-8.41 5.8 5.8 0 0 0-8.32-.46 6 6 0 0 0-.45 8.42 5.8 5.8 0 0 0 8.32.45m26.56-25.9a4.7 4.7 0 0 0 .36-6.57 4.6 4.6 0 0 0-6.5-.37 4.7 4.7 0 0 0-.36 6.57 4.6 4.6 0 0 0 6.5.37m26.67-25.83c1.39-1.27 1.5-3.44.25-4.84s-3.41-1.52-4.8-.25-1.5 3.45-.24 4.85 3.41 1.52 4.8.24m26.75-25.7a2.43 2.43 0 0 0 .16-3.4 2.36 2.36 0 0 0-3.37-.17 2.43 2.43 0 0 0-.16 3.41 2.36 2.36 0 0 0 3.37.17m26.88-25.54c.65-.57.69-1.6.12-2.22a1.54 1.54 0 0 0-2.2-.12c-.64.57-.68 1.6-.11 2.22.56.65 1.58.7 2.19.12m26.96-25.5a.9.9 0 0 0 .08-1.18.87.87 0 0 0-1.18-.09.9.9 0 0 0-.08 1.2.87.87 0 0 0 1.18.07m27.16-25.24s.16-.37 0-.54c-.12-.16-.36-.16-.53 0-.16.13-.16.37 0 .54.12.16.37.16.53 0M183.04 756.26s.12-.28 0-.4c-.08-.13-.28-.13-.4 0-.12.08-.12.28 0 .4.08.13.28.13.4 0m27.77-24.59a.77.77 0 0 0 .04-1.06.76.76 0 0 0-1.05-.05.77.77 0 0 0-.04 1.07.75.75 0 0 0 1.05.04m27.94-24.38c.6-.54.65-1.48.12-2.1s-1.46-.65-2.07-.12a1.5 1.5 0 0 0-.12 2.1c.52.61 1.46.65 2.07.12m28.01-24.3c.94-.87 1.02-2.35.17-3.29s-2.32-1.03-3.25-.16-1.02 2.34-.17 3.28a2.3 2.3 0 0 0 3.25.16m28.1-24.13a3.35 3.35 0 0 0 .24-4.73 3.27 3.27 0 0 0-4.67-.24 3.35 3.35 0 0 0-.24 4.72 3.26 3.26 0 0 0 4.67.25m28.18-24.1c1.82-1.65 1.95-4.48.32-6.33s-4.42-1.97-6.25-.32-1.95 4.47-.32 6.32 4.42 1.97 6.25.33m28.34-23.94a5.83 5.83 0 0 0 .44-8.17 5.67 5.67 0 0 0-8.07-.45 5.87 5.87 0 0 0-.45 8.17 5.7 5.7 0 0 0 8.08.45m28.38-23.9a7.2 7.2 0 0 0 .53-10.13 7 7 0 0 0-10.03-.53 7.2 7.2 0 0 0-.53 10.14 7 7 0 0 0 10.03.53m28.42-23.81a8.7 8.7 0 0 0 .65-12.24 8.5 8.5 0 0 0-12.1-.65 8.7 8.7 0 0 0-.65 12.23 8.5 8.5 0 0 0 12.1.66m28.54-23.69a10.4 10.4 0 0 0 .77-14.57c-3.77-4.23-10.23-4.6-14.4-.78s-4.56 10.34-.78 14.57 10.23 4.6 14.41.78m28.63-23.6a12.2 12.2 0 0 0 .9-17.08c-4.44-4.97-11.99-5.38-16.9-.9s-5.32 12.1-.9 17.07a11.86 11.86 0 0 0 16.9.9m28.62-23.6a14 14 0 0 0 1.06-19.58 13.63 13.63 0 0 0-19.37-1.07 14 14 0 0 0-1.06 19.58 13.63 13.63 0 0 0 19.37 1.07m28.75-23.48a15.95 15.95 0 0 0 1.17-22.34 15.54 15.54 0 0 0-22.08-1.19 15.96 15.96 0 0 0-1.18 22.34 15.54 15.54 0 0 0 22.09 1.19m28.54-23.7a17.6 17.6 0 0 0 1.3-24.7 17.16 17.16 0 0 0-24.44-1.32 17.6 17.6 0 0 0-1.3 24.71 17.15 17.15 0 0 0 24.44 1.32m28.06-24.22c7.47-6.82 8.12-18.48 1.38-26.03s-18.27-8.21-25.74-1.4c-7.48 6.82-8.13 18.48-1.39 26.03s18.28 8.21 25.75 1.4m26.92-25.54c7.14-6.48 7.75-17.61 1.34-24.83s-17.42-7.85-24.57-1.36-7.75 17.61-1.34 24.84a17.27 17.27 0 0 0 24.57 1.35m26.3-26.19a16.04 16.04 0 0 0 1.18-22.5 15.6 15.6 0 0 0-22.25-1.19 16.04 16.04 0 0 0-1.17 22.5 15.6 15.6 0 0 0 22.25 1.19m26.23-26.31a14.2 14.2 0 0 0 1.05-19.87c-5.12-5.8-13.93-6.25-19.65-1.07s-6.17 14.08-1.06 19.87a13.8 13.8 0 0 0 19.65 1.06M685 316.46a12.34 12.34 0 0 0 .94-17.24 11.93 11.93 0 0 0-17.02-.95 12.3 12.3 0 0 0-.93 17.2 12 12 0 0 0 17.05.95zm26.27-26.23a10.53 10.53 0 0 0 .77-14.74 10.2 10.2 0 0 0-14.57-.78 10.53 10.53 0 0 0-.77 14.74 10.25 10.25 0 0 0 14.57.78m26.35-26.15a8.8 8.8 0 0 0 .65-12.36 8.56 8.56 0 0 0-12.22-.66 8.8 8.8 0 0 0-.65 12.36 8.56 8.56 0 0 0 12.22.66m26.48-26.03a7.3 7.3 0 0 0 .52-10.27 7.1 7.1 0 0 0-10.15-.53 7.3 7.3 0 0 0-.52 10.26 7.1 7.1 0 0 0 10.15.54m26.5-25.99a5.9 5.9 0 0 0 .46-8.3 5.75 5.75 0 0 0-8.2-.44 5.9 5.9 0 0 0-.45 8.29 5.75 5.75 0 0 0 8.2.45m26.6-25.9c1.86-1.69 1.98-4.56.32-6.45s-4.5-2.01-6.38-.33a4.6 4.6 0 0 0-.32 6.45 4.47 4.47 0 0 0 6.37.33m26.72-25.74a3.5 3.5 0 0 0 .24-4.89c-1.26-1.4-3.4-1.52-4.79-.24s-1.5 3.44-.24 4.88a3.37 3.37 0 0 0 4.79.25m26.76-25.7a2.43 2.43 0 0 0 .16-3.41 2.36 2.36 0 0 0-3.37-.16 2.43 2.43 0 0 0-.16 3.4c.89.99 2.4 1.07 3.37.17m26.83-25.62c.61-.53.65-1.48.13-2.1s-1.47-.65-2.08-.12a1.5 1.5 0 0 0-.12 2.1c.53.61 1.46.65 2.07.12m27.04-25.41a.9.9 0 0 0 .09-1.2.87.87 0 0 0-1.18-.07.9.9 0 0 0-.08 1.19.87.87 0 0 0 1.17.08m27.09-25.33s.12-.29 0-.41c-.09-.13-.29-.13-.41 0-.12.08-.12.28 0 .4q.2.2.4 0M207.7 784.03s.12-.3 0-.41c-.08-.13-.29-.13-.4 0s-.13.28 0 .4c.07.13.28.13.4 0m27.77-24.59a.77.77 0 0 0 .04-1.06.75.75 0 0 0-1.06-.04.77.77 0 0 0-.04 1.06.75.75 0 0 0 1.06.04m27.9-24.42a1.43 1.43 0 0 0 .11-1.97 1.4 1.4 0 0 0-1.94-.12 1.43 1.43 0 0 0-.13 1.97 1.4 1.4 0 0 0 1.95.12m27.98-24.3c.9-.83.97-2.22.16-3.17a2.2 2.2 0 0 0-3.13-.16 2.3 2.3 0 0 0-.16 3.16 2.2 2.2 0 0 0 3.13.17m28.05-24.23a3.2 3.2 0 0 0 .25-4.47 3.1 3.1 0 0 0-4.43-.25c-1.3 1.15-1.38 3.16-.24 4.48s3.12 1.4 4.42.24m28.22-24.1a4.3 4.3 0 0 0 .33-6.03 4.2 4.2 0 0 0-5.97-.33 4.3 4.3 0 0 0-.33 6.04 4.2 4.2 0 0 0 5.97.33m28.3-23.98a5.6 5.6 0 0 0 .4-7.88 5.44 5.44 0 0 0-7.79-.41c-2.27 2.05-2.43 5.58-.4 7.88s5.52 2.46 7.8.41m28.3-23.93a6.94 6.94 0 0 0 .52-9.73 6.76 6.76 0 0 0-9.62-.54 6.94 6.94 0 0 0-.53 9.73 6.76 6.76 0 0 0 9.62.54m28.38-23.9a8.33 8.33 0 0 0 .61-11.7 8.1 8.1 0 0 0-11.57-.61c-3.37 3.03-3.66 8.29-.61 11.7s8.2 3.7 11.57.61m28.5-23.77a9.9 9.9 0 0 0 .74-13.91 9.65 9.65 0 0 0-13.77-.74 9.9 9.9 0 0 0-.73 13.91 9.65 9.65 0 0 0 13.76.74m28.5-23.73c4.68-4.22 5.04-11.45.86-16.17s-11.33-5.1-16-.86-5.03 11.45-.85 16.17 11.33 5.1 16 .86m28.46-23.73c5.28-4.8 5.72-13.05.97-18.39s-12.9-5.78-18.19-.98c-5.27 4.8-5.72 13.05-.97 18.39s12.91 5.79 18.19.99m28.5-23.77a14.76 14.76 0 0 0 1.1-20.65 14.4 14.4 0 0 0-20.42-1.11 14.77 14.77 0 0 0-1.1 20.65c5.32 6 14.45 6.48 20.42 1.1m28.26-24.01a15.95 15.95 0 0 0 1.18-22.33 15.5 15.5 0 0 0-22.09-1.2 15.95 15.95 0 0 0-1.18 22.34 15.5 15.5 0 0 0 22.09 1.19m27.81-24.5a16.5 16.5 0 0 0 1.22-23.16 16.07 16.07 0 0 0-22.9-1.24 16.5 16.5 0 0 0-1.22 23.16 16.07 16.07 0 0 0 22.9 1.23m27.16-25.29a16.04 16.04 0 0 0 1.18-22.5 15.6 15.6 0 0 0-22.25-1.19 16.04 16.04 0 0 0-1.18 22.5 15.6 15.6 0 0 0 22.25 1.2m26.64-25.83c5.97-5.42 6.46-14.74 1.1-20.77s-14.58-6.53-20.55-1.11a14.84 14.84 0 0 0-1.1 20.77 14.45 14.45 0 0 0 20.55 1.1m26.47-26.02a13.34 13.34 0 0 0 .98-18.68 13 13 0 0 0-18.48-.98 13.34 13.34 0 0 0-.97 18.68 13 13 0 0 0 18.47.98m26.31-26.15a11.6 11.6 0 0 0 .85-16.3 11.3 11.3 0 0 0-16.11-.86 11.6 11.6 0 0 0-.86 16.3 11.3 11.3 0 0 0 16.12.86m26.43-26.11c4.06-3.7 4.39-9.97.74-14.08a9.76 9.76 0 0 0-13.93-.74 10.03 10.03 0 0 0-.73 14.08 9.76 9.76 0 0 0 13.92.74m26.4-26.1a8.44 8.44 0 0 0 .65-11.83 8.2 8.2 0 0 0-11.7-.62 8.4 8.4 0 0 0-.6 11.82 8.2 8.2 0 0 0 11.69.62zm26.5-25.95c2.85-2.6 3.1-6.98.54-9.86s-6.9-3.12-9.75-.53-3.08 6.98-.53 9.85 6.9 3.12 9.75.54m26.6-25.91a5.66 5.66 0 0 0 .4-8 5.5 5.5 0 0 0-7.92-.42 5.67 5.67 0 0 0-.4 8.01 5.5 5.5 0 0 0 7.91.41m26.6-25.9c1.78-1.6 1.9-4.4.32-6.2a4.27 4.27 0 0 0-6.09-.33 4.4 4.4 0 0 0-.32 6.16 4.3 4.3 0 0 0 6.13.32zm26.71-25.75c1.34-1.19 1.42-3.24.25-4.6s-3.21-1.43-4.55-.24c-1.34 1.2-1.42 3.24-.24 4.6s3.2 1.44 4.54.24m26.76-25.7c.9-.81.97-2.25.16-3.15a2.2 2.2 0 0 0-3.12-.17c-.9.82-.98 2.22-.17 3.16a2.2 2.2 0 0 0 3.13.17m26.92-25.54a1.43 1.43 0 0 0 .12-1.97 1.4 1.4 0 0 0-1.95-.12 1.43 1.43 0 0 0-.12 1.97 1.4 1.4 0 0 0 1.95.12m27-25.41a.8.8 0 0 0 .04-1.07.75.75 0 0 0-1.06-.04.8.8 0 0 0-.04 1.07.76.76 0 0 0 1.06.04m27.16-25.29s.12-.29 0-.41q-.2-.18-.4 0a.3.3 0 0 0 0 .41q.2.18.4 0M232.3 811.69s.08-.2 0-.25c-.08-.08-.2-.08-.24 0-.08.08-.08.2 0 .25.08.08.2.08.24 0m27.73-24.6a.6.6 0 0 0 .04-.9c-.24-.24-.64-.29-.89-.04a.6.6 0 0 0-.04.9.6.6 0 0 0 .9.05m27.85-24.51a1.24 1.24 0 0 0 .08-1.73 1.2 1.2 0 0 0-1.7-.08 1.24 1.24 0 0 0-.09 1.72 1.2 1.2 0 0 0 1.7.09m27.98-24.27a2.02 2.02 0 0 0-2.68-3.04c-.81.74-.9 2.06-.16 2.88.73.86 2.03.9 2.84.16m28.06-24.26a3 3 0 0 0 .24-4.19 2.9 2.9 0 0 0-4.14-.2c-1.22 1.1-1.3 3-.2 4.19a2.9 2.9 0 0 0 4.14.2zm28.13-24.14a4.05 4.05 0 0 0 .29-5.66 3.94 3.94 0 0 0-5.6-.3 4.05 4.05 0 0 0-.29 5.68 3.94 3.94 0 0 0 5.6.28m28.18-24.1a5.13 5.13 0 0 0 .37-7.22 5 5 0 0 0-7.15-.37 5.16 5.16 0 0 0-.36 7.22 5.03 5.03 0 0 0 7.14.37m28.34-23.97c2.6-2.38 2.84-6.45.49-9.07s-6.37-2.88-8.97-.5-2.85 6.45-.5 9.08 6.38 2.87 8.98.49m28.3-23.94a7.8 7.8 0 0 0 .57-10.92 7.6 7.6 0 0 0-10.8-.57 7.8 7.8 0 0 0-.57 10.92 7.6 7.6 0 0 0 10.8.57m28.38-23.89c3.7-3.37 4.02-9.15.7-12.89s-9.06-4.06-12.76-.7a9.2 9.2 0 0 0-.69 12.9 8.97 8.97 0 0 0 12.75.7m28.38-23.9a10.6 10.6 0 0 0 .77-14.86 10.33 10.33 0 0 0-14.7-.78c-4.26 3.9-4.62 10.55-.76 14.86s10.43 4.68 14.7.78m28.33-23.9a12.03 12.03 0 0 0 .9-16.83c-4.35-4.88-11.82-5.3-16.65-.9s-5.24 11.95-.9 16.83 11.82 5.3 16.65.9m28.26-24.01a13.26 13.26 0 0 0 .98-18.56 12.9 12.9 0 0 0-18.36-.98 13.27 13.27 0 0 0-.97 18.55 12.9 12.9 0 0 0 18.35.99m28.02-24.3c5.68-5.18 6.13-14 1.05-19.71a13.7 13.7 0 0 0-19.49-1.07 14.07 14.07 0 0 0-1.05 19.7 13.7 13.7 0 0 0 19.49 1.08m27.69-24.64c5.8-5.3 6.3-14.36 1.05-20.24a14.1 14.1 0 0 0-20.01-1.1 14.4 14.4 0 0 0-1.06 20.23 14.1 14.1 0 0 0 20.02 1.11m27.24-25.12a14.2 14.2 0 0 0 1.06-19.87c-5.12-5.79-13.93-6.24-19.65-1.07s-6.18 14.08-1.06 19.87a13.8 13.8 0 0 0 19.65 1.07m26.92-25.58a13.34 13.34 0 0 0 .97-18.68 13 13 0 0 0-18.47-.98 13.34 13.34 0 0 0-.97 18.68 13 13 0 0 0 18.47.98m26.64-25.82c4.87-4.43 5.27-12.03.89-16.95s-11.9-5.34-16.77-.9-5.28 12.02-.9 16.95a11.8 11.8 0 0 0 16.78.9m26.5-25.94c4.31-3.9 4.68-10.64.82-14.99s-10.51-4.72-14.82-.82-4.67 10.63-.81 14.98a10.44 10.44 0 0 0 14.82.82m26.55-25.98c3.74-3.41 4.06-9.24.7-13.02s-9.14-4.1-12.88-.7a9.3 9.3 0 0 0-.69 13.02 9.05 9.05 0 0 0 12.87.7m26.51-25.95a7.86 7.86 0 0 0 .57-11.04 7.66 7.66 0 0 0-10.92-.58 7.86 7.86 0 0 0-.57 11.05 7.66 7.66 0 0 0 10.92.57m26.6-25.9c2.64-2.43 2.88-6.53.49-9.2s-6.46-2.91-9.1-.5-2.88 6.54-.48 9.2 6.45 2.92 9.09.5m26.6-25.9a5.24 5.24 0 0 0 .4-7.36 5.14 5.14 0 0 0-7.27-.4 5.3 5.3 0 0 0-.4 7.34 5.14 5.14 0 0 0 7.26.41m26.72-25.74a4.17 4.17 0 0 0 .33-5.79 4.06 4.06 0 0 0-5.73-.33 4.17 4.17 0 0 0-.32 5.8 4.06 4.06 0 0 0 5.72.32m26.72-25.74a3 3 0 0 0 .24-4.18 2.9 2.9 0 0 0-4.14-.21 3 3 0 0 0-.25 4.19 2.93 2.93 0 0 0 4.15.24zm26.8-25.62c.85-.73.89-2.05.15-2.87a2.02 2.02 0 1 0-3 2.71 2 2 0 0 0 2.84.17m26.96-25.5a1.3 1.3 0 0 0 .08-1.85 1.3 1.3 0 0 0-1.82-.08 1.3 1.3 0 0 0-.08 1.85 1.3 1.3 0 0 0 1.82.08m27.04-25.41c.25-.25.29-.66.04-.9-.24-.25-.64-.3-.89-.05-.24.25-.28.66-.04.9.24.25.65.3.9.05m27.12-25.25s.08-.2 0-.25c-.09-.08-.21-.08-.25 0-.08.09-.08.21 0 .25.08.08.21.08.25 0m-744 725.58s.05-.08 0-.13c0 0-.07-.04-.11 0v.13s.08.04.12 0m27.73-24.68s.2-.45 0-.65c-.16-.2-.45-.2-.65 0-.2.16-.2.45 0 .65.16.2.45.2.65 0m27.81-24.5a1.04 1.04 0 0 0 .08-1.44 1 1 0 0 0-1.42-.08 1.04 1.04 0 0 0-.08 1.43 1 1 0 0 0 1.42.09m27.93-24.35a1.76 1.76 0 1 0-2.35-2.63 1.77 1.77 0 0 0-.12 2.5 1.7 1.7 0 0 0 2.47.13m28.02-24.3a2.66 2.66 0 0 0 .2-3.7 2.6 2.6 0 0 0-3.65-.2 2.66 2.66 0 0 0-.2 3.7 2.6 2.6 0 0 0 3.65.2m28.05-24.27a3.63 3.63 0 0 0 .29-5 3.53 3.53 0 0 0-4.95-.3 3.63 3.63 0 0 0-.29 5.02 3.53 3.53 0 0 0 4.96.28m28.17-24.1a4.7 4.7 0 0 0 .37-6.56 4.6 4.6 0 0 0-6.5-.37 4.7 4.7 0 0 0-.36 6.57 4.6 4.6 0 0 0 6.5.37m28.17-24.06a5.83 5.83 0 0 0 .45-8.17 5.67 5.67 0 0 0-8.08-.45 5.83 5.83 0 0 0-.45 8.17 5.7 5.7 0 0 0 8.08.45m28.26-24.06c2.84-2.59 3.09-6.98.53-9.85s-6.9-3.12-9.75-.53-3.08 6.97-.53 9.85 6.9 3.12 9.75.53m28.26-24.01a8.25 8.25 0 0 0 .6-11.58c-3-3.37-8.11-3.65-11.44-.62s-3.62 8.21-.61 11.58 8.12 3.65 11.45.62m28.22-24.02a9.44 9.44 0 0 0 .69-13.26 9.2 9.2 0 0 0-13.12-.7 9.44 9.44 0 0 0-.69 13.26 9.2 9.2 0 0 0 13.12.7m28.22-24.1a10.6 10.6 0 0 0 .77-14.86c-3.86-4.31-10.44-4.68-14.7-.78s-4.63 10.55-.77 14.86 10.43 4.68 14.7.78m28.1-24.14a11.6 11.6 0 0 0 .84-16.3 11.3 11.3 0 0 0-16.11-.86 11.64 11.64 0 0 0-.86 16.3 11.3 11.3 0 0 0 16.12.86m27.9-24.47a12.3 12.3 0 0 0 .93-17.2 12 12 0 0 0-17.05-.94 12.34 12.34 0 0 0-.94 17.24 12 12 0 0 0 17.06.94zm27.56-24.8c5.04-4.55 5.45-12.39.94-17.48s-12.26-5.5-17.3-.94a12.5 12.5 0 0 0-.93 17.48 12.16 12.16 0 0 0 17.3.95m27.32-25.05c4.95-4.51 5.36-12.19.9-17.2s-12.07-5.42-17.02-.94-5.36 12.2-.93 17.24a12 12 0 0 0 17.05.95zm27.04-25.4a11.6 11.6 0 0 0 .85-16.3 11.3 11.3 0 0 0-16.12-.87 11.64 11.64 0 0 0-.85 16.3 11.3 11.3 0 0 0 16.12.86m26.8-25.61c4.3-3.9 4.67-10.64.8-14.99s-10.5-4.72-14.81-.82a10.7 10.7 0 0 0-.81 14.99 10.44 10.44 0 0 0 14.82.82m26.71-25.74c3.86-3.5 4.19-9.53.73-13.43s-9.42-4.23-13.27-.74c-3.86 3.5-4.19 9.53-.73 13.43s9.42 4.23 13.27.74m26.68-25.83c3.37-3.04 3.65-8.29.6-11.7s-8.2-3.7-11.56-.61a8.33 8.33 0 0 0-.61 11.7 8.1 8.1 0 0 0 11.57.61m26.63-25.82a7.1 7.1 0 0 0 .53-9.98 6.9 6.9 0 0 0-9.87-.53 7.1 7.1 0 0 0-.52 9.98 6.9 6.9 0 0 0 9.86.53m26.64-25.86a5.9 5.9 0 0 0 .44-8.3 5.75 5.75 0 0 0-8.2-.45 5.9 5.9 0 0 0-.44 8.3 5.75 5.75 0 0 0 8.2.45m26.71-25.74a4.8 4.8 0 0 0 .37-6.7 4.65 4.65 0 0 0-6.62-.37 4.8 4.8 0 0 0-.36 6.7 4.65 4.65 0 0 0 6.61.37m26.72-25.74a3.7 3.7 0 0 0 .28-5.14 3.6 3.6 0 0 0-5.07-.28 3.7 3.7 0 0 0-.29 5.13 3.6 3.6 0 0 0 5.08.29m26.84-25.62c1.1-.99 1.18-2.71.2-3.82s-2.68-1.19-3.78-.2-1.17 2.7-.2 3.81a2.67 2.67 0 0 0 3.78.2m26.84-25.6c.73-.67.77-1.77.12-2.51s-1.75-.78-2.48-.13-.77 1.77-.12 2.5c.65.75 1.75.79 2.48.13m27-25.41c.44-.41.48-1.1.08-1.56a1.1 1.1 0 0 0-1.54-.08 1.1 1.1 0 0 0-.09 1.56 1.1 1.1 0 0 0 1.55.08m27.08-25.37a.54.54 0 0 0 .04-.78.53.53 0 0 0-.77-.04.54.54 0 0 0-.04.78.53.53 0 0 0 .77.04m27.16-25.25s.04-.08 0-.12c0 0-.08-.04-.12 0q-.06.06 0 .12s.08.04.12 0m-743.9 725.66s.03-.08 0-.12h-.13v.12zm27.6-24.72s.16-.36 0-.53c-.12-.16-.36-.16-.53 0-.16.12-.16.37 0 .53.13.17.37.17.53 0m27.77-24.59a.9.9 0 0 0 .08-1.19.87.87 0 0 0-1.17-.08.9.9 0 0 0-.08 1.2.87.87 0 0 0 1.17.07m27.86-24.46c.6-.54.65-1.48.12-2.1s-1.46-.65-2.07-.12a1.5 1.5 0 0 0-.12 2.1c.52.6 1.46.65 2.07.12m27.97-24.35c.9-.82.98-2.21.16-3.16a2.2 2.2 0 0 0-3.12-.16c-.9.82-.98 2.21-.17 3.16a2.2 2.2 0 0 0 3.13.16m27.98-24.3a3.13 3.13 0 0 0 .24-4.35 3.04 3.04 0 0 0-4.3-.25 3.13 3.13 0 0 0-.25 4.35 3.05 3.05 0 0 0 4.3.25m28.14-24.18a4.17 4.17 0 0 0 .33-5.8 4.06 4.06 0 0 0-5.73-.32 4.16 4.16 0 0 0-.32 5.79 4.06 4.06 0 0 0 5.72.33M477 696.4a5.13 5.13 0 0 0 .37-7.23 5 5 0 0 0-7.15-.37c-2.07 1.9-2.23 5.14-.37 7.23s5.08 2.3 7.15.37m28.1-24.18a6.16 6.16 0 0 0 .44-8.66 6 6 0 0 0-8.56-.46 6.13 6.13 0 0 0-.45 8.67 6 6 0 0 0 8.57.45m28.13-24.14a7.2 7.2 0 0 0 .53-10.14 7 7 0 0 0-10.03-.53 7.2 7.2 0 0 0-.52 10.14 7 7 0 0 0 10.02.53m28.14-24.18c3.33-3.04 3.61-8.21.61-11.58s-8.12-3.65-11.45-.62-3.61 8.22-.6 11.58a8.04 8.04 0 0 0 11.44.62m28.06-24.22c3.7-3.37 4.02-9.16.69-12.9s-9.06-4.06-12.75-.7-4.02 9.16-.7 12.9 9.06 4.06 12.76.7m27.93-24.39a9.9 9.9 0 0 0 .73-13.92 9.65 9.65 0 0 0-13.76-.73 9.9 9.9 0 0 0-.73 13.91 9.64 9.64 0 0 0 13.76.74m27.81-24.5a10.53 10.53 0 0 0 .78-14.75 10.25 10.25 0 0 0-14.58-.78 10.53 10.53 0 0 0-.77 14.74 10.25 10.25 0 0 0 14.57.78m27.57-24.8c4.3-3.9 4.67-10.63.81-14.98s-10.51-4.72-14.82-.82c-4.3 3.9-4.67 10.63-.8 14.98s10.5 4.73 14.81.83m27.37-25.05a10.53 10.53 0 0 0 .77-14.73 10.25 10.25 0 0 0-14.58-.78 10.53 10.53 0 0 0-.77 14.73 10.25 10.25 0 0 0 14.58.78m27.12-25.28c4.06-3.7 4.39-9.98.73-14.09a9.77 9.77 0 0 0-13.93-.74 10.03 10.03 0 0 0-.73 14.09 9.77 9.77 0 0 0 13.93.74m26.96-25.46c3.73-3.4 4.06-9.23.69-13.01s-9.14-4.1-12.87-.7c-3.74 3.4-4.06 9.24-.7 13.01s9.14 4.1 12.88.7m26.84-25.62c3.37-3.07 3.65-8.29.6-11.7s-8.2-3.7-11.56-.61a8.33 8.33 0 0 0-.61 11.7 8.1 8.1 0 0 0 11.57.61m26.75-25.7a7.3 7.3 0 0 0 .53-10.26 7.1 7.1 0 0 0-10.15-.53 7.3 7.3 0 0 0-.53 10.26 7.1 7.1 0 0 0 10.15.53m26.8-25.7a6.33 6.33 0 0 0 .49-8.82 6.16 6.16 0 0 0-8.73-.5 6.33 6.33 0 0 0-.49 8.83 6.16 6.16 0 0 0 8.73.5m26.76-25.66a5.3 5.3 0 0 0 .4-7.35 5.14 5.14 0 0 0-7.26-.41 5.24 5.24 0 0 0-.41 7.35 5.14 5.14 0 0 0 7.27.4m26.71-25.77a4.17 4.17 0 0 0 .33-5.8 4.06 4.06 0 0 0-5.73-.32 4.16 4.16 0 0 0-.32 5.79 4.06 4.06 0 0 0 5.72.33m26.84-25.62a3.2 3.2 0 0 0 .25-4.48 3.1 3.1 0 0 0-4.43-.24 3.2 3.2 0 0 0-.24 4.47 3.1 3.1 0 0 0 4.42.25m26.84-25.62c.9-.82.97-2.22.16-3.16a2.2 2.2 0 0 0-3.12-.16c-.9.82-.98 2.25-.17 3.16a2.2 2.2 0 0 0 3.13.16m26.96-25.45c.6-.54.65-1.48.12-2.1s-1.46-.65-2.07-.12c-.6.54-.65 1.48-.12 2.1s1.46.65 2.07.12m27-25.41a.9.9 0 0 0 .08-1.2c-.28-.36-.81-.36-1.18-.08a.9.9 0 0 0-.08 1.2.87.87 0 0 0 1.18.08m27.12-25.3s.16-.36 0-.53c-.12-.16-.36-.16-.53 0-.16.13-.16.37 0 .54.13.16.37.16.53 0m27.29-25.13s.04-.08 0-.12h-.13c-.04 0-.04.08 0 .12 0 0 .09.04.13 0M333.68 870.02s.08-.2 0-.24q-.15-.14-.25 0c-.08.08-.08.2 0 .24.08.08.2.08.24 0m27.7-24.63a.54.54 0 0 0 .04-.78.53.53 0 0 0-.78-.04.54.54 0 0 0-.04.78.53.53 0 0 0 .78.04m27.85-24.5c.44-.42.49-1.12.08-1.57a1.1 1.1 0 0 0-1.54-.08 1.1 1.1 0 0 0-.08 1.56 1.1 1.1 0 0 0 1.54.08m27.85-24.42c.73-.66.77-1.77.12-2.5-.65-.75-1.74-.79-2.47-.13s-.78 1.76-.13 2.5 1.75.78 2.48.12m28.02-24.3c1.05-.94 1.13-2.63.2-3.7s-2.6-1.14-3.65-.2-1.14 2.63-.2 3.7a2.6 2.6 0 0 0 3.65.2m28.01-24.3a3.46 3.46 0 0 0 .25-4.85 3.4 3.4 0 0 0-4.84-.24c-1.38 1.27-1.5 3.45-.24 4.84s3.41 1.52 4.8.25zm28.06-24.26a4.4 4.4 0 0 0 .32-6.16c-1.58-1.8-4.34-1.93-6.13-.33s-1.9 4.4-.32 6.16a4.27 4.27 0 0 0 6.09.33zm27.97-24.3a5.3 5.3 0 0 0 .4-7.36 5.1 5.1 0 0 0-7.26-.4 5.24 5.24 0 0 0-.4 7.34 5.14 5.14 0 0 0 7.26.41m28.1-24.22a6.16 6.16 0 0 0 .45-8.66 5.97 5.97 0 0 0-8.57-.45 6.16 6.16 0 0 0-.45 8.66 5.97 5.97 0 0 0 8.57.45m27.97-24.3c2.85-2.59 3.09-6.98.53-9.86s-6.9-3.12-9.74-.53a7 7 0 0 0-.53 9.85 6.84 6.84 0 0 0 9.74.54m27.98-24.35a7.8 7.8 0 0 0 .57-10.92 7.6 7.6 0 0 0-10.8-.57 7.8 7.8 0 0 0-.57 10.92 7.6 7.6 0 0 0 10.8.57m27.85-24.46a8.44 8.44 0 0 0 .65-11.83 8.2 8.2 0 0 0-11.7-.61 8.4 8.4 0 0 0-.6 11.82 8.2 8.2 0 0 0 11.7.62zm27.7-24.64a8.8 8.8 0 0 0 .64-12.35 8.56 8.56 0 0 0-12.22-.66 8.8 8.8 0 0 0-.65 12.36 8.56 8.56 0 0 0 12.22.65m27.57-24.8a9 9 0 0 0 .65-12.6 8.8 8.8 0 0 0-12.46-.7c-3.62 3.29-3.94 8.95-.7 12.6s8.86 4 12.47.7zm27.33-25.04a8.8 8.8 0 0 0 .65-12.35 8.56 8.56 0 0 0-12.23-.66 8.8 8.8 0 0 0-.64 12.36 8.56 8.56 0 0 0 12.22.65m27.2-25.2a8.44 8.44 0 0 0 .65-11.83 8.2 8.2 0 0 0-11.7-.61 8.4 8.4 0 0 0-.6 11.82 8.2 8.2 0 0 0 11.69.62zm27.08-25.33a7.86 7.86 0 0 0 .57-11.05 7.66 7.66 0 0 0-10.92-.57 7.86 7.86 0 0 0-.57 11.04 7.66 7.66 0 0 0 10.92.58m26.96-25.5a7.1 7.1 0 0 0 .53-9.97 6.9 6.9 0 0 0-9.87-.54 7.1 7.1 0 0 0-.53 9.98 6.9 6.9 0 0 0 9.87.53m26.92-25.53a6.33 6.33 0 0 0 .49-8.83 6.16 6.16 0 0 0-8.73-.5 6.33 6.33 0 0 0-.49 8.84 6.16 6.16 0 0 0 8.73.49m26.84-25.62a5.36 5.36 0 0 0 .4-7.51 5.26 5.26 0 0 0-7.43-.41 5.4 5.4 0 0 0-.4 7.51 5.26 5.26 0 0 0 7.43.41m26.8-25.62a4.45 4.45 0 0 0 .32-6.2c-1.58-1.8-4.34-1.93-6.13-.32s-1.91 4.39-.33 6.15a4.3 4.3 0 0 0 6.13.33zm26.83-25.61a3.5 3.5 0 0 0 .25-4.89 3.4 3.4 0 0 0-4.84-.25 3.5 3.5 0 0 0-.24 4.89 3.4 3.4 0 0 0 4.83.25m26.92-25.58a2.66 2.66 0 0 0 .2-3.7 2.6 2.6 0 0 0-3.65-.2 2.66 2.66 0 0 0-.2 3.7 2.6 2.6 0 0 0 3.65.2m26.96-25.45c.77-.7.81-1.85.12-2.63s-1.82-.82-2.6-.12c-.77.7-.8 1.84-.12 2.62s1.83.82 2.6.13m27-25.41c.49-.46.53-1.2.08-1.73a1.2 1.2 0 0 0-1.7-.08 1.24 1.24 0 0 0-.08 1.72 1.2 1.2 0 0 0 1.7.09m27.08-25.38a.6.6 0 0 0 .04-.9.6.6 0 0 0-.89-.04.6.6 0 0 0-.04.9.6.6 0 0 0 .89.04m27.17-25.24s.08-.2 0-.25c-.09-.08-.21-.08-.25 0-.08.08-.08.2 0 .25.08.08.2.08.25 0m-689.1 675.73v-.12s-.08-.04-.12 0c0 0-.04.08 0 .12zm27.6-24.71s.17-.37 0-.53c-.11-.17-.36-.17-.52 0-.16.12-.16.37 0 .53.12.16.37.16.53 0m27.77-24.6a.9.9 0 0 0 .08-1.18.87.87 0 0 0-1.17-.08.9.9 0 0 0-.09 1.19.87.87 0 0 0 1.18.08m27.81-24.51a1.43 1.43 0 0 0 .12-1.97 1.4 1.4 0 0 0-1.94-.12 1.43 1.43 0 0 0-.12 1.97c.52.57 1.38.61 1.94.12m27.9-24.47a2.02 2.02 0 0 0-2.68-3.04c-.81.74-.9 2.06-.16 2.88.73.86 2.03.9 2.88.16zm27.93-24.34a2.8 2.8 0 0 0 .2-3.94 2.74 2.74 0 0 0-3.9-.2 2.8 2.8 0 0 0-.2 3.93 2.74 2.74 0 0 0 3.9.2m27.94-24.38a3.63 3.63 0 0 0 .28-5 3.53 3.53 0 0 0-4.95-.3 3.63 3.63 0 0 0-.29 5.01 3.53 3.53 0 0 0 4.96.3m28.01-24.31c1.79-1.6 1.9-4.4.33-6.2-1.59-1.8-4.35-1.93-6.14-.33s-1.9 4.4-.32 6.16a4.27 4.27 0 0 0 6.09.33zm27.93-24.35a5.16 5.16 0 0 0 .37-7.22 5.03 5.03 0 0 0-7.15-.37 5.16 5.16 0 0 0-.36 7.22 5 5 0 0 0 7.15.37m27.93-24.38a5.9 5.9 0 0 0 .45-8.3 5.75 5.75 0 0 0-8.2-.45 5.9 5.9 0 0 0-.45 8.3 5.75 5.75 0 0 0 8.2.45m27.81-24.51a6.5 6.5 0 0 0 .49-9.07 6.3 6.3 0 0 0-8.97-.5 6.5 6.5 0 0 0-.5 9.08 6.3 6.3 0 0 0 8.98.49m27.77-24.6a6.94 6.94 0 0 0 .53-9.72c-2.52-2.83-6.82-3.08-9.62-.54s-3.05 6.9-.53 9.73a6.76 6.76 0 0 0 9.62.54m27.7-24.63a7.3 7.3 0 0 0 .52-10.27 7.1 7.1 0 0 0-10.15-.53 7.3 7.3 0 0 0-.53 10.26 7.1 7.1 0 0 0 10.15.54m27.53-24.88a7.4 7.4 0 0 0 .57-10.39 7.2 7.2 0 0 0-10.27-.57 7.4 7.4 0 0 0-.57 10.38 7.2 7.2 0 0 0 10.27.58m27.37-24.96a7.3 7.3 0 0 0 .53-10.27 7.1 7.1 0 0 0-10.16-.53 7.3 7.3 0 0 0-.52 10.26 7.1 7.1 0 0 0 10.15.54m27.28-25.17c2.84-2.58 3.09-6.98.53-9.85s-6.9-3.12-9.74-.53c-2.85 2.58-3.1 6.97-.53 9.85s6.9 3.12 9.74.53m27.12-25.25c2.64-2.42 2.89-6.52.5-9.2s-6.47-2.9-9.1-.48-2.89 6.52-.5 9.2 6.46 2.9 9.1.48m27.04-25.4a5.9 5.9 0 0 0 .45-8.3 5.75 5.75 0 0 0-8.2-.45 5.9 5.9 0 0 0-.45 8.3 5.75 5.75 0 0 0 8.2.44m27-25.41a5.3 5.3 0 0 0 .41-7.35 5.14 5.14 0 0 0-7.27-.4 5.3 5.3 0 0 0-.4 7.34 5.14 5.14 0 0 0 7.26.41m26.92-25.53c1.79-1.6 1.91-4.4.33-6.2s-4.35-1.93-6.13-.33a4.44 4.44 0 0 0-.33 6.2 4.27 4.27 0 0 0 6.1.33zm26.92-25.5a3.7 3.7 0 0 0 .29-5.13 3.6 3.6 0 0 0-5.08-.29 3.7 3.7 0 0 0-.28 5.13 3.6 3.6 0 0 0 5.07.3m26.92-25.54a2.8 2.8 0 0 0 .2-3.95 2.74 2.74 0 0 0-3.9-.2 2.8 2.8 0 0 0-.2 3.94 2.74 2.74 0 0 0 3.9.2m26.96-25.49c.85-.74.9-2.05.16-2.87-.73-.86-2.03-.9-2.84-.17s-.9 2.06-.16 2.88 2.03.9 2.84.16m27-25.41a1.43 1.43 0 0 0 .12-1.97 1.4 1.4 0 0 0-1.95-.12 1.43 1.43 0 0 0-.12 1.97 1.4 1.4 0 0 0 1.95.12m27.08-25.33a.9.9 0 0 0 .08-1.2.86.86 0 0 0-1.17-.07.9.9 0 0 0-.08 1.19.86.86 0 0 0 1.17.08m27.17-25.29s.16-.37 0-.53c-.13-.17-.37-.17-.53 0-.16.12-.16.37 0 .53.12.16.36.16.53 0m27.24-25.12v-.13h-.12s-.04.09 0 .13zM410.45 900.6s.08-.2 0-.25c-.08-.08-.2-.08-.24 0-.08.08-.08.2 0 .25.08.08.2.08.24 0m27.61-24.72s.2-.45 0-.65c-.16-.2-.44-.2-.65 0-.2.16-.2.45 0 .65.17.2.45.2.65 0m27.77-24.59c.37-.33.41-.94.09-1.31s-.94-.41-1.3-.08a.97.97 0 0 0-.08 1.31c.32.37.93.41 1.3.08m27.8-24.5c.62-.54.66-1.48.13-2.1s-1.46-.66-2.07-.12-.65 1.47-.12 2.1 1.46.65 2.07.11m27.8-24.5c.82-.74.9-2.06.17-2.88a2 2 0 0 0-2.84-.16 2.02 2.02 0 0 0 2.68 3.04m27.93-24.35a2.8 2.8 0 0 0 .2-3.94 2.74 2.74 0 0 0-3.9-.2 2.8 2.8 0 0 0-.2 3.94 2.74 2.74 0 0 0 3.9.2m27.9-24.47c1.38-1.27 1.5-3.45.24-4.84s-3.41-1.52-4.8-.25a3.46 3.46 0 0 0-.23 4.85 3.4 3.4 0 0 0 4.83.24zm27.89-24.42a4.17 4.17 0 0 0 .33-5.8 4.06 4.06 0 0 0-5.73-.32 4.17 4.17 0 0 0-.32 5.79 4.06 4.06 0 0 0 5.72.33m27.81-24.51a4.7 4.7 0 0 0 .37-6.57 4.6 4.6 0 0 0-6.5-.37 4.7 4.7 0 0 0-.36 6.57 4.6 4.6 0 0 0 6.5.37m27.8-24.51a5.3 5.3 0 0 0 .41-7.35 5.1 5.1 0 0 0-7.27-.41 5.3 5.3 0 0 0-.4 7.35 5.14 5.14 0 0 0 7.26.4m27.7-24.62a5.6 5.6 0 0 0 .4-7.89 5.44 5.44 0 0 0-7.8-.4 5.6 5.6 0 0 0-.4 7.88 5.5 5.5 0 0 0 7.8.4m27.64-24.7a5.9 5.9 0 0 0 .45-8.3 5.75 5.75 0 0 0-8.2-.45 5.9 5.9 0 0 0-.45 8.3 5.75 5.75 0 0 0 8.2.44m27.5-24.88a6 6 0 0 0 .44-8.41 5.8 5.8 0 0 0-8.32-.45 6 6 0 0 0-.45 8.41 5.8 5.8 0 0 0 8.32.45m27.4-25a5.9 5.9 0 0 0 .46-8.29 5.75 5.75 0 0 0-8.2-.45 5.9 5.9 0 0 0-.45 8.3 5.75 5.75 0 0 0 8.2.44m27.32-25.04a5.7 5.7 0 0 0 .45-8 5.5 5.5 0 0 0-7.92-.42 5.66 5.66 0 0 0-.4 8 5.5 5.5 0 0 0 7.92.42zm27.13-25.29a5.3 5.3 0 0 0 .4-7.35 5.14 5.14 0 0 0-7.27-.4 5.24 5.24 0 0 0-.4 7.34 5.14 5.14 0 0 0 7.27.41m27.16-25.25a4.8 4.8 0 0 0 .36-6.69 4.65 4.65 0 0 0-6.61-.37 4.8 4.8 0 0 0-.37 6.7 4.65 4.65 0 0 0 6.62.36m27-25.4a4.16 4.16 0 0 0 .32-5.8 4.06 4.06 0 0 0-5.72-.33 4.17 4.17 0 0 0-.33 5.8 4.06 4.06 0 0 0 5.73.32m27.04-25.41a3.5 3.5 0 0 0 .24-4.89 3.37 3.37 0 0 0-4.79-.24 3.5 3.5 0 0 0-.24 4.88 3.37 3.37 0 0 0 4.79.25m27-25.41a2.8 2.8 0 0 0 .2-3.94 2.74 2.74 0 0 0-3.9-.2 2.8 2.8 0 0 0-.2 3.93 2.74 2.74 0 0 0 3.9.2m27-25.4a2.2 2.2 0 0 0 .16-3.04 2.14 2.14 0 0 0-3-.17 2.2 2.2 0 0 0-.16 3.04c.77.86 2.1.94 3 .16m27.04-25.4c.61-.54.65-1.49.12-2.1s-1.46-.66-2.07-.12a1.5 1.5 0 0 0-.12 2.09c.53.62 1.46.66 2.07.12m27.12-25.25a1.03 1.03 0 0 0 .08-1.43 1 1 0 0 0-1.42-.08 1.05 1.05 0 0 0-.08 1.43 1 1 0 0 0 1.42.09m27.17-25.3a.5.5 0 0 0 0-.77.54.54 0 0 0-.78-.05.55.55 0 0 0-.04.78c.21.25.57.25.78.05zm27.2-25.2s.08-.2 0-.25c-.08-.08-.2-.08-.24 0-.09.08-.09.2 0 .25.08.08.2.08.24 0m-606.63 601.1s.12-.28 0-.4c-.12-.13-.29-.13-.41 0-.12.07-.12.28 0 .4q.2.2.4 0m27.66-24.71a.5.5 0 0 0 0-.78.53.53 0 0 0-.78-.04.54.54 0 0 0-.04.78.53.53 0 0 0 .78.04zm27.73-24.6a1.04 1.04 0 0 0 .08-1.43 1 1 0 0 0-1.42-.08 1.04 1.04 0 0 0-.08 1.43 1 1 0 0 0 1.42.09m27.77-24.6c.6-.53.65-1.47.12-2.09s-1.46-.65-2.07-.12a1.5 1.5 0 0 0-.12 2.1c.53.6 1.46.65 2.07.12m27.81-24.51c.85-.74.9-2.05.16-2.88s-2.03-.9-2.84-.16c-.85.74-.9 2.05-.16 2.87.73.87 2.03.9 2.84.17m27.81-24.51c1.06-.94 1.14-2.63.2-3.7s-2.6-1.14-3.65-.2a2.66 2.66 0 0 0-.2 3.7 2.6 2.6 0 0 0 3.65.2m27.86-24.51c1.3-1.15 1.38-3.16.24-4.47s-3.13-1.4-4.42-.25c-1.3 1.15-1.39 3.16-.25 4.47s3.13 1.4 4.43.25m27.73-24.55a3.7 3.7 0 0 0 .28-5.13 3.6 3.6 0 0 0-5.07-.29 3.7 3.7 0 0 0-.29 5.13 3.6 3.6 0 0 0 5.08.29m27.77-24.6a4.16 4.16 0 0 0 .32-5.78 4.06 4.06 0 0 0-5.72-.33 4.17 4.17 0 0 0-.32 5.8 4.06 4.06 0 0 0 5.72.32m27.6-24.72c1.8-1.6 1.92-4.39.33-6.2s-4.34-1.92-6.13-.32a4.44 4.44 0 0 0-.32 6.2 4.27 4.27 0 0 0 6.09.33zm27.58-24.8c1.87-1.67 1.99-4.55.32-6.44s-4.5-2-6.37-.33c-1.87 1.69-2 4.56-.33 6.45s4.51 2.01 6.38.33m27.52-24.84a4.7 4.7 0 0 0 .37-6.57 4.6 4.6 0 0 0-6.5-.37 4.7 4.7 0 0 0-.36 6.57 4.6 4.6 0 0 0 6.5.37m27.4-25a4.6 4.6 0 0 0 .33-6.44c-1.67-1.9-4.51-2.02-6.38-.33s-1.99 4.55-.32 6.44 4.5 2.01 6.37.33m27.33-25.08c1.78-1.6 1.9-4.4.32-6.2a4.27 4.27 0 0 0-6.09-.33 4.4 4.4 0 0 0-.32 6.16 4.27 4.27 0 0 0 6.09.33zm27.24-25.13a4.17 4.17 0 0 0 .32-5.79 4.06 4.06 0 0 0-5.72-.32 4.16 4.16 0 0 0-.32 5.78 4.06 4.06 0 0 0 5.72.33m27.16-25.25a3.7 3.7 0 0 0 .29-5.13 3.6 3.6 0 0 0-5.08-.28 3.7 3.7 0 0 0-.28 5.13 3.6 3.6 0 0 0 5.07.28m27.13-25.28c1.3-1.15 1.38-3.17.24-4.48s-3.13-1.4-4.43-.25-1.38 3.17-.24 4.48 3.13 1.4 4.42.25m27.09-25.33c1.05-.95 1.13-2.63.2-3.7s-2.6-1.15-3.65-.2c-1.06.94-1.14 2.62-.2 3.69s2.6 1.15 3.65.2m27.08-25.32c.85-.74.9-2.06.16-2.88a2.03 2.03 0 0 0-2.88-.16c-.81.74-.9 2.05-.16 2.87a2 2 0 0 0 2.84.17zm27.08-25.37c.6-.54.65-1.48.12-2.1a1.46 1.46 0 0 0-2.07-.12 1.5 1.5 0 0 0-.12 2.1c.53.6 1.46.65 2.07.11m27.12-25.24c.41-.37.45-1.03.08-1.44a1 1 0 0 0-1.42-.08 1.05 1.05 0 0 0-.08 1.43c.37.41 1.02.46 1.42.09m27.21-25.21c.24-.25.28-.66.04-.9a.6.6 0 0 0-.9-.04c-.24.24-.28.65-.04.9s.65.29.9.04m27.2-25.2s.12-.3 0-.42c-.08-.12-.29-.12-.41 0-.12.08-.12.29 0 .41.08.13.29.13.41 0M514.68 906.35s.12-.28 0-.4c-.08-.13-.29-.13-.4 0s-.13.28 0 .4c.07.13.28.13.4 0m27.65-24.7a.54.54 0 0 0 .04-.79.53.53 0 0 0-.77-.04.54.54 0 0 0-.04.78.53.53 0 0 0 .77.04m27.69-24.67c.36-.33.4-.95.08-1.32a.94.94 0 0 0-1.3-.08.97.97 0 0 0-.08 1.32c.33.36.93.4 1.3.08m27.77-24.55a1.43 1.43 0 0 0 .12-1.97 1.4 1.4 0 0 0-1.95-.13 1.43 1.43 0 0 0-.12 1.97 1.4 1.4 0 0 0 1.95.13m27.7-24.67c.72-.66.76-1.77.11-2.5s-1.74-.79-2.47-.13-.78 1.76-.13 2.5 1.75.78 2.48.12m27.77-24.59c.9-.82.98-2.21.17-3.16a2.2 2.2 0 0 0-3.13-.16c-.9.82-.97 2.22-.16 3.16a2.2 2.2 0 0 0 3.12.16m27.73-24.55c1.1-.98 1.18-2.7.2-3.81s-2.67-1.2-3.77-.2-1.18 2.7-.2 3.8 2.68 1.2 3.77.21m27.65-24.71a3 3 0 0 0 .25-4.19 2.93 2.93 0 0 0-4.14-.24 3 3 0 0 0-.25 4.18 2.93 2.93 0 0 0 4.14.25m27.61-24.71c1.34-1.2 1.42-3.25.25-4.6s-3.21-1.44-4.55-.25c-1.34 1.2-1.42 3.25-.24 4.6s3.2 1.44 4.54.25m27.57-24.8a3.47 3.47 0 0 0 .25-4.88 3.43 3.43 0 1 0-5.08 4.6 3.37 3.37 0 0 0 4.8.24zm27.45-24.92a3.5 3.5 0 0 0 .24-4.88 3.37 3.37 0 0 0-4.79-.25 3.46 3.46 0 0 0-.24 4.84 3.4 3.4 0 0 0 4.83.25zm27.49-24.92a3.5 3.5 0 0 0 .24-4.88 3.37 3.37 0 0 0-4.8-.25c-1.37 1.27-1.5 3.45-.24 4.84s3.42 1.52 4.8.25zm27.32-25.08c1.34-1.2 1.42-3.25.24-4.6s-3.2-1.44-4.54-.25c-1.34 1.2-1.42 3.25-.25 4.6s3.21 1.44 4.55.25m27.25-25.13a3 3 0 0 0 .24-4.18 2.93 2.93 0 1 0-4.35 3.94 2.93 2.93 0 0 0 4.15.24zm27.28-25.12a2.73 2.73 0 0 0 .2-3.82 2.67 2.67 0 0 0-3.77-.2c-1.1.98-1.18 2.7-.2 3.81s2.67 1.2 3.77.2m27.12-25.28c.9-.82.98-2.22.16-3.16a2.2 2.2 0 0 0-3.12-.17c-.9.83-.98 2.22-.16 3.17a2.2 2.2 0 0 0 3.12.16m27.2-25.2c.78-.7.82-1.86.13-2.64s-1.83-.82-2.6-.12-.81 1.85-.12 2.63 1.82.82 2.6.12m27.16-25.25a1.43 1.43 0 0 0 .12-1.97 1.4 1.4 0 0 0-1.95-.12 1.43 1.43 0 0 0-.12 1.97 1.4 1.4 0 0 0 1.95.13m27.16-25.21a1.03 1.03 0 0 0 .08-1.44 1 1 0 0 0-1.42-.08 1.03 1.03 0 0 0-.08 1.44 1 1 0 0 0 1.42.08m27.2-25.2c.25-.26.29-.67.04-.91a.6.6 0 0 0-.89-.04c-.24.24-.28.65-.04.9a.6.6 0 0 0 .89.04m27.21-25.2s.12-.3 0-.42a.27.27 0 0 0-.41 0 .3.3 0 0 0 0 .42c.12.12.29.12.41 0m27.32-25.05s.04-.08 0-.12c0 0-.08-.04-.12 0v.12c0 .04.08.04.12 0M566.73 909.1s.08-.2 0-.24c-.08-.08-.2-.08-.24 0-.09.08-.09.2 0 .25.08.08.2.08.24 0m27.65-24.72s.2-.45 0-.65c-.16-.21-.45-.21-.65 0-.2.16-.2.45 0 .65.16.2.45.2.65 0m27.7-24.63a.9.9 0 0 0 .07-1.2.87.87 0 0 0-1.18-.07.9.9 0 0 0-.08 1.19.87.87 0 0 0 1.18.08M649.68 835c.45-.4.49-1.1.08-1.55a1.1 1.1 0 0 0-1.54-.09 1.1 1.1 0 0 0-.08 1.56 1.1 1.1 0 0 0 1.54.08m27.73-24.63c.61-.53.65-1.48.12-2.1s-1.46-.65-2.07-.11a1.5 1.5 0 0 0-.12 2.09c.53.61 1.46.66 2.07.12m27.61-24.71c.73-.66.77-1.77.12-2.5s-1.74-.79-2.48-.13-.77 1.77-.12 2.5c.65.74 1.75.78 2.48.13m27.65-24.72c.85-.74.9-2.05.16-2.87a2 2 0 0 0-2.84-.16 2.02 2.02 0 0 0 2.68 3.04m27.57-24.8c.9-.82.97-2.26.16-3.16s-2.23-.99-3.12-.17-.98 2.22-.17 3.16a2.2 2.2 0 0 0 3.13.17m27.57-24.8a2.43 2.43 0 0 0 .16-3.4 2.36 2.36 0 0 0-3.37-.17 2.43 2.43 0 0 0-.16 3.4 2.4 2.4 0 0 0 3.37.21zm27.44-24.92c.98-.9 1.06-2.42.17-3.4s-2.4-1.07-3.37-.17-1.06 2.42-.16 3.4a2.4 2.4 0 0 0 3.36.21zm27.45-24.92a2.4 2.4 0 0 0 .16-3.4 2.4 2.4 0 0 0-3.37-.21 2.43 2.43 0 0 0-.16 3.4c.9 1 2.4 1.08 3.37.17zm27.33-25.04c.89-.82.97-2.22.16-3.16a2.2 2.2 0 0 0-3.13-.16c-.9.82-.97 2.25-.16 3.16a2.2 2.2 0 0 0 3.13.16m27.32-25.08c.81-.74.9-2.06.16-2.88-.73-.86-2.03-.9-2.84-.16s-.9 2.05-.16 2.87a2 2 0 0 0 2.84.17m27.29-25.13c.73-.65.77-1.76.12-2.5s-1.75-.78-2.48-.13-.77 1.77-.12 2.5c.65.75 1.75.79 2.48.13m27.24-25.12c.6-.54.65-1.48.12-2.1-.53-.61-1.46-.65-2.07-.12s-.65 1.48-.12 2.1 1.46.65 2.07.12M979.16 536a1.24 1.24 0 0 0 .09-1.72 1.2 1.2 0 0 0-1.71-.08 1.24 1.24 0 0 0-.08 1.72 1.2 1.2 0 0 0 1.7.08m27.21-25.2a.9.9 0 0 0 .08-1.2.87.87 0 0 0-1.18-.08.9.9 0 0 0-.08 1.2.87.87 0 0 0 1.18.08m27.24-25.13a.54.54 0 0 0 .04-.78.52.52 0 0 0-.77-.04.55.55 0 0 0-.04.78c.2.25.57.25.77.04m27.29-25.16s.12-.3 0-.41c-.09-.13-.29-.13-.41 0-.12.08-.12.28 0 .4s.28.13.41 0m27.32-25.04s.04-.08 0-.12c0 0-.08-.04-.12 0 0 0-.04.08 0 .12zm-469.4 476.47s.08-.2 0-.25c-.08-.08-.2-.08-.24 0-.08.08-.08.2 0 .25.08.08.2.08.24 0m27.57-24.8s.16-.37 0-.53c-.12-.17-.36-.17-.53 0-.16.16-.16.37 0 .53.12.17.37.17.53 0m27.65-24.71c.25-.25.29-.66.04-.9a.6.6 0 0 0-.9-.05.6.6 0 0 0-.03.9.6.6 0 0 0 .9.05m27.56-24.8a.9.9 0 0 0 .08-1.19.87.87 0 0 0-1.18-.08.9.9 0 0 0-.08 1.19.87.87 0 0 0 1.18.08m27.65-24.71a1.1 1.1 0 0 0 .08-1.56 1.1 1.1 0 0 0-1.54-.08 1.1 1.1 0 0 0-.08 1.56 1.1 1.1 0 0 0 1.54.08m27.57-24.8a1.3 1.3 0 0 0 .08-1.85 1.3 1.3 0 0 0-1.83-.08 1.3 1.3 0 0 0-.08 1.85 1.3 1.3 0 0 0 1.83.08m27.49-24.84a1.43 1.43 0 0 0 .12-1.97 1.4 1.4 0 0 0-1.95-.12 1.43 1.43 0 0 0-.12 1.97c.48.58 1.38.62 1.95.12m27.52-24.83c.61-.54.65-1.48.13-2.1s-1.47-.65-2.08-.12c-.6.53-.65 1.48-.12 2.1s1.47.65 2.07.12m27.5-24.88c.64-.58.68-1.6.11-2.22a1.53 1.53 0 0 0-2.19-.12c-.65.57-.69 1.6-.12 2.22.57.65 1.58.7 2.2.12m27.4-25c.6-.54.65-1.48.12-2.1a1.46 1.46 0 0 0-2.07-.12c-.61.53-.65 1.48-.12 2.1s1.46.65 2.07.12m27.36-24.96a1.43 1.43 0 0 0 .12-1.97 1.4 1.4 0 0 0-1.94-.13 1.43 1.43 0 0 0-.13 1.97c.5.58 1.39.62 1.95.13m27.41-25a1.3 1.3 0 0 0 .08-1.85 1.3 1.3 0 0 0-1.83-.08 1.3 1.3 0 0 0-.08 1.84c.49.54 1.3.58 1.83.09m27.33-25.09a1.1 1.1 0 0 0 .08-1.56 1.1 1.1 0 0 0-1.55-.08 1.1 1.1 0 0 0-.08 1.56 1.1 1.1 0 0 0 1.55.08m27.28-25.12a.9.9 0 0 0 .08-1.2.87.87 0 0 0-1.18-.08c-.36.3-.36.83-.08 1.2a.87.87 0 0 0 1.18.08m27.32-25.09c.25-.24.29-.65.04-.9a.6.6 0 0 0-.89-.04.6.6 0 0 0-.04.9.6.6 0 0 0 .89.04m27.25-25.12s.16-.37 0-.54c-.12-.16-.37-.16-.53 0-.16.13-.16.37 0 .54.12.16.37.16.53 0m27.32-25.04s.08-.2 0-.25c-.08-.08-.2-.08-.24 0-.08.08-.08.2 0 .25.08.08.2.08.24 0M753.46 840.18s.2-.45 0-.66c-.16-.2-.45-.2-.65 0-.2.17-.2.45 0 .66.16.2.45.2.65 0m27.57-24.76c.24-.24.28-.65.04-.9s-.65-.29-.9-.04a.6.6 0 0 0-.04.9c.25.25.65.29.9.04m27.52-24.88a.8.8 0 0 0 .05-1.06.76.76 0 0 0-1.06-.05.8.8 0 0 0-.04 1.07c.28.33.73.33 1.06.04m27.48-24.83a.9.9 0 0 0 .08-1.2.87.87 0 0 0-1.17-.08.9.9 0 0 0-.09 1.2c.29.36.82.36 1.18.08m27.45-24.92a.9.9 0 0 0 .08-1.2.87.87 0 0 0-1.18-.08.9.9 0 0 0-.08 1.2c.29.36.81.36 1.18.08m27.49-24.92a.9.9 0 0 0 .08-1.2.87.87 0 0 0-1.18-.07.9.9 0 0 0-.08 1.19.87.87 0 0 0 1.18.08m27.36-25a.77.77 0 0 0 .04-1.07.75.75 0 0 0-1.05-.04c-.33.28-.33.74-.04 1.06.28.33.73.33 1.05.05m27.4-25a.6.6 0 0 0 .05-.9.6.6 0 0 0-.9-.05.6.6 0 0 0-.03.9c.24.25.64.3.89.04m27.37-25a.54.54 0 0 0 .04-.78.53.53 0 0 0-.78-.04.5.5 0 0 0 0 .78.52.52 0 0 0 .78.04zm27.32-25.04s.16-.37 0-.53c-.12-.17-.37-.17-.53 0-.16.12-.16.37 0 .53.12.16.37.16.53 0m27.32-25.08s.09-.2 0-.25c-.08-.08-.2-.08-.24 0-.08.08-.08.2 0 .25.08.08.2.08.24 0m27.41-25s.04-.09 0-.13c0 0-.08-.04-.12 0v.13c0 .04.08 0 .12 0M777.86 867.68v-.12s-.08-.04-.12 0c0 0-.04.08 0 .12 0 0 .08.04.12 0m27.53-24.87s.08-.21 0-.25c-.08-.08-.2-.08-.24 0-.09.08-.09.2 0 .25.08.08.2.08.24 0m27.49-24.84s.12-.29 0-.41q-.21-.2-.41 0c-.12.08-.12.28 0 .4.12.13.28.13.4 0m27.45-24.91s.12-.29 0-.41c-.08-.13-.28-.13-.4 0-.12.08-.12.29 0 .4.08.13.28.13.4 0m27.53-24.87s.16-.37 0-.53c-.12-.17-.37-.17-.53 0-.16.12-.16.36 0 .53.12.16.37.16.53 0m27.4-25s.13-.29 0-.41q-.2-.2-.4 0c-.12.08-.12.29 0 .4s.28.13.4 0m27.45-24.91s.13-.29 0-.41-.28-.12-.4 0c-.12.08-.12.29 0 .4s.28.13.4 0m27.37-24.95s.08-.2 0-.25c-.08-.08-.2-.08-.24 0-.09.08-.09.2 0 .25.08.08.2.08.24 0m27.4-25v-.13s-.08-.04-.12 0c0 0-.04.09 0 .13q.07.06.13 0m27.44-24.92s.04-.08 0-.13c0 0-.08-.04-.12 0v.13s.08.04.12 0"/></g><path stroke="#6D46FC" stroke-width="134" d="M-44.97 615.14C-.1 428.64 128.66 391.42 397.33 413.2S644.76 119.84 764.14 52.74c95.5-53.69 282.71-31.02 364.38-12.98"/></g><defs><clipPath id="a"><path fill="#fff" d="M0 0h1024v613H0z"/></clipPath></defs></svg>