<svg xmlns="http://www.w3.org/2000/svg" width="1024" height="613" fill="none" viewBox="0 0 1024 613"><g clip-path="url(#a)"><path fill="#C76EF2" d="M0 0h1024v613H0z"/><path stroke="#4221B8" stroke-linecap="round" stroke-width="13" d="M-78.15 504.03c51.3-19.77 99.6-44.04 144.9-75.09 26.24-17.99 50.13-39.04 73-61.02 23.87-22.92 47.66-47.01 65.1-75.3 13.03-21.16 22.02-44.92 25.75-69.54 2.2-14.47 9.3-57.4-13.71-62.7-12.28-2.84-37.87 7.26-45.9 11.58-32.64 17.59-67.2 46.6-92.63 71.72-16.34 16.13-71.75 75.36-82 103.46-1.85 5.04 3.25 14 8.66 13.73 20.88-1.06 80.74-41.6 91-48.24 27.41-17.72 51.57-33.64 75.21-55.8 23.04-21.6 41.35-45.22 60.39-70.35 17.66-23.32 36.3-48.18 49.86-74.41 5.94-11.5 10.43-20.82 7.67-33.45-4.06-18.58-26.02-24.23-42.41-23.34-31.19 1.7-62.4 18.22-89.54 31.75-87.76 43.76-173.29 98-248.85 160.1-25.75 21.16-60.91 47.5-68.82 82.15-7.55 33.1 28.1 37.11 52.5 34.12 33.42-4.11 65.61-19.9 93.87-37.03 38.32-23.24 72.94-52.82 105.1-83.69 35.48-34.06 68.92-70.74 96.73-111.32 22.34-32.61 46.13-69.83 54.69-109.05 16.07-73.66-87.3-26.22-116.15-12.13-51.16 24.98-99.8 55.49-147.95 85.58-64.05 40.03-129.6 80.47-187.22 129.4-5.63 4.78-53.05 40.83-38.01 54.62 6.74 6.18 21.44 3.12 27.78 1.98 17.97-3.25 33.94-9.07 50.82-15.96 92.98-38 173.26-105.67 237.34-181.27 30.5-35.99 59.3-74.77 77.63-118.51 8.37-19.97 26.07-65.19-7.94-73.93-18.15-4.67-37 1.67-53.64 7.38C53.73-89.77 22.7-74.09-6.55-59.16-71.1-26.2-133.4 10.24-195.23 47.8m1280.3 144.01c-52.87 15.1-103.14 34.95-151.04 61.81-27.75 15.57-53.43 34.4-78.18 54.24-25.82 20.69-51.68 42.55-71.57 69.16-14.89 19.92-25.97 42.77-31.89 66.96-3.48 14.21-14.4 56.33 8.04 63.68 11.98 3.93 38.37-3.84 46.75-7.43 34.09-14.59 71.1-40.38 98.69-63.13 17.72-14.6 78.2-68.63 90.94-95.7 2.28-4.85-2-14.23-7.4-14.45-20.89-.82-84.15 34.2-94.96 39.9-28.88 15.18-54.37 28.88-79.9 48.84-24.88 19.45-45.24 41.32-66.45 64.65-19.68 21.65-40.48 44.74-56.32 69.65-6.95 10.93-12.26 19.8-10.64 32.62 2.38 18.87 23.75 26.46 40.15 27.05 31.21 1.1 63.78-12.56 92.02-23.6 91.33-35.72 181.37-82.09 262.19-137.16 27.55-18.78 64.93-41.87 75.9-75.67 10.49-32.28-24.67-39.48-49.22-38.68-33.66 1.1-67.14 13.94-96.82 28.48-40.24 19.7-77.37 46.07-112.17 73.93-38.4 30.75-74.98 64.28-106.31 102.21-25.18 30.48-52.2 65.42-64.24 103.72-22.6 71.91 84.6 33.92 114.59 22.48 53.2-20.3 104.37-46.32 155.03-71.98 67.37-34.14 136.28-68.55 198.05-112.11 6.04-4.26 56.5-35.91 42.75-51-6.16-6.76-21.07-5.03-27.49-4.46-18.19 1.63-34.61 6-52.04 11.35-96.01 29.5-182.03 89.72-252.62 159.28-33.61 33.1-65.77 69.15-87.94 111.08-10.13 19.14-31.8 62.59 1.28 74.34 17.66 6.27 37 1.65 54.09-2.55 32.19-7.9 64.5-20.74 94.97-33 67.24-27.03 132.57-57.74 197.5-89.62"/></g><defs><clipPath id="a"><path fill="#fff" d="M0 0h1024v613H0z"/></clipPath></defs></svg>