<svg width="480" height="286" viewBox="0 0 480 286" fill="none" xmlns="http://www.w3.org/2000/svg">
<g id="Pattern=06" clip-path="url(#clip0_158_2)">
<g id="Clip path group">
<mask id="mask0_158_2" style="mask-type:luminance" maskUnits="userSpaceOnUse" x="0" y="0" width="480" height="286">
<g id="clip0_948_19931">
<path id="Vector" d="M480 0H0V286H480V0Z" fill="white"/>
</g>
</mask>
<g mask="url(#mask0_158_2)">
<g id="Group">
<path id="Vector_2" d="M480 0H0V286H480V0Z" fill="#79FD7F"/>
<path id="Vector_3" opacity="0.11" d="M-49.6533 275.621C-18.0912 243.027 12.1719 209.189 40.9906 174.147C69.8206 139.092 97.9755 103 123.27 65.286C134.628 48.3491 142.341 28.708 133.127 9.09132C131.1 4.77687 125.026 3.38644 120.843 4.52045C102.93 9.39148 91.8198 26.3521 81.0382 40.2282C70.2566 54.1043 60.0072 68.2076 50.0598 82.6082C30.341 111.156 12.2879 140.853 -3.97359 171.503C-20.0883 201.875 -34.4476 233.179 -46.9366 265.215C-52.7223 280.059 -58.8846 295.544 -57.2481 311.835C-55.5672 328.549 -44.6995 342.816 -26.8186 343.093C-10.5585 343.348 5.0743 331.882 17.1132 322.144C31.39 310.602 43.875 297.284 55.5374 283.144C78.5576 255.238 99.9617 225.923 120.552 196.199C160.998 137.812 197.143 76.4488 228.585 12.7578C232.586 4.65355 236.51 -3.49146 240.36 -11.6705C243.999 -19.4034 247.481 -27.0701 248.281 -35.6801C249.035 -43.8013 247.16 -52.0934 240.856 -57.7073C234.235 -63.6044 224.853 -63.7742 216.786 -61.3779C199.077 -56.1241 184.27 -43.5692 171.498 -30.7132C158.73 -17.856 147.022 -3.96219 136.019 10.4186C113.579 39.7442 93.6707 71.0419 74.2627 102.426C55.1147 133.39 36.8395 164.887 19.458 196.875C1.91852 229.153 -14.705 261.927 -30.3859 295.143C-45.2624 326.656 -60.1927 358.511 -70.4924 391.873C-75.5373 408.21 -79.4907 425.09 -80.8664 442.163C-82.2243 459.002 -77.766 478.181 -61.14 486.058C-47.4892 492.527 -31.5253 489.159 -18.3434 483.229C-0.745758 475.311 14.606 464.075 29.1075 451.457C56.7339 427.424 81.883 400.171 105.93 372.616C130.232 344.771 153.219 315.81 175.42 286.271C219.126 228.116 261.645 168.46 300.254 106.78C319.506 76.0258 337.478 44.4316 353.053 11.6476C367.298 -18.3382 379.85 -49.8926 381.856 -83.3736C382.823 -99.5578 379.548 -117.585 367.675 -129.449C355.918 -141.196 337.978 -142.166 323.013 -136.828C290.1 -125.095 267.788 -93.1397 249.648 -64.9886C214.557 -10.5435 193.31 51.6711 177.662 114.154C169.801 145.556 163.31 177.282 157.094 209.046C150.471 242.893 143.086 276.989 142.351 311.604C142.009 327.63 142.25 344.951 150.052 359.399C157.535 373.253 174.136 380.041 188.93 373.968C203.389 368.035 212.546 355.315 221.375 343.072C232.178 328.083 242.855 313.008 253.412 297.847C295.976 236.703 336.594 174.222 375.06 110.42C394.165 78.7294 412.822 46.7494 430.793 14.3974C447.953 -16.5029 463.958 -48.0232 475.832 -81.3762C481.114 -96.2144 488.31 -114.163 482.797 -129.96C476.76 -147.259 458.73 -151.466 442.776 -145.805C407.803 -133.395 381.973 -102.153 358.994 -74.5047C312.65 -18.752 274.258 43.0985 238.125 105.786C202.559 167.489 167.1 229.787 139.939 295.751C115.477 355.161 91.328 424.035 106.43 488.887C110.432 506.08 121.973 518.571 139.964 520.124C155.524 521.467 170.475 515.143 183.618 507.412C215.35 488.754 240.236 458.89 263.592 431.004C311.326 374.012 352.721 311.844 394.452 250.417C436.539 188.467 477.665 125.806 515.483 61.1383C549.844 2.37767 583.068 -58.6825 598.831 -125.432C602.561 -141.227 605.803 -157.282 602.535 -173.456C599.267 -189.629 587.402 -202.063 570.483 -202.266C553.741 -202.467 536.816 -190.705 524.16 -180.932C510.549 -170.427 498.111 -158.376 486.214 -145.993C446.364 -104.513 413.513 -56.1242 388.96 -4.14053C364.26 48.1496 347.564 104.381 340.154 161.748C336.409 190.741 334.828 220.034 335.789 249.259C336.258 263.54 337.323 277.804 338.991 291.995C340.781 307.18 341.786 324.278 348.476 338.197C355.854 353.548 371.754 359.415 387.749 355.07C402.782 350.988 415.671 339.949 427.545 330.406C456.846 306.863 483.049 279.906 507.81 251.695C557.124 195.514 603.484 136.542 647.869 76.4124C670.165 46.2066 691.884 15.5691 713.045 -15.4406C733.353 -45.1997 753.283 -75.3545 769.639 -107.51C776.595 -121.179 788.711 -139.899 782.139 -155.698C773.747 -175.873 748.914 -166.246 735.796 -157.195C721.049 -147.019 709.662 -132.713 698.258 -119.102C687.324 -106.058 676.657 -92.7948 666.279 -79.3068C624.447 -24.9337 587.093 33.095 556.859 94.7326C541.88 125.273 528.585 156.695 517.484 188.858C507.065 219.049 498.562 252.531 503.808 284.628C505.308 293.811 510.388 302.015 519.812 304.537C527.457 306.583 535.429 304.194 542.241 300.691C557.819 292.681 570.25 278.198 580.795 264.571C603.998 234.578 625.862 203.427 647.713 172.445C669.674 141.305 691.248 109.891 712.396 78.1936C731.743 49.1937 751.212 19.9134 762.409 -13.3714C765.343 -22.0846 766.11 -32.5744 758.941 -39.5414C752.419 -45.8806 743.019 -44.9486 735.214 -41.9882C718.708 -35.7233 704.296 -25.3323 692.032 -12.7274C668.747 11.2088 652.377 42.3302 639.3 72.7853C626.346 102.954 616.765 134.62 611.173 166.981C608.378 183.151 606.449 199.56 605.635 215.955C604.803 232.637 608.002 251.495 623.989 260.287C651.899 275.642 679.562 243.979 696.425 226.133C720.623 200.525 743.612 173.776 765.3 146.011C807.48 92.015 844.841 34.2575 876.726 -26.3871C881.98 -36.3835 870.427 -45.3736 861.341 -40.4984C833.603 -25.6173 809.982 -4.01817 792.167 21.875C775.605 45.9427 762.777 75.2548 764.745 105.07C765.85 121.802 772.037 137.376 784.084 149.214C794.009 158.964 808.572 142.967 798.635 133.205C776.149 111.112 787.694 73.4033 800.55 49.491C816.97 18.9352 842.394 -5.85196 872.902 -22.2199C867.775 -26.9244 862.648 -31.6288 857.517 -36.3312C827.089 21.5439 791.732 76.7593 751.654 128.43C731.434 154.499 710.073 179.678 687.642 203.87C678.254 213.993 668.643 225.683 657.892 233.777C653.33 237.212 649.02 239.981 644.005 241.508C639.925 242.753 636.874 243.114 633.394 240.766C628.956 237.772 627.742 231.673 627.329 226.674C626.698 219.083 627.413 211.394 628.051 203.824C629.283 189.288 631.492 174.806 634.382 160.509C640.295 131.249 649.392 102.699 661.701 75.5024C674.336 47.5869 689.543 19.2253 711.99 -2.07202C717.283 -7.0929 723.08 -11.5038 729.332 -15.2638C732.427 -17.1218 735.61 -18.8465 738.932 -20.2556C740.056 -20.7342 745.588 -22.3425 745.642 -22.9024C745.635 -22.8225 743.031 -25.0141 743.229 -25.0304C742.055 -24.9231 743.866 -25.7463 743.092 -24.8726C742.395 -24.086 742.241 -21.0028 741.901 -19.8921C740.707 -16.0184 739.185 -12.2214 737.637 -8.47952C734.66 -1.28851 731.295 5.73987 727.667 12.6219C712.069 42.2219 692.35 69.7361 673.586 97.3722C654.004 126.212 634.058 154.804 613.762 183.144C603.342 197.696 592.83 212.179 582.227 226.6C572.26 240.16 562.586 254.199 550.915 266.377C545.405 272.127 539.394 277.412 532.482 281.424C530.721 282.448 528.842 283.215 526.832 283.619C526.61 283.665 525.324 284.075 525.89 283.845C526.008 283.799 525.219 283.616 524.894 283.394C525.83 284.035 525.759 284.515 525.567 283.433C523.037 269.318 523.761 254.667 526.088 240.551C530.937 211.115 541.896 182.782 553.22 155.317C565.341 125.921 579.157 97.235 594.393 69.3331C624.644 13.9262 660.452 -38.2672 700.114 -87.3433C710.318 -99.9677 720.58 -112.686 731.606 -124.603C736.881 -130.304 742.419 -135.717 748.947 -139.969C752.155 -142.06 755.447 -143.853 759.072 -145.099C760.208 -145.49 761.432 -145.72 762.542 -146.175C763.881 -146.719 763.558 -145.723 763.486 -146.422C763.545 -145.819 761.615 -147.859 762.463 -147.41C761.082 -148.133 762.534 -148.227 762.389 -146.898C762.325 -146.308 762.151 -151.05 762.327 -146.11C762.37 -144.957 762.098 -143.851 761.834 -142.732C760.99 -139.113 759.27 -135.802 757.716 -132.445C754.284 -125.028 750.637 -117.712 746.819 -110.487C738.864 -95.4463 730.154 -80.8193 721.046 -66.4474C684.313 -8.48489 643.587 47.2171 601.931 101.711C559.97 156.601 516.849 211.462 469.454 261.8C446.785 285.877 422.274 310.347 394.295 328.286C387.028 332.944 375.371 339.412 369.224 331.14C365.346 325.915 364.531 318.355 363.511 312.105C362.424 305.433 361.502 298.731 360.7 292.016C354.43 239.478 356.493 186.118 366.431 134.166C376.382 82.1345 393.948 31.7598 418.613 -15.1243C443.248 -61.9513 474.857 -104.915 512.652 -141.972C524.603 -153.692 537.071 -164.986 551.612 -173.434C560.005 -178.312 574.102 -185.958 579.677 -174.438C585.126 -163.179 581.822 -148.862 579.333 -137.288C576.014 -121.863 571.676 -106.664 566.557 -91.7396C545.824 -31.296 512.541 24.7026 479.648 79.1605C443.72 138.642 405.248 196.539 366.081 253.927C327.364 310.656 288.788 367.809 244.356 420.291C222.888 445.646 200.32 472.821 171.188 489.641C161.688 495.128 148.53 501.531 137.354 497.843C126.366 494.22 125.479 476.057 124.462 465.601C121.612 436.338 126.278 407.137 133.85 378.903C142.038 348.37 153.294 318.678 165.92 289.721C192.505 228.751 225.567 170.717 258.8 113.186C292.124 55.4983 327.332 -1.36195 369.41 -53.1513C390.018 -78.5174 412.065 -106.718 441.709 -121.89C446.253 -124.214 452.603 -127.548 457.92 -126.807C462.961 -126.105 463.129 -120.453 462.976 -116.267C462.712 -109.071 460.033 -101.918 457.815 -95.1452C455.432 -87.861 452.782 -80.6776 449.926 -73.5637C437.684 -43.0864 422.067 -14.1146 405.979 14.4725C389.207 44.2698 371.967 73.7992 354.29 103.065C318.515 162.294 280.91 220.414 241.549 277.323C231.955 291.197 222.236 304.984 212.421 318.703C204.682 329.522 197.149 343.259 186.045 351.059C182.742 353.381 178.904 355.6 174.993 354.429C169.957 352.918 167.717 347.16 166.377 342.591C162.347 328.818 163.567 312.876 164.516 298.732C166.605 267.525 173.677 236.65 179.722 206.032C185.536 176.578 191.662 147.174 198.977 118.055C213.488 60.3007 232.911 3.3013 264.228 -47.6765C272.039 -60.3895 280.513 -72.7443 289.999 -84.2702C299.95 -96.3651 311.696 -108.5 326.263 -114.961C336.018 -119.288 348.684 -120.924 355.221 -110.671C362.41 -99.3948 360.902 -83.8726 358.93 -71.3227C354.143 -40.8363 341.078 -12.4545 327.405 14.9372C312.509 44.7797 295.724 73.6422 277.913 101.827C241.776 159 202.341 214.392 161.817 268.526C120.959 323.107 77.3852 375.97 28.0658 423.174C15.8261 434.887 3.0998 446.131 -11.3147 455.125C-21.4267 461.436 -34.8489 469.414 -47.3337 467.875C-60.6825 466.229 -60.2925 449.253 -58.9054 438.784C-56.8492 423.266 -53.0603 408.007 -48.2801 393.117C-38.4556 362.51 -24.4612 333.214 -10.7493 304.205C3.67659 273.688 18.8981 243.545 34.8906 213.819C66.9326 154.269 101.382 95.0871 140.842 40.1014C150.642 26.4428 160.946 13.1297 172.034 0.486588C183.121 -12.1565 194.049 -24.3335 207.794 -33.2548C213.613 -37.0308 219.518 -39.4668 226.012 -41.3376C227.756 -41.839 227.082 -40.3273 226.288 -41.8154C226.232 -41.9178 226.793 -40.5899 226.786 -40.8934C226.859 -37.736 226.551 -34.9488 225.612 -31.8767C223.511 -25.0169 219.674 -18.4432 216.576 -11.9818C212.948 -4.41196 209.251 3.12518 205.489 10.6274C175.832 69.7966 142.106 126.923 104.64 181.478C85.9678 208.662 66.3049 235.208 45.7185 260.968C35.3038 274 24.4676 286.778 12.1731 298.09C6.1859 303.602 -0.21701 308.614 -7.03308 313.063C-12.2258 316.451 -18.196 320.522 -24.5114 321.379C-35.9669 322.928 -36.6729 309.996 -35.5234 301.137C-33.6428 286.682 -26.9595 272.868 -21.4562 259.511C-9.19061 229.744 4.69569 200.644 20.1154 172.38C34.7854 145.485 50.8449 119.356 68.1977 94.1111C76.8734 81.4911 85.9595 69.1377 95.3189 57.0142C99.9133 51.0609 104.553 45.1265 109.341 39.3302C114.129 33.5338 119.373 27.3406 127.128 25.2313C123.032 23.7084 118.94 22.1833 114.844 20.6604C120.11 31.8697 109.326 47.7514 102.838 57.1393C90.7807 74.5949 78.1366 91.6775 65.3113 108.571C39.4921 142.579 12.3689 175.597 -15.9804 207.523C-32.1475 225.734 -48.7225 243.578 -65.6657 261.072C-75.344 271.065 -59.351 285.636 -49.6567 275.623L-49.6533 275.621Z" fill="#31C838"/>
</g>
</g>
</g>
</g>
<defs>
<clipPath id="clip0_158_2">
<rect width="480" height="286" fill="white"/>
</clipPath>
</defs>
</svg>
