<svg xmlns="http://www.w3.org/2000/svg" width="1024" height="613" fill="none" viewBox="0 0 1024 613"><g clip-path="url(#a)"><path fill="#FFE60A" d="M0 0h1024v613H0z"/><path stroke="#FF5A56" stroke-linecap="round" stroke-width="29" d="M-88.47 447.7c37.72-105.38 84.8-205 145.87-299.07C92.8 94.13 134.56 44.18 178.29-3.8c45.6-50.04 93.59-100.03 150.49-137.45 42.57-28 90.65-47.99 140.78-57.39 29.46-5.52 116.82-23.15 128.9 23.07 6.43 24.65-12.87 77.23-21.29 93.8-34.23 67.43-91.7 139.59-141.72 192.99-32.12 34.29-150.27 150.94-207.16 173.82-10.2 4.1-28.78-5.55-28.5-16.53 1.05-42.34 80.78-166.62 93.8-187.9 34.77-56.83 66.06-106.94 110.12-156.48 42.93-48.27 90.23-87.14 140.6-127.57 46.75-37.53 96.57-77.14 149.48-106.55 23.2-12.9 42-22.7 67.96-18.05 38.18 6.83 50.88 50.88 49.92 84.14-1.82 63.28-33.96 127.73-60.19 183.7-84.82 181-191.2 358.27-314.15 515.95-41.9 53.74-93.9 126.92-164.3 145.53-67.26 17.77-77.33-54.13-72.49-103.74 6.65-68 37.22-134.38 70.76-192.9C316.78 225.32 375.42 153 436.82 85.54c67.76-74.4 140.97-144.87 222.46-204.23 65.48-47.7 140.3-98.67 220.02-118.94 149.7-38.08 58.16 174.8 30.89 234.3-48.37 105.49-108.17 206.27-167.15 306.03-78.46 132.7-157.68 268.48-254.65 388.84-9.47 11.76-80.66 110.5-109.64 81.08-12.99-13.19-7.51-43.18-5.5-56.1 5.7-36.64 16.74-69.41 29.95-104.12 72.75-191.15 206.88-358.8 358.03-494.23 71.95-64.48 149.7-125.72 238.15-166.1 40.38-18.46 131.87-57.69 151.52 10.52 10.49 36.4-1.47 75.07-12.27 109.19-20.35 64.29-50.77 128.3-79.75 188.65-63.95 133.2-135.17 262.12-208.71 390.13"/></g><defs><clipPath id="a"><path fill="#fff" d="M0 0h1024v613H0z"/></clipPath></defs></svg>