<svg xmlns="http://www.w3.org/2000/svg" width="1024" height="613" fill="none" viewBox="0 0 1024 613"><g clip-path="url(#a)"><path fill="#9694FF" d="M0 0h1024v613H0z"/><path stroke="#FFE60A" stroke-linecap="round" stroke-width="29" d="M848.31 877.33c-110.17-19.7-216.22-49.58-319.12-94.2-59.62-25.85-115.81-58.75-170.38-93.9-56.92-36.65-114.19-75.68-160.53-125.58-34.68-37.34-62.37-81.43-79.96-129.3-10.34-28.14-42.22-111.36 1.34-130.93 23.25-10.45 78.3-.14 96.04 5.4 72.18 22.57 152.87 67.26 213.83 107.72 39.15 25.99 173.8 123.13 205.81 175.44 5.74 9.37-.7 29.3-11.57 30.85-41.94 5.99-177.72-52.01-200.87-61.32-61.81-24.85-116.42-47.39-172.6-82.61-54.72-34.32-100.9-74.51-149.13-117.47C56.4 321.56 9.07 279-28.72 231.72c-16.57-20.75-29.36-37.66-29.08-64.03.4-38.78 41.73-58.62 74.69-63.2 62.7-8.7 131.59 12.29 191.14 28.86 192.58 53.6 385.04 129.08 560.94 224.14 59.96 32.4 140.75 71.53 170.79 137.87 28.7 63.37-40.54 85.24-90.27 88.7-68.15 4.74-138.7-14.4-201.96-37.75-85.78-31.68-166.84-77.5-243.54-126.86C319.36 365 237.72 304.5 165.65 234 107.75 177.34 45.07 112.01 11.84 36.76c-62.4-141.3 162.73-86.37 225.92-69.35C349.82-2.4 459.13 39.83 567.3 81.44 711.19 136.78 858.23 192.35 993.02 268c13.17 7.39 122.35 61.2 98.15 94.66-10.85 15-41.33 14.57-54.41 14.74-37.08.47-71.23-5-107.64-12.26-200.58-40-388.17-144.44-546.82-271-75.52-60.26-148.82-126.77-203.33-207.27-24.9-36.77-78.78-120.47-14.78-151.18 34.16-16.38 74.28-11 109.71-6.02 66.78 9.4 134.95 28.76 199.28 47.32 141.97 40.96 280.93 89.79 419.37 141.05"/></g><defs><clipPath id="a"><path fill="#fff" d="M0 0h1024v613H0z"/></clipPath></defs></svg>