<svg width="480" height="286" viewBox="0 0 480 286" fill="none" xmlns="http://www.w3.org/2000/svg">
<g id="Pattern=01" clip-path="url(#clip0_158_2)">
<g id="Clip path group">
<mask id="mask0_158_2" style="mask-type:luminance" maskUnits="userSpaceOnUse" x="0" y="0" width="480" height="286">
<g id="clip0_948_19705">
<path id="Vector" d="M480 0H0V286H480V0Z" fill="white"/>
</g>
</mask>
<g mask="url(#mask0_158_2)">
<g id="Group">
<path id="Vector_2" d="M480 0H0V286H480V0Z" fill="#79FD7F"/>
<path id="Vector_3" d="M498.366 96.8161C472.647 96.624 447.466 98.906 422.425 104.65C407.915 107.979 393.91 113.046 380.184 118.688C365.868 124.573 351.38 130.979 338.943 140.301C329.637 147.276 321.651 156.073 315.805 166.15C312.37 172.072 301.913 189.535 311.02 195.796C315.879 199.136 328.748 199.127 332.982 198.621C350.206 196.565 370.22 189.867 385.6 183.293C395.478 179.072 429.75 162.794 439.035 152.323C440.699 150.447 440.016 145.673 437.614 144.864C428.349 141.742 395.339 149.125 389.735 150.253C374.768 153.263 361.523 156.054 347.433 161.647C333.704 167.096 321.682 174.231 309.087 181.906C297.398 189.028 285.022 196.65 274.626 205.743C270.065 209.732 266.512 213.014 265.549 218.985C264.134 227.766 272.722 233.992 280.009 236.416C293.872 241.026 310.29 239.187 324.422 237.952C370.123 233.958 416.649 225.014 460.184 210.946C475.024 206.151 494.844 200.715 504.227 186.99C513.189 173.88 498.358 166.018 487.23 163.141C471.978 159.197 455.258 160.546 440.02 163.158C419.359 166.7 399.219 173.638 379.93 181.559C358.643 190.299 337.801 200.528 318.738 213.423C303.419 223.784 286.684 235.904 276.232 251.509C256.606 280.809 309.73 277.887 324.704 276.704C351.257 274.607 377.658 269.67 403.775 264.828C438.515 258.388 473.981 252.027 507.449 240.614C510.719 239.499 537.541 231.943 533.36 223.361C531.487 219.515 524.565 218.324 521.609 217.736C513.23 216.068 505.283 215.862 496.753 215.968C449.77 216.554 403.222 232.247 362.369 254.161C342.921 264.593 323.734 276.534 308.257 292.428C301.189 299.687 285.732 316.331 299.034 325.968C306.132 331.111 315.427 331.587 323.647 331.954C339.138 332.646 355.331 331.142 370.622 329.66C404.369 326.389 437.739 321.212 471.087 315.462" stroke="#C76EF2" stroke-width="6.08144" stroke-linecap="round"/>
<path id="Vector_4" d="M-4.551 208.693C20.8158 204.45 45.2273 197.863 68.9034 187.889C82.6223 182.11 95.5446 174.706 108.094 166.782C121.181 158.519 134.348 149.712 144.993 138.386C152.958 129.911 159.308 119.87 163.33 108.936C165.694 102.511 172.985 83.5073 162.935 78.9098C157.573 76.4568 144.898 78.6834 140.815 79.911C124.203 84.9047 105.643 94.951 91.625 104.077C82.6231 109.938 51.6683 131.877 44.3269 143.792C43.0114 145.927 44.5064 150.512 47.0119 150.895C56.6766 152.373 87.9198 139.412 93.2457 137.336C107.47 131.791 120.036 126.76 132.952 118.822C145.537 111.089 156.149 101.989 167.233 92.2588C177.52 83.2284 188.397 73.5878 197.071 62.8396C200.876 58.1242 203.81 54.2785 203.729 48.2313C203.611 39.3374 194.078 34.6846 186.483 33.5534C172.032 31.4011 156.177 36.042 142.469 39.6938C98.1395 51.5037 53.8511 68.3312 13.3915 89.6904C-0.399836 96.971 -18.9867 105.742 -25.8636 120.878C-32.4322 135.337 -16.4684 140.525 -5.01188 141.441C10.6916 142.698 26.9292 138.488 41.4897 133.289C61.2305 126.24 79.8735 115.934 97.5098 104.808C116.972 92.5309 135.739 78.8632 152.295 62.8763C165.599 50.0299 179.995 35.2072 187.602 18.0349C201.885 -14.2091 150.059 -2.17612 135.513 1.56937C109.719 8.21146 84.5638 17.6236 59.6716 26.8937C26.5609 39.2245 -7.27765 51.6016 -38.279 68.6114C-41.3076 70.2732 -66.4258 82.3388 -60.8291 90.0716C-58.3208 93.5374 -51.2978 93.5175 -48.2847 93.5878C-39.7432 93.787 -31.8797 92.6204 -23.4958 91.0457C22.6834 82.3722 65.8315 58.8923 102.297 30.2661C119.656 16.6384 136.498 1.5702 149.004 -16.7535C154.716 -25.1218 167.074 -44.1802 152.31 -51.3806C144.431 -55.2234 135.194 -54.0905 127.033 -53.0357C111.655 -51.048 95.9638 -46.7762 81.1566 -42.6812C48.4779 -33.6438 16.4993 -22.794 -15.3593 -11.3832" stroke="#C76EF2" stroke-width="6.08144" stroke-linecap="round"/>
</g>
</g>
</g>
</g>
<defs>
<clipPath id="clip0_158_2">
<rect width="480" height="286" fill="white"/>
</clipPath>
</defs>
</svg>
