<svg xmlns="http://www.w3.org/2000/svg" width="1024" height="613" fill="none" viewBox="0 0 1024 613"><g clip-path="url(#a)"><path fill="#FF5A56" d="M0 0h1024v613H0z"/><path stroke="#FFE60A" stroke-linecap="round" stroke-width="49" d="M654.47-120.82c3.42-1.96-27.42-6.13-29.89-6.4a408 408 0 0 0-82.39-.57c-23.36 2.18-57.93 6.88-80.92 11.5-23.8 4.78-47.82 10.79-67.93 24.94-15.28 10.75-27.94 25.66-34.09 43.47-7.03 20.39-5.43 43.15-6.2 64.37-1.07 29.71 1.55 80.6-29.26 96.66-15.28 7.96-31.8 5.9-48.2 3.7-26.09-3.51-51.88-8.82-78-12.16-26.98-3.46-66.15-12.7-88.33 9.17-16.35 16.11-13.49 38.3-14.23 59.27-1.57 43.94-16.23 91.94-56.1 115.74-67.3 40.18-150.73 25.76-223.6 14.23m732.25 359.65c5.3-9.1 21.98-13.4 31.2-13.94 18.88-1.11 39.18 8.11 56.16 15.1 40.8 16.78 80.29 36.7 121.44 52.65 25.99 10.07 54.12 19.14 82.27 20.23 19.61.76 41.2-2.35 53.87-19.89 12.05-16.69 9.49-38.06 3.99-56.45-8.1-27.08-23.58-51.33-38.78-74.5-24.1-36.74-48.95-72.9-72.15-110.29-21.35-34.42-78.91-112.17-29.81-151.15 38.53-30.59 87.02-3.35 128.51 1.26 46.31 5.15 89.96-14.27 115.84-55.76 32.42-51.98 46.07-116.58 59.12-175.53"/></g><defs><clipPath id="a"><path fill="#fff" d="M0 0h1024v613H0z"/></clipPath></defs></svg>