<svg xmlns="http://www.w3.org/2000/svg" width="1024" height="613" fill="none" viewBox="0 0 1024 613"><g clip-path="url(#a)"><path fill="#6D46FC" d="M0 0h1024v613H0z"/><path stroke="#C76EF2" stroke-linecap="round" stroke-width="29" d="M-116.71 480.44c43.11-87.86 93.8-169.8 156.1-245.54 36.1-43.89 77.3-83.19 120-120.59 44.53-39 91.14-77.73 144.26-104.66 39.74-20.15 83.48-32.8 127.96-36.05 26.14-1.9 103.78-8.64 109.73 32.7 3.18 22.06-18.76 65.84-27.7 79.42-36.36 55.23-93.37 112.28-142.08 153.77-31.28 26.65-145.4 116.4-197.08 130.71-9.26 2.57-24.46-7.65-23.14-17.16 5.07-36.7 86.56-136.85 99.96-154.06C287.09 153 319.2 112.54 362.34 73.8c42.06-37.7 86.96-66.84 134.7-97.03 44.3-28.02 91.48-57.55 140.33-77.91 21.44-8.94 38.73-15.6 60.83-9.02 32.5 9.7 39.22 49.21 35.12 78.02-7.8 54.8-42.04 107.65-70.33 153.7-91.47 148.96-201.31 292.55-323.62 417.49-41.69 42.59-94.05 101.07-157.05 110.33-60.18 8.84-61.88-54.63-52.8-97.26 12.45-58.43 45.53-113.11 80.42-160.66 47.3-64.47 105.35-121.56 165.33-174.13 66.18-58.02 136.7-112.06 213.34-155.64 61.58-35.02 131.6-71.96 202.86-81.75 133.81-18.39 33.38 157.6 3.84 206.62-52.39 86.91-114.24 168.62-175.28 249.51-81.2 107.6-163.36 217.81-259.44 312.88-9.38 9.28-80.93 88.1-103.22 59.68-10-12.73-2.3-38.25.72-49.29 8.55-31.27 21.37-58.66 36.25-87.52 81.97-158.95 214.98-291.46 359.6-394.3 68.86-48.97 142.43-94.55 223.24-120.96 36.9-12.07 120.25-37.18 130.64 24.02 5.54 32.66-8.65 65.08-21.39 93.66-23.99 53.87-56.7 106.5-87.8 156.1-68.66 109.47-143.2 214.5-219.66 318.5"/></g><defs><clipPath id="a"><path fill="#fff" d="M0 0h1024v613H0z"/></clipPath></defs></svg>