<svg xmlns="http://www.w3.org/2000/svg" width="1024" height="613" fill="none" viewBox="0 0 1024 613"><g clip-path="url(#a)"><path fill="#6D46FC" d="M0 0h1024v613H0z"/><path stroke="#FFE60A" stroke-linecap="round" stroke-width="25" d="M10.38 803.75c103.74-3.25 204.92-16.4 305-43.47 58-15.7 113.68-38.32 168.15-63.22 56.8-25.97 114.23-54.07 162.92-93.6 36.44-29.59 67.27-66.3 89.26-107.86 12.93-24.42 52.37-96.47 14.66-120.3-20.11-12.7-72-10.66-89-7.95-69.14 10.98-148.8 41.12-209.79 70.03-39.17 18.57-174.83 89.57-210.63 133.25-6.42 7.83-2.92 26.97 6.9 29.86 37.84 11.14 169.8-23.8 192.22-29.22 59.89-14.48 112.86-27.8 168.81-52.56 54.51-24.12 101.87-54.78 151.46-87.7 46.02-30.55 94.74-63.22 135.24-101.5 17.77-16.8 31.58-30.6 34.53-54.83 4.34-35.63-31.27-59.4-61.03-68.03-56.63-16.42-122.55-6.44-179.34.75-183.67 23.26-369.89 66.6-543.25 130.14C87.4 359.19 8.33 384.22-27.36 441.04c-34.1 54.26 26.94 83.64 72.26 93.5 62.13 13.52 129.34 5.47 190.38-7.45 82.76-17.51 162.9-48.64 239.44-83.6 84.47-38.57 166.92-83.08 241.78-138.06 60.15-44.18 125.74-95.67 165.45-160.23C956.5 23.97 742.74 44.07 682.54 51.18c-106.75 12.6-212.44 36.64-317 60.25-139.09 31.4-281.1 62.6-414.29 113.86-13 5.01-119.98 39.68-101.78 73.63 8.15 15.22 36.25 18.93 48.26 20.85 34.05 5.41 66.13 5 100.51 3.24 189.37-9.71 374.63-80.28 535.94-175.04 76.8-45.1 152.3-96.26 212.22-162.77 27.37-30.38 87.1-99.91 31.95-136.7-29.43-19.62-66.98-20.09-100.19-20.29-62.57-.36-127.64 8.23-189.07 16.6-135.57 18.47-269.33 44.56-402.91 72.97"/><path fill="#fff" fill-rule="evenodd" d="M60.21 542.94c1.57-2.7 1.88-5.6.91-8.51-.69-2.05-1.5-3.3-3.48-5.3a16 16 0 0 0-6.5-4.28c-1.76-.62-2.75-.66-3.3-.11l-.32.31.78.27c1.96.66 5.7 3.4 7.57 5.52q4.16 4.74 2.58 9.14c-.42 1.2-.6 1.47-1.7 2.58-1.1 1.08-1.37 1.27-2.32 1.55a6.4 6.4 0 0 1-5.71-1.09c-1.45-1.14-2.44-3.27-2.2-4.81.26-1.8 2.8-3.15 4.51-2.41.6.24.6.28.57 1.35-.1 1.87 1.07 2.47 2.35 1.2 1.46-1.43.84-4-1.23-5.15-2.16-1.2-5.6-.67-7.46 1.17-2.03 2-2.38 4.88-.95 7.88a11 11 0 0 0 3.5 3.83 9.06 9.06 0 0 0 12.4-3.14" clip-rule="evenodd"/></g><defs><clipPath id="a"><path fill="#fff" d="M0 0h1024v613H0z"/></clipPath></defs></svg>