<svg xmlns="http://www.w3.org/2000/svg" width="1024" height="613" fill="none" viewBox="0 0 1024 613"><g clip-path="url(#a)"><path fill="#79FD7F" d="M0 0h1024v613H0z"/><path stroke="#C76EF2" stroke-linecap="round" stroke-width="13" d="M1065.33 206.96c-54.98-.41-108.8 4.47-162.33 16.75-31.02 7.11-60.96 17.94-90.3 30-30.6 12.58-61.57 26.28-88.16 46.2-19.9 14.91-36.96 33.72-49.46 55.26-7.34 12.66-29.7 49.99-10.23 63.37 10.39 7.14 37.9 7.12 46.95 6.04 36.82-4.4 79.6-18.71 112.48-32.76 21.11-9.03 94.38-43.82 114.22-66.2 3.56-4.02 2.1-14.22-3.03-15.95-19.81-6.67-90.37 9.1-102.35 11.52-32 6.43-60.3 12.4-90.43 24.35-29.35 11.65-55.05 26.9-81.97 43.31-24.99 15.23-51.44 31.52-73.67 50.96-9.74 8.52-17.34 15.54-19.4 28.3-3.02 18.77 15.33 32.08 30.91 37.26 29.64 9.86 64.73 5.93 94.94 3.29 97.7-8.54 197.15-27.66 290.21-57.73 31.73-10.25 74.09-21.87 94.15-51.21 19.16-28.03-12.55-44.83-36.33-50.98-32.6-8.43-68.35-5.55-100.92.04-44.17 7.57-87.22 22.4-128.45 39.33-45.5 18.68-90.06 40.55-130.81 68.11-32.75 22.15-68.52 48.06-90.86 81.42-41.96 62.63 71.6 56.39 103.61 53.86 56.77-4.49 113.2-15.04 169.03-25.39 74.26-13.77 150.08-27.36 221.62-51.76 6.99-2.38 64.32-18.54 55.39-36.88-4.01-8.22-18.8-10.77-25.12-12.03-17.91-3.56-34.9-4-53.13-3.78-100.44 1.26-199.94 34.8-287.27 81.65-41.57 22.3-82.59 47.82-115.67 81.8-15.11 15.52-48.15 51.1-19.72 71.7 15.18 10.99 35.04 12 52.62 12.8 33.1 1.47 67.72-1.74 100.41-4.91 72.14-7 143.47-18.06 214.76-30.35M-9.73 446.1c54.23-9.07 106.41-23.15 157.02-44.47 29.33-12.35 56.95-28.18 83.78-45.12 27.97-17.66 56.12-36.49 78.88-60.7 17.02-18.12 30.6-39.58 39.2-62.95 5.05-13.74 20.63-54.36-.85-64.19-11.46-5.24-38.56-.48-47.29 2.14-35.5 10.68-75.18 32.15-105.15 51.66-19.24 12.53-85.41 59.43-101.1 84.9-2.82 4.56.38 14.36 5.73 15.18 20.66 3.16 87.45-24.55 98.84-28.98 30.4-11.86 57.26-22.61 84.87-39.58 26.9-16.53 49.6-35.98 73.29-56.78 21.99-19.3 45.24-39.91 63.78-62.9 8.13-10.07 14.4-18.3 14.23-31.22-.25-19.01-20.63-28.96-36.86-31.37-30.9-4.6-64.79 5.32-94.09 13.12-94.76 25.25-189.43 61.22-275.92 106.88-29.48 15.56-69.22 34.3-83.92 66.67-14.04 30.9 20.09 42 44.58 43.95 33.57 2.69 68.28-6.31 99.4-17.43 42.2-15.06 82.05-37.1 119.75-60.88 41.6-26.24 81.72-55.46 117.11-89.63 28.44-27.46 59.22-59.15 75.48-95.86 30.53-68.92-80.26-43.2-111.35-35.2-55.14 14.2-108.91 34.32-162.12 54.14C56.78 83.85-15.56 110.3-81.83 146.67c-6.47 3.55-60.16 29.34-48.2 45.87 5.36 7.41 20.37 7.37 26.81 7.52 18.26.42 35.07-2.07 53-5.44 98.7-18.54 190.95-68.73 268.9-129.92 37.1-29.13 73.1-61.34 99.84-100.51 12.2-17.9 38.63-58.63 7.07-74.02-16.85-8.22-36.6-5.8-54.04-3.54-32.87 4.25-66.41 13.38-98.07 22.13-69.85 19.32-138.21 42.51-206.31 66.9"/></g><defs><clipPath id="a"><path fill="#fff" d="M0 0h1024v613H0z"/></clipPath></defs></svg>