<svg width="480" height="286" viewBox="0 0 480 286" fill="none" xmlns="http://www.w3.org/2000/svg">
<rect width="480" height="286" fill="#F5F5F5"/>
<g id="PATTERNS">
<rect width="1440" height="2538" transform="translate(-61 -1785)" fill="white"/>
<g id="Pattern 09" clip-path="url(#clip0_0_1)">
<rect width="480" height="286" fill="#210A74"/>
<path id="back line" opacity="0.09" d="M-311.006 245.452C-256.557 227.871 -202.734 207.843 -149.719 185.314C-96.6839 162.779 -43.73 138.493 7.1478 110.191C29.9939 97.4801 50.593 78.8704 52.8936 48.2919C53.3983 41.5657 47.7066 35.5559 42.4802 33.9809C20.089 27.2539 -2.50497 40.1696 -22.8174 49.537C-43.1299 58.9044 -63.0093 68.9278 -82.7484 79.5294C-121.878 100.547 -159.927 124.155 -196.635 150.2C-233.011 176.008 -268.074 204.204 -301.573 234.623C-317.094 248.718 -333.421 263.332 -341.829 284.463C-350.453 306.143 -347.625 331.336 -328.485 344.351C-311.081 356.19 -287.034 353.216 -267.948 349.812C-245.318 345.784 -223.514 338.307 -202.086 329.242C-159.791 311.351 -118.362 290.588 -77.5559 268.745C2.59852 225.842 79.9679 176.242 153.71 120.453C163.094 113.355 172.419 106.152 181.686 98.8545C190.447 91.9548 198.997 85.0248 205.239 75.0373C211.126 65.6164 214.279 54.1221 210.976 42.7713C207.508 30.849 197.481 23.9903 187.271 21.2095C164.861 15.0964 141.026 19.9909 119.2 26.6964C97.3793 33.4073 76.0543 42.1393 55.1879 51.9687C12.6332 72.0109 -28.4187 96.2652 -68.9844 120.98C-109.006 145.364 -148.419 171.02 -187.173 197.912C-226.278 225.047 -264.705 253.44 -302.389 283.042C-338.14 311.127 -374.163 339.593 -406.126 373.189C-421.779 389.641 -436.592 407.529 -448.742 427.484C-460.727 447.164 -467.89 473.835 -454.851 495.276C-444.148 512.883 -424.801 520.071 -406.859 522.145C-382.906 524.914 -359.306 522.022 -335.761 516.834C-290.91 506.957 -246.724 491.376 -203.539 474.643C-159.899 457.736 -116.98 438.529 -74.5504 418.055C8.9807 377.747 92.1679 334.758 172.395 286.516C212.399 262.462 251.545 236.472 288.844 207.323C322.96 180.663 356.227 150.879 379.306 111.259C390.459 92.1043 398.181 67.684 392.767 44.7243C387.405 21.9893 368.633 8.08352 349.136 4.01868C306.257 -4.9292 262.198 18.4275 225.021 40.0777C153.112 81.9453 91.3028 143.15 35.3755 208.653C7.27028 241.576 -19.5568 275.865 -46.1102 310.398C-74.405 347.194 -103.678 383.757 -126.092 425.669C-136.471 445.072 -147.03 466.476 -147.627 489.718C-148.197 512.005 -134.505 532.094 -114.734 535.136C-95.4096 538.114 -77.5736 529.011 -60.3903 520.261C-39.3598 509.545 -18.4112 498.633 2.46067 487.532C86.6254 442.751 169.524 394.95 250.922 344.004C291.352 318.7 331.479 292.722 371.097 265.802C408.932 240.087 445.906 212.792 479.564 180.323C494.537 165.878 513.521 148.976 517.432 125.704C521.717 100.218 504.87 82.2806 484.101 77.9097C438.574 68.332 391.162 88.3208 349.072 105.924C264.192 141.418 184.092 190.023 105.91 241.255C28.9543 291.683 -48.2579 342.916 -118.795 404.526C-182.325 460.013 -251.427 527.325 -275.622 617.53C-282.037 641.443 -277.374 664.936 -258.911 679.593C-242.943 692.269 -222.844 695.115 -203.819 694.955C-157.891 694.576 -112.358 675.608 -69.7135 657.98C17.4433 621.953 100.985 575.088 184.427 529.369C268.58 483.26 352.139 435.599 433.379 383.134C507.195 335.459 581.219 284.159 639.936 213.507C653.83 196.789 667.36 179.406 673.932 157.262C680.504 135.119 675.455 111.467 657.307 99.2249C639.348 87.1102 613.721 89.5313 593.947 92.54C572.684 95.769 551.722 101.726 531.138 108.472C462.186 131.072 396.48 167.103 337.49 213.423C278.15 260.014 224.995 317.111 181.16 382.182C159.006 415.069 139.003 449.857 121.786 486.364C113.373 504.203 105.614 522.444 98.5523 541.022C91.0011 560.905 81.407 582.578 79.9397 604.383C78.3207 628.432 91.8303 646.894 111.821 652.906C130.608 658.559 151.425 654.163 170.21 650.881C216.564 642.792 261.704 628.321 306.07 611.29C394.426 577.377 481.334 537.949 566.832 495.702C609.781 474.478 652.376 452.317 694.602 429.304C735.125 407.219 775.486 384.381 813.237 356.558C829.287 344.732 854.066 330.372 856.836 306.346C860.374 275.666 827.537 269.864 807.715 271.66C785.43 273.681 764.195 283.147 743.376 291.748C723.419 299.987 703.613 308.684 683.979 317.862C604.834 354.862 528.242 399.518 457.087 453.646C421.832 480.466 387.846 509.561 355.767 541.119C325.656 570.743 295.558 605.759 281.177 648.825C277.062 661.145 277.425 674.803 286.029 684.575C293.008 692.502 303.111 695.225 312.657 695.76C334.486 696.984 356.959 688.041 376.861 678.811C420.656 658.492 463.728 635.804 506.682 613.314C549.852 590.707 592.776 567.492 635.417 543.626C674.428 521.791 713.745 499.698 746.629 466.833C755.24 458.231 762.621 445.916 759.228 432.294C756.144 419.9 745.408 414.379 735.129 412.475C713.387 408.455 691.33 410.976 670.211 417.735C630.109 430.571 592.989 457.117 559.842 485.181C527.007 512.982 496.88 545.008 470.627 580.713C457.508 598.554 445.176 617.302 434.056 636.824C422.738 656.684 414.414 682.068 426.191 704.179C446.747 742.786 496.403 723.581 525.764 713.658C567.896 699.419 609.435 682.925 650.202 664.263C729.488 627.972 805.917 583.652 878.235 531.913C890.155 523.384 883.29 504.173 870.431 503.708C831.176 502.288 792.172 512.022 756.756 531.135C723.834 548.898 691.67 575.737 675.174 613.682C665.917 634.975 662.872 658.453 668.49 681.505C673.121 700.493 698.843 691.205 694.206 672.195C683.718 629.172 719.741 591.131 748.562 570.93C785.383 545.113 828.326 532.75 871.502 534.311C868.902 524.909 866.303 515.508 863.698 506.106C794.683 555.483 722.006 598.107 646.444 633.038C608.32 650.661 569.521 666.385 530.182 680.141C513.719 685.895 496.038 693.412 479.369 695.713C472.296 696.691 465.911 697.03 459.541 695.347C454.357 693.98 450.835 692.26 448.543 686.915C445.619 680.099 448.117 671.762 450.793 665.341C454.853 655.588 460.428 646.669 465.845 637.843C476.255 620.896 487.686 604.709 499.738 589.232C524.401 557.554 552.059 529.005 582.34 504.391C613.424 479.127 647.564 455.139 685.112 444.944C693.965 442.541 702.982 441.243 712.083 441.066C716.586 440.982 721.102 441.125 725.57 441.752C727.083 441.962 734.063 443.912 734.471 443.263C734.414 443.357 732.97 438.824 733.194 438.945C731.859 438.244 734.33 438.519 732.948 439.041C731.704 439.511 729.611 443.182 728.55 444.302C724.841 448.204 720.825 451.78 716.816 455.27C709.109 461.974 701.085 468.205 692.868 474.07C657.532 499.298 619.048 519.049 581.518 539.625C542.354 561.098 502.951 582.009 463.328 602.361C442.983 612.814 422.584 623.117 402.124 633.28C382.889 642.837 363.671 653.188 343.458 659.844C333.916 662.987 324.121 665.205 314.149 665.223C311.609 665.23 309.099 664.838 306.676 663.908C306.408 663.807 304.763 663.399 305.517 663.518C305.673 663.545 304.936 662.761 304.723 662.26C305.334 663.708 304.958 664.247 305.427 662.784C311.51 643.688 321.442 626.24 332.772 610.586C356.396 577.939 385.93 550.975 415.315 525.333C446.768 497.891 479.609 472.52 513.493 449.116C580.774 402.638 652.052 364.04 725.545 331.995C744.451 323.752 763.48 315.436 782.832 308.643C792.091 305.394 801.454 302.684 811.161 302.099C815.932 301.81 820.608 301.945 825.301 302.988C826.772 303.313 828.238 303.9 829.722 304.128C831.507 304.411 830.536 305.403 830.895 304.496C830.582 305.276 829.771 301.407 830.407 302.559C829.366 300.693 830.994 301.608 830.007 303.134C829.57 303.812 832.343 297.874 829.449 304.056C828.774 305.499 827.79 306.662 826.806 307.847C823.634 311.685 819.708 314.524 815.932 317.538C807.593 324.198 799.084 330.581 790.447 336.731C772.461 349.53 753.917 361.287 735.103 372.449C659.223 417.464 580.442 456.877 501.411 494.15C421.804 531.693 340.962 568.378 258.329 596.488C218.805 609.934 177.046 622.556 135.62 624.713C124.862 625.272 108.231 624.938 106.759 610.439C105.833 601.286 109.674 591.441 112.477 583.056C115.469 574.106 118.66 565.238 121.988 556.437C148.03 487.588 183.587 423.639 226.771 366.997C270.017 310.268 320.455 260.968 376.38 220.978C432.237 181.038 493.213 150.777 557.183 132.142C577.412 126.246 597.932 121.24 618.916 121.191C631.028 121.161 651.03 121.781 649.857 139.855C648.71 157.52 636.199 172.728 626.281 185.152C613.062 201.709 598.882 217.265 584.032 231.931C523.885 291.33 452.958 336.383 383.415 379.824C307.456 427.272 229.74 470.974 151.59 513.56C74.3381 555.657 -3.02713 598.372 -83.7989 631.211C-122.824 647.076 -164.174 664.39 -206.146 664.358C-219.834 664.351 -238.046 662.873 -247.814 650.429C-257.419 638.199 -247.033 615.304 -241.6 601.766C-226.402 563.874 -203.123 531.385 -177.31 502.142C-149.394 470.516 -118.691 442.097 -86.9663 415.55C-20.1699 359.654 51.7894 311.95 123.619 264.983C195.645 217.888 269.188 173.143 346.986 139.484C385.089 122.997 426.516 104.056 468.012 106.471C474.371 106.842 483.313 107.256 488.593 111.934C493.6 116.368 490.25 123.416 487.47 128.439C482.691 137.073 475.33 143.943 468.704 150.673C461.58 157.913 454.231 164.84 446.703 171.537C414.443 200.219 379.48 224.664 344.248 248.304C307.52 272.943 270.455 296.92 233.082 320.265C157.446 367.511 80.5264 412.102 2.46604 453.964C-16.5617 464.17 -35.6714 474.181 -54.8413 484.042C-69.958 491.819 -86.675 503.317 -103.54 505.008C-108.559 505.513 -114.09 505.512 -117.583 501.305C-122.079 495.883 -120.902 487.236 -119.495 480.685C-115.245 460.945 -103.971 442.267 -94.1114 425.601C-72.3626 388.827 -45.4396 355.992 -19.7865 322.743C4.89069 290.758 29.8728 259.055 55.9619 228.545C107.708 168.032 164.289 111.928 229.956 71.6355C246.334 61.5884 263.203 52.45 280.649 45.0452C298.952 37.2725 319.218 30.7225 338.987 33.129C352.227 34.7401 366.929 41.7116 367.587 58.9145C368.309 77.8343 356.984 95.7931 347.016 109.78C322.804 143.759 290.964 169.289 259.087 193.175C224.358 219.199 188.201 242.682 151.358 264.606C76.6152 309.076 -0.576822 349.025 -78.16 386.659C-156.382 424.605 -236.466 458.52 -319.221 481.425C-339.758 487.107 -360.526 491.869 -381.714 492.677C-396.577 493.245 -416.058 493.51 -428.582 482.774C-441.972 471.293 -430.948 450.759 -422.911 438.909C-410.997 421.343 -397.374 405.324 -382.911 390.459C-353.182 359.904 -319.768 333.911 -286.839 308.071C-252.196 280.887 -216.927 254.726 -181.087 229.622C-109.283 179.336 -35.1077 131.208 41.8573 91.7743C60.9745 81.9783 80.419 72.9622 100.292 65.3231C120.165 57.684 139.573 50.5029 159.992 49.3099C168.637 48.8066 176.535 50.0057 184.718 52.3159C186.916 52.9377 185.243 54.3129 185.315 51.9258C185.319 51.761 185.095 53.7861 185.277 53.4089C183.384 57.3313 181.31 60.5296 178.378 63.6304C171.823 70.5499 163.573 75.8884 156.191 81.6134C147.544 88.3208 138.843 94.9397 130.094 101.47C61.104 152.98 -11.0057 199.102 -85.5491 239.42C-122.696 259.508 -160.515 278.111 -198.84 295.096C-218.229 303.689 -237.915 311.672 -258.26 316.823C-268.17 319.336 -278.216 320.941 -288.357 321.563C-296.083 322.036 -305.073 322.794 -312.43 319.368C-325.771 313.147 -318.457 296.793 -311.681 286.748C-300.622 270.362 -284.775 258.165 -270.487 245.692C-238.647 217.896 -205.472 192.067 -171.163 168.35C-138.52 145.78 -104.853 125.134 -70.3419 106.488C-53.0885 97.1673 -35.5585 88.4646 -17.8768 80.2375C-9.19601 76.1964 -0.478225 72.2104 8.31418 68.4992C17.1066 64.788 26.6385 60.9129 36.3328 63.8247C32.86 59.0544 29.3922 54.2839 25.9193 49.5137C24.6055 66.9871 3.03865 78.812 -9.8329 85.7212C-33.7594 98.572 -58.0865 110.55 -82.4913 122.168C-131.621 145.554 -181.54 166.803 -232.102 185.844C-260.939 196.708 -289.987 206.833 -319.215 216.267C-335.91 221.657 -327.737 250.855 -311.011 245.452L-311.006 245.452Z" fill="#6D46FC"/>
</g>
</g>
<defs>
<clipPath id="clip0_0_1">
<rect width="480" height="286" fill="white"/>
</clipPath>
</defs>
</svg>
