<svg width="480" height="286" viewBox="0 0 480 286" fill="none" xmlns="http://www.w3.org/2000/svg">
<rect width="480" height="286" fill="#F5F5F5"/>
<g id="PATTERNS">
<rect width="1440" height="2538" transform="translate(-664 -1785)" fill="white"/>
<g id="Pattern 10" clip-path="url(#clip0_0_1)">
<rect width="480" height="286" fill="#FFF8DF"/>
<path id="spiral" d="M-233.94 16.5505L-245.733 46.0417C-209.742 64.5793 -178.095 29.3712 -147.4 -4.48802C-126.245 -27.9307 -99.9794 -56.9171 -85.4115 -49.4138C-70.8436 -41.9105 -72.8401 -0.219612 -74.3894 33.1168C-76.6336 81.6296 -79.1451 131.844 -43.1539 150.382C-7.16268 168.919 24.4167 133.881 55.1789 99.8521C76.3341 76.4095 102.6 47.4231 117.168 54.9264C131.736 62.4297 129.739 104.12 128.018 137.369C125.603 185.793 123.263 236.096 159.082 254.545C194.902 272.995 226.721 237.875 257.415 204.016C278.57 180.573 304.665 151.498 319.404 159.09C334.143 166.682 331.975 208.284 330.426 241.621C328.01 290.045 325.67 340.348 361.662 358.886C397.653 377.423 429.232 342.385 459.994 308.356C481.15 284.913 507.244 255.839 521.983 263.43L533.776 233.939C497.785 215.401 466.205 250.44 435.443 284.469C414.288 307.911 388.194 336.986 373.454 329.394C358.715 321.803 360.883 280.2 362.432 246.864C364.848 198.439 367.188 148.136 331.197 129.599C295.206 111.061 263.626 146.1 232.864 180.129C211.709 203.571 185.443 232.558 170.875 225.054C156.307 217.551 158.304 175.86 160.025 142.612C162.44 94.1875 164.78 43.8845 128.961 25.4351C93.1407 6.98583 61.3899 41.9362 30.6277 75.9649C9.47247 99.4076 -16.7932 128.394 -31.3611 120.891C-45.9289 113.387 -43.9324 71.6965 -42.3831 38.3601C-40.1389 -10.1527 -37.6274 -60.3674 -73.6187 -78.905C-109.61 -97.4426 -141.189 -62.4039 -171.951 -28.3752C-193.107 -4.93257 -219.372 24.0538 -233.94 16.5505Z" fill="url(#paint0_linear_0_1)"/>
</g>
</g>
<defs>
<linearGradient id="paint0_linear_0_1" x1="-610.08" y1="-63.965" x2="-490.271" y2="-288.757" gradientUnits="userSpaceOnUse">
<stop stop-color="#9694FF"/>
<stop offset="0.314503" stop-color="#C76EF2"/>
<stop offset="0.598958" stop-color="#FF5A56"/>
<stop offset="1" stop-color="#FFE60A"/>
</linearGradient>
<clipPath id="clip0_0_1">
<rect width="480" height="286" fill="white"/>
</clipPath>
</defs>
</svg>
