<svg xmlns="http://www.w3.org/2000/svg" width="1024" height="613" fill="none" viewBox="0 0 1024 613"><g clip-path="url(#a)"><path fill="#79FD7F" d="M0 0h1024v613H0z"/><path stroke="#6D46FC" stroke-linecap="round" stroke-width="59" d="M575.24 932.06c4.35 5.9 16.52 9.57 23.13 11.86 17.29 5.98 36.29 9.84 54.48 11.86 104.42 11.6 213.14-29.47 295-92.91 107.47-83.3 178.43-209.59 187.56-344 3.79-55.8-6.14-111.8-22.44-164.87-9-29.3-19.74-59.28-33.46-86.78-17.5-35.06-42.89-67.68-65.91-99.03-44.53-60.65-90.03-117.83-154.38-158.85-46.43-29.61-100.3-52.1-155.55-59.3C641.86-58 581.81-43.55 529.91-8.7 469.14 32.1 425.4 92.34 397.1 158.47c-27.54 64.36-44.99 134.38-43.87 204.22 1.24 77.49 24.07 152.82 53.78 223.64 20.17 48.08 42.96 98.34 81.03 135.37 40.25 39.16 92.31 64.7 149.87 63 97.53-2.87 176.96-69.1 213.1-156.29 39.05-94.24 28.28-212.64-32.9-294.27-53.2-70.98-148.11-98.96-234.05-73.73-84 24.67-171.61 96.78-181.83 187.03-7.58 66.95 13.25 149.95 76.4 184.8 25.52 14.07 57.06 18.24 84.93 7.36 26.96-10.53 48.27-37.49 53.16-65.52 4.13-23.65-3.55-48.98-17.79-67.87-15.39-20.4-40.48-32.03-64.73-38.9-47-13.3-90.1 3.17-134.35 19.5"/></g><defs><clipPath id="a"><path fill="#fff" d="M0 0h1024v613H0z"/></clipPath></defs></svg>