<svg width="24" height="24" viewBox="0 0 24 24" fill="none" xmlns="http://www.w3.org/2000/svg">
<g clip-path="url(#clip0_153_325)">
<g clip-path="url(#clip1_153_325)">
<path d="M16.7676 8.8418C16.7676 6.08037 14.529 3.8418 11.7676 3.8418C9.00615 3.8418 6.76758 6.08037 6.76758 8.8418C6.76758 11.6032 9.00615 13.8418 11.7676 13.8418C14.529 13.8418 16.7676 11.6032 16.7676 8.8418ZM18.7676 8.8418C18.7676 12.7078 15.6336 15.8418 11.7676 15.8418C7.90158 15.8418 4.76758 12.7078 4.76758 8.8418C4.76758 4.9758 7.90158 1.8418 11.7676 1.8418C15.6336 1.8418 18.7676 4.9758 18.7676 8.8418Z" fill="#1A1A1A"/>
<path d="M14.6407 13.8545C15.1858 13.7667 15.6992 14.1375 15.7872 14.6826L16.7549 20.6826C16.8145 21.052 16.6624 21.4242 16.3614 21.6465C16.0604 21.8686 15.6607 21.9038 15.3252 21.7383L11.7676 19.9824L8.21001 21.7383C7.87455 21.9038 7.47486 21.8686 7.17388 21.6465C6.87292 21.4241 6.72077 21.052 6.78032 20.6826L7.7481 14.6885C7.83634 14.1435 8.35047 13.7733 8.89556 13.8613C9.44051 13.9496 9.81074 14.4628 9.72271 15.0078L9.06353 19.0869L11.3252 17.9717L11.4317 17.9258C11.685 17.8355 11.9659 17.8513 12.21 17.9717L14.4708 19.0869L13.8126 15.001C13.7246 14.4558 14.0955 13.9425 14.6407 13.8545Z" fill="#1A1A1A"/>
</g>
</g>
<defs>
<clipPath id="clip0_153_325">
<rect width="24" height="24" fill="white"/>
</clipPath>
<clipPath id="clip1_153_325">
<rect width="24" height="24" fill="white"/>
</clipPath>
</defs>
</svg>
