<svg width="24" height="24" viewBox="0 0 24 24" fill="none" xmlns="http://www.w3.org/2000/svg">
<path fill-rule="evenodd" clip-rule="evenodd" d="M14.691 4.33222L21.9649 17.0628C21.9862 17.1002 22.0051 17.1388 22.0215 17.1786C22.1541 17.5011 22.2271 17.8403 22.2461 18.178L22.2463 18.1826C22.3337 19.8817 21.0271 21.3278 19.3299 21.4166C19.3125 21.4175 19.2951 21.4179 19.2776 21.4179H4.79563C4.78366 21.4179 4.77175 21.4177 4.75988 21.4173C4.72912 21.4184 4.69803 21.4181 4.66668 21.4164C4.32795 21.3974 3.99246 21.3242 3.67302 21.1955L3.66939 21.194C2.09576 20.553 1.33731 18.7585 1.97709 17.1827C1.99383 17.1415 2.01329 17.1015 2.03537 17.0628L9.30918 4.33241C9.58885 3.82935 10.0049 3.41368 10.5104 3.13544C11.9966 2.3128 13.8661 2.84959 14.691 4.33222ZM4.76237 19.4185C4.77341 19.4181 4.7845 19.4179 4.79563 19.4179H19.2473C19.8325 19.3756 20.278 18.8741 20.2491 18.2875C20.2429 18.1816 20.2228 18.081 20.1907 17.9891L12.9514 5.31903L12.9445 5.30707L12.9446 5.30702C12.6559 4.78518 11.9997 4.59665 11.4784 4.88558L11.4754 4.88725C11.2998 4.98375 11.1539 5.12925 11.0559 5.30662L11.0489 5.31903L3.81039 17.9877C3.62322 18.5261 3.88835 19.1226 4.42206 19.3411C4.52924 19.384 4.64358 19.4102 4.76237 19.4185ZM10.9998 16.5216C10.9998 15.9696 11.4478 15.5136 11.9998 15.5136C12.5518 15.5136 12.9998 15.955 12.9998 16.507V16.5216C12.9998 17.0736 12.5518 17.5216 11.9998 17.5216C11.4478 17.5216 10.9998 17.0736 10.9998 16.5216ZM12.99 10.2959C12.99 9.74357 12.5423 9.29585 11.99 9.29585C11.4377 9.29585 10.99 9.74357 10.99 10.2959V13.3959C10.99 13.9481 11.4377 14.3959 11.99 14.3959C12.5423 14.3959 12.99 13.9481 12.99 13.3959V10.2959Z" fill="#1A1A1A"/>
</svg>
