<svg width="24" height="24" viewBox="0 0 24 24" fill="none" xmlns="http://www.w3.org/2000/svg">
<g clip-path="url(#clip0_152_147)">
<path d="M12 1.99994C17.5228 1.99994 22 6.47709 22 11.9999C22 17.5228 17.5228 21.9999 12 21.9999C6.47715 21.9999 2 17.5228 2 11.9999C2 6.47709 6.47715 1.99994 12 1.99994ZM12 3.99994C7.58172 3.99994 4 7.58166 4 11.9999C4 16.4182 7.58172 19.9999 12 19.9999C16.4183 19.9999 20 16.4182 20 11.9999C20 7.58166 16.4183 3.99994 12 3.99994ZM12 14.4999C12.8284 14.4999 13.5 15.1715 13.5 15.9999C13.5 16.8284 12.8284 17.4999 12 17.4999C11.1716 17.4999 10.5 16.8284 10.5 15.9999C10.5 15.1715 11.1716 14.4999 12 14.4999ZM12 6.99994C12.5523 6.99994 13 7.44768 13 7.99994V11.9999C13 12.5522 12.5523 12.9999 12 12.9999C11.4477 12.9999 11 12.5522 11 11.9999V7.99994C11 7.44768 11.4477 6.99994 12 6.99994Z" fill="#1A1A1A"/>
</g>
<defs>
<clipPath id="clip0_152_147">
<rect width="24" height="24" fill="white"/>
</clipPath>
</defs>
</svg>
