<svg width="24" height="24" viewBox="0 0 24 24" fill="none" xmlns="http://www.w3.org/2000/svg">
<path fill-rule="evenodd" clip-rule="evenodd" d="M14.691 4.33226L21.9649 17.0629C21.9862 17.1002 22.0051 17.1389 22.0215 17.1787C22.1541 17.5012 22.2271 17.8404 22.2461 18.178L22.2463 18.1826C22.3337 19.8817 21.0271 21.3278 19.3299 21.4166C19.3125 21.4175 19.2951 21.418 19.2776 21.418H4.79563C4.78366 21.418 4.77175 21.4178 4.75988 21.4173C4.72912 21.4185 4.69803 21.4182 4.66668 21.4164C4.32795 21.3974 3.99246 21.3242 3.67302 21.1956L3.66939 21.1941C2.09576 20.5531 1.33731 18.7585 1.97709 17.1828C1.99383 17.1416 2.01329 17.1015 2.03537 17.0629L9.30918 4.33246C9.58885 3.8294 10.0049 3.41373 10.5104 3.13549C11.9966 2.31285 13.8661 2.84963 14.691 4.33226ZM4.76237 19.4185C4.77341 19.4182 4.7845 19.418 4.79563 19.418H19.2473C19.8325 19.3757 20.278 18.8742 20.2491 18.2876C20.2429 18.1816 20.2228 18.081 20.1907 17.9892L12.9514 5.31908L12.9445 5.30711L12.9446 5.30707C12.6559 4.78522 11.9997 4.59669 11.4784 4.88563L11.4754 4.8873C11.2998 4.9838 11.1539 5.1293 11.0559 5.30666L11.0489 5.31908L3.81039 17.9877C3.62322 18.5262 3.88835 19.1226 4.42206 19.3411C4.52924 19.3841 4.64358 19.4102 4.76237 19.4185ZM10.9998 16.5217C10.9998 15.9697 11.4478 15.5137 11.9998 15.5137C12.5518 15.5137 12.9998 15.955 12.9998 16.507V16.5217C12.9998 17.0737 12.5518 17.5217 11.9998 17.5217C11.4478 17.5217 10.9998 17.0737 10.9998 16.5217ZM12.99 10.2959C12.99 9.74361 12.5423 9.2959 11.99 9.2959C11.4377 9.2959 10.99 9.74361 10.99 10.2959V13.3959C10.99 13.9482 11.4377 14.3959 11.99 14.3959C12.5423 14.3959 12.99 13.9482 12.99 13.3959V10.2959Z" fill="#1A1A1A"/>
</svg>
