<svg width="24" height="24" viewBox="0 0 24 24" fill="none" xmlns="http://www.w3.org/2000/svg">
<g clip-path="url(#clip0_152_193)">
<path fill-rule="evenodd" clip-rule="evenodd" d="M14.4773 4.44209L21.746 17.0572C21.906 17.4338 21.976 17.7399 21.996 18.058C22.036 18.8012 21.776 19.5236 21.2661 20.0795C20.7562 20.6334 20.0663 20.9604 19.3164 21H4.6789C4.36896 20.9812 4.05901 20.9108 3.76906 20.8018C2.3193 20.2172 1.61942 18.5723 2.20932 17.1464L9.52809 4.43317C9.77804 3.98628 10.158 3.60082 10.6279 3.35309C11.9877 2.59902 13.7174 3.09447 14.4773 4.44209ZM12.8674 12.7562C12.8674 13.2318 12.4774 13.6291 11.9975 13.6291C11.5176 13.6291 11.1177 13.2318 11.1177 12.7562V9.9529C11.1177 9.47628 11.5176 9.09082 11.9975 9.09082C12.4774 9.09082 12.8674 9.47628 12.8674 9.9529V12.7562ZM11.9975 17.0174C11.5176 17.0174 11.1177 16.6201 11.1177 16.1454C11.1177 15.6688 11.5176 15.2725 11.9975 15.2725C12.4774 15.2725 12.8674 15.6599 12.8674 16.1345C12.8674 16.6201 12.4774 17.0174 11.9975 17.0174Z" fill="#1A1A1A"/>
</g>
<defs>
<clipPath id="clip0_152_193">
<rect width="24" height="24" fill="white"/>
</clipPath>
</defs>
</svg>
