<svg width="24" height="24" viewBox="0 0 24 24" fill="none" xmlns="http://www.w3.org/2000/svg">
<rect width="24" height="24" fill="#F5F5F5"/>
<g id="24">
<path d="M-932 -98C-932 -99.1045 -931.105 -100 -930 -100H226C227.105 -100 228 -99.1046 228 -98V1682C228 1683.1 227.105 1684 226 1684H-930C-931.105 1684 -932 1683.1 -932 1682V-98Z" fill="#F5F5F5"/>
<path d="M-930 -100V-99H226V-100V-101H-930V-100ZM228 -98H227V1682H228H229V-98H228ZM226 1684V1683H-930V1684V1685H226V1684ZM-932 1682H-931V-98H-932H-933V1682H-932ZM-930 1684V1683C-930.552 1683 -931 1682.55 -931 1682H-932H-933C-933 1683.66 -931.657 1685 -930 1685V1684ZM228 1682H227C227 1682.55 226.552 1683 226 1683V1684V1685C227.657 1685 229 1683.66 229 1682H228ZM226 -100V-99C226.552 -99 227 -98.5523 227 -98H228H229C229 -99.6568 227.657 -101 226 -101V-100ZM-930 -100V-101C-931.657 -101 -933 -99.6568 -933 -98H-932H-931C-931 -98.5523 -930.552 -99 -930 -99V-100Z" fill="black" fill-opacity="0.1"/>
<g id="icon/arrow-right" clip-path="url(#clip0_149_2)">
<path id="Vector (Stroke)" fill-rule="evenodd" clip-rule="evenodd" d="M11.2929 19.7071C10.9024 19.3166 10.9024 18.6834 11.2929 18.2929L16.5858 13L5 13C4.44772 13 4 12.5523 4 12C4 11.4477 4.44772 11 5 11L16.5858 11L11.2929 5.70711C10.9024 5.31658 10.9024 4.68342 11.2929 4.29289C11.6834 3.90237 12.3166 3.90237 12.7071 4.29289L19.7071 11.2929C20.0976 11.6834 20.0976 12.3166 19.7071 12.7071L12.7071 19.7071C12.3166 20.0976 11.6834 20.0976 11.2929 19.7071Z" fill="#1A1A1A"/>
</g>
</g>
<defs>
<clipPath id="clip0_149_2">
<rect width="24" height="24" fill="white"/>
</clipPath>
</defs>
</svg>
