<svg width="24" height="24" viewBox="0 0 24 24" fill="none" xmlns="http://www.w3.org/2000/svg">
<g clip-path="url(#clip0_149_235)">
<path fill-rule="evenodd" clip-rule="evenodd" d="M12.3818 4.07547C12.5001 4.12427 12.611 4.19675 12.7071 4.29289L19.7071 11.2929C20.0976 11.6834 20.0976 12.3166 19.7071 12.7071C19.3166 13.0976 18.6834 13.0976 18.2929 12.7071L13 7.41421V19C13 19.5523 12.5523 20 12 20C11.4477 20 11 19.5523 11 19L11 7.41421L5.70711 12.7071C5.31658 13.0976 4.68342 13.0976 4.29289 12.7071C3.90237 12.3166 3.90237 11.6834 4.29289 11.2929L11.2929 4.29289C11.4858 4.09998 11.7379 4.00236 11.9908 4.00004C11.9938 4.00001 11.9969 4 12 4M12.3818 4.07547C12.2668 4.02794 12.1411 4.00123 12.0092 4.00004L12.3818 4.07547Z" fill="#1A1A1A"/>
</g>
<defs>
<clipPath id="clip0_149_235">
<rect width="24" height="24" fill="white"/>
</clipPath>
</defs>
</svg>
