<svg width="24" height="24" viewBox="0 0 24 24" fill="none" xmlns="http://www.w3.org/2000/svg">
<g clip-path="url(#clip0_150_264)">
<path fill-rule="evenodd" clip-rule="evenodd" d="M20.2941 15.6338C20.7724 15.91 20.9363 16.5216 20.6602 16.9999C17.8987 21.7828 11.7828 23.4215 6.9999 20.6601C2.21697 17.8987 0.578223 11.7828 3.33965 6.99985C6.10107 2.21693 12.217 0.578175 16.9999 3.3396C19.7208 4.91051 21.424 7.56825 21.8785 10.4444C21.9647 10.9899 21.5923 11.502 21.0468 11.5882C20.5013 11.6744 19.9892 11.3021 19.903 10.7565C19.5387 8.45106 18.176 6.328 15.9999 5.07165C12.1736 2.86251 7.28084 4.17351 5.0717 7.99985C2.86256 11.8262 4.17356 16.7189 7.9999 18.9281C11.8262 21.1372 16.719 19.8262 18.9281 15.9999C19.2042 15.5216 19.8158 15.3577 20.2941 15.6338Z" fill="#1A1A1A"/>
<path fill-rule="evenodd" clip-rule="evenodd" d="M23.4953 7.0896C23.9736 7.36574 24.1375 7.97733 23.8613 8.45562L21.8613 11.9197C21.5852 12.398 20.9736 12.5619 20.4953 12.2858L17.0312 10.2858C16.5529 10.0096 16.389 9.39802 16.6652 8.91973C16.9413 8.44143 17.5529 8.27756 18.0312 8.5537L20.6293 10.0537L22.1293 7.45562C22.4054 6.97733 23.017 6.81346 23.4953 7.0896Z" fill="#1A1A1A"/>
<path fill-rule="evenodd" clip-rule="evenodd" d="M12 8.17163C12.5523 8.17163 13 8.61935 13 9.17163L13 14.8285C13 15.3808 12.5523 15.8285 12 15.8285C11.4477 15.8285 11 15.3808 11 14.8285L11 9.17163C11 8.61935 11.4477 8.17163 12 8.17163Z" fill="#1A1A1A"/>
<path fill-rule="evenodd" clip-rule="evenodd" d="M8.17163 12C8.17163 11.4477 8.61935 11 9.17163 11L14.8285 11C15.3808 11 15.8285 11.4477 15.8285 12C15.8285 12.5523 15.3808 13 14.8285 13L9.17163 13C8.61935 13 8.17163 12.5523 8.17163 12Z" fill="#1A1A1A"/>
</g>
<defs>
<clipPath id="clip0_150_264">
<rect width="24" height="24" fill="white"/>
</clipPath>
</defs>
</svg>
