<svg width="24" height="24" viewBox="0 0 24 24" fill="none" xmlns="http://www.w3.org/2000/svg">
<g clip-path="url(#clip0_150_287)">
<path fill-rule="evenodd" clip-rule="evenodd" d="M21 10.9999C21.5523 10.9999 22 11.4476 22 11.9999C22 13.4404 21.6948 14.8122 21.1446 16.0522C20.9206 16.557 20.3298 16.7847 19.825 16.5607C19.3201 16.3367 19.0925 15.7458 19.3165 15.241C19.7556 14.2515 20 13.1556 20 11.9999C20 11.4476 20.4477 10.9999 21 10.9999ZM19.629 7.11991C19.1997 7.46732 18.57 7.40092 18.2226 6.97159C16.7544 5.15714 14.5127 3.99988 12 3.99988C10.8242 3.99988 9.71017 4.25291 8.7072 4.70653C8.20399 4.93412 7.61156 4.71069 7.38397 4.20748C7.15638 3.70427 7.37981 3.11184 7.88302 2.88425C9.13984 2.31581 10.5344 1.99988 12 1.99988C15.1418 1.99988 17.9457 3.44995 19.7774 5.7135C20.1248 6.14283 20.0584 6.7725 19.629 7.11991ZM18.6075 18.1914C18.9666 18.6111 18.9174 19.2423 18.4978 19.6013C16.7506 21.0961 14.4795 21.9999 12 21.9999C6.47715 21.9999 2 17.5227 2 11.9999C2 9.5428 2.88745 7.2904 4.35814 5.54962C4.71456 5.12774 5.3455 5.07467 5.76738 5.4311C6.18926 5.78752 6.24232 6.41845 5.8859 6.84033C4.70871 8.23372 4 10.0327 4 11.9999C4 16.4182 7.58172 19.9999 12 19.9999C13.985 19.9999 15.799 19.2782 17.1976 18.0816C17.6173 17.7226 18.2485 17.7717 18.6075 18.1914Z" fill="#1A1A1A"/>
<path fill-rule="evenodd" clip-rule="evenodd" d="M19.5 1.99988C20.0523 1.99988 20.5 2.44759 20.5 2.99988L20.5 6.99988C20.5 7.55216 20.0523 7.99988 19.5 7.99988L15.5 7.99988C14.9477 7.99988 14.5 7.55216 14.5 6.99988C14.5 6.44759 14.9477 5.99988 15.5 5.99988L18.5 5.99988L18.5 2.99988C18.5 2.44759 18.9477 1.99988 19.5 1.99988Z" fill="#1A1A1A"/>
<path fill-rule="evenodd" clip-rule="evenodd" d="M12 11C12.5523 11 13 11.4477 13 12L13 15C13 15.5523 12.5523 16 12 16C11.4477 16 11 15.5523 11 15L11 12C11 11.4477 11.4477 11 12 11Z" fill="#1A1A1A"/>
<path fill-rule="evenodd" clip-rule="evenodd" d="M8 12C8 11.4477 8.44772 11 9 11H12C12.5523 11 13 11.4477 13 12C13 12.5523 12.5523 13 12 13H9C8.44772 13 8 12.5523 8 12Z" fill="#1A1A1A"/>
<path fill-rule="evenodd" clip-rule="evenodd" d="M0.292893 0.292893C0.683417 -0.0976311 1.31658 -0.0976311 1.70711 0.292893L23.7071 22.2929C24.0976 22.6834 24.0976 23.3166 23.7071 23.7071C23.3166 24.0976 22.6834 24.0976 22.2929 23.7071L0.292893 1.70711C-0.0976311 1.31658 -0.0976311 0.683417 0.292893 0.292893Z" fill="#1A1A1A"/>
</g>
<defs>
<clipPath id="clip0_150_287">
<rect width="24" height="24" fill="white"/>
</clipPath>
</defs>
</svg>
