<svg width="24" height="24" viewBox="0 0 24 24" fill="none" xmlns="http://www.w3.org/2000/svg">
<g clip-path="url(#clip0_150_264)">
<path fill-rule="evenodd" clip-rule="evenodd" d="M20.2941 15.6339C20.7724 15.91 20.9363 16.5216 20.6602 16.9999C17.8987 21.7828 11.7828 23.4216 6.9999 20.6601C2.21697 17.8987 0.578223 11.7828 3.33965 6.99988C6.10107 2.21696 12.217 0.578205 16.9999 3.33963C19.7208 4.91054 21.424 7.56828 21.8785 10.4444C21.9647 10.9899 21.5923 11.502 21.0468 11.5882C20.5013 11.6744 19.9892 11.3021 19.903 10.7566C19.5387 8.45109 18.176 6.32803 15.9999 5.07168C12.1736 2.86254 7.28084 4.17354 5.0717 7.99988C2.86256 11.8262 4.17356 16.7189 7.9999 18.9281C11.8262 21.1372 16.719 19.8262 18.9281 15.9999C19.2042 15.5216 19.8158 15.3577 20.2941 15.6339Z" fill="#1A1A1A"/>
<path fill-rule="evenodd" clip-rule="evenodd" d="M23.4953 7.08963C23.9736 7.36577 24.1375 7.97736 23.8613 8.45566L21.8613 11.9198C21.5852 12.398 20.9736 12.5619 20.4953 12.2858L17.0312 10.2858C16.5529 10.0096 16.389 9.39805 16.6652 8.91976C16.9413 8.44146 17.5529 8.27759 18.0312 8.55373L20.6293 10.0537L22.1293 7.45566C22.4054 6.97736 23.017 6.81349 23.4953 7.08963Z" fill="#1A1A1A"/>
<path fill-rule="evenodd" clip-rule="evenodd" d="M12 8.17157C12.5523 8.17157 13 8.61929 13 9.17157L13 14.8284C13 15.3807 12.5523 15.8284 12 15.8284C11.4477 15.8284 11 15.3807 11 14.8284L11 9.17157C11 8.61929 11.4477 8.17157 12 8.17157Z" fill="#1A1A1A"/>
<path fill-rule="evenodd" clip-rule="evenodd" d="M8.17139 12C8.17139 11.4477 8.6191 11 9.17139 11L14.8282 11C15.3805 11 15.8282 11.4477 15.8282 12C15.8282 12.5523 15.3805 13 14.8282 13L9.17139 13C8.6191 13 8.17139 12.5523 8.17139 12Z" fill="#1A1A1A"/>
</g>
<defs>
<clipPath id="clip0_150_264">
<rect width="24" height="24" fill="white"/>
</clipPath>
</defs>
</svg>
