<svg width="24" height="24" viewBox="0 0 24 24" fill="none" xmlns="http://www.w3.org/2000/svg">
<g clip-path="url(#clip0_151_125)">
<path d="M17 10C17 7.23858 14.7614 5 12 5C9.23858 5 7 7.23858 7 10V18H17V10ZM19 18H20C20.5523 18 21 18.4477 21 19C21 19.5523 20.5523 20 20 20H4C3.44772 20 3 19.5523 3 19C3 18.4477 3.44772 18 4 18H5V10C5 6.13401 8.13401 3 12 3C15.866 3 19 6.13401 19 10V18Z" fill="#1A1A1A"/>
<path d="M11 21L13 21C13.5523 21 14 21.4477 14 22C14 22.5523 13.5523 23 13 23L11 23C10.4477 23 10 22.5523 10 22C10 21.4477 10.4477 21 11 21Z" fill="#1A1A1A"/>
<path d="M10 3C10 1.89543 10.8954 1 12 1C13.1046 1 14 1.89543 14 3C14 4.10457 13.1046 5 12 5C10.8954 5 10 4.10457 10 3Z" fill="#1A1A1A"/>
</g>
<defs>
<clipPath id="clip0_151_125">
<rect width="24" height="24" fill="white"/>
</clipPath>
</defs>
</svg>
