<svg width="24" height="24" viewBox="0 0 24 24" fill="none" xmlns="http://www.w3.org/2000/svg">
<g clip-path="url(#clip0_150_141)">
<path d="M7 16C7.55 16 8 16.45 8 17C8 18.1 7.1 19 6 19C5.83 19 5.67 18.98 5.5 18.95C5.81 18.4 6 17.74 6 17C6 16.45 6.45 16 7 16ZM18.67 3C18.41 3 18.16 3.1 17.96 3.29L9.70711 11.5429C9.31658 11.9334 9.31658 12.5666 9.70711 12.9571L11.0429 14.2929C11.4334 14.6834 12.0666 14.6834 12.4571 14.2929L20.71 6.04C21.1 5.65 21.1 5.02 20.71 4.63L19.37 3.29C19.17 3.09 18.92 3 18.67 3ZM7 14C5.34 14 4 15.34 4 17C4 17.8408 3.52215 18.4262 2.95776 18.7377C2.5965 18.937 2.37343 19.4601 2.68536 19.7302C3.60021 20.5224 4.81847 21 6 21C8.21 21 10 19.21 10 17C10 15.34 8.66 14 7 14Z" fill="#1A1A1A"/>
</g>
<defs>
<clipPath id="clip0_150_141">
<rect width="24" height="24" fill="white"/>
</clipPath>
</defs>
</svg>
