<svg width="24" height="24" viewBox="0 0 24 24" fill="none" xmlns="http://www.w3.org/2000/svg">
<g clip-path="url(#clip0_152_408)">
<path d="M16 2C16.5523 2 17 2.44772 17 3H18C19.6569 3 21 4.34315 21 6V18C21 19.6569 19.6569 21 18 21H6C4.34315 21 3 19.6569 3 18V6C3 4.34315 4.34315 3 6 3H7C7 2.44772 7.44772 2 8 2C8.55228 2 9 2.44772 9 3H15C15 2.44772 15.4477 2 16 2ZM6 5C5.44772 5 5 5.44772 5 6V7H19V6C19 5.44772 18.5523 5 18 5H17C17 5.55228 16.5523 6 16 6C15.4477 6 15 5.55228 15 5H9C9 5.55228 8.55228 6 8 6C7.44772 6 7 5.55228 7 5H6Z" fill="#1A1A1A"/>
</g>
<defs>
<clipPath id="clip0_152_408">
<rect width="24" height="24" fill="white"/>
</clipPath>
</defs>
</svg>
