<svg width="24" height="24" viewBox="0 0 24 24" fill="none" xmlns="http://www.w3.org/2000/svg">
<path d="M16 2.5C16.5523 2.5 17 2.94772 17 3.5H18C19.6569 3.5 21 4.84315 21 6.5V18.5C21 20.1569 19.6569 21.5 18 21.5H6C4.34315 21.5 3 20.1569 3 18.5V6.5C3 4.84315 4.34315 3.5 6 3.5H7C7 2.94772 7.44772 2.5 8 2.5C8.55228 2.5 9 2.94772 9 3.5H15C15 2.94772 15.4477 2.5 16 2.5ZM5 18.5C5 19.0523 5.44772 19.5 6 19.5H18C18.5523 19.5 19 19.0523 19 18.5V9.5H5V18.5ZM12 11.5C12.5523 11.5 13 11.9477 13 12.5V13.5H14C14.5523 13.5 15 13.9477 15 14.5C15 15.0523 14.5523 15.5 14 15.5H13V16.5C13 17.0523 12.5523 17.5 12 17.5C11.4477 17.5 11 17.0523 11 16.5V15.5H10C9.44772 15.5 9 15.0523 9 14.5C9 13.9477 9.44772 13.5 10 13.5H11V12.5C11 11.9477 11.4477 11.5 12 11.5ZM6 5.5C5.44772 5.5 5 5.94772 5 6.5V7.5H19V6.5C19 5.94772 18.5523 5.5 18 5.5H17C17 6.05228 16.5523 6.5 16 6.5C15.4477 6.5 15 6.05228 15 5.5H9C9 6.05228 8.55228 6.5 8 6.5C7.44772 6.5 7 6.05228 7 5.5H6Z" fill="#1A1A1A"/>
</svg>
