<svg width="24" height="24" viewBox="0 0 24 24" fill="none" xmlns="http://www.w3.org/2000/svg">
<g clip-path="url(#clip0_149_295)">
<path fill-rule="evenodd" clip-rule="evenodd" d="M8.20711 5.79289C7.81658 5.40237 7.18342 5.40237 6.79289 5.79289L3.79289 8.79289C3.40237 9.18342 3.40237 9.81658 3.79289 10.2071L6.79289 13.2071C7.18342 13.5976 7.81658 13.5976 8.20711 13.2071C8.59763 12.8166 8.59763 12.1834 8.20711 11.7929L6.91421 10.5H15.5C17.1569 10.5 18.5 11.8431 18.5 13.5V17.5C18.5 18.0523 18.9477 18.5 19.5 18.5C20.0523 18.5 20.5 18.0523 20.5 17.5V13.5C20.5 10.7386 18.2614 8.5 15.5 8.5H6.91421L8.20711 7.20711C8.59763 6.81658 8.59763 6.18342 8.20711 5.79289Z" fill="#1A1A1A"/>
</g>
<defs>
<clipPath id="clip0_149_295">
<rect width="24" height="24" fill="white"/>
</clipPath>
</defs>
</svg>
