<svg width="24" height="24" viewBox="0 0 24 24" fill="none" xmlns="http://www.w3.org/2000/svg">
<g clip-path="url(#clip0_149_305)">
<path fill-rule="evenodd" clip-rule="evenodd" d="M15.7929 5.79289C16.1834 5.40237 16.8166 5.40237 17.2071 5.79289L20.2071 8.79289C20.5976 9.18342 20.5976 9.81658 20.2071 10.2071L17.2071 13.2071C16.8166 13.5976 16.1834 13.5976 15.7929 13.2071C15.4024 12.8166 15.4024 12.1834 15.7929 11.7929L17.0858 10.5H8.5C6.84315 10.5 5.5 11.8431 5.5 13.5V17.5C5.5 18.0523 5.05228 18.5 4.5 18.5C3.94772 18.5 3.5 18.0523 3.5 17.5V13.5C3.5 10.7386 5.73858 8.5 8.5 8.5H17.0858L15.7929 7.20711C15.4024 6.81658 15.4024 6.18342 15.7929 5.79289Z" fill="#1A1A1A"/>
</g>
<defs>
<clipPath id="clip0_149_305">
<rect width="24" height="24" fill="white"/>
</clipPath>
</defs>
</svg>
