<svg width="24" height="24" viewBox="0 0 24 24" fill="none" xmlns="http://www.w3.org/2000/svg">
<path d="M5.59563 3.66064C6.07738 3.66064 6.47987 4.02792 6.52361 4.50765L6.70011 6.45549H20.5015C20.7716 6.45549 21.0287 6.57262 21.2057 6.77665C21.3825 6.98065 21.4622 7.25174 21.424 7.51903L20.7044 12.5519C20.5183 13.8544 19.4493 14.8509 18.137 14.9447L8.41687 15.6388C6.89826 15.7473 5.57153 14.6204 5.43369 13.1042L4.74499 5.52388H3.7324C3.21788 5.52388 2.80078 5.10678 2.80078 4.59226C2.80078 4.07774 3.21788 3.66064 3.7324 3.66064H5.59563ZM7.28965 12.9359C7.33568 13.4412 7.7779 13.8163 8.28404 13.7801L18.0041 13.086C18.4415 13.0547 18.7981 12.723 18.8603 12.289L19.427 8.31873H6.87024L7.28965 12.9359Z" fill="#1A1A1A"/>
<path d="M10.1132 19.0749C10.1132 19.8564 9.47966 20.4899 8.69819 20.4899C7.91671 20.4899 7.2832 19.8564 7.2832 19.0749C7.2832 18.2934 7.91671 17.6599 8.69819 17.6599C9.47966 17.6599 10.1132 18.2934 10.1132 19.0749Z" fill="#1A1A1A"/>
<path d="M18.6034 19.0749C18.6034 19.8564 17.9699 20.4899 17.1884 20.4899C16.4069 20.4899 15.7734 19.8564 15.7734 19.0749C15.7734 18.2934 16.4069 17.6599 17.1884 17.6599C17.9699 17.6599 18.6034 18.2934 18.6034 19.0749Z" fill="#1A1A1A"/>
</svg>
