<svg width="24" height="24" viewBox="0 0 24 24" fill="none" xmlns="http://www.w3.org/2000/svg">
<g clip-path="url(#clip0_154_34)">
<path d="M18.7071 4.29295C18.3166 3.90243 17.6836 3.90243 17.293 4.29295C16.9025 4.68348 16.9025 5.31649 17.293 5.70702L17.586 5.99999H8.00008C7.44779 5.99999 7.00008 6.4477 7.00008 6.99999C7.00008 7.55227 7.44779 7.99999 8.00008 7.99999H17.586L17.293 8.29295C16.9025 8.68348 16.9025 9.31649 17.293 9.70702C17.6836 10.0975 18.3166 10.0975 18.7071 9.70702L20.7071 7.70702C21.0976 7.31649 21.0976 6.68348 20.7071 6.29295L18.7071 4.29295Z" fill="#1A1A1A"/>
<path d="M5.29289 19.707C5.68342 20.0976 6.31643 20.0976 6.70696 19.707C7.09748 19.3165 7.09748 18.6835 6.70696 18.293L6.41399 18L15.9999 18C16.5522 18 16.9999 17.5523 16.9999 17C16.9999 16.4477 16.5522 16 15.9999 16L6.41399 16L6.70696 15.707C7.09748 15.3165 7.09748 14.6835 6.70696 14.293C6.31643 13.9025 5.68342 13.9025 5.29289 14.293L3.29289 16.293C2.90237 16.6835 2.90237 17.3165 3.29289 17.707L5.29289 19.707Z" fill="#1A1A1A"/>
<path d="M5 11C5 9.34315 6.34315 8 8 8C8.55228 8 9 7.55228 9 7C9 6.44772 8.55228 6 8 6C5.23858 6 3 8.23858 3 11C3 11.5523 3.44772 12 4 12C4.55228 12 5 11.5523 5 11Z" fill="#1A1A1A"/>
<path d="M19 13C19 14.6569 17.6569 16 16 16C15.4477 16 15 16.4477 15 17C15 17.5523 15.4477 18 16 18C18.7614 18 21 15.7614 21 13C21 12.4477 20.5523 12 20 12C19.4477 12 19 12.4477 19 13Z" fill="#1A1A1A"/>
</g>
<defs>
<clipPath id="clip0_154_34">
<rect width="24" height="24" fill="white"/>
</clipPath>
</defs>
</svg>
