<svg width="24" height="24" viewBox="0 0 24 24" fill="none" xmlns="http://www.w3.org/2000/svg">
<rect width="24" height="24" fill="#F5F5F5"/>
<g id="24">
<path d="M-516 -306C-516 -307.105 -515.105 -308 -514 -308H642C643.105 -308 644 -307.105 644 -306V1474C644 1475.1 643.105 1476 642 1476H-514C-515.105 1476 -516 1475.1 -516 1474V-306Z" fill="#F5F5F5"/>
<path d="M-514 -308V-307H642V-308V-309H-514V-308ZM644 -306H643V1474H644H645V-306H644ZM642 1476V1475H-514V1476V1477H642V1476ZM-516 1474H-515V-306H-516H-517V1474H-516ZM-514 1476V1475C-514.552 1475 -515 1474.55 -515 1474H-516H-517C-517 1475.66 -515.657 1477 -514 1477V1476ZM644 1474H643C643 1474.55 642.552 1475 642 1475V1476V1477C643.657 1477 645 1475.66 645 1474H644ZM642 -308V-307C642.552 -307 643 -306.552 643 -306H644H645C645 -307.657 643.657 -309 642 -309V-308ZM-514 -308V-309C-515.657 -309 -517 -307.657 -517 -306H-516H-515C-515 -306.552 -514.552 -307 -514 -307V-308Z" fill="black" fill-opacity="0.1"/>
<g id="icon/check" clip-path="url(#clip0_149_2)">
<path id="Vector 5 (Stroke)" fill-rule="evenodd" clip-rule="evenodd" d="M20.7071 6.29289C21.0976 6.68342 21.0976 7.31658 20.7071 7.70711L10.7071 17.7071C10.3166 18.0976 9.68342 18.0976 9.29289 17.7071L4.29289 12.7071C3.90237 12.3166 3.90237 11.6834 4.29289 11.2929C4.68342 10.9024 5.31658 10.9024 5.70711 11.2929L10 15.5858L19.2929 6.29289C19.6834 5.90237 20.3166 5.90237 20.7071 6.29289Z" fill="#1A1A1A"/>
</g>
</g>
<defs>
<clipPath id="clip0_149_2">
<rect width="24" height="24" fill="white"/>
</clipPath>
</defs>
</svg>
