<svg width="24" height="24" viewBox="0 0 24 24" fill="none" xmlns="http://www.w3.org/2000/svg">
<g clip-path="url(#clip0_150_34)">
<path d="M12 1.99988C17.5228 1.99988 22 6.47703 22 11.9999C22 17.5227 17.5228 21.9999 12 21.9999C6.47715 21.9999 2 17.5227 2 11.9999C2 6.47703 6.47715 1.99988 12 1.99988ZM14.707 9.29285C14.3165 8.9024 13.6835 8.9024 13.293 9.29285L12 10.5858L10.707 9.29285C10.3165 8.9024 9.68348 8.9024 9.29297 9.29285C8.90246 9.68335 8.90251 10.3164 9.29297 10.7069L10.5859 11.9999L9.29297 13.2928C8.90273 13.6834 8.90259 14.3165 9.29297 14.7069C9.6834 15.0973 10.3165 15.0972 10.707 14.7069L12 13.4139L13.293 14.7069C13.6835 15.0972 14.3166 15.0973 14.707 14.7069C15.0974 14.3165 15.0973 13.6834 14.707 13.2928L13.4141 11.9999L14.707 10.7069C15.0975 10.3164 15.0975 9.68335 14.707 9.29285Z" fill="#1A1A1A"/>
</g>
<defs>
<clipPath id="clip0_150_34">
<rect width="24" height="24" fill="white"/>
</clipPath>
</defs>
</svg>
