<svg width="24" height="24" viewBox="0 0 24 24" fill="none" xmlns="http://www.w3.org/2000/svg">
<path d="M14 19L19.5 22L19 16L14 19Z" fill="#1A1A1A"/>
<path fill-rule="evenodd" clip-rule="evenodd" d="M2 11.0019C2 5.38584 6.51786 1 12 1C17.4821 1 22 5.38584 22 11.0019C22 13.3188 21.1872 15.4179 19.8991 17.1162L20.3515 21.8789C20.3862 22.2433 20.2338 22.5995 19.9524 22.8117C19.6711 23.0238 19.3041 23.0594 18.9912 22.9048L14.4791 20.6757C13.6571 20.923 12.8429 21.0038 12 21.0038C6.51786 21.0038 2 16.6179 2 11.0019ZM12 3.03781C7.45601 3.03781 3.92011 6.63684 3.92011 11.0019C3.92011 15.3669 7.45601 18.966 12 18.966C12.8353 18.966 13.5445 18.8738 14.2359 18.6219C14.4707 18.5364 14.7277 18.5507 14.9528 18.6619L18.2718 20.3017L17.948 16.8931C17.9214 16.6126 18.0055 16.3328 18.1803 16.1205C19.3649 14.6818 20.0799 12.9171 20.0799 11.0019C20.0799 6.63684 16.544 3.03781 12 3.03781Z" fill="#1A1A1A"/>
<path d="M12 2C16.9706 2 21 6.02944 21 11C21 15.9706 16.9706 20 12 20C7.02944 20 3 15.9706 3 11C3 6.02944 7.02944 2 12 2ZM8.71289 11.9795C8.18271 11.9795 7.75293 12.4354 7.75293 12.998C7.753 13.5607 8.18275 14.0165 8.71289 14.0166H12.8223C13.3523 14.0165 13.7822 13.5606 13.7822 12.998C13.7822 12.4354 13.3524 11.9796 12.8223 11.9795H8.71289ZM8.71289 7.98633C8.18271 7.98638 7.75293 8.44317 7.75293 9.00586C7.75313 9.56837 8.18283 10.0244 8.71289 10.0244H15.2871C15.8172 10.0244 16.2469 9.56841 16.2471 9.00586C16.2471 8.44313 15.8173 7.98633 15.2871 7.98633H8.71289Z" fill="#1A1A1A"/>
</svg>
