<svg width="24" height="24" viewBox="0 0 24 24" fill="none" xmlns="http://www.w3.org/2000/svg">
<path opacity="0.7" fill-rule="evenodd" clip-rule="evenodd" d="M2 11.0019C2 5.38584 6.51786 1 12 1C17.4821 1 22 5.38584 22 11.0019C22 13.3188 21.1872 15.4179 19.8991 17.1162L20.3515 21.8789C20.3862 22.2433 20.2338 22.5995 19.9524 22.8117C19.6711 23.0238 19.3041 23.0594 18.9912 22.9048L14.4791 20.6757C13.6571 20.923 12.8429 21.0038 12 21.0038C6.51786 21.0038 2 16.6179 2 11.0019ZM12 3.03781C7.45601 3.03781 3.92011 6.63684 3.92011 11.0019C3.92011 15.3669 7.45601 18.966 12 18.966C12.8353 18.966 13.5445 18.8738 14.2359 18.6219C14.4707 18.5364 14.7277 18.5507 14.9528 18.6619L18.2718 20.3017L17.948 16.8931C17.9214 16.6126 18.0055 16.3328 18.1803 16.1205C19.3649 14.6818 20.0799 12.9171 20.0799 11.0019C20.0799 6.63684 16.544 3.03781 12 3.03781Z" fill="#1A1A1A"/>
<path opacity="0.7" fill-rule="evenodd" clip-rule="evenodd" d="M7.75293 9.00548C7.75293 8.44275 8.18276 7.98657 8.71298 7.98657H15.2875C15.8177 7.98657 16.2475 8.44275 16.2475 9.00548C16.2475 9.5682 15.8177 10.0244 15.2875 10.0244H8.71298C8.18276 10.0244 7.75293 9.5682 7.75293 9.00548Z" fill="#1A1A1A"/>
<path opacity="0.7" fill-rule="evenodd" clip-rule="evenodd" d="M7.75293 12.9979C7.75293 12.4352 8.18276 11.979 8.71298 11.979H12.8221C13.3523 11.979 13.7821 12.4352 13.7821 12.9979C13.7821 13.5606 13.3523 14.0168 12.8221 14.0168H8.71298C8.18276 14.0168 7.75293 13.5606 7.75293 12.9979Z" fill="#1A1A1A"/>
</svg>
