<svg width="24" height="24" viewBox="0 0 24 24" fill="none" xmlns="http://www.w3.org/2000/svg">
<g clip-path="url(#clip0_153_206)">
<path d="M19.3889 4.61111H17.2778V3.5C17.2778 2.94772 16.8301 2.5 16.2778 2.5H7.72222C7.16994 2.5 6.72222 2.94772 6.72222 3.5V4.61111H4.61111C3.45 4.61111 2.5 5.56111 2.5 6.72222V7.77778C2.5 10.4694 4.52667 12.665 7.13389 12.9922C7.79889 14.5756 9.22389 15.7683 10.9444 16.1167V19.3889H7.72222C7.16994 19.3889 6.72222 19.8366 6.72222 20.3889V20.5C6.72222 21.0523 7.16994 21.5 7.72222 21.5H16.2778C16.8301 21.5 17.2778 21.0523 17.2778 20.5V20.3889C17.2778 19.8366 16.8301 19.3889 16.2778 19.3889H13.0556V16.1167C14.7761 15.7683 16.2011 14.5756 16.8661 12.9922C19.4733 12.665 21.5 10.4694 21.5 7.77778V6.72222C21.5 5.56111 20.55 4.61111 19.3889 4.61111ZM4.61111 7.77778V6.72222H6.72222V10.7544C5.49778 10.3111 4.61111 9.15 4.61111 7.77778ZM19.3889 7.77778C19.3889 9.15 18.5022 10.3111 17.2778 10.7544V6.72222H19.3889V7.77778Z" fill="#1A1A1A"/>
</g>
<defs>
<clipPath id="clip0_153_206">
<rect width="24" height="24" fill="white"/>
</clipPath>
</defs>
</svg>
