<svg width="24" height="24" viewBox="0 0 24 24" fill="none" xmlns="http://www.w3.org/2000/svg">
<g clip-path="url(#clip0_149_48)">
<path fill-rule="evenodd" clip-rule="evenodd" d="M5.77778 5C5.34822 5 5 5.34822 5 5.77778V8.33301H9.64706H19V5.77778C19 5.34822 18.6518 5 18.2222 5H5.77778ZM19 10.333H10.6471V19H18.2222C18.6518 19 19 18.6518 19 18.2222V10.333ZM8.64706 10.333H5V18.2222C5 18.6518 5.34822 19 5.77778 19H8.64706V10.333ZM3 9.33301V18.2222C3 19.7563 4.24365 21 5.77778 21H18.2222C19.7563 21 21 19.7563 21 18.2222V9.33301V5.77778C21 4.24365 19.7563 3 18.2222 3H5.77778C4.24365 3 3 4.24365 3 5.77778V9.33301Z" fill="#1A1A1A"/>
</g>
<defs>
<clipPath id="clip0_149_48">
<rect width="24" height="24" fill="white"/>
</clipPath>
</defs>
</svg>
