<svg width="24" height="24" viewBox="0 0 24 24" fill="none" xmlns="http://www.w3.org/2000/svg">
<g clip-path="url(#clip0_150_109)">
<path d="M21.0005 19.0002C21.5526 19.0004 22.0005 19.4481 22.0005 20.0002C22.0003 20.5523 21.5525 21.0001 21.0005 21.0002H13.0005C12.4483 21.0002 12.0006 20.5524 12.0005 20.0002C12.0005 19.448 12.4482 19.0002 13.0005 19.0002H21.0005ZM15.8794 3.70728C17.0509 2.53592 18.9501 2.53591 20.1216 3.70728L20.2935 3.87915C21.4645 5.0507 21.4647 6.9499 20.2935 8.12134L8.70752 19.7073C8.57941 19.8354 8.41843 19.926 8.24268 19.97L4.24268 20.97C3.9021 21.055 3.54177 20.9554 3.29346 20.7073C3.04518 20.459 2.94575 20.0987 3.03076 19.7581L4.03076 15.7581L4.07178 15.6292C4.1219 15.5037 4.19728 15.3894 4.29346 15.2932L15.8794 3.70728ZM18.7075 5.12134C18.317 4.73102 17.6839 4.73103 17.2935 5.12134L16.4146 6.00024L18.0005 7.58618L18.8794 6.70728C19.2696 6.31688 19.2694 5.68372 18.8794 5.29321L18.7075 5.12134Z" fill="#1A1A1A"/>
</g>
<defs>
<clipPath id="clip0_150_109">
<rect width="24" height="24" fill="white"/>
</clipPath>
</defs>
</svg>
