<svg width="24" height="24" viewBox="0 0 24 24" fill="none" xmlns="http://www.w3.org/2000/svg">
<g clip-path="url(#clip0_150_87)">
<path fill-rule="evenodd" clip-rule="evenodd" d="M18.7071 5.12132C18.3166 4.7308 17.6834 4.7308 17.2929 5.12132L16.4142 6L18 7.58579L18.8787 6.70711C19.2692 6.31659 19.2692 5.68342 18.8787 5.29289L18.7071 5.12132ZM15.8787 3.70711L14.2929 5.2929L4.29291 15.2929C4.16476 15.4211 4.07384 15.5816 4.02988 15.7575L3.02988 19.7575C2.94468 20.0982 3.04453 20.4587 3.29291 20.7071C3.54129 20.9555 3.90178 21.0553 4.24256 20.9701L8.24256 19.9701C8.41839 19.9262 8.57897 19.8353 8.70713 19.7071L18.7064 9.70788L18.7071 9.70711L18.7079 9.70634L20.2929 8.12132C21.4645 6.94975 21.4645 5.05025 20.2929 3.87868L20.1213 3.70711C18.9498 2.53554 17.0503 2.53554 15.8787 3.70711ZM7.48877 18.097L16.5858 9L15 7.41422L5.90299 16.5113L5.37439 18.6256L7.48877 18.097ZM13 19C12.4477 19 12 19.4477 12 20C12 20.5523 12.4477 21 13 21H21C21.5523 21 22 20.5523 22 20C22 19.4477 21.5523 19 21 19H13Z" fill="#1A1A1A"/>
</g>
<defs>
<clipPath id="clip0_150_87">
<rect width="24" height="24" fill="white"/>
</clipPath>
</defs>
</svg>
