<svg width="24" height="24" viewBox="0 0 24 24" fill="none" xmlns="http://www.w3.org/2000/svg">
<path fill-rule="evenodd" clip-rule="evenodd" d="M12 6C11.6069 6 11.222 6.02263 10.846 6.06646C10.2975 6.13041 9.80091 5.73755 9.73696 5.18898C9.67301 4.64042 10.0659 4.14387 10.6144 4.07992C11.0678 4.02706 11.53 4 12 4C17.1161 4 21.1967 7.1941 22.9315 11.6362C23.0228 11.8701 23.0228 12.1299 22.9315 12.3638C22.504 13.4585 21.9346 14.4773 21.2417 15.3917C20.9081 15.8318 20.2808 15.9182 19.8407 15.5846C19.4005 15.251 19.3141 14.6238 19.6477 14.1836C20.1506 13.5201 20.5782 12.7873 20.9189 12C19.3807 8.44349 16.0743 6 12 6ZM7.37329 5.99862C7.66093 6.47009 7.5119 7.08547 7.04044 7.37311C5.30454 8.43215 3.92579 10.0476 3.08113 12C4.61926 15.5565 7.92566 18 12 18C13.8519 18 15.5324 17.4976 16.9598 16.6268C17.4312 16.3391 18.0466 16.4881 18.3343 16.9596C18.6219 17.431 18.4729 18.0464 18.0014 18.3341C16.2636 19.3944 14.2232 20 12 20C6.8839 20 2.80329 16.8059 1.06851 12.3638C0.977163 12.1299 0.977163 11.8701 1.06851 11.6362C2.04455 9.13695 3.76125 7.03087 5.99881 5.66576C6.47028 5.37813 7.08566 5.52715 7.37329 5.99862ZM10.5859 9.17151C10.9764 9.56205 10.9764 10.1952 10.5858 10.5857C10.2228 10.9488 10 11.4474 10 12C10 13.1046 10.8954 14 12 14C12.5526 14 13.0512 13.7772 13.4143 13.4142C13.8048 13.0236 14.4379 13.0236 14.8285 13.4141C15.219 13.8046 15.2191 14.4378 14.8286 14.8283C14.1058 15.5511 13.1044 16 12 16C9.79086 16 8 14.2091 8 12C8 10.8956 8.44886 9.89422 9.1717 9.17145C9.56224 8.78094 10.1954 8.78097 10.5859 9.17151Z" fill="#1A1A1A"/>
<path fill-rule="evenodd" clip-rule="evenodd" d="M3.29289 3.29289C3.68342 2.90237 4.31658 2.90237 4.70711 3.29289L20.7071 19.2929C21.0976 19.6834 21.0976 20.3166 20.7071 20.7071C20.3166 21.0976 19.6834 21.0976 19.2929 20.7071L3.29289 4.70711C2.90237 4.31658 2.90237 3.68342 3.29289 3.29289Z" fill="#1A1A1A"/>
</svg>
