<svg width="24" height="24" viewBox="0 0 24 24" fill="none" xmlns="http://www.w3.org/2000/svg">
<g clip-path="url(#clip0_150_399)">
<path d="M12 4C17.116 4 21.1968 7.19381 22.9316 11.6357C23.023 11.8697 23.023 12.1303 22.9316 12.3643C21.1968 16.8062 17.116 20 12 20C6.88404 20 2.80322 16.8062 1.06836 12.3643C0.977009 12.1303 0.977009 11.8697 1.06836 11.6357C2.80322 7.19381 6.88404 4 12 4ZM12 9C10.3431 9 9 10.3431 9 12C9 13.6569 10.3431 15 12 15C13.6569 15 15 13.6569 15 12C15 10.3431 13.6569 9 12 9Z" fill="#1A1A1A"/>
</g>
<defs>
<clipPath id="clip0_150_399">
<rect width="24" height="24" fill="white"/>
</clipPath>
</defs>
</svg>
