<svg width="24" height="24" viewBox="0 0 24 24" fill="none" xmlns="http://www.w3.org/2000/svg">
<g clip-path="url(#clip0_153_230)">
<path fill-rule="evenodd" clip-rule="evenodd" d="M5 2C4.44772 2 4 2.44772 4 3V19C4 20.6569 5.34315 22 7 22H17C18.6569 22 20 20.6569 20 19V8C20 7.73478 19.8946 7.48043 19.7071 7.29289L14.7071 2.29289C14.5196 2.10536 14.2652 2 14 2H5ZM6 19V4H12V9C12 9.55228 12.4477 10 13 10H18V19C18 19.5523 17.5523 20 17 20H7C6.44772 20 6 19.5523 6 19ZM17.5858 8L14 4.41421V8H17.5858ZM8 13C8 12.4477 8.44772 12 9 12H15C15.5523 12 16 12.4477 16 13C16 13.5523 15.5523 14 15 14H9C8.44772 14 8 13.5523 8 13ZM9 16C8.44772 16 8 16.4477 8 17C8 17.5523 8.44772 18 9 18H15C15.5523 18 16 17.5523 16 17C16 16.4477 15.5523 16 15 16H9Z" fill="#1A1A1A"/>
</g>
<defs>
<clipPath id="clip0_153_230">
<rect width="24" height="24" fill="white"/>
</clipPath>
</defs>
</svg>
