<svg width="24" height="24" viewBox="0 0 24 24" fill="none" xmlns="http://www.w3.org/2000/svg">
<g clip-path="url(#clip0_150_360)">
<path fill-rule="evenodd" clip-rule="evenodd" d="M10 8C10 7.44772 9.55228 7 9 7C8.44772 7 8 7.44772 8 8C8 8.55228 8.44772 9 9 9C9.55228 9 10 8.55228 10 8ZM11.8293 7C11.4175 5.83481 10.3062 5 9 5C7.69378 5 6.58254 5.83481 6.17071 7H4C3.44772 7 3 7.44772 3 8C3 8.55228 3.44772 9 4 9H6.17071C6.58254 10.1652 7.69378 11 9 11C10.3062 11 11.4175 10.1652 11.8293 9H20C20.5523 9 21 8.55228 21 8C21 7.44772 20.5523 7 20 7H11.8293ZM4 15H12.1707C12.5825 13.8348 13.6938 13 15 13C16.3062 13 17.4175 13.8348 17.8293 15H20C20.5523 15 21 15.4477 21 16C21 16.5523 20.5523 17 20 17H17.8293C17.4175 18.1652 16.3062 19 15 19C13.6938 19 12.5825 18.1652 12.1707 17H4C3.44771 17 3 16.5523 3 16C3 15.4477 3.44771 15 4 15ZM15 15C15.5523 15 16 15.4477 16 16C16 16.5523 15.5523 17 15 17C14.4477 17 14 16.5523 14 16C14 15.4477 14.4477 15 15 15Z" fill="#1A1A1A"/>
</g>
<defs>
<clipPath id="clip0_150_360">
<rect width="24" height="24" fill="white"/>
</clipPath>
</defs>
</svg>
