<svg width="24" height="24" viewBox="0 0 24 24" fill="none" xmlns="http://www.w3.org/2000/svg">
<g clip-path="url(#clip0_151_25)">
<path fill-rule="evenodd" clip-rule="evenodd" d="M3 9C3 9.55228 3.44772 10 4 10C4.55228 10 5 9.55228 5 9L5 6C5 5.44772 5.44772 5 6 5L9 5C9.55229 5 10 4.55229 10 4C10 3.44772 9.55229 3 9 3H6C4.34315 3 3 4.34315 3 6V9ZM21 15C21 14.4477 20.5523 14 20 14C19.4477 14 19 14.4477 19 15V18C19 18.5523 18.5523 19 18 19H15C14.4477 19 14 19.4477 14 20C14 20.5523 14.4477 21 15 21H18C19.6569 21 21 19.6569 21 18V15ZM14 4C14 3.44772 14.4477 3 15 3H18C19.6569 3 21 4.34315 21 6V9C21 9.55229 20.5523 10 20 10C19.4477 10 19 9.55229 19 9V6C19 5.44772 18.5523 5 18 5H15C14.4477 5 14 4.55229 14 4ZM9 21C9.55228 21 10 20.5523 10 20C10 19.4477 9.55228 19 9 19H6C5.44772 19 5 18.5523 5 18L5 15C5 14.4477 4.55229 14 4 14C3.44772 14 3 14.4477 3 15V18C3 19.6569 4.34315 21 6 21H9Z" fill="#1A1A1A"/>
</g>
<defs>
<clipPath id="clip0_151_25">
<rect width="24" height="24" fill="white"/>
</clipPath>
</defs>
</svg>
