<svg width="24" height="24" viewBox="0 0 24 24" fill="none" xmlns="http://www.w3.org/2000/svg">
<g clip-path="url(#clip0_151_35)">
<path fill-rule="evenodd" clip-rule="evenodd" d="M10 4C10 3.44772 9.55228 3 9 3C8.44772 3 8 3.44772 8 4V7C8 7.55229 7.55228 8 7 8H4C3.44772 8 3 8.44772 3 9C3 9.55229 3.44772 10 4 10H7C8.65685 10 10 8.65685 10 7V4ZM14 20C14 20.5523 14.4477 21 15 21C15.5523 21 16 20.5523 16 20V17C16 16.4477 16.4477 16 17 16H20C20.5523 16 21 15.5523 21 15C21 14.4477 20.5523 14 20 14H17C15.3431 14 14 15.3431 14 17V20ZM21 9C21 9.55229 20.5523 10 20 10H17C15.3431 10 14 8.65685 14 7V4C14 3.44772 14.4477 3 15 3C15.5523 3 16 3.44772 16 4V7C16 7.55228 16.4477 8 17 8H20C20.5523 8 21 8.44772 21 9ZM4 14C3.44772 14 3 14.4477 3 15C3 15.5523 3.44772 16 4 16H7C7.55228 16 8 16.4477 8 17L8 20C8 20.5523 8.44771 21 9 21C9.55228 21 10 20.5523 10 20L10 17C10 15.3431 8.65685 14 7 14H4Z" fill="#1A1A1A"/>
</g>
<defs>
<clipPath id="clip0_151_35">
<rect width="24" height="24" fill="white"/>
</clipPath>
</defs>
</svg>
