<svg width="24" height="24" viewBox="0 0 24 24" fill="none" xmlns="http://www.w3.org/2000/svg">
<path d="M20.3125 8.25119H16.4444C16.6429 8.12657 16.831 7.98611 17.0069 7.83119C17.2721 7.59487 17.4858 7.3064 17.6345 6.98378C17.7832 6.66117 17.8638 6.31136 17.8713 5.95619C17.8828 5.56549 17.8144 5.17656 17.6703 4.81321C17.5262 4.44986 17.3095 4.11975 17.0334 3.8431C16.7572 3.56645 16.4275 3.34909 16.0645 3.20432C15.7014 3.05955 15.3126 2.99043 14.9219 3.00119C14.5667 3.00863 14.2169 3.08923 13.8943 3.23796C13.5717 3.38668 13.2832 3.60033 13.0469 3.86557C12.6126 4.37805 12.2787 4.96769 12.0625 5.60369C11.8468 4.96816 11.5135 4.37886 11.08 3.86651C10.8435 3.60087 10.5548 3.38691 10.2319 3.23801C9.90889 3.08912 9.55868 3.0085 9.20312 3.00119C8.81217 2.98992 8.42304 3.05863 8.05959 3.2031C7.69614 3.34758 7.36603 3.56478 7.08952 3.84138C6.813 4.11799 6.59591 4.44816 6.45155 4.81166C6.30719 5.17515 6.2386 5.56431 6.25 5.95526C6.25744 6.31042 6.33804 6.66023 6.48676 6.98285C6.63549 7.30546 6.84914 7.59394 7.11438 7.83026C7.29008 7.98539 7.47821 8.12586 7.67688 8.25026H3.8125C3.64006 8.25026 3.46931 8.28424 3.31001 8.35025C3.15071 8.41627 3.00598 8.51303 2.88409 8.63501C2.7622 8.75699 2.66554 8.90178 2.59964 9.06113C2.53374 9.22048 2.49988 9.39125 2.5 9.56369V12.5637C2.5 12.9118 2.63828 13.2456 2.88442 13.4918C3.13056 13.7379 3.4644 13.8762 3.8125 13.8762H4V20.0637C4 20.4118 4.13828 20.7456 4.38442 20.9918C4.63056 21.2379 4.9644 21.3762 5.3125 21.3762H18.8125C19.1606 21.3762 19.4944 21.2379 19.7406 20.9918C19.9867 20.7456 20.125 20.4118 20.125 20.0637V13.8762H20.3125C20.6606 13.8762 20.9944 13.7379 21.2406 13.4918C21.4867 13.2456 21.625 12.9118 21.625 12.5637V9.56369C21.625 9.2156 21.4867 8.88176 21.2406 8.63561C20.9944 8.38947 20.6606 8.25119 20.3125 8.25119ZM12.7909 7.21994C13.0019 6.08369 13.3806 5.18088 13.8869 4.60901C14.0223 4.45949 14.1872 4.33947 14.371 4.25641C14.5549 4.17334 14.7539 4.12902 14.9556 4.12619H15.0072C15.2404 4.12622 15.4713 4.17304 15.6861 4.26387C15.9009 4.35471 16.0953 4.48772 16.2578 4.65503C16.4203 4.82234 16.5476 5.02055 16.6322 5.23793C16.7167 5.4553 16.7568 5.68743 16.75 5.92057C16.7468 6.12252 16.7021 6.32164 16.6185 6.50552C16.5349 6.6894 16.4144 6.85409 16.2644 6.98932C15.2594 7.87619 13.555 8.14151 12.6569 8.21838C12.6803 7.94744 12.7188 7.60244 12.7909 7.21994ZM7.88594 4.63713C8.21316 4.3111 8.65589 4.12747 9.11781 4.12619H9.16937C9.37132 4.12938 9.57045 4.17414 9.75433 4.25769C9.93821 4.34124 10.1029 4.46179 10.2381 4.61182C11.125 5.61682 11.3903 7.32119 11.4672 8.21932C11.1962 8.19588 10.8512 8.15557 10.4725 8.08526C9.33625 7.87619 8.43344 7.49557 7.86156 6.98838C7.71131 6.85349 7.59053 6.68902 7.5068 6.50527C7.42308 6.32152 7.37821 6.12247 7.375 5.92057C7.36853 5.68315 7.4105 5.44691 7.49834 5.22625C7.58619 5.00559 7.71807 4.80514 7.88594 4.63713ZM3.625 12.5637V9.56369C3.625 9.51397 3.64475 9.46627 3.67992 9.43111C3.71508 9.39595 3.76277 9.37619 3.8125 9.37619H11.5V12.7512H3.8125C3.76277 12.7512 3.71508 12.7314 3.67992 12.6963C3.64475 12.6611 3.625 12.6134 3.625 12.5637ZM5.125 20.0637V13.8762H11.5V20.2512H5.3125C5.26277 20.2512 5.21508 20.2314 5.17992 20.1963C5.14475 20.1611 5.125 20.1134 5.125 20.0637ZM19 20.0637C19 20.1134 18.9802 20.1611 18.9451 20.1963C18.9099 20.2314 18.8622 20.2512 18.8125 20.2512H12.625V13.8762H19V20.0637ZM20.5 12.5637C20.5 12.6134 20.4802 12.6611 20.4451 12.6963C20.4099 12.7314 20.3622 12.7512 20.3125 12.7512H12.625V9.37619H20.3125C20.3622 9.37619 20.4099 9.39595 20.4451 9.43111C20.4802 9.46627 20.5 9.51397 20.5 9.56369V12.5637Z" fill="#1A1A1A"/>
</svg>
