<svg width="24" height="24" viewBox="0 0 24 24" fill="none" xmlns="http://www.w3.org/2000/svg">
<g clip-path="url(#clip0_152_39)">
<path fill-rule="evenodd" clip-rule="evenodd" d="M4.58065 4.82527L6.77311 6.96533C6.82802 7.89487 7.1769 8.74374 7.73121 9.42343C7.42852 9.53153 7.10421 9.58919 6.76549 9.58919C5.17277 9.58919 3.88274 8.29916 3.88274 6.70644C3.88274 5.98742 4.14566 5.33008 4.58065 4.82527ZM6.48442 11.4341C7.50218 10.9131 8.77455 10.4736 10.2373 10.3468L11.6732 11.7483C11.5512 11.7475 11.3851 11.749 11.2559 11.7501C11.1847 11.7507 11.1247 11.7512 11.0896 11.7512C9.38158 11.7512 7.99786 12.2773 7.14025 12.717C6.90963 12.8323 6.76549 13.0773 6.76549 13.3512V13.9133H9.28789L8.5672 15.3547H5.32412V13.3512C5.32412 12.544 5.76373 11.8017 6.48442 11.4341ZM6.44788 18.6303L12.0896 12.1547L13.1069 13.1477L7.91767 19.104L7.98987 20.153L9.03884 20.0808L14.1727 14.1881L15.1901 15.1811L9.70945 21.4718L6.65789 21.6818L6.44788 18.6303ZM17.0167 13.0844L20.8978 8.62979L17.6362 5.78824L13.9162 10.058L14.9336 11.0511L17.7518 7.81631L18.873 8.79309L15.9994 12.0914L17.0167 13.0844ZM13.9723 6.70644C13.9723 7.64332 13.526 8.47546 12.8342 9.00191L11.7785 7.97139C12.2259 7.72603 12.531 7.25013 12.531 6.70644C12.531 5.91369 11.8824 5.26507 11.0896 5.26507C10.5336 5.26507 10.0484 5.58418 9.80829 6.0483L8.75257 5.01782C9.27618 4.29424 10.1277 3.8237 11.0896 3.8237C12.6823 3.8237 13.9723 5.11373 13.9723 6.70644ZM7.71699 4.00699L7.6813 3.97216C7.698 3.97777 7.71464 3.98354 7.73121 3.98946L7.71699 4.00699ZM22.7629 6.48831C22.8864 6.34887 22.9799 6.1856 23.0378 6.00858C23.0956 5.83156 23.1166 5.64456 23.0993 5.45913C23.091 5.27308 23.0446 5.09071 22.9631 4.92328C22.8815 4.75586 22.7665 4.60694 22.6251 4.48572L21.5039 3.50894C21.2185 3.26525 20.8489 3.14318 20.4745 3.16895C20.1001 3.19472 19.7507 3.36626 19.5013 3.64676L18.5689 4.71696L21.8305 7.55852L22.7629 6.48831ZM3.88274 13.3512C3.88274 12.162 4.45209 11.0666 5.40339 10.4036C4.1494 10.5765 3.05396 10.9729 2.1603 11.4341C1.43962 11.8017 1 12.544 1 13.3512V15.3547H3.88274V13.3512Z" fill="#1A1A1A"/>
<path d="M22.233 19.9169L3.08168 1.23464L2.01341 2.32972L7.59072 7.77043L8.81315 8.96292L14.365 14.3788L15.5874 15.5713L21.1647 21.012L22.233 19.9169Z" fill="#1A1A1A"/>
</g>
<defs>
<clipPath id="clip0_152_39">
<rect width="24" height="24" fill="white"/>
</clipPath>
</defs>
</svg>
