<svg width="24" height="24" viewBox="0 0 24 24" fill="none" xmlns="http://www.w3.org/2000/svg">
<g clip-path="url(#clip0_151_451)">
<path d="M17.575 14.671C18.3171 14.671 19.0288 14.3762 19.5535 13.8515C20.0783 13.3267 20.373 12.615 20.373 11.873V7.67594C20.373 6.93386 20.0783 6.22218 19.5535 5.69745C19.0288 5.17272 18.3171 4.87793 17.575 4.87793C16.833 4.87793 16.1213 5.17272 15.5965 5.69745C15.0718 6.22218 14.777 6.93386 14.777 7.67594V11.873C14.777 12.615 15.0718 13.3267 15.5965 13.8515C16.1213 14.3762 16.833 14.671 17.575 14.671ZM16.176 7.67594C16.176 7.3049 16.3234 6.94906 16.5858 6.6867C16.8482 6.42433 17.204 6.27694 17.575 6.27694C17.9461 6.27694 18.3019 6.42433 18.5643 6.6867C18.8266 6.94906 18.974 7.3049 18.974 7.67594V11.873C18.974 12.244 18.8266 12.5998 18.5643 12.8622C18.3019 13.1246 17.9461 13.272 17.575 13.272C17.204 13.272 16.8482 13.1246 16.5858 12.8622C16.3234 12.5998 16.176 12.244 16.176 11.873V7.67594ZM23.1711 11.873C23.1711 11.6874 23.0974 11.5095 22.9662 11.3783C22.835 11.2472 22.6571 11.1735 22.4716 11.1735C22.286 11.1735 22.1081 11.2472 21.9769 11.3783C21.8458 11.5095 21.7721 11.6874 21.7721 11.873C21.7721 12.9861 21.3299 14.0536 20.5428 14.8407C19.7557 15.6278 18.6882 16.07 17.575 16.07C16.4619 16.07 15.3944 15.6278 14.6073 14.8407C13.8202 14.0536 13.378 12.9861 13.378 11.873C13.378 11.6874 13.3043 11.5095 13.1731 11.3783C13.0419 11.2472 12.864 11.1735 12.6785 11.1735C12.493 11.1735 12.3151 11.2472 12.1839 11.3783C12.0527 11.5095 11.979 11.6874 11.979 11.873C11.9802 13.2351 12.4783 14.55 13.3797 15.5712C14.2811 16.5924 15.5241 17.2498 16.8755 17.42V18.868H15.4765C15.291 18.868 15.1131 18.9417 14.9819 19.0729C14.8507 19.2041 14.777 19.382 14.777 19.5675C14.777 19.753 14.8507 19.9309 14.9819 20.0621C15.1131 20.1933 15.291 20.267 15.4765 20.267H19.6735C19.8591 20.267 20.037 20.1933 20.1682 20.0621C20.2993 19.9309 20.373 19.753 20.373 19.5675C20.373 19.382 20.2993 19.2041 20.1682 19.0729C20.037 18.9417 19.8591 18.868 19.6735 18.868H18.2745V17.42C19.626 17.2498 20.8689 16.5924 21.7704 15.5712C22.6718 14.55 23.1698 13.2351 23.1711 11.873Z" fill="#1A1A1A"/>
<path d="M6.55794 10.474C5.01204 10.474 3.75993 9.22185 3.75993 7.67594C3.75993 6.13004 5.01204 4.87793 6.55794 4.87793C6.88671 4.87793 7.20149 4.93389 7.49528 5.03882C6.9077 5.7593 6.55794 6.67565 6.55794 7.67594C6.55794 8.67623 6.9077 9.59258 7.49528 10.3131C7.20149 10.418 6.88671 10.474 6.55794 10.474ZM5.23588 11.2644C4.31254 11.9079 3.75993 12.9712 3.75993 14.1254V16.07H0.961914V14.1254C0.961914 13.3419 1.38861 12.6214 2.08811 12.2647C2.9555 11.817 4.01875 11.4323 5.23588 11.2644ZM7.95695 7.67594C7.95695 6.13004 9.20906 4.87793 10.755 4.87793C12.3009 4.87793 13.553 6.13004 13.553 7.67594C13.553 9.22185 12.3009 10.474 10.755 10.474C9.20906 10.474 7.95695 9.22185 7.95695 7.67594ZM9.35596 7.67594C9.35596 8.4454 9.98551 9.07495 10.755 9.07495C11.5244 9.07495 12.154 8.4454 12.154 7.67594C12.154 6.90649 11.5244 6.27694 10.755 6.27694C9.98551 6.27694 9.35596 6.90649 9.35596 7.67594ZM10.755 12.5725C9.09714 12.5725 7.7541 13.0831 6.92169 13.5098C6.69784 13.6217 6.55794 13.8596 6.55794 14.1254V14.671H11.5734C11.9231 15.2726 12.4478 15.7622 13.0773 16.07H5.15894V14.1254C5.15894 13.3419 5.58563 12.6214 6.28514 12.2647C7.4603 11.6631 8.98522 11.1735 10.755 11.1735C11.0278 11.1735 11.2936 11.1875 11.5524 11.2084C11.3216 11.6211 11.1677 12.0898 11.1187 12.5795C10.9998 12.5725 10.8809 12.5725 10.755 12.5725Z" fill="#1A1A1A"/>
</g>
<defs>
<clipPath id="clip0_151_451">
<rect width="24" height="24" fill="white"/>
</clipPath>
</defs>
</svg>
