<svg width="24" height="24" viewBox="0 0 24 24" fill="none" xmlns="http://www.w3.org/2000/svg">
<g clip-path="url(#clip0_151_467)">
<path fill-rule="evenodd" clip-rule="evenodd" d="M3.75993 7.67555C3.75993 9.22146 5.01204 10.4736 6.55794 10.4736C6.88671 10.4736 7.20149 10.4176 7.49528 10.3127C6.92352 9.6116 6.57696 8.72506 6.5587 7.75619L4.51604 5.76209C4.04704 6.26239 3.75993 6.93529 3.75993 7.67555ZM3.75993 14.125C3.75993 12.9708 4.31254 11.9076 5.23588 11.264C4.01874 11.4319 2.9555 11.8166 2.08811 12.2643C1.38861 12.621 0.961914 13.3415 0.961914 14.125V16.0696H3.75993V14.125ZM10.755 4.87754C9.84011 4.87754 9.02814 5.31605 8.51769 5.99446L9.53693 6.98948C9.77779 6.56474 10.2344 6.27655 10.755 6.27655C11.5244 6.27655 12.154 6.9061 12.154 7.67555C12.154 8.18421 11.8789 8.63173 11.4701 8.87666L12.4894 9.87171C13.1373 9.35937 13.553 8.56622 13.553 7.67555C13.553 6.12965 12.3009 4.87754 10.755 4.87754ZM6.92169 13.5094C7.7541 13.0827 9.09714 12.5721 10.755 12.5721C10.8809 12.5721 10.9998 12.5721 11.1187 12.5791C11.1296 12.4698 11.1458 12.3616 11.1669 12.2548C11.2402 11.883 11.3731 11.5287 11.5524 11.208C11.2936 11.1871 11.0278 11.1731 10.755 11.1731C10.5268 11.1731 10.3027 11.1812 10.083 11.1967C8.59787 11.3012 7.30881 11.7403 6.28514 12.2643C5.58563 12.621 5.15894 13.3415 5.15894 14.125V16.0696H13.0773C12.4478 15.7618 11.9231 15.2722 11.5734 14.6706H6.55794V14.125C6.55794 13.8592 6.69784 13.6213 6.92169 13.5094ZM21.7704 15.5708C21.2213 16.1929 20.5454 16.68 19.7955 17.0042L18.6851 15.9202C19.3815 15.7291 20.0232 15.3599 20.5428 14.8403C21.3299 14.0532 21.7721 12.9857 21.7721 11.8726C21.7721 11.6871 21.8458 11.5091 21.9769 11.378C22.1081 11.2468 22.286 11.1731 22.4716 11.1731C22.6571 11.1731 22.835 11.2468 22.9662 11.378C23.0974 11.5091 23.1711 11.6871 23.1711 11.8726C23.1698 13.2347 22.6718 14.5496 21.7704 15.5708ZM16.8755 18.8676V17.8278L19.3738 20.2666H15.4765C15.291 20.2666 15.1131 20.1929 14.9819 20.0617C14.8507 19.9306 14.777 19.7526 14.777 19.5671C14.777 19.3816 14.8507 19.2037 14.9819 19.0725C15.1131 18.9413 15.291 18.8676 15.4765 18.8676H16.8755ZM16.3674 17.3317C16.5347 17.3687 16.7042 17.3981 16.8755 17.4196V17.8278L16.3674 17.3317ZM16.3674 17.3317L12.1415 13.2063C12.3559 14.0765 12.7779 14.8891 13.3797 15.5708C14.1669 16.4626 15.2145 17.0769 16.3674 17.3317ZM14.777 11.8726C14.777 11.9539 14.7806 12.0349 14.7876 12.1153C14.8444 12.7684 15.1293 13.3839 15.5965 13.8511C16.0797 14.3343 16.7214 14.6225 17.3994 14.6651C17.4577 14.6687 17.5163 14.6706 17.575 14.6706C18.3171 14.6706 19.0288 14.3758 19.5535 13.8511C20.0783 13.3263 20.373 12.6147 20.373 11.8726V7.67555C20.373 6.93347 20.0783 6.22179 19.5535 5.69706C19.0288 5.17233 18.3171 4.87754 17.575 4.87754C16.833 4.87754 16.1213 5.17233 15.5965 5.69706C15.0718 6.22179 14.777 6.93347 14.777 7.67555V11.8726ZM16.176 7.67555C16.176 7.30451 16.3234 6.94867 16.5858 6.68631C16.8482 6.42394 17.204 6.27655 17.575 6.27655C17.9461 6.27655 18.3019 6.42394 18.5643 6.68631C18.8266 6.94867 18.974 7.30451 18.974 7.67555V11.8726C18.974 12.2436 18.8266 12.5995 18.5643 12.8618C18.3019 13.1242 17.9461 13.2716 17.575 13.2716C17.204 13.2716 16.8482 13.1242 16.5858 12.8618C16.3234 12.5995 16.176 12.2436 16.176 11.8726V7.67555Z" fill="#1A1A1A"/>
<path d="M22.233 20.9169L3.08168 2.23464L2.01341 3.32972L7.59072 8.77043L8.81315 9.96292L14.365 15.3788L15.5874 16.5713L21.1647 22.012L22.233 20.9169Z" fill="#1A1A1A"/>
</g>
<defs>
<clipPath id="clip0_151_467">
<rect width="24" height="24" fill="white"/>
</clipPath>
</defs>
</svg>
