<svg width="24" height="24" viewBox="0 0 24 24" fill="none" xmlns="http://www.w3.org/2000/svg">
<g clip-path="url(#clip0_152_23)">
<path d="M22.7627 6.48843C22.8861 6.34899 22.9797 6.18571 23.0375 6.00869C23.0954 5.83168 23.1163 5.64467 23.0991 5.45924C23.0908 5.27319 23.0444 5.09082 22.9628 4.9234C22.8813 4.75597 22.7663 4.60705 22.6249 4.48584L21.5037 3.50905C21.2183 3.26536 20.8487 3.1433 20.4743 3.16907C20.0999 3.19483 19.7505 3.36638 19.5011 3.64687L18.5687 4.71708L21.8303 7.55863L22.7627 6.48843Z" fill="#1A1A1A"/>
<path fill-rule="evenodd" clip-rule="evenodd" d="M16.5549 13.6145L20.8976 8.62989L17.6361 5.78833L13.2986 10.7669L6.44775 18.6304L6.65776 21.6819L9.70933 21.4719L16.5549 13.6145ZM17.7517 7.8164L14.3635 11.7054L7.91755 19.1041L7.98974 20.1531L9.03872 20.0809L15.4899 12.6761L18.8728 8.79319L17.7517 7.8164Z" fill="#1A1A1A"/>
<path d="M6.76549 9.58922C5.17277 9.58922 3.88274 8.29919 3.88274 6.70647C3.88274 5.11376 5.17277 3.82373 6.76549 3.82373C7.10421 3.82373 7.42852 3.88139 7.73121 3.98949C7.12583 4.73179 6.76549 5.67589 6.76549 6.70647C6.76549 7.73706 7.12583 8.68115 7.73121 9.42346C7.42852 9.53156 7.10421 9.58922 6.76549 9.58922ZM5.40339 10.4036C4.45209 11.0666 3.88274 12.1621 3.88274 13.3512V15.3547H1V13.3512C1 12.544 1.43962 11.8017 2.1603 11.4342C3.05396 10.9729 4.1494 10.5766 5.40339 10.4036ZM8.20686 6.70647C8.20686 5.11376 9.49689 3.82373 11.0896 3.82373C12.6823 3.82373 13.9723 5.11376 13.9723 6.70647C13.9723 8.29919 12.6823 9.58922 11.0896 9.58922C9.49689 9.58922 8.20686 8.29919 8.20686 6.70647ZM9.64823 6.70647C9.64823 7.49923 10.2968 8.14785 11.0896 8.14785C11.8824 8.14785 12.531 7.49923 12.531 6.70647C12.531 5.91372 11.8824 5.2651 11.0896 5.2651C10.2968 5.2651 9.64823 5.91372 9.64823 6.70647ZM11.0896 11.7513C9.38158 11.7513 7.99786 12.2774 7.14025 12.717C6.90963 12.8323 6.76549 13.0773 6.76549 13.3512V13.9133H9.28789C8.92755 14.634 8.5672 15.3547 8.5672 15.3547H5.32412V13.3512C5.32412 12.544 5.76373 11.8017 6.48442 11.4342C7.69517 10.8144 9.26627 10.3099 11.0896 10.3099C11.3707 10.3099 12.6247 10.2883 12.8913 10.3099L11.8103 11.7513C11.6878 11.7441 11.2193 11.7513 11.0896 11.7513Z" fill="#1A1A1A"/>
</g>
<defs>
<clipPath id="clip0_152_23">
<rect width="24" height="24" fill="white"/>
</clipPath>
</defs>
</svg>
