<svg width="24" height="24" viewBox="0 0 24 24" fill="none" xmlns="http://www.w3.org/2000/svg">
<g clip-path="url(#clip0_152_39)">
<path fill-rule="evenodd" clip-rule="evenodd" d="M4.58065 4.82533L6.77311 6.96539C6.82802 7.89493 7.1769 8.7438 7.73121 9.42349C7.42852 9.53159 7.10421 9.58925 6.76549 9.58925C5.17277 9.58925 3.88274 8.29922 3.88274 6.7065C3.88274 5.98748 4.14566 5.33014 4.58065 4.82533ZM6.48442 11.4342C7.50218 10.9132 8.77455 10.4737 10.2373 10.3468L11.6732 11.7483C11.5512 11.7475 11.3851 11.749 11.2559 11.7502C11.1847 11.7508 11.1247 11.7513 11.0896 11.7513C9.38158 11.7513 7.99786 12.2774 7.14025 12.717C6.90963 12.8323 6.76549 13.0774 6.76549 13.3512V13.9134H9.28789L8.5672 15.3547H5.32412V13.3512C5.32412 12.5441 5.76373 11.8018 6.48442 11.4342ZM6.44788 18.6303L12.0896 12.1548L13.1069 13.1478L7.91767 19.1041L7.98987 20.153L9.03884 20.0809L14.1727 14.1881L15.1901 15.1812L9.70945 21.4719L6.65789 21.6819L6.44788 18.6303ZM17.0167 13.0845L20.8978 8.62985L17.6362 5.7883L13.9162 10.0581L14.9336 11.0511L17.7518 7.81637L18.873 8.79315L15.9994 12.0915L17.0167 13.0845ZM13.9723 6.7065C13.9723 7.64338 13.526 8.47552 12.8342 9.00197L11.7785 7.97145C12.2259 7.72609 12.531 7.25019 12.531 6.7065C12.531 5.91375 11.8824 5.26513 11.0896 5.26513C10.5336 5.26513 10.0484 5.58424 9.80829 6.04836L8.75257 5.01788C9.27618 4.2943 10.1277 3.82376 11.0896 3.82376C12.6823 3.82376 13.9723 5.11379 13.9723 6.7065ZM7.71699 4.00705L7.6813 3.97222C7.698 3.97783 7.71464 3.9836 7.73121 3.98952L7.71699 4.00705ZM22.7629 6.48838C22.8864 6.34893 22.9799 6.18566 23.0378 6.00864C23.0956 5.83162 23.1166 5.64462 23.0993 5.45919C23.091 5.27314 23.0446 5.09077 22.9631 4.92334C22.8815 4.75592 22.7665 4.607 22.6251 4.48578L21.5039 3.509C21.2185 3.26531 20.8489 3.14324 20.4745 3.16901C20.1001 3.19478 19.7507 3.36632 19.5013 3.64682L18.5689 4.71702L21.8305 7.55858L22.7629 6.48838ZM3.88274 13.3512C3.88274 12.1621 4.45209 11.0667 5.40339 10.4036C4.1494 10.5766 3.05396 10.973 2.1603 11.4342C1.43962 11.8018 1 12.5441 1 13.3512V15.3547H3.88274V13.3512Z" fill="#1A1A1A"/>
<path d="M22.233 19.9169L3.08168 1.23464L2.01341 2.32972L7.59072 7.77043L8.81315 8.96292L14.365 14.3788L15.5874 15.5713L21.1647 21.012L22.233 19.9169Z" fill="#1A1A1A"/>
</g>
<defs>
<clipPath id="clip0_152_39">
<rect width="24" height="24" fill="white"/>
</clipPath>
</defs>
</svg>
