<svg width="24" height="24" viewBox="0 0 24 24" fill="none" xmlns="http://www.w3.org/2000/svg">
<g clip-path="url(#clip0_152_23)">
<path d="M22.7627 6.48837C22.8861 6.34893 22.9797 6.18565 23.0375 6.00863C23.0954 5.83161 23.1163 5.64461 23.0991 5.45918C23.0908 5.27313 23.0444 5.09076 22.9628 4.92334C22.8813 4.75591 22.7663 4.60699 22.6249 4.48578L21.5037 3.50899C21.2183 3.2653 20.8487 3.14324 20.4743 3.169C20.0999 3.19477 19.7505 3.36632 19.5011 3.64681L18.5687 4.71702L21.8303 7.55857L22.7627 6.48837Z" fill="#1A1A1A"/>
<path fill-rule="evenodd" clip-rule="evenodd" d="M16.5549 13.6145L20.8976 8.62989L17.6361 5.78833L13.2986 10.7669L6.44775 18.6304L6.65776 21.6819L9.70933 21.4719L16.5549 13.6145ZM17.7517 7.8164L14.3635 11.7054L7.91755 19.1041L7.98974 20.1531L9.03872 20.0809L15.4899 12.6761L18.8728 8.79319L17.7517 7.8164Z" fill="#1A1A1A"/>
<path d="M6.76549 9.58928C5.17277 9.58928 3.88274 8.29925 3.88274 6.70654C3.88274 5.11382 5.17277 3.82379 6.76549 3.82379C7.10421 3.82379 7.42852 3.88145 7.73121 3.98955C7.12583 4.73186 6.76549 5.67595 6.76549 6.70654C6.76549 7.73712 7.12583 8.68122 7.73121 9.42352C7.42852 9.53163 7.10421 9.58928 6.76549 9.58928ZM5.40339 10.4037C4.45209 11.0667 3.88274 12.1621 3.88274 13.3513V15.3548H1V13.3513C1 12.5441 1.43962 11.8018 2.1603 11.4342C3.05396 10.973 4.1494 10.5766 5.40339 10.4037ZM8.20686 6.70654C8.20686 5.11382 9.49689 3.82379 11.0896 3.82379C12.6823 3.82379 13.9723 5.11382 13.9723 6.70654C13.9723 8.29925 12.6823 9.58928 11.0896 9.58928C9.49689 9.58928 8.20686 8.29925 8.20686 6.70654ZM9.64823 6.70654C9.64823 7.49929 10.2968 8.14791 11.0896 8.14791C11.8824 8.14791 12.531 7.49929 12.531 6.70654C12.531 5.91378 11.8824 5.26516 11.0896 5.26516C10.2968 5.26516 9.64823 5.91378 9.64823 6.70654ZM11.0896 11.7513C9.38158 11.7513 7.99786 12.2774 7.14025 12.7171C6.90963 12.8324 6.76549 13.0774 6.76549 13.3513V13.9134H9.28789C8.92755 14.6341 8.5672 15.3548 8.5672 15.3548H5.32412V13.3513C5.32412 12.5441 5.76373 11.8018 6.48442 11.4342C7.69517 10.8144 9.26627 10.31 11.0896 10.31C11.3707 10.31 12.6247 10.2883 12.8913 10.31L11.8103 11.7513C11.6878 11.7441 11.2193 11.7513 11.0896 11.7513Z" fill="#1A1A1A"/>
</g>
<defs>
<clipPath id="clip0_152_23">
<rect width="24" height="24" fill="white"/>
</clipPath>
</defs>
</svg>
