<svg width="24" height="24" viewBox="0 0 24 24" fill="none" xmlns="http://www.w3.org/2000/svg">
<path d="M21.248 7C21.248 5.62 20.128 4.5 18.748 4.5C18.578 4.5 18.408 4.52 18.248 4.55V4C18.248 2.62 17.128 1.5 15.748 1.5C15.518 1.5 15.288 1.53 15.078 1.59C14.708 0.66 13.808 0 12.748 0C11.518 0 10.498 0.89 10.288 2.06C10.118 2.02 9.93802 2 9.74802 2C8.36802 2 7.24802 3.12 7.24802 4.5V10.39C6.90802 10.08 6.48802 9.85 6.02802 9.73L5.25802 9.52C4.42802 9.29 3.55802 9.61 3.06802 10.35C2.68802 10.92 2.66802 11.66 2.91802 12.3L5.47802 18.73C6.73802 21.91 9.81802 24 13.248 24C17.668 24 21.248 20.42 21.248 16V7ZM19.248 16C19.248 19.31 16.558 22 13.248 22C10.638 22 8.29802 20.41 7.33802 17.99L4.73802 11.45L5.26802 11.59C5.72802 11.71 6.09802 12.05 6.26802 12.49L7.24802 15H9.24802V4.5C9.24802 4.22 9.46802 4 9.74802 4C10.028 4 10.248 4.22 10.248 4.5V12H12.248V2.5C12.248 2.22 12.468 2 12.748 2C13.028 2 13.248 2.22 13.248 2.5V12H15.248V4C15.248 3.72 15.468 3.5 15.748 3.5C16.028 3.5 16.248 3.72 16.248 4V12H18.248V7C18.248 6.72 18.468 6.5 18.748 6.5C19.028 6.5 19.248 6.72 19.248 7V16Z" fill="#1A1A1A"/>
</svg>
