<svg width="24" height="24" viewBox="0 0 24 24" fill="none" xmlns="http://www.w3.org/2000/svg">
<rect width="24" height="24" fill="#F5F5F5"/>
<g id="24">
<path d="M-724 -722C-724 -723.105 -723.105 -724 -722 -724H434C435.105 -724 436 -723.105 436 -722V1058C436 1059.1 435.105 1060 434 1060H-722C-723.105 1060 -724 1059.1 -724 1058V-722Z" fill="#F5F5F5"/>
<path d="M-722 -724V-723H434V-724V-725H-722V-724ZM436 -722H435V1058H436H437V-722H436ZM434 1060V1059H-722V1060V1061H434V1060ZM-724 1058H-723V-722H-724H-725V1058H-724ZM-722 1060V1059C-722.552 1059 -723 1058.55 -723 1058H-724H-725C-725 1059.66 -723.657 1061 -722 1061V1060ZM436 1058H435C435 1058.55 434.552 1059 434 1059V1060V1061C435.657 1061 437 1059.66 437 1058H436ZM434 -724V-723C434.552 -723 435 -722.552 435 -722H436H437C437 -723.657 435.657 -725 434 -725V-724ZM-722 -724V-725C-723.657 -725 -725 -723.657 -725 -722H-724H-723C-723 -722.552 -722.552 -723 -722 -723V-724Z" fill="black" fill-opacity="0.1"/>
<g id="icon/heart-fill">
<path id="Icon" d="M7.68 3.40039C4.34297 3.40039 1.5 5.89555 1.5 9.13614C1.5 11.3717 2.54682 13.2538 3.93419 14.8129C5.31679 16.3666 7.10057 17.6708 8.71317 18.7624L11.4955 20.6457C11.8002 20.852 12.1998 20.852 12.5045 20.6457L15.2868 18.7624C16.8994 17.6708 18.6832 16.3666 20.0658 14.8129C21.4532 13.2538 22.5 11.3717 22.5 9.13614C22.5 5.89555 19.657 3.40039 16.32 3.40039C14.781 3.40039 13.4073 4.04604 12.3571 4.92946C12.1517 5.10222 11.8483 5.10222 11.6429 4.92946C10.5927 4.04604 9.21903 3.40039 7.68 3.40039Z" fill="#1A1A1A"/>
</g>
</g>
</svg>
