<svg width="24" height="24" viewBox="0 0 24 24" fill="none" xmlns="http://www.w3.org/2000/svg">
<path d="M7.68 3.40039C4.34297 3.40039 1.5 5.89555 1.5 9.13614C1.5 11.3717 2.54682 13.2538 3.93419 14.8129C5.31679 16.3666 7.10057 17.6708 8.71317 18.7624L11.4955 20.6457C11.8002 20.852 12.1998 20.852 12.5045 20.6457L15.2868 18.7624C16.8994 17.6708 18.6832 16.3666 20.0658 14.8129C21.4532 13.2538 22.5 11.3717 22.5 9.13614C22.5 5.89555 19.657 3.40039 16.32 3.40039C14.781 3.40039 13.4073 4.04604 12.3571 4.92946C12.1517 5.10222 11.8483 5.10222 11.6429 4.92946C10.5927 4.04604 9.21903 3.40039 7.68 3.40039Z" fill="#1A1A1A"/>
</svg>
