<svg width="24" height="24" viewBox="0 0 24 24" fill="none" xmlns="http://www.w3.org/2000/svg">
<g clip-path="url(#clip0_151_202)">
<path fill-rule="evenodd" clip-rule="evenodd" d="M1.5 9.6039C1.5 6.4378 4.34297 4 7.68 4C9.40017 4 10.9138 4.78802 12 5.80767C13.0862 4.78802 14.5998 4 16.32 4C19.657 4 22.5 6.4378 22.5 9.6039C22.5 11.7727 21.5533 13.68 20.2418 15.2921C18.9326 16.9015 17.2199 18.2675 15.5802 19.3773C14.9538 19.8013 14.3202 20.1923 13.7403 20.4809C13.1958 20.7518 12.5697 21 12 21C11.4303 21 10.8042 20.7518 10.2597 20.4809C9.67978 20.1923 9.04616 19.8013 8.41984 19.3773C6.78006 18.2675 5.06745 16.9015 3.75818 15.2921C2.44666 13.68 1.5 11.7727 1.5 9.6039ZM7.68 5.75862C5.1849 5.75862 3.3 7.55136 3.3 9.6039C3.3 11.2494 4.01495 12.7814 5.16731 14.1979C6.32194 15.6172 7.87551 16.8695 9.44489 17.9317C10.0387 18.3337 10.5981 18.6757 11.0765 18.9138C11.5904 19.1694 11.888 19.2414 12 19.2414C12.112 19.2414 12.4096 19.1694 12.9235 18.9138C13.4019 18.6757 13.9613 18.3337 14.5551 17.9317C16.1245 16.8695 17.6781 15.6172 18.8327 14.1979C19.9851 12.7814 20.7 11.2494 20.7 9.6039C20.7 7.55136 18.8151 5.75862 16.32 5.75862C14.887 5.75862 13.549 6.59505 12.7135 7.65667C12.5431 7.87314 12.2795 8 12 8C11.7205 8 11.4569 7.87314 11.2865 7.65667C10.451 6.59505 9.11298 5.75862 7.68 5.75862Z" fill="#1A1A1A"/>
</g>
<defs>
<clipPath id="clip0_151_202">
<rect width="24" height="24" fill="white"/>
</clipPath>
</defs>
</svg>
