<svg width="24" height="24" viewBox="0 0 24 24" fill="none" xmlns="http://www.w3.org/2000/svg">
<path d="M8.40039 3C9.61626 3.0001 10.7849 3.47724 11.6484 4.33008C11.774 4.45413 11.8907 4.58545 12 4.72168C12.1093 4.58545 12.226 4.45413 12.3516 4.33008C13.2151 3.47724 14.3837 3.0001 15.5996 3H21C21.5523 3 22 3.44772 22 4V17.333C22 17.8853 21.5523 18.333 21 18.333H14.7002C14.2453 18.333 13.811 18.5122 13.4932 18.8262C13.1759 19.1397 13 19.5622 13 20C13 20.5523 12.5523 21 12 21C11.4477 21 11 20.5523 11 20C11 19.5622 10.8241 19.1397 10.5068 18.8262C10.189 18.5122 9.75465 18.333 9.2998 18.333H3C2.44772 18.333 2 17.8853 2 17.333V4C2 3.44772 2.44772 3 3 3H8.40039ZM4 16.333H9.2998C9.89615 16.333 10.4787 16.476 11 16.7432V7.55566C11 6.882 10.7293 6.23316 10.2432 5.75293C9.75659 5.27236 9.09379 5.0001 8.40039 5H4V16.333ZM15.5996 5C14.9062 5.0001 14.2434 5.27236 13.7568 5.75293C13.2707 6.23316 13 6.882 13 7.55566V16.7432C13.5213 16.476 14.1039 16.333 14.7002 16.333H20V5H15.5996Z" fill="#1A1A1A"/>
</svg>
