<svg width="24" height="24" viewBox="0 0 24 24" fill="none" xmlns="http://www.w3.org/2000/svg">
<g clip-path="url(#clip0_149_37)">
<path d="M11.3691 1.22461C11.7619 0.904259 12.3409 0.926853 12.707 1.29297L22.707 11.293C23.0976 11.6835 23.0976 12.3165 22.707 12.707C22.3165 13.0976 21.6835 13.0976 21.293 12.707L21 12.4141V18C21 19.6569 19.6569 21 18 21H6C4.34315 21 3 19.6569 3 18V12.4141L2.70703 12.707C2.31651 13.0976 1.68349 13.0976 1.29297 12.707C0.902444 12.3165 0.902444 11.6835 1.29297 11.293L11.293 1.29297L11.3691 1.22461Z" fill="#1A1A1A"/>
</g>
<defs>
<clipPath id="clip0_149_37">
<rect width="24" height="24" fill="white"/>
</clipPath>
</defs>
</svg>
