<svg width="24" height="24" viewBox="0 0 24 24" fill="none" xmlns="http://www.w3.org/2000/svg">
<rect width="24" height="24" fill="#F5F5F5"/>
<g id="24">
<path d="M-828 -722C-828 -723.105 -827.105 -724 -826 -724H330C331.105 -724 332 -723.105 332 -722V1058C332 1059.1 331.105 1060 330 1060H-826C-827.105 1060 -828 1059.1 -828 1058V-722Z" fill="#F5F5F5"/>
<path d="M-826 -724V-723H330V-724V-725H-826V-724ZM332 -722H331V1058H332H333V-722H332ZM330 1060V1059H-826V1060V1061H330V1060ZM-828 1058H-827V-722H-828H-829V1058H-828ZM-826 1060V1059C-826.552 1059 -827 1058.55 -827 1058H-828H-829C-829 1059.66 -827.657 1061 -826 1061V1060ZM332 1058H331C331 1058.55 330.552 1059 330 1059V1060V1061C331.657 1061 333 1059.66 333 1058H332ZM330 -724V-723C330.552 -723 331 -722.552 331 -722H332H333C333 -723.657 331.657 -725 330 -725V-724ZM-826 -724V-725C-827.657 -725 -829 -723.657 -829 -722H-828H-827C-827 -722.552 -826.552 -723 -826 -723V-724Z" fill="black" fill-opacity="0.1"/>
<g id="icon/home">
<path id="Vector" d="M20 10V18C20 19.1046 19.1046 20 18 20H6C4.89543 20 4 19.1046 4 18V10M22 12L12 2L2 12" stroke="#1A1A1A" stroke-width="2" stroke-linecap="round" stroke-linejoin="round"/>
</g>
</g>
</svg>
