<svg width="24" height="24" viewBox="0 0 24 24" fill="none" xmlns="http://www.w3.org/2000/svg">
<path d="M18.9999 10.4141L11.9999 3.41407L4.99992 10.4141V18C4.99992 18.5523 5.44764 19 5.99992 19H17.9999C18.5522 19 18.9999 18.5523 18.9999 18V10.4141ZM20.9999 18C20.9999 19.6569 19.6568 21 17.9999 21H5.99992C4.34307 21 2.99992 19.6569 2.99992 18V12.4141L2.70696 12.707C2.31643 13.0976 1.68342 13.0976 1.29289 12.707C0.902369 12.3165 0.902369 11.6835 1.29289 11.293L11.2929 1.29298L11.3691 1.22462C11.7618 0.904269 12.3408 0.926863 12.707 1.29298L22.707 11.293C23.0975 11.6835 23.0975 12.3165 22.707 12.707C22.3164 13.0976 21.6834 13.0976 21.2929 12.707L20.9999 12.4141V18Z" fill="#1A1A1A"/>
</svg>
