<svg width="24" height="24" viewBox="0 0 24 24" fill="none" xmlns="http://www.w3.org/2000/svg">
<path fill-rule="evenodd" clip-rule="evenodd" d="M12 3.99994C16.4183 3.99994 20 7.58166 20 11.9999C20 16.4182 16.4183 19.9999 12 19.9999C7.58172 19.9999 4 16.4182 4 11.9999C4 7.58166 7.58172 3.99994 12 3.99994ZM12 10.9999C11.4477 10.9999 11 11.4477 11 11.9999V15.9999C11 16.5522 11.4477 16.9999 12 16.9999C12.5523 16.9999 13 16.5522 13 15.9999V11.9999C13 11.4477 12.5523 10.9999 12 10.9999ZM12 6.49994C11.1716 6.49994 10.5 7.17151 10.5 7.99994C10.5 8.82837 11.1716 9.49994 12 9.49994C12.8284 9.49994 13.5 8.82837 13.5 7.99994C13.5 7.17151 12.8284 6.49994 12 6.49994Z" fill="#1A1A1A"/>
</svg>
