<svg width="24" height="24" viewBox="0 0 24 24" fill="none" xmlns="http://www.w3.org/2000/svg">
<g clip-path="url(#clip0_152_213)">
<path d="M12 1.99994C17.5228 1.99994 22 6.47709 22 11.9999C22 17.5228 17.5228 21.9999 12 21.9999C6.47715 21.9999 2 17.5228 2 11.9999C2 6.47709 6.47715 1.99994 12 1.99994ZM12 3.99994C7.58172 3.99994 4 7.58166 4 11.9999C4 16.4182 7.58172 19.9999 12 19.9999C16.4183 19.9999 20 16.4182 20 11.9999C20 7.58166 16.4183 3.99994 12 3.99994ZM12 10.9999C12.5523 10.9999 13 11.4477 13 11.9999V15.9999C13 16.5522 12.5523 16.9999 12 16.9999C11.4477 16.9999 11 16.5522 11 15.9999V11.9999C11 11.4477 11.4477 10.9999 12 10.9999ZM12 6.49994C12.8284 6.49994 13.5 7.17151 13.5 7.99994C13.5 8.82837 12.8284 9.49994 12 9.49994C11.1716 9.49994 10.5 8.82837 10.5 7.99994C10.5 7.17151 11.1716 6.49994 12 6.49994Z" fill="#1A1A1A"/>
</g>
<defs>
<clipPath id="clip0_152_213">
<rect width="24" height="24" fill="white"/>
</clipPath>
</defs>
</svg>
