<svg width="24" height="24" viewBox="0 0 24 24" fill="none" xmlns="http://www.w3.org/2000/svg">
<g clip-path="url(#clip0_153_162)">
<path d="M4 7C4 6.44772 3.55228 6 3 6C2.44772 6 2 6.44772 2 7V20C2 21.1 2.9 22 4 22H17C17.5523 22 18 21.5523 18 21C18 20.4477 17.5523 20 17 20H4V7ZM20 2H8C6.9 2 6 2.9 6 4V16C6 17.1 6.9 18 8 18H20C21.1 18 22 17.1 22 16V4C22 2.9 21.1 2 20 2ZM20 16H8V4H20V16ZM10 10C10 9.44772 10.4477 9 11 9H17C17.5523 9 18 9.44772 18 10C18 10.5523 17.5523 11 17 11H11C10.4477 11 10 10.5523 10 10ZM10 13C10 12.4477 10.4477 12 11 12H13C13.5523 12 14 12.4477 14 13C14 13.5523 13.5523 14 13 14H11C10.4477 14 10 13.5523 10 13ZM10 7C10 6.44772 10.4477 6 11 6H16C17.1046 6 18 6.89543 18 8H11C10.4477 8 10 7.55228 10 7Z" fill="#1A1A1A"/>
</g>
<defs>
<clipPath id="clip0_153_162">
<rect width="24" height="24" fill="white"/>
</clipPath>
</defs>
</svg>
