<svg width="24" height="24" viewBox="0 0 24 24" fill="none" xmlns="http://www.w3.org/2000/svg">
<g clip-path="url(#clip0_149_148)">
<path fill-rule="evenodd" clip-rule="evenodd" d="M7.20696 6.20708C9.854 3.56004 14.1457 3.56004 16.7927 6.20708C19.4398 8.85412 19.4398 13.1458 16.7927 15.7929L11.9999 20.5858L7.20696 15.7929C4.55992 13.1458 4.55992 8.85412 7.20696 6.20708ZM18.207 4.79287C14.7789 1.36478 9.22083 1.36478 5.79275 4.79287C2.36466 8.22096 2.36466 13.779 5.79275 17.2071L11.2927 22.7071C11.4803 22.8946 11.7346 23 11.9999 23C12.2651 23 12.5194 22.8946 12.707 22.7071L18.207 17.2071C21.6351 13.779 21.635 8.22096 18.207 4.79287ZM10.9999 11C10.9999 10.4477 11.4476 9.99998 11.9999 9.99998C12.5521 9.99998 12.9999 10.4477 12.9999 11C12.9999 11.5523 12.5521 12 11.9999 12C11.4476 12 10.9999 11.5523 10.9999 11ZM11.9999 7.99998C10.343 7.99998 8.99985 9.34312 8.99985 11C8.99985 12.6568 10.343 14 11.9999 14C13.6567 14 14.9999 12.6568 14.9999 11C14.9999 9.34312 13.6567 7.99998 11.9999 7.99998Z" fill="#1A1A1A"/>
</g>
<defs>
<clipPath id="clip0_149_148">
<rect width="24" height="24" fill="white"/>
</clipPath>
</defs>
</svg>
