<svg width="24" height="24" viewBox="0 0 24 24" fill="none" xmlns="http://www.w3.org/2000/svg">
<g clip-path="url(#clip0_149_174)">
<path d="M5.79297 4.79309C9.22106 1.365 14.7789 1.365 18.207 4.79309C21.635 8.22119 21.6351 13.7791 18.207 17.2072L12.707 22.7072C12.5195 22.8947 12.2652 23.0001 12 23.0001C11.7349 23.0001 11.4805 22.8946 11.293 22.7072L5.79297 17.2072C2.36488 13.7791 2.36488 8.22118 5.79297 4.79309ZM12 9.00012C10.8955 9.00017 10 9.89558 10 11.0001C10.0001 12.1046 10.8955 13.0001 12 13.0001C12.0689 13.0001 12.137 12.9962 12.2041 12.9894C12.2716 12.9825 12.338 12.9725 12.4033 12.9591C12.5333 12.9325 12.6588 12.8934 12.7783 12.8429C12.8381 12.8176 12.8965 12.7897 12.9531 12.7589C13.0667 12.6972 13.1735 12.6248 13.2725 12.5431C13.4699 12.3801 13.6357 12.1799 13.7588 11.9532C13.8203 11.84 13.8712 11.72 13.9102 11.5948C13.9492 11.4695 13.9756 11.3388 13.9893 11.2042C13.9961 11.1371 14 11.069 14 11.0001C14 10.9309 13.9961 10.8624 13.9893 10.795C13.9824 10.7279 13.9723 10.6618 13.959 10.5968C13.919 10.4017 13.851 10.2169 13.7588 10.047C13.6357 9.82033 13.4699 9.62019 13.2725 9.45715C13.1735 9.37546 13.0667 9.30302 12.9531 9.24133C12.6698 9.08748 12.345 9.00015 12 9.00012Z" fill="#1A1A1A"/>
</g>
<defs>
<clipPath id="clip0_149_174">
<rect width="24" height="24" fill="white"/>
</clipPath>
</defs>
</svg>
