<svg width="24" height="24" viewBox="0 0 24 24" fill="none" xmlns="http://www.w3.org/2000/svg">
<g clip-path="url(#clip0_154_147)">
<path d="M7 10V7C7 4.23858 9.23858 2 12 2C14.3312 2 16.2878 3.59466 16.8428 5.75098C16.9802 6.28573 16.6578 6.83111 16.123 6.96875C15.5883 7.10624 15.0429 6.78379 14.9053 6.24902C14.5721 4.95503 13.3964 4 12 4C10.3431 4 9 5.34315 9 7V10C9 10.5523 8.55228 11 8 11C7.44772 11 7 10.5523 7 10Z" fill="#1A1A1A"/>
<path d="M18 11H6V19C6 19.5523 6.44772 20 7 20H17C17.5523 20 18 19.5523 18 19V11ZM20 19C20 20.6569 18.6569 22 17 22H7C5.34315 22 4 20.6569 4 19V10C4 9.44772 4.44772 9 5 9H19C19.5523 9 20 9.44772 20 10V19Z" fill="#1A1A1A"/>
<path d="M13 15.5C13 14.6716 13.6716 14 14.5 14C15.3284 14 16 14.6716 16 15.5C16 16.3284 15.3284 17 14.5 17C13.6716 17 13 16.3284 13 15.5Z" fill="#1A1A1A"/>
</g>
<defs>
<clipPath id="clip0_154_147">
<rect width="24" height="24" fill="white"/>
</clipPath>
</defs>
</svg>
