<svg width="24" height="24" viewBox="0 0 24 24" fill="none" xmlns="http://www.w3.org/2000/svg">
<g clip-path="url(#clip0_154_129)">
<path fill-rule="evenodd" clip-rule="evenodd" d="M9 7C9 5.34315 10.3431 4 12 4C13.6569 4 15 5.34315 15 7V9H9V7ZM7 9V7C7 4.23858 9.23858 2 12 2C14.7614 2 17 4.23858 17 7V9C18.6569 9 20 10.3431 20 12V19C20 20.6569 18.6569 22 17 22H7C5.34315 22 4 20.6569 4 19V12C4 10.3431 5.34315 9 7 9ZM13 15.5C13 14.6716 13.6716 14 14.5 14C15.3284 14 16 14.6716 16 15.5C16 16.3284 15.3284 17 14.5 17C13.6716 17 13 16.3284 13 15.5Z" fill="#1A1A1A"/>
</g>
<defs>
<clipPath id="clip0_154_129">
<rect width="24" height="24" fill="white"/>
</clipPath>
</defs>
</svg>
