<svg width="24" height="24" viewBox="0 0 24 24" fill="none" xmlns="http://www.w3.org/2000/svg">
<g clip-path="url(#clip0_154_119)">
<path fill-rule="evenodd" clip-rule="evenodd" d="M12 4C10.3431 4 9 5.34315 9 7V9H15V7C15 5.34315 13.6569 4 12 4ZM7 7V9C5.34315 9 4 10.3431 4 12V19C4 20.6569 5.34315 22 7 22H17C18.6569 22 20 20.6569 20 19V12C20 10.3431 18.6569 9 17 9V7C17 4.23858 14.7614 2 12 2C9.23858 2 7 4.23858 7 7ZM7 11H8H16H17C17.5523 11 18 11.4477 18 12V19C18 19.5523 17.5523 20 17 20H7C6.44772 20 6 19.5523 6 19V12C6 11.4477 6.44772 11 7 11ZM14.5 14C13.6716 14 13 14.6716 13 15.5C13 16.3284 13.6716 17 14.5 17C15.3284 17 16 16.3284 16 15.5C16 14.6716 15.3284 14 14.5 14Z" fill="#1A1A1A"/>
</g>
<defs>
<clipPath id="clip0_154_119">
<rect width="24" height="24" fill="white"/>
</clipPath>
</defs>
</svg>
