<svg width="24" height="24" viewBox="0 0 24 24" fill="none" xmlns="http://www.w3.org/2000/svg">
<g clip-path="url(#clip0_149_112)">
<path fill-rule="evenodd" clip-rule="evenodd" d="M16 4C16 3.44772 15.5523 3 15 3H5C4.44771 3 4 3.44772 4 4V18C4 19.6569 5.34315 21 7 21H15C15.5523 21 16 20.5523 16 20C16 19.4477 15.5523 19 15 19H7C6.44772 19 6 18.5523 6 18V5H15C15.5523 5 16 4.55228 16 4Z" fill="#1A1A1A"/>
<path fill-rule="evenodd" clip-rule="evenodd" d="M15.2929 8.29289C15.6834 7.90237 16.3166 7.90237 16.7071 8.29289L19.7071 11.2929C20.0976 11.6834 20.0976 12.3166 19.7071 12.7071L16.7071 15.7071C16.3166 16.0976 15.6834 16.0976 15.2929 15.7071C14.9024 15.3166 14.9024 14.6834 15.2929 14.2929L16.5858 13H9C8.44772 13 8 12.5523 8 12C8 11.4477 8.44772 11 9 11H16.5858L15.2929 9.70711C14.9024 9.31658 14.9024 8.68342 15.2929 8.29289Z" fill="#1A1A1A"/>
</g>
<defs>
<clipPath id="clip0_149_112">
<rect width="24" height="24" fill="white"/>
</clipPath>
</defs>
</svg>
