<svg width="24" height="24" viewBox="0 0 24 24" fill="none" xmlns="http://www.w3.org/2000/svg">
<g clip-path="url(#clip0_149_85)">
<path fill-rule="evenodd" clip-rule="evenodd" d="M3 12C3 10.8954 3.89543 10 5 10C6.10457 10 7 10.8954 7 12C7 13.1046 6.10457 14 5 14C3.89543 14 3 13.1046 3 12ZM10 12C10 10.8954 10.8954 10 12 10C13.1046 10 14 10.8954 14 12C14 13.1046 13.1046 14 12 14C10.8954 14 10 13.1046 10 12ZM18 12C18 10.8954 18.8954 10 20 10C21.1046 10 22 10.8954 22 12C22 13.1046 21.1046 14 20 14C18.8954 14 18 13.1046 18 12Z" fill="#1A1A1A"/>
</g>
<defs>
<clipPath id="clip0_149_85">
<rect width="24" height="24" fill="white"/>
</clipPath>
</defs>
</svg>
