<svg width="24" height="24" viewBox="0 0 24 24" fill="none" xmlns="http://www.w3.org/2000/svg">
<g clip-path="url(#clip0_149_205)">
<g clip-path="url(#clip1_149_205)">
<path d="M11.3691 2.22462C11.7618 1.90427 12.3408 1.92686 12.707 2.29298L14.707 4.29298C15.0975 4.6835 15.0975 5.31652 14.707 5.70704C14.3164 6.09757 13.6834 6.09757 13.2929 5.70704L12.9999 5.41407V18.5859L13.2929 18.293C13.6834 17.9025 14.3164 17.9025 14.707 18.293C15.0975 18.6835 15.0975 19.3165 14.707 19.707L12.707 21.707C12.5194 21.8946 12.2651 22 11.9999 22C11.7347 22 11.4804 21.8946 11.2929 21.707L9.29289 19.707C8.90237 19.3165 8.90237 18.6835 9.29289 18.293C9.68342 17.9025 10.3164 17.9025 10.707 18.293L10.9999 18.5859V5.41407L10.707 5.70704C10.3164 6.09757 9.68342 6.09757 9.29289 5.70704C8.90237 5.31652 8.90237 4.6835 9.29289 4.29298L11.2929 2.29298L11.3691 2.22462Z" fill="#1A1A1A"/>
<path d="M21.7756 11.3692C22.096 11.762 22.0734 12.341 21.7073 12.7071L19.7073 14.7071C19.3167 15.0976 18.6837 15.0976 18.2932 14.7071C17.9027 14.3166 17.9027 13.6835 18.2932 13.293L18.5862 13L5.4143 13L5.70727 13.293C6.09779 13.6835 6.09779 14.3166 5.70727 14.7071C5.31674 15.0976 4.68373 15.0976 4.2932 14.7071L2.2932 12.7071C2.10567 12.5195 2.00023 12.2653 2.00023 12C2.00023 11.7348 2.10567 11.4806 2.2932 11.293L4.2932 9.29301C4.68373 8.90249 5.31674 8.90249 5.70727 9.29301C6.09779 9.68354 6.09779 10.3166 5.70727 10.7071L5.4143 11L18.5862 11L18.2932 10.7071C17.9027 10.3166 17.9027 9.68354 18.2932 9.29301C18.6837 8.90249 19.3167 8.90249 19.7073 9.29301L21.7073 11.293L21.7756 11.3692Z" fill="#1A1A1A"/>
</g>
</g>
<defs>
<clipPath id="clip0_149_205">
<rect width="24" height="24" fill="white"/>
</clipPath>
<clipPath id="clip1_149_205">
<rect width="24" height="24" fill="white"/>
</clipPath>
</defs>
</svg>
