<svg width="24" height="24" viewBox="0 0 24 24" fill="none" xmlns="http://www.w3.org/2000/svg">
<g clip-path="url(#clip0_151_277)">
<path d="M7 5C8.65685 5 10 6.34315 10 8V16C10 17.6569 8.65685 19 7 19C5.34315 19 4 17.6569 4 16V8C4 6.34315 5.34315 5 7 5ZM17 5C18.6569 5 20 6.34315 20 8V16C20 17.6569 18.6569 19 17 19C15.3431 19 14 17.6569 14 16V8C14 6.34315 15.3431 5 17 5ZM7 7C6.44772 7 6 7.44772 6 8V16C6 16.5523 6.44772 17 7 17C7.55228 17 8 16.5523 8 16V8C8 7.44772 7.55228 7 7 7ZM17 7C16.4477 7 16 7.44772 16 8V16C16 16.5523 16.4477 17 17 17C17.5523 17 18 16.5523 18 16V8C18 7.44772 17.5523 7 17 7Z" fill="#1A1A1A"/>
</g>
<defs>
<clipPath id="clip0_151_277">
<rect width="24" height="24" fill="white"/>
</clipPath>
</defs>
</svg>
