<svg width="24" height="24" viewBox="0 0 24 24" fill="none" xmlns="http://www.w3.org/2000/svg">
<g clip-path="url(#clip0_151_287)">
<path fill-rule="evenodd" clip-rule="evenodd" d="M7 5C5.34315 5 4 6.34315 4 8V16C4 17.6569 5.34315 19 7 19C8.65685 19 10 17.6569 10 16V8C10 6.34315 8.65685 5 7 5ZM14 8C14 6.34315 15.3431 5 17 5C18.6569 5 20 6.34315 20 8V16C20 17.6569 18.6569 19 17 19C15.3431 19 14 17.6569 14 16V8Z" fill="#1A1A1A"/>
</g>
<defs>
<clipPath id="clip0_151_287">
<rect width="24" height="24" fill="white"/>
</clipPath>
</defs>
</svg>
