<svg width="24" height="24" viewBox="0 0 24 24" fill="none" xmlns="http://www.w3.org/2000/svg">
<path d="M20.8999 6.30005C21.0388 6.16338 21.1481 5.99969 21.2212 5.81909C21.2943 5.6385 21.3296 5.44483 21.3249 5.25005C21.3296 5.05528 21.2943 4.8616 21.2212 4.68101C21.1481 4.50041 21.0388 4.33672 20.8999 4.20005L19.7999 3.10005C19.5195 2.82521 19.1425 2.67126 18.7499 2.67126C18.3573 2.67126 17.9803 2.82521 17.6999 3.10005L16.6499 4.15005L19.8499 7.35005L20.8999 6.30005Z" fill="#1A1A1A"/>
<path d="M15.575 7.32495L16.125 7.87495L16.675 8.42495L13.94 11.16L14.99 12.21L18.8 8.39995L15.6 5.19995L11.79 9.00995L12.84 10.06L15.575 7.32495Z" fill="#1A1A1A"/>
<path d="M5.6 19.5H4.5V18.4L11.765 11.135L10.715 10.085L3 17.8V21H6.2L13.915 13.285L12.865 12.235L5.6 19.5Z" fill="#1A1A1A"/>
<path d="M21.8398 21.2L3.03984 2.40002L1.96484 3.47502L7.43984 8.95002L8.63984 10.15L14.0898 15.6L15.2898 16.8L20.7648 22.275L21.8398 21.2Z" fill="#1A1A1A"/>
</svg>
