<svg width="24" height="24" viewBox="0 0 24 24" fill="none" xmlns="http://www.w3.org/2000/svg">
<path d="M16 3C18.6685 3 21.2259 5.25825 20.4756 8.20605C18.9456 14.2161 14.2161 18.9455 8.20605 20.4756C5.25826 21.2259 3 18.6685 3 16V15C3 13.8733 3.90093 13.0552 4.89941 12.9561C5.73517 12.8732 6.53724 12.6762 7.28906 12.3809C7.61303 12.2537 7.97591 12.3045 8.25 12.5078L8.36133 12.6045L9.3623 13.6035C11.1386 12.6094 12.6106 11.1377 13.6045 9.36133L12.6045 8.36133C12.3233 8.08009 12.2355 7.65927 12.3809 7.28906C12.6762 6.53724 12.8732 5.73517 12.9561 4.89941C13.0552 3.90093 13.8733 3 15 3H16Z" fill="#1A1A1A"/>
</svg>
