<svg width="24" height="24" viewBox="0 0 24 24" fill="none" xmlns="http://www.w3.org/2000/svg">
<g clip-path="url(#clip0_151_311)">
<path fill-rule="evenodd" clip-rule="evenodd" d="M4 12C4 7.58172 7.58172 4 12 4C16.4183 4 20 7.58172 20 12C20 16.4183 16.4183 20 12 20C7.58172 20 4 16.4183 4 12ZM12 2C6.47715 2 2 6.47715 2 12C2 17.5228 6.47715 22 12 22C17.5228 22 22 17.5228 22 12C22 6.47715 17.5228 2 12 2ZM10 9.54927C10 9.16803 10.4096 8.92705 10.7428 9.11219L15.1541 11.5629C15.497 11.7534 15.497 12.2466 15.1541 12.4371L10.7428 14.8878C10.4096 15.073 10 14.832 10 14.4507V9.54927ZM11.7141 7.36388C10.0478 6.43814 8 7.64306 8 9.54927L8 14.4507C8 16.3569 10.0478 17.5619 11.7141 16.6361L16.1254 14.1854C17.8399 13.2329 17.8399 10.7671 16.1254 9.81461L11.7141 7.36388Z" fill="#1A1A1A"/>
</g>
<defs>
<clipPath id="clip0_151_311">
<rect width="24" height="24" fill="white"/>
</clipPath>
</defs>
</svg>
