<svg width="24" height="24" viewBox="0 0 24 24" fill="none" xmlns="http://www.w3.org/2000/svg">
<g clip-path="url(#clip0_149_349)">
<path fill-rule="evenodd" clip-rule="evenodd" d="M1 19C1 16.2386 3.23858 14 6 14H14C16.7614 14 19 16.2386 19 19C19 20.6569 17.6569 22 16 22H4C2.34315 22 1 20.6569 1 19ZM6 16C4.34315 16 3 17.3431 3 19C3 19.5523 3.44772 20 4 20H16C16.5523 20 17 19.5523 17 19C17 17.3431 15.6569 16 14 16H6Z" fill="#1A1A1A"/>
<path fill-rule="evenodd" clip-rule="evenodd" d="M10 6C8.89543 6 8 6.89543 8 8C8 9.10457 8.89543 10 10 10C11.1046 10 12 9.10457 12 8C12 6.89543 11.1046 6 10 6ZM6 8C6 5.79086 7.79086 4 10 4C12.2091 4 14 5.79086 14 8C14 10.2091 12.2091 12 10 12C7.79086 12 6 10.2091 6 8Z" fill="#1A1A1A"/>
<path fill-rule="evenodd" clip-rule="evenodd" d="M19.4999 5.83331C20.0062 5.83331 20.4166 6.24372 20.4166 6.74998V12.25C20.4166 12.7562 20.0062 13.1666 19.4999 13.1666C18.9937 13.1666 18.5833 12.7562 18.5833 12.25V6.74998C18.5833 6.24372 18.9937 5.83331 19.4999 5.83331Z" fill="#1A1A1A"/>
<path fill-rule="evenodd" clip-rule="evenodd" d="M15.8333 9.49998C15.8333 8.99372 16.2437 8.58331 16.7499 8.58331H22.2499C22.7562 8.58331 23.1666 8.99372 23.1666 9.49998C23.1666 10.0062 22.7562 10.4166 22.2499 10.4166H16.7499C16.2437 10.4166 15.8333 10.0062 15.8333 9.49998Z" fill="#1A1A1A"/>
</g>
<defs>
<clipPath id="clip0_149_349">
<rect width="24" height="24" fill="white"/>
</clipPath>
</defs>
</svg>
