<svg width="24" height="24" viewBox="0 0 24 24" fill="none" xmlns="http://www.w3.org/2000/svg">
<g clip-path="url(#clip0_149_349)">
<path fill-rule="evenodd" clip-rule="evenodd" d="M1 19C1 16.2386 3.23858 14 6 14H14C16.7614 14 19 16.2386 19 19C19 20.6569 17.6569 22 16 22H4C2.34315 22 1 20.6569 1 19ZM6 16C4.34315 16 3 17.3431 3 19C3 19.5523 3.44772 20 4 20H16C16.5523 20 17 19.5523 17 19C17 17.3431 15.6569 16 14 16H6Z" fill="#1A1A1A"/>
<path fill-rule="evenodd" clip-rule="evenodd" d="M10 6C8.89543 6 8 6.89543 8 8C8 9.10457 8.89543 10 10 10C11.1046 10 12 9.10457 12 8C12 6.89543 11.1046 6 10 6ZM6 8C6 5.79086 7.79086 4 10 4C12.2091 4 14 5.79086 14 8C14 10.2091 12.2091 12 10 12C7.79086 12 6 10.2091 6 8Z" fill="#1A1A1A"/>
<path fill-rule="evenodd" clip-rule="evenodd" d="M19.5002 5.83337C20.0064 5.83337 20.4168 6.24378 20.4168 6.75004V12.25C20.4168 12.7563 20.0064 13.1667 19.5002 13.1667C18.9939 13.1667 18.5835 12.7563 18.5835 12.25V6.75004C18.5835 6.24378 18.9939 5.83337 19.5002 5.83337Z" fill="#1A1A1A"/>
<path fill-rule="evenodd" clip-rule="evenodd" d="M15.8335 9.50004C15.8335 8.99378 16.2439 8.58337 16.7502 8.58337H22.2502C22.7564 8.58337 23.1668 8.99378 23.1668 9.50004C23.1668 10.0063 22.7564 10.4167 22.2502 10.4167H16.7502C16.2439 10.4167 15.8335 10.0063 15.8335 9.50004Z" fill="#1A1A1A"/>
</g>
<defs>
<clipPath id="clip0_149_349">
<rect width="24" height="24" fill="white"/>
</clipPath>
</defs>
</svg>
