<svg width="24" height="24" viewBox="0 0 24 24" fill="none" xmlns="http://www.w3.org/2000/svg">
<g clip-path="url(#clip0_302_615)">
<path d="M2 19C2 16.7909 3.79086 15 6 15H14C16.2091 15 18 16.7909 18 19C18 20.1046 17.1046 21 16 21H4C2.89543 21 2 20.1046 2 19Z" fill="#1A1A1A" stroke="#2C2A33" stroke-width="2" stroke-linejoin="round"/>
<path d="M13 8C13 9.65685 11.6569 11 10 11C8.34315 11 7 9.65685 7 8C7 6.34315 8.34315 5 10 5C11.6569 5 13 6.34315 13 8Z" fill="#1A1A1A"/>
<path fill-rule="evenodd" clip-rule="evenodd" d="M10 6C8.89543 6 8 6.89543 8 8C8 9.10457 8.89543 10 10 10C11.1046 10 12 9.10457 12 8C12 6.89543 11.1046 6 10 6ZM6 8C6 5.79086 7.79086 4 10 4C12.2091 4 14 5.79086 14 8C14 10.2091 12.2091 12 10 12C7.79086 12 6 10.2091 6 8Z" fill="#1A1A1A"/>
<path fill-rule="evenodd" clip-rule="evenodd" d="M19.5002 5.83337C20.0064 5.83337 20.4168 6.24378 20.4168 6.75004V12.25C20.4168 12.7563 20.0064 13.1667 19.5002 13.1667C18.9939 13.1667 18.5835 12.7563 18.5835 12.25V6.75004C18.5835 6.24378 18.9939 5.83337 19.5002 5.83337Z" fill="#1A1A1A"/>
<path fill-rule="evenodd" clip-rule="evenodd" d="M15.8335 9.50004C15.8335 8.99378 16.2439 8.58337 16.7502 8.58337H22.2502C22.7564 8.58337 23.1668 8.99378 23.1668 9.50004C23.1668 10.0063 22.7564 10.4167 22.2502 10.4167H16.7502C16.2439 10.4167 15.8335 10.0063 15.8335 9.50004Z" fill="#1A1A1A"/>
</g>
<defs>
<clipPath id="clip0_302_615">
<rect width="24" height="24" fill="white"/>
</clipPath>
</defs>
</svg>
