<svg width="24" height="24" viewBox="0 0 24 24" fill="none" xmlns="http://www.w3.org/2000/svg">
<g clip-path="url(#clip0_302_615)">
<path d="M2 19C2 16.7909 3.79086 15 6 15H14C16.2091 15 18 16.7909 18 19C18 20.1046 17.1046 21 16 21H4C2.89543 21 2 20.1046 2 19Z" fill="#1A1A1A" stroke="#2C2A33" stroke-width="2" stroke-linejoin="round"/>
<path d="M13 8C13 9.65685 11.6569 11 10 11C8.34315 11 7 9.65685 7 8C7 6.34315 8.34315 5 10 5C11.6569 5 13 6.34315 13 8Z" fill="#1A1A1A"/>
<path fill-rule="evenodd" clip-rule="evenodd" d="M10 6C8.89543 6 8 6.89543 8 8C8 9.10457 8.89543 10 10 10C11.1046 10 12 9.10457 12 8C12 6.89543 11.1046 6 10 6ZM6 8C6 5.79086 7.79086 4 10 4C12.2091 4 14 5.79086 14 8C14 10.2091 12.2091 12 10 12C7.79086 12 6 10.2091 6 8Z" fill="#1A1A1A"/>
<path fill-rule="evenodd" clip-rule="evenodd" d="M19.4999 5.83331C20.0062 5.83331 20.4166 6.24372 20.4166 6.74998V12.25C20.4166 12.7562 20.0062 13.1666 19.4999 13.1666C18.9937 13.1666 18.5833 12.7562 18.5833 12.25V6.74998C18.5833 6.24372 18.9937 5.83331 19.4999 5.83331Z" fill="#1A1A1A"/>
<path fill-rule="evenodd" clip-rule="evenodd" d="M15.8333 9.49998C15.8333 8.99372 16.2437 8.58331 16.7499 8.58331H22.2499C22.7562 8.58331 23.1666 8.99372 23.1666 9.49998C23.1666 10.0062 22.7562 10.4166 22.2499 10.4166H16.7499C16.2437 10.4166 15.8333 10.0062 15.8333 9.49998Z" fill="#1A1A1A"/>
</g>
<defs>
<clipPath id="clip0_302_615">
<rect width="24" height="24" fill="white"/>
</clipPath>
</defs>
</svg>
