<svg width="24" height="24" viewBox="0 0 24 24" fill="none" xmlns="http://www.w3.org/2000/svg">
<path d="M16.0908 3C17.3459 3 18.3631 4.06024 18.3633 5.36816V8.36816H18.8184C19.635 8.36821 20.4342 8.67441 21.0361 9.24316C21.6409 9.81467 21.9999 10.6107 22 11.4629V16.832C21.9999 17.3995 21.7608 17.9228 21.3691 18.293C20.9802 18.6604 20.4694 18.8525 19.9541 18.8525H17.4541V19.1055C17.454 20.1517 16.6406 20.9998 15.6367 21H8.36328C7.35935 20.9998 6.54601 20.1517 6.5459 19.1055V18.8525H4.0459C3.5306 18.8525 3.01975 18.6604 2.63086 18.293C2.23915 17.9228 2.00012 17.3995 2 16.832V11.4629C2.00008 10.6107 2.35914 9.81467 2.96387 9.24316C3.56582 8.67441 4.36502 8.36821 5.18164 8.36816H5.63672V5.36816C5.63685 4.06024 6.65407 3 7.90918 3H16.0908ZM8.36328 19.1055H15.6367V16.5264H8.36328V19.1055ZM5.18164 10.2627C4.79294 10.2627 4.43594 10.41 4.18555 10.6465C3.93815 10.8802 3.81844 11.1763 3.81836 11.4629V16.832C3.81841 16.8351 3.81871 16.8405 3.82227 16.8486C3.82617 16.8575 3.835 16.8721 3.85254 16.8887C3.88987 16.9239 3.95844 16.958 4.0459 16.958H6.5459V16.5264C6.5459 15.4801 7.35929 14.632 8.36328 14.6318H15.6367C16.6407 14.632 17.4541 15.4801 17.4541 16.5264V16.958H19.9541C20.0416 16.958 20.1101 16.9239 20.1475 16.8887C20.165 16.8721 20.1738 16.8575 20.1777 16.8486C20.1813 16.8405 20.1816 16.8351 20.1816 16.832V11.4629C20.1816 11.1763 20.0619 10.8802 19.8145 10.6465C19.5641 10.41 19.2071 10.2627 18.8184 10.2627H5.18164ZM6.84863 12C7.18329 12.0001 7.4541 12.2673 7.4541 12.5967V13.1934C7.45391 13.5226 7.18317 13.789 6.84863 13.7891H6.24219C5.9077 13.7889 5.63691 13.5225 5.63672 13.1934V12.5967C5.63672 12.2673 5.90758 12.0001 6.24219 12H6.84863ZM7.90918 4.89453C7.65822 4.89453 7.45423 5.10667 7.4541 5.36816V8.36816H16.5459V5.36816C16.5458 5.10667 16.3418 4.89453 16.0908 4.89453H7.90918Z" fill="#1A1A1A"/>
</svg>
