<svg width="24" height="24" viewBox="0 0 24 24" fill="none" xmlns="http://www.w3.org/2000/svg">
<g clip-path="url(#clip0_302_637)">
<path d="M12 21C16.9706 21 21 16.9706 21 12C21 7.02944 16.9706 3 12 3C7.02944 3 3 7.02944 3 12C3 16.9706 7.02944 21 12 21Z" fill="#1A1A1A"/>
<path fill-rule="evenodd" clip-rule="evenodd" d="M12.0001 3.89998C7.52659 3.89998 3.9001 7.52647 3.9001 12C3.9001 16.4735 7.52659 20.1 12.0001 20.1C16.4736 20.1 20.1001 16.4735 20.1001 12C20.1001 7.52647 16.4736 3.89998 12.0001 3.89998ZM2.1001 12C2.1001 6.53236 6.53248 2.09998 12.0001 2.09998C17.4677 2.09998 21.9001 6.53236 21.9001 12C21.9001 17.4676 17.4677 21.9 12.0001 21.9C6.53248 21.9 2.1001 17.4676 2.1001 12Z" fill="#1A1A1A"/>
<path d="M12 16.5H12.009" stroke="white" stroke-width="1.8" stroke-linecap="round" stroke-linejoin="round"/>
<path d="M9.38086 9.30012C9.59245 8.69862 10.0101 8.19142 10.5598 7.86834C11.1095 7.54527 11.7559 7.42717 12.3843 7.53496C13.0128 7.64276 13.5828 7.96949 13.9934 8.4573C14.4041 8.9451 14.6288 9.56249 14.6279 10.2001C14.6279 12.0001 11.9279 12.9001 11.9279 12.9001" fill="#1A1A1A"/>
<path fill-rule="evenodd" clip-rule="evenodd" d="M12.232 8.42199C11.8131 8.35012 11.3822 8.42885 11.0157 8.64424C10.6492 8.85962 10.3708 9.19776 10.2297 9.59876C10.0648 10.0676 9.55095 10.314 9.08205 10.1491C8.61316 9.98416 8.36677 9.47033 8.53171 9.00144C8.81384 8.19944 9.3707 7.52317 10.1037 7.0924C10.8366 6.66163 11.6984 6.50417 12.5363 6.64789C13.3743 6.79162 14.1343 7.22727 14.6818 7.87767C15.2291 8.52781 15.5287 9.35059 15.5277 10.2004C15.5276 11.578 14.5063 12.4877 13.7769 12.9739C13.3849 13.2353 12.9992 13.4275 12.7151 13.5538C12.5718 13.6175 12.4511 13.6658 12.3641 13.699C12.3206 13.7155 12.2853 13.7284 12.2595 13.7375L12.2283 13.7485L12.2183 13.7519L12.2148 13.7531L12.2134 13.7535L12.2129 13.7537C12.2126 13.7538 12.2123 13.7539 11.9374 12.9293L12.2123 13.7539C11.7408 13.9111 11.2311 13.6563 11.0739 13.1847C10.9169 12.7138 11.1709 12.2048 11.6413 12.0469C11.6416 12.0468 11.642 12.0466 11.6426 12.0464L11.6565 12.0416C11.6704 12.0366 11.6931 12.0284 11.7233 12.0169C11.784 11.9938 11.8743 11.9577 11.9841 11.9089C12.2062 11.8102 12.4956 11.6649 12.7785 11.4763C13.3991 11.0625 13.7277 10.6223 13.7277 10.2001L13.7277 10.1988C13.7283 9.77367 13.5785 9.36208 13.3048 9.03688C13.031 8.71167 12.651 8.49385 12.232 8.42199ZM15.5277 10.2004C15.5277 10.2007 15.5277 10.2011 15.5277 10.2014L14.6277 10.2001H15.5277C15.5277 10.2002 15.5277 10.2003 15.5277 10.2004Z" fill="white"/>
</g>
<defs>
<clipPath id="clip0_302_637">
<rect width="24" height="24" fill="white"/>
</clipPath>
</defs>
</svg>
