<svg width="24" height="24" viewBox="0 0 24 24" fill="none" xmlns="http://www.w3.org/2000/svg">
<g clip-path="url(#clip0_152_246)">
<path fill-rule="evenodd" clip-rule="evenodd" d="M12.0001 3.89998C7.52659 3.89998 3.9001 7.52647 3.9001 12C3.9001 16.4735 7.52659 20.1 12.0001 20.1C16.4736 20.1 20.1001 16.4735 20.1001 12C20.1001 7.52647 16.4736 3.89998 12.0001 3.89998ZM2.1001 12C2.1001 6.53236 6.53248 2.09998 12.0001 2.09998C17.4677 2.09998 21.9001 6.53236 21.9001 12C21.9001 17.4676 17.4677 21.9 12.0001 21.9C6.53248 21.9 2.1001 17.4676 2.1001 12ZM11.1001 16.5C11.1001 16.0029 11.503 15.6 12.0001 15.6H12.0091C12.5062 15.6 12.9091 16.0029 12.9091 16.5C12.9091 16.997 12.5062 17.4 12.0091 17.4H12.0001C11.503 17.4 11.1001 16.997 11.1001 16.5ZM11.0159 8.64424C11.3824 8.42885 11.8133 8.35012 12.2323 8.42198C12.6512 8.49385 13.0312 8.71167 13.305 9.03687C13.5788 9.36208 13.7286 9.77367 13.728 10.1988L13.728 10.2001C13.728 10.6223 13.3994 11.0625 12.7787 11.4763C12.4958 11.6649 12.2065 11.8102 11.9843 11.9089C11.8745 11.9577 11.7843 11.9938 11.7236 12.0169C11.6933 12.0284 11.6706 12.0366 11.6568 12.0416L11.6429 12.0464L11.6415 12.0469C11.1712 12.2048 10.9172 12.7138 11.0741 13.1847C11.2313 13.6563 11.741 13.9111 12.2126 13.7539L11.9377 12.9293C12.2126 13.7539 12.2128 13.7538 12.2131 13.7537L12.2137 13.7535L12.2151 13.7531L12.2186 13.7519L12.2285 13.7485L12.2598 13.7375C12.2855 13.7284 12.3208 13.7155 12.3644 13.6989C12.4513 13.6658 12.572 13.6175 12.7154 13.5538C12.9995 13.4275 13.3851 13.2353 13.7772 12.9739C14.5065 12.4877 15.5278 11.578 15.528 10.2004L15.528 10.2014L14.628 10.2001H15.528V10.2004C15.529 9.35058 15.2293 8.52781 14.682 7.87767C14.1345 7.22727 13.3745 6.79162 12.5366 6.64789C11.6986 6.50416 10.8369 6.66163 10.1039 7.0924C9.37094 7.52317 8.81408 8.19944 8.53196 9.00144C8.36701 9.47033 8.61341 9.98415 9.0823 10.1491C9.55119 10.314 10.065 10.0676 10.23 9.59876C10.371 9.19776 10.6494 8.85962 11.0159 8.64424Z" fill="#1A1A1A"/>
</g>
<defs>
<clipPath id="clip0_152_246">
<rect width="24" height="24" fill="white"/>
</clipPath>
</defs>
</svg>
