<svg width="24" height="24" viewBox="0 0 24 24" fill="none" xmlns="http://www.w3.org/2000/svg">
<g clip-path="url(#clip0_150_244)">
<path d="M2 11.9999C2 8.85805 3.45032 6.05419 5.71387 4.22253C6.14319 3.87525 6.77274 3.94169 7.12012 4.37097C7.46742 4.8003 7.40097 5.42984 6.97168 5.77722C5.15723 7.24547 4 9.48718 4 11.9999C4 16.4182 7.58172 19.9999 12 19.9999C16.4183 19.9999 20 16.4182 20 11.9999C20 7.5816 16.4183 3.99988 12 3.99988C11.4477 3.99988 11 3.55216 11 2.99988C11 2.44759 11.4477 1.99988 12 1.99988C17.5228 1.99988 22 6.47703 22 11.9999C22 17.5227 17.5228 21.9999 12 21.9999C6.47715 21.9999 2 17.5227 2 11.9999Z" fill="#1A1A1A"/>
<path d="M6 8.49988V5.49988H3C2.44772 5.49988 2 5.05216 2 4.49988C2 3.94759 2.44772 3.49988 3 3.49988H7C7.55228 3.49988 8 3.94759 8 4.49988V8.49988C8 9.05216 7.55228 9.49988 7 9.49988C6.44772 9.49988 6 9.05216 6 8.49988Z" fill="#1A1A1A"/>
</g>
<defs>
<clipPath id="clip0_150_244">
<rect width="24" height="24" fill="white"/>
</clipPath>
</defs>
</svg>
