<svg width="24" height="24" viewBox="0 0 24 24" fill="none" xmlns="http://www.w3.org/2000/svg">
<rect width="24" height="24" fill="#F5F5F5"/>
<g id="24">
<path d="M-1036 -1242C-1036 -1243.1 -1035.1 -1244 -1034 -1244H122C123.105 -1244 124 -1243.1 124 -1242V538C124 539.104 123.105 540 122 540H-1034C-1035.1 540 -1036 539.105 -1036 538V-1242Z" fill="#F5F5F5"/>
<path d="M-1034 -1244V-1243H122V-1244V-1245H-1034V-1244ZM124 -1242H123V538H124H125V-1242H124ZM122 540V539H-1034V540V541H122V540ZM-1036 538H-1035V-1242H-1036H-1037V538H-1036ZM-1034 540V539C-1034.55 539 -1035 538.552 -1035 538H-1036H-1037C-1037 539.657 -1035.66 541 -1034 541V540ZM124 538H123C123 538.552 122.552 539 122 539V540V541C123.657 541 125 539.657 125 538H124ZM122 -1244V-1243C122.552 -1243 123 -1242.55 123 -1242H124H125C125 -1243.66 123.657 -1245 122 -1245V-1244ZM-1034 -1244V-1245C-1035.66 -1245 -1037 -1243.66 -1037 -1242H-1036H-1035C-1035 -1242.55 -1034.55 -1243 -1034 -1243V-1244Z" fill="black" fill-opacity="0.1"/>
<g id="icon/search" clip-path="url(#clip0_149_2)">
<path id="Vector (Stroke)" fill-rule="evenodd" clip-rule="evenodd" d="M11 4C7.13401 4 4 7.13401 4 11C4 14.866 7.13401 18 11 18C12.9333 18 14.6819 17.2176 15.9497 15.9497C17.2176 14.6819 18 12.9333 18 11C18 7.13401 14.866 4 11 4ZM2 11C2 6.02944 6.02944 2 11 2C15.9706 2 20 6.02944 20 11C20 13.1246 19.2628 15.0784 18.0319 16.6176L21.7071 20.2929C22.0976 20.6834 22.0976 21.3166 21.7071 21.7071C21.3166 22.0976 20.6834 22.0976 20.2929 21.7071L16.6176 18.0319C15.0784 19.2628 13.1246 20 11 20C6.02944 20 2 15.9706 2 11Z" fill="#1A1A1A"/>
</g>
</g>
<defs>
<clipPath id="clip0_149_2">
<rect width="24" height="24" fill="white"/>
</clipPath>
</defs>
</svg>
