<svg width="24" height="24" viewBox="0 0 24 24" fill="none" xmlns="http://www.w3.org/2000/svg">
<g clip-path="url(#clip0_150_336)">
<path fill-rule="evenodd" clip-rule="evenodd" d="M9.7771 2.24757C9.32223 2.35138 8.99959 2.75594 8.99959 3.22251L8.99959 5.07163C8.99959 5.84143 8.16626 6.32256 7.49959 5.93766L5.89821 5.0131C5.49415 4.77981 4.98246 4.85695 4.66513 5.19898C3.63109 6.31349 2.88114 7.63514 2.4447 9.04969C2.30715 9.49553 2.49619 9.97725 2.90026 10.2105L4.49956 11.1339C5.16623 11.5188 5.16623 12.481 4.49956 12.8659L2.89855 13.7903C2.49409 14.0238 2.30512 14.5062 2.44335 14.9523C2.66044 15.653 2.95821 16.3397 3.33939 16.9999C3.72056 17.6601 4.16639 18.2613 4.66462 18.7997C4.98185 19.1424 5.49408 19.22 5.89854 18.9865L7.49959 18.0621C8.16626 17.6772 8.99959 18.1583 8.99959 18.9281L8.99959 20.7749C8.99959 21.2415 9.32225 21.6461 9.77714 21.7499C11.2204 22.0792 12.74 22.0905 14.2222 21.7523C14.677 21.6485 14.9997 21.2439 14.9997 20.7773L14.9997 18.9282C14.9997 18.1584 15.833 17.6773 16.4997 18.0622L18.1011 18.9867C18.5051 19.22 19.0168 19.1429 19.3342 18.8009C20.3682 17.6863 21.1181 16.3647 21.5546 14.9501C21.6921 14.5043 21.5031 14.0226 21.099 13.7893L19.4997 12.8659C18.833 12.481 18.833 11.5188 19.4997 11.1339L21.1007 10.2095C21.5052 9.97596 21.6942 9.49359 21.5559 9.04748C21.3388 8.34683 21.0411 7.66012 20.6599 6.99992C20.2787 6.33969 19.8329 5.73845 19.3346 5.2001C19.0174 4.85735 18.5052 4.77981 18.1007 5.01332L16.4997 5.93768C15.833 6.32258 14.9997 5.84145 14.9997 5.07165L14.9997 3.22492C14.9997 2.75834 14.677 2.35377 14.2221 2.24998C12.7789 1.92067 11.2593 1.90932 9.7771 2.24757ZM10.9996 5.07163L10.9996 4.06032C11.6677 3.97649 12.3398 3.97847 12.9997 4.06217V5.07165C12.9997 7.38105 15.4997 8.82443 17.4997 7.66973L18.3743 7.16476C18.5733 7.42782 18.7583 7.70632 18.9279 7.99992C19.0973 8.2935 19.246 8.59301 19.3743 8.89681L18.4997 9.4018C16.4997 10.5565 16.4997 13.4433 18.4997 14.598L19.374 15.1027C19.1165 15.7161 18.7822 16.2991 18.3755 16.8358L17.4997 16.3301C15.4997 15.1754 12.9997 16.6188 12.9997 18.9282V19.9395C12.3315 20.0233 11.6595 20.0214 10.9996 19.9377V18.9281C10.9996 16.6187 8.49959 15.1753 6.49959 16.33L5.62494 16.835C5.42601 16.572 5.24094 16.2935 5.07144 15.9999C4.90194 15.7063 4.75328 15.4068 4.62494 15.103L5.49956 14.598C7.49956 13.4433 7.49956 10.5565 5.49956 9.40185L4.62533 8.89711C4.8828 8.28375 5.2171 7.70078 5.62378 7.16405L6.49959 7.66971C8.49959 8.82441 10.9996 7.38103 10.9996 5.07163ZM10.9999 12C10.9999 11.4477 11.4476 11 11.9999 11C12.5522 11 12.9999 11.4477 12.9999 12C12.9999 12.5523 12.5522 13 11.9999 13C11.4476 13 10.9999 12.5523 10.9999 12ZM11.9999 9C10.3431 9 8.99991 10.3431 8.99991 12C8.99991 13.6569 10.3431 15 11.9999 15C13.6568 15 14.9999 13.6569 14.9999 12C14.9999 10.3431 13.6568 9 11.9999 9Z" fill="#1A1A1A"/>
</g>
<defs>
<clipPath id="clip0_150_336">
<rect width="24" height="24" fill="white"/>
</clipPath>
</defs>
</svg>
