<svg width="24" height="24" viewBox="0 0 24 24" fill="none" xmlns="http://www.w3.org/2000/svg">
<path fill-rule="evenodd" clip-rule="evenodd" d="M8.99959 3.22251C8.99959 2.75594 9.32223 2.35138 9.7771 2.24757C11.2593 1.90932 12.7789 1.92067 14.2221 2.24998C14.677 2.35377 14.9997 2.75834 14.9997 3.22492L14.9997 5.07165C14.9997 5.84145 15.833 6.32258 16.4997 5.93768L18.1007 5.01332C18.5052 4.77981 19.0174 4.85735 19.3346 5.2001C19.8329 5.73845 20.2787 6.33969 20.6599 6.99992C21.0411 7.66012 21.3388 8.34683 21.5559 9.04748C21.6942 9.49359 21.5052 9.97596 21.1007 10.2095L19.4997 11.1339C18.833 11.5188 18.833 12.481 19.4997 12.8659L21.099 13.7893C21.5031 14.0226 21.6921 14.5043 21.5546 14.9501C21.1181 16.3647 20.3682 17.6864 19.3342 18.8009C19.0168 19.1429 18.5051 19.22 18.1011 18.9867L16.4997 18.0622C15.833 17.6773 14.9997 18.1584 14.9997 18.9282L14.9997 20.7773C14.9997 21.2439 14.677 21.6485 14.2222 21.7523C12.74 22.0905 11.2204 22.0792 9.77714 21.7499C9.32225 21.6461 8.99959 21.2415 8.99959 20.7749L8.99959 18.9281C8.99959 18.1583 8.16626 17.6772 7.49959 18.0621L5.89854 18.9865C5.49408 19.22 4.98185 19.1424 4.66462 18.7997C4.16639 18.2613 3.72056 17.6601 3.33939 16.9999C2.95821 16.3397 2.66044 15.653 2.44335 14.9523C2.30512 14.5062 2.49409 14.0238 2.89855 13.7903L4.49956 12.8659C5.16623 12.481 5.16623 11.5188 4.49956 11.1339L2.90026 10.2105C2.49619 9.97725 2.30715 9.49553 2.4447 9.04969C2.88114 7.63514 3.63109 6.31349 4.66513 5.19898C4.98246 4.85695 5.49415 4.77981 5.89821 5.0131L7.49959 5.93766C8.16626 6.32256 8.99959 5.84143 8.99959 5.07163L8.99959 3.22251ZM11.9999 14C13.1045 14 13.9999 13.1046 13.9999 12C13.9999 10.8955 13.1045 10 11.9999 10C10.8953 10 9.99989 10.8955 9.99989 12C9.99989 13.1046 10.8953 14 11.9999 14Z" fill="#1A1A1A"/>
</svg>
