<svg width="24" height="24" viewBox="0 0 24 24" fill="none" xmlns="http://www.w3.org/2000/svg">
<g clip-path="url(#clip0_150_187)">
<path fill-rule="evenodd" clip-rule="evenodd" d="M11 14C11 14.5523 11.4477 15 12 15C12.5523 15 13 14.5523 13 14L13 4.41421L14.2929 5.70711C14.6834 6.09763 15.3166 6.09763 15.7071 5.70711C16.0976 5.31658 16.0976 4.68342 15.7071 4.29289L12.7071 1.29289C12.3166 0.902369 11.6834 0.902368 11.2929 1.29289L8.29289 4.29289C7.90237 4.68342 7.90237 5.31658 8.29289 5.70711C8.68342 6.09763 9.31658 6.09763 9.70711 5.70711L11 4.41421L11 14ZM4 7C3.44772 7 3 7.44772 3 8V18C3 19.6569 4.34315 21 6 21H18C19.6569 21 21 19.6569 21 18V8C21 7.44772 20.5523 7 20 7H18C17.4477 7 17 7.44772 17 8C17 8.55229 17.4477 9 18 9H19V18C19 18.5523 18.5523 19 18 19H6C5.44772 19 5 18.5523 5 18V9H6C6.55228 9 7 8.55229 7 8C7 7.44772 6.55228 7 6 7H4Z" fill="#1A1A1A"/>
</g>
<defs>
<clipPath id="clip0_150_187">
<rect width="24" height="24" fill="white"/>
</clipPath>
</defs>
</svg>
