<svg width="24" height="24" viewBox="0 0 24 24" fill="none" xmlns="http://www.w3.org/2000/svg">
<path d="M6.32379 14.3321C7.15281 14.3296 7.95048 14.0146 8.55782 13.4499L14.4912 16.8429C14.0803 18.45 14.9106 20.1153 16.4409 20.753C17.9711 21.3907 19.7372 20.8074 20.5874 19.3834C21.4377 17.9593 21.1144 16.1265 19.8282 15.08C18.5421 14.0335 16.6832 14.0907 15.4637 15.2142L9.5303 11.8213C9.5925 11.5832 9.62686 11.3388 9.63266 11.0928L15.4628 7.75862C16.62 8.81145 18.3559 8.90907 19.6237 7.99261C20.8915 7.07615 21.3444 5.3962 20.7094 3.96593C20.0743 2.53566 18.5249 1.74615 16.9955 2.07355C15.4662 2.40095 14.3751 3.75574 14.3803 5.32085C14.3837 5.59411 14.421 5.86589 14.4912 6.12996L9.10377 9.2099C8.24077 7.87379 6.55195 7.33819 5.07749 7.93297C3.60304 8.52776 2.75747 10.0857 3.0616 11.6473C3.36573 13.2088 4.73405 14.335 6.32379 14.3321Z" fill="#1A1A1A"/>
</svg>
