<svg width="24" height="24" viewBox="0 0 24 24" fill="none" xmlns="http://www.w3.org/2000/svg">
<path d="M6.31536 21.5095C7.34066 21.5213 8.31246 21.0528 8.94175 20.2433C9.57104 19.4337 9.78535 18.3764 9.52094 17.3857L15.4526 13.9954C16.4776 14.9344 17.9801 15.1332 19.214 14.4929C20.4479 13.8527 21.1504 12.5098 20.9727 11.1311C20.7951 9.75238 19.7751 8.63148 18.4192 8.32495C17.0633 8.01842 15.6603 8.59157 14.9068 9.75979L9.52189 6.68118C9.59156 6.41794 9.62848 6.1471 9.6318 5.87482C9.64538 4.28929 8.5442 2.91195 6.99456 2.57621C5.44493 2.24047 3.87243 3.03854 3.22857 4.48752C2.5847 5.93649 3.04631 7.63843 4.33406 8.56351C5.62182 9.48859 7.38206 9.38275 8.5497 8.31003L14.3781 11.6407C14.3839 11.8864 14.4182 12.1306 14.4804 12.3684L8.5497 15.7578C7.45786 14.7558 5.83327 14.6011 4.57197 15.3791C3.31067 16.1571 2.71974 17.6782 3.1251 19.1037C3.53047 20.5291 4.83344 21.5116 6.31536 21.5095ZM6.31536 16.7717C7.10034 16.7717 7.73669 17.408 7.73669 18.193C7.73669 18.978 7.10034 19.6144 6.31536 19.6144C5.53038 19.6144 4.89403 18.978 4.89403 18.193C4.89403 17.408 5.53038 16.7717 6.31536 16.7717ZM17.686 10.1388C18.471 10.1388 19.1073 10.7752 19.1073 11.5601C19.1073 12.3451 18.471 12.9815 17.686 12.9815C16.901 12.9815 16.2647 12.3451 16.2647 11.5601C16.2647 10.7752 16.901 10.1388 17.686 10.1388ZM6.31536 4.45348C7.10034 4.45348 7.73669 5.08984 7.73669 5.87482C7.73669 6.6598 7.10034 7.29615 6.31536 7.29615C5.53038 7.29615 4.89403 6.6598 4.89403 5.87482C4.89403 5.08984 5.53038 4.45348 6.31536 4.45348Z" fill="#1A1A1A"/>
</svg>
