<svg width="24" height="24" viewBox="0 0 24 24" fill="none" xmlns="http://www.w3.org/2000/svg">
<path d="M17 19.9997C16.71 19.9997 16.44 19.9397 16.24 19.8497C15.53 19.4997 15.03 18.9697 14.53 17.4697C14 15.9097 13.06 15.1797 12.14 14.4697C11.35 13.8597 10.53 13.2297 9.82 11.9397C9.29 10.9997 9 9.92972 9 8.99972C9 6.19973 11.2 3.99972 14 3.99972C16.4587 3.99972 18.4548 5.69615 18.9049 8.0056C19.0105 8.54769 19.4477 8.99972 20 8.99972L-nan -nanL20 8.99972C20.5523 8.99972 21.0074 8.54952 20.9327 8.0023C20.4634 4.56242 17.5906 1.99972 14 1.99972C10.07 1.99972 7 5.06972 7 8.99972C7 10.2597 7.38 11.6497 8.07 12.8997C9 14.5497 10.05 15.3797 10.92 16.0497C11.73 16.6697 12.31 17.1197 12.63 18.0997C13.23 19.9197 14 20.9397 15.36 21.6497C15.87 21.8797 16.43 21.9997 17 21.9997C18.0609 21.9997 19.0783 21.5783 19.8284 20.8282C20.3405 20.316 20.6994 19.6794 20.8757 18.9894C21.0123 18.4543 20.5523 17.9997 20 17.9997L-nan -nanL20 17.9997C19.4477 17.9997 19.0199 18.4739 18.7552 18.9586C18.6646 19.1244 18.5502 19.2779 18.4142 19.4139C18.0391 19.789 17.5304 19.9997 17 19.9997ZM6.9655 3.38562C7.31372 2.95386 7.32004 2.31977 6.92782 1.92755L-nan -nanL6.92782 1.92755C6.5373 1.53702 5.89945 1.53363 5.54582 1.95785C3.95595 3.86507 3 6.3197 3 8.99972C3 11.6808 3.95671 14.1363 5.54772 16.0439C5.90042 16.4668 6.53564 16.4641 6.925 16.0747L-nan -nanL6.925 16.0747C7.31436 15.6854 7.30935 15.0572 6.96513 14.6274C5.73234 13.0882 5 11.1391 5 8.99972C5 6.86371 5.73001 4.91749 6.9655 3.38562ZM11.5 8.99972C11.5 9.32803 11.5647 9.65312 11.6903 9.95643C11.8159 10.2597 12.0001 10.5353 12.2322 10.7675C12.7011 11.2363 13.337 11.4997 14 11.4997C14.3283 11.4997 14.6534 11.4351 14.9567 11.3094C15.26 11.1838 15.5356 10.9996 15.7678 10.7675C15.9999 10.5353 16.1841 10.2597 16.3097 9.95643C16.4353 9.65312 16.5 9.32803 16.5 8.99972C16.5 8.33668 16.2366 7.7008 15.7678 7.23196C15.2989 6.76312 14.663 6.49972 14 6.49972C13.337 6.49972 12.7011 6.76312 12.2322 7.23196C11.7634 7.7008 11.5 8.33668 11.5 8.99972Z" fill="#1A1A1A"/>
</svg>
