<svg width="24" height="24" viewBox="0 0 24 24" fill="none" xmlns="http://www.w3.org/2000/svg">
<g clip-path="url(#clip0_153_119)">
<path fill-rule="evenodd" clip-rule="evenodd" d="M20.9832 2.00484C21.5328 1.95028 22.0226 2.35157 22.0771 2.90115C22.211 4.24956 22.2795 5.61691 22.2795 6.99995C22.2795 8.383 22.211 9.75035 22.0771 11.0988C22.0226 11.6483 21.5328 12.0496 20.9832 11.9951C20.4336 11.9405 20.0324 11.4507 20.0869 10.9012C20.2143 9.61831 20.2795 8.3169 20.2795 6.99995C20.2795 5.683 20.2143 4.3816 20.0869 3.09875C20.0324 2.54917 20.4336 2.05941 20.9832 2.00484ZM9 6.99995C9 5.89538 9.89543 4.99995 11 4.99995C12.1046 4.99995 13 5.89538 13 6.99995C13 8.10452 12.1046 8.99995 11 8.99995C9.89543 8.99995 9 8.10452 9 6.99995ZM11 2.99995C8.79086 2.99995 7 4.79081 7 6.99995C7 9.20909 8.79086 11 11 11C13.2091 11 15 9.20909 15 6.99995C15 4.79081 13.2091 2.99995 11 2.99995ZM7 13C4.23858 13 2 15.2385 2 18C2 19.6568 3.34315 21 5 21H17C18.6569 21 20 19.6568 20 18C20 15.2385 17.7614 13 15 13H7ZM4 18C4 16.3431 5.34315 15 7 15H15C16.6569 15 18 16.3431 18 18C18 18.5522 17.5523 19 17 19H5C4.44772 19 4 18.5522 4 18ZM18.9966 4.91773C18.9512 4.36732 18.4682 3.95793 17.9178 4.00334C17.3674 4.04875 16.958 4.53176 17.0034 5.08217C17.0555 5.71432 17.0821 6.35392 17.0821 6.99995C17.0821 7.64599 17.0555 8.28558 17.0034 8.91773C16.958 9.46815 17.3674 9.95116 17.9178 9.99657C18.4682 10.042 18.9512 9.63259 18.9966 9.08217C19.0533 8.39539 19.0821 7.70093 19.0821 6.99995C19.0821 6.29897 19.0533 5.60452 18.9966 4.91773Z" fill="#1A1A1A"/>
</g>
<defs>
<clipPath id="clip0_153_119">
<rect width="24" height="24" fill="white"/>
</clipPath>
</defs>
</svg>
