<svg width="24" height="24" viewBox="0 0 24 24" fill="none" xmlns="http://www.w3.org/2000/svg">
<g clip-path="url(#clip0_153_141)">
<path d="M3 18C3 15.7909 4.79086 14 7 14H15C17.2091 14 19 15.7909 19 18C19 19.1046 18.1046 20 17 20H5C3.89543 20 3 19.1046 3 18Z" fill="#1A1A1A" stroke="#1A1A1A" stroke-width="2" stroke-linejoin="round"/>
<path d="M14 7C14 8.65685 12.6569 10 11 10C9.34315 10 8 8.65685 8 7C8 5.34315 9.34315 4 11 4C12.6569 4 14 5.34315 14 7Z" fill="#1A1A1A"/>
<path fill-rule="evenodd" clip-rule="evenodd" d="M11 5C9.89543 5 9 5.89543 9 7C9 8.10457 9.89543 9 11 9C12.1046 9 13 8.10457 13 7C13 5.89543 12.1046 5 11 5ZM7 7C7 4.79086 8.79086 3 11 3C13.2091 3 15 4.79086 15 7C15 9.20914 13.2091 11 11 11C8.79086 11 7 9.20914 7 7Z" fill="#1A1A1A"/>
<path fill-rule="evenodd" clip-rule="evenodd" d="M20.9833 2.00484C21.5329 1.95028 22.0226 2.35157 22.0772 2.90115C22.2111 4.24956 22.2796 5.61691 22.2796 6.99995C22.2796 8.383 22.2111 9.75035 22.0772 11.0988C22.0226 11.6483 21.5329 12.0496 20.9833 11.9951C20.4337 11.9405 20.0324 11.4507 20.087 10.9012C20.2144 9.61831 20.2796 8.3169 20.2796 6.99995C20.2796 5.683 20.2144 4.3816 20.087 3.09875C20.0324 2.54917 20.4337 2.05941 20.9833 2.00484Z" fill="#1A1A1A"/>
<path fill-rule="evenodd" clip-rule="evenodd" d="M17.9178 4.00344C18.4683 3.95803 18.9513 4.36742 18.9967 4.91784C19.0533 5.60462 19.0822 6.29908 19.0822 7.00005C19.0822 7.70103 19.0533 8.39549 18.9967 9.08227C18.9513 9.63269 18.4683 10.0421 17.9178 9.99667C17.3674 9.95126 16.958 9.46825 17.0034 8.91784C17.0556 8.28569 17.0822 7.64609 17.0822 7.00005C17.0822 6.35402 17.0556 5.71442 17.0034 5.08227C16.958 4.53186 17.3674 4.04885 17.9178 4.00344Z" fill="#1A1A1A"/>
</g>
<defs>
<clipPath id="clip0_153_141">
<rect width="24" height="24" fill="white"/>
</clipPath>
</defs>
</svg>
