<svg width="24" height="24" viewBox="0 0 24 24" fill="none" xmlns="http://www.w3.org/2000/svg">
<g clip-path="url(#clip0_153_141)">
<path d="M3 18C3 15.7909 4.79086 14 7 14H15C17.2091 14 19 15.7909 19 18C19 19.1046 18.1046 20 17 20H5C3.89543 20 3 19.1046 3 18Z" fill="#1A1A1A" stroke="#1A1A1A" stroke-width="2" stroke-linejoin="round"/>
<path d="M14 7C14 8.65685 12.6569 10 11 10C9.34315 10 8 8.65685 8 7C8 5.34315 9.34315 4 11 4C12.6569 4 14 5.34315 14 7Z" fill="#1A1A1A"/>
<path fill-rule="evenodd" clip-rule="evenodd" d="M11 5C9.89543 5 9 5.89543 9 7C9 8.10457 9.89543 9 11 9C12.1046 9 13 8.10457 13 7C13 5.89543 12.1046 5 11 5ZM7 7C7 4.79086 8.79086 3 11 3C13.2091 3 15 4.79086 15 7C15 9.20914 13.2091 11 11 11C8.79086 11 7 9.20914 7 7Z" fill="#1A1A1A"/>
<path fill-rule="evenodd" clip-rule="evenodd" d="M20.9833 2.00491C21.5329 1.95034 22.0226 2.35163 22.0772 2.90121C22.2111 4.24962 22.2796 5.61697 22.2796 7.00001C22.2796 8.38306 22.2111 9.75041 22.0772 11.0988C22.0226 11.6484 21.5329 12.0497 20.9833 11.9951C20.4337 11.9406 20.0324 11.4508 20.087 10.9012C20.2144 9.61837 20.2796 8.31696 20.2796 7.00001C20.2796 5.68306 20.2144 4.38166 20.087 3.09881C20.0324 2.54923 20.4337 2.05947 20.9833 2.00491Z" fill="#1A1A1A"/>
<path fill-rule="evenodd" clip-rule="evenodd" d="M17.9178 4.00338C18.4683 3.95797 18.9513 4.36736 18.9967 4.91777C19.0533 5.60456 19.0822 6.29901 19.0822 6.99999C19.0822 7.70097 19.0533 8.39543 18.9967 9.08221C18.9513 9.63263 18.4683 10.042 17.9178 9.99661C17.3674 9.9512 16.958 9.46819 17.0034 8.91778C17.0556 8.28562 17.0822 7.64603 17.0822 6.99999C17.0822 6.35396 17.0556 5.71436 17.0034 5.08221C16.958 4.5318 17.3674 4.04879 17.9178 4.00338Z" fill="#1A1A1A"/>
</g>
<defs>
<clipPath id="clip0_153_141">
<rect width="24" height="24" fill="white"/>
</clipPath>
</defs>
</svg>
