<svg width="24" height="24" viewBox="0 0 24 24" fill="none" xmlns="http://www.w3.org/2000/svg">
<g clip-path="url(#clip0_153_119)">
<path fill-rule="evenodd" clip-rule="evenodd" d="M20.9832 2.00491C21.5328 1.95034 22.0226 2.35163 22.0771 2.90121C22.211 4.24962 22.2795 5.61697 22.2795 7.00001C22.2795 8.38306 22.211 9.75041 22.0771 11.0988C22.0226 11.6484 21.5328 12.0497 20.9832 11.9951C20.4336 11.9406 20.0324 11.4508 20.0869 10.9012C20.2143 9.61837 20.2795 8.31696 20.2795 7.00001C20.2795 5.68306 20.2143 4.38166 20.0869 3.09881C20.0324 2.54923 20.4336 2.05947 20.9832 2.00491ZM9 7.00001C9 5.89544 9.89543 5.00001 11 5.00001C12.1046 5.00001 13 5.89544 13 7.00001C13 8.10458 12.1046 9.00001 11 9.00001C9.89543 9.00001 9 8.10458 9 7.00001ZM11 3.00001C8.79086 3.00001 7 4.79087 7 7.00001C7 9.20915 8.79086 11 11 11C13.2091 11 15 9.20915 15 7.00001C15 4.79087 13.2091 3.00001 11 3.00001ZM7 13C4.23858 13 2 15.2386 2 18C2 19.6569 3.34315 21 5 21H17C18.6569 21 20 19.6569 20 18C20 15.2386 17.7614 13 15 13H7ZM4 18C4 16.3432 5.34315 15 7 15H15C16.6569 15 18 16.3432 18 18C18 18.5523 17.5523 19 17 19H5C4.44772 19 4 18.5523 4 18ZM18.9966 4.91779C18.9512 4.36738 18.4682 3.95799 17.9178 4.0034C17.3674 4.04881 16.958 4.53182 17.0034 5.08223C17.0555 5.71438 17.0821 6.35398 17.0821 7.00001C17.0821 7.64605 17.0555 8.28564 17.0034 8.91779C16.958 9.46821 17.3674 9.95122 17.9178 9.99663C18.4682 10.042 18.9512 9.63265 18.9966 9.08223C19.0533 8.39545 19.0821 7.70099 19.0821 7.00001C19.0821 6.29903 19.0533 5.60458 18.9966 4.91779Z" fill="#1A1A1A"/>
</g>
<defs>
<clipPath id="clip0_153_119">
<rect width="24" height="24" fill="white"/>
</clipPath>
</defs>
</svg>
