<svg width="24" height="24" viewBox="0 0 24 24" fill="none" xmlns="http://www.w3.org/2000/svg">
<path d="M9.20996 4.01819C10.2824 1.69403 13.586 1.69383 14.6582 4.01819L16.0381 7.01135L19.3115 7.40002C21.8537 7.70144 22.8746 10.8436 20.9951 12.5817L18.5752 14.819L19.2178 18.0524C19.7166 20.5632 17.0434 22.5049 14.8096 21.2545L11.9336 19.6451L9.05762 21.2545C6.82383 22.5049 4.15064 20.5632 4.64941 18.0524L5.29199 14.819L2.87207 12.5817C0.99259 10.8436 2.01354 7.70149 4.55566 7.40002L7.8291 7.01135L9.20996 4.01819ZM15.707 9.2926C15.3166 8.90229 14.6835 8.90236 14.293 9.2926L11 12.5856L9.70703 11.2926C9.31658 10.9023 8.68347 10.9024 8.29297 11.2926C7.90249 11.6831 7.90257 12.3161 8.29297 12.7067L10.293 14.7067C10.6835 15.0972 11.3165 15.0972 11.707 14.7067L15.707 10.7067C16.0973 10.3161 16.0975 9.68305 15.707 9.2926Z" fill="#1A1A1A"/>
</svg>
