<svg width="24" height="24" viewBox="0 0 24 24" fill="none" xmlns="http://www.w3.org/2000/svg">
<rect width="24" height="24" fill="#F5F5F5"/>
<g id="24">
<path d="M-1036 -1346C-1036 -1347.1 -1035.1 -1348 -1034 -1348H122C123.105 -1348 124 -1347.1 124 -1346V434C124 435.104 123.105 436 122 436H-1034C-1035.1 436 -1036 435.105 -1036 434V-1346Z" fill="#F5F5F5"/>
<path d="M-1034 -1348V-1347H122V-1348V-1349H-1034V-1348ZM124 -1346H123V434H124H125V-1346H124ZM122 436V435H-1034V436V437H122V436ZM-1036 434H-1035V-1346H-1036H-1037V434H-1036ZM-1034 436V435C-1034.55 435 -1035 434.552 -1035 434H-1036H-1037C-1037 435.657 -1035.66 437 -1034 437V436ZM124 434H123C123 434.552 122.552 435 122 435V436V437C123.657 437 125 435.657 125 434H124ZM122 -1348V-1347C122.552 -1347 123 -1346.55 123 -1346H124H125C125 -1347.66 123.657 -1349 122 -1349V-1348ZM-1034 -1348V-1349C-1035.66 -1349 -1037 -1347.66 -1037 -1346H-1036H-1035C-1035 -1346.55 -1034.55 -1347 -1034 -1347V-1348Z" fill="black" fill-opacity="0.1"/>
<g id="icon/star" clip-path="url(#clip0_149_2)">
<g id="Icon / 24&#195;&#151;24 / Line / General / Star" clip-path="url(#clip1_149_2)">
<g id="Icon Frame">
<path id="Star 1 (Stroke)" fill-rule="evenodd" clip-rule="evenodd" d="M9.20952 4.01849C10.2818 1.69387 13.5856 1.69387 14.6579 4.01849L16.0384 7.01159L19.3117 7.39968C21.8539 7.7011 22.8748 10.8433 20.9953 12.5814L18.5753 14.8193L19.2177 18.0523C19.7166 20.5632 17.0437 22.5051 14.8099 21.2547L11.9337 19.6447L9.05747 21.2547C6.82364 22.5051 4.15076 20.5632 4.64967 18.0523L5.29206 14.8193L2.87207 12.5814C0.99257 10.8433 2.01352 7.7011 4.5557 7.39968L7.82893 7.01159L9.20952 4.01849ZM12.8417 4.85618C12.4843 4.08131 11.383 4.08131 11.0256 4.85618L9.4106 8.35757C9.26493 8.67338 8.96564 8.89082 8.62028 8.93177L4.79118 9.38577C3.94379 9.48624 3.60347 10.5336 4.22997 11.113L7.06092 13.731C7.31626 13.9671 7.43058 14.3189 7.3628 14.6601L6.61132 18.442C6.44502 19.279 7.33598 19.9263 8.08059 19.5095L11.4452 17.6261C11.7487 17.4563 12.1187 17.4563 12.4221 17.6261L15.7868 19.5095C16.5314 19.9263 17.4224 19.279 17.2561 18.442L16.5046 14.6601C16.4368 14.3189 16.5511 13.9671 16.8065 13.731L19.6374 11.113C20.2639 10.5336 19.9236 9.48624 19.0762 9.38577L15.2471 8.93177C14.9017 8.89082 14.6025 8.67338 14.4568 8.35757L12.8417 4.85618Z" fill="#1A1A1A"/>
</g>
</g>
</g>
</g>
<defs>
<clipPath id="clip0_149_2">
<rect width="24" height="24" fill="white"/>
</clipPath>
<clipPath id="clip1_149_2">
<rect width="24" height="24" fill="white"/>
</clipPath>
</defs>
</svg>
