<svg width="24" height="24" viewBox="0 0 24 24" fill="none" xmlns="http://www.w3.org/2000/svg">
<g clip-path="url(#clip0_150_221)">
<path fill-rule="evenodd" clip-rule="evenodd" d="M19.629 7.12003C19.1997 7.46745 18.57 7.40104 18.2226 6.97171C16.7543 5.15726 14.5127 4 12 4C7.58169 4 3.99997 7.58172 3.99997 12C3.99997 12.5523 3.55225 13 2.99997 13C2.44768 13 1.99997 12.5523 1.99997 12C1.99997 6.47715 6.47712 2 12 2C15.1418 2 17.9457 3.45007 19.7773 5.71362C20.1247 6.14295 20.0583 6.77262 19.629 7.12003Z" fill="#1A1A1A"/>
<path fill-rule="evenodd" clip-rule="evenodd" d="M19.5 2C20.0523 2 20.5 2.44772 20.5 3L20.5 7C20.5 7.55228 20.0523 8 19.5 8L15.5 8C14.9477 8 14.5 7.55228 14.5 7C14.5 6.44772 14.9477 6 15.5 6L18.5 6L18.5 3C18.5 2.44772 18.9477 2 19.5 2Z" fill="#1A1A1A"/>
<path fill-rule="evenodd" clip-rule="evenodd" d="M4.37099 16.88C4.80032 16.5326 5.42999 16.599 5.7774 17.0283C7.24565 18.8427 9.48733 20 12 20C16.4183 20 20 16.4183 20 12C20 11.4477 20.4477 11 21 11C21.5523 11 22 11.4477 22 12C22 17.5229 17.5229 22 12 22C8.85821 22 6.05432 20.5499 4.22267 18.2864C3.87525 17.8571 3.94166 17.2274 4.37099 16.88Z" fill="#1A1A1A"/>
<path fill-rule="evenodd" clip-rule="evenodd" d="M4.5 22C3.94772 22 3.5 21.5523 3.5 21L3.5 17C3.5 16.4477 3.94772 16 4.5 16L8.5 16C9.05229 16 9.5 16.4477 9.5 17C9.5 17.5523 9.05229 18 8.5 18L5.5 18L5.5 21C5.5 21.5523 5.05228 22 4.5 22Z" fill="#1A1A1A"/>
</g>
<defs>
<clipPath id="clip0_150_221">
<rect width="24" height="24" fill="white"/>
</clipPath>
</defs>
</svg>
