<svg width="24" height="24" viewBox="0 0 24 24" fill="none" xmlns="http://www.w3.org/2000/svg">
<path d="M19.8799 15.5H15.3799C15.1147 15.5 14.8603 15.6054 14.6728 15.7929C14.4853 15.9805 14.3799 16.2348 14.3799 16.5C14.3799 16.7652 14.4853 17.0196 14.6728 17.2071C14.8603 17.3947 15.1147 17.5 15.3799 17.5H17.7799C17.0357 18.2861 16.1398 18.913 15.1463 19.3427C14.1528 19.7724 13.0824 19.996 11.9999 20C10.9284 19.999 9.86786 19.7848 8.87992 19.37L7.38992 20.86C8.81032 21.6111 10.3932 22.0025 11.9999 22C14.5635 21.9927 17.0264 21.0011 18.8799 19.23V21C18.8799 21.2652 18.9853 21.5196 19.1728 21.7071C19.3603 21.8947 19.6147 22 19.8799 22C20.1451 22 20.3995 21.8947 20.587 21.7071C20.7746 21.5196 20.8799 21.2652 20.8799 21V16.5C20.8799 16.2348 20.7746 15.9805 20.587 15.7929C20.3995 15.6054 20.1451 15.5 19.8799 15.5ZM18.3099 7.10002L19.7399 5.67002L21.7399 3.67002C21.8332 3.57679 21.9071 3.4661 21.9576 3.34427C22.008 3.22245 22.034 3.09188 22.034 2.96002C22.034 2.82817 22.008 2.6976 21.9576 2.57578C21.9071 2.45395 21.8332 2.34326 21.7399 2.25002C21.6467 2.15679 21.536 2.08282 21.4142 2.03236C21.2923 1.9819 21.1618 1.95593 21.0299 1.95593C20.8981 1.95593 20.7675 1.9819 20.6457 2.03236C20.5238 2.08282 20.4132 2.15679 20.3199 2.25002L18.3199 4.25002C16.5397 2.78661 14.3044 1.9908 11.9999 2.00002C9.43631 2.00734 6.97341 2.99894 5.11992 4.77002V3.00002C5.11992 2.73481 5.01456 2.48045 4.82703 2.29292C4.63949 2.10538 4.38514 2.00002 4.11992 2.00002C3.8547 2.00002 3.60035 2.10538 3.41281 2.29292C3.22528 2.48045 3.11992 2.73481 3.11992 3.00002V7.50002C3.11992 7.76524 3.22528 8.01959 3.41281 8.20713C3.60035 8.39467 3.8547 8.50002 4.11992 8.50002H8.61992C8.88514 8.50002 9.13949 8.39467 9.32703 8.20713C9.51456 8.01959 9.61992 7.76524 9.61992 7.50002C9.61992 7.23481 9.51456 6.98045 9.32703 6.79292C9.13949 6.60538 8.88514 6.50002 8.61992 6.50002H6.21992C7.57617 5.05718 9.42318 4.17397 11.3977 4.02407C13.3722 3.87418 15.3314 4.46845 16.8899 5.69002L5.68992 16.89C4.59574 15.4948 4.00072 13.7731 3.99992 12C3.99992 11.7348 3.89456 11.4805 3.70703 11.2929C3.51949 11.1054 3.26514 11 2.99992 11C2.7347 11 2.48035 11.1054 2.29281 11.2929C2.10528 11.4805 1.99992 11.7348 1.99992 12C1.99633 14.307 2.79931 16.5426 4.26992 18.32L2.26992 20.32C2.17619 20.413 2.1018 20.5236 2.05103 20.6454C2.00026 20.7673 1.97412 20.898 1.97412 21.03C1.97412 21.162 2.00026 21.2927 2.05103 21.4146C2.1018 21.5365 2.17619 21.6471 2.26992 21.74C2.36288 21.8338 2.47348 21.9081 2.59534 21.9589C2.7172 22.0097 2.84791 22.0358 2.97992 22.0358C3.11193 22.0358 3.24264 22.0097 3.3645 21.9589C3.48636 21.9081 3.59696 21.8338 3.68992 21.74L5.68992 19.74L7.11992 18.31L18.3099 7.10002ZM19.3699 8.88002C19.7847 9.86797 19.9989 10.9285 19.9999 12C19.9999 12.2652 20.1053 12.5196 20.2928 12.7071C20.4803 12.8947 20.7347 13 20.9999 13C21.2651 13 21.5195 12.8947 21.707 12.7071C21.8946 12.5196 21.9999 12.2652 21.9999 12C22.0024 10.3933 21.611 8.81043 20.8599 7.39002L19.3699 8.88002Z" fill="#1A1A1A"/>
</svg>
