<svg width="24" height="24" viewBox="0 0 24 24" fill="none" xmlns="http://www.w3.org/2000/svg">
<g clip-path="url(#clip0_151_226)">
<path d="M14.8193 3C16.0552 3 16.9952 4.11004 16.792 5.3291L16.1807 9H18.5605C20.4535 9.00009 21.8729 10.7317 21.502 12.5879L20.3018 18.5879C20.0213 19.9902 18.7904 21 17.3604 21H6C4.34315 21 3 19.6569 3 18V10C3 9.44772 3.44772 9 4 9H7.92969C8.26402 8.99998 8.57626 8.83287 8.76172 8.55469L11.2773 4.78125C12.0192 3.66848 13.2681 3.00003 14.6055 3H14.8193ZM14.6055 5C13.9368 5.00003 13.3123 5.33425 12.9414 5.89062L10.4258 9.66406C10.0753 10.1897 9.57374 10.5825 9 10.8018V19H17.3604C17.837 19 18.2473 18.6636 18.3408 18.1963L19.541 12.1963C19.6648 11.5775 19.1915 11.0001 18.5605 11H15C14.7061 11 14.4273 10.8706 14.2373 10.6465C14.0474 10.4223 13.9655 10.1258 14.0137 9.83594L14.8193 5H14.6055ZM5 11V18C5 18.5523 5.44772 19 6 19H7V11H5Z" fill="#1A1A1A"/>
</g>
<defs>
<clipPath id="clip0_151_226">
<rect width="24" height="24" fill="white"/>
</clipPath>
</defs>
</svg>
