<svg width="24" height="24" viewBox="0 0 24 24" fill="none" xmlns="http://www.w3.org/2000/svg">
<g clip-path="url(#clip0_151_250)">
<path fill-rule="evenodd" clip-rule="evenodd" d="M14.6056 21C13.2681 21 12.0192 20.3316 11.2773 19.2188L8.76168 15.4453C8.57622 15.1671 8.26399 15 7.92963 15H4C3.44772 15 3 14.5523 3 14V6C3 4.34315 4.34315 3 6 3H17.3604C18.7904 3 20.0217 4.00938 20.3021 5.41165L21.5021 11.4116C21.8734 13.268 20.4535 15 18.5604 15H16.1805L16.7923 18.6712C16.9955 19.8903 16.0554 21 14.8195 21H14.6056ZM12.9415 18.1094C13.3124 18.6658 13.9368 19 14.6056 19H14.8195L14.0136 14.1644C13.9653 13.8744 14.047 13.5779 14.237 13.3536C14.427 13.1293 14.706 13 15 13H18.5604C19.1914 13 19.6647 12.4227 19.541 11.8039L18.341 5.80388C18.2475 5.33646 17.8371 5 17.3604 5H9V13.1974C9.57386 13.4167 10.0753 13.8101 10.4258 14.3359L12.9415 18.1094ZM7 13V5H6C5.44772 5 5 5.44772 5 6V13H7Z" fill="#1A1A1A"/>
</g>
<defs>
<clipPath id="clip0_151_250">
<rect width="24" height="24" fill="white"/>
</clipPath>
</defs>
</svg>
