<svg width="24" height="24" viewBox="0 0 24 24" fill="none" xmlns="http://www.w3.org/2000/svg">
<path d="M13.0017 8V11.586L14.7087 13.293C14.8042 13.3852 14.8804 13.4956 14.9328 13.6176C14.9852 13.7396 15.0128 13.8708 15.014 14.0036C15.0151 14.1364 14.9898 14.2681 14.9396 14.391C14.8893 14.5139 14.815 14.6255 14.7211 14.7194C14.6272 14.8133 14.5156 14.8875 14.3927 14.9378C14.2698 14.9881 14.1381 15.0134 14.0053 15.0123C13.8726 15.0111 13.7413 14.9835 13.6193 14.9311C13.4973 14.8787 13.387 14.8025 13.2947 14.707L11.2947 12.707C11.1072 12.5195 11.0018 12.2652 11.0017 12V8C11.0017 7.73478 11.1071 7.48043 11.2946 7.29289C11.4822 7.10536 11.7365 7 12.0017 7C12.2669 7 12.5213 7.10536 12.7088 7.29289C12.8964 7.48043 13.0017 7.73478 13.0017 8ZM15.0017 7C15.0017 7.26522 15.1071 7.51957 15.2946 7.70711C15.4822 7.89464 15.7365 8 16.0017 8H20.0017C20.2669 8 20.5213 7.89464 20.7088 7.70711C20.8964 7.51957 21.0017 7.26522 21.0017 7V3C21.0017 2.73478 20.8964 2.48043 20.7088 2.29289C20.5213 2.10536 20.2669 2 20.0017 2C19.7365 2 19.4822 2.10536 19.2946 2.29289C19.1071 2.48043 19.0017 2.73478 19.0017 3V4.93C17.8372 3.77695 16.4067 2.92844 14.8365 2.45943C13.2662 1.99041 11.6047 1.91532 9.99856 2.24079C8.39244 2.56626 6.89119 3.28228 5.62743 4.32559C4.36368 5.3689 3.37631 6.70738 2.75257 8.2228C2.12882 9.73823 1.88789 11.3839 2.05105 13.0146C2.21422 14.6452 2.77646 16.2105 3.68811 17.5723C4.59976 18.9341 5.83276 20.0504 7.27818 20.8226C8.7236 21.5949 10.337 21.9992 11.9757 22C13.8364 22.009 15.6617 21.4918 17.2411 20.5081C18.8204 19.5243 20.0894 18.114 20.9017 16.44C20.9662 16.3215 21.006 16.1912 21.0189 16.0569C21.0317 15.9227 21.0172 15.7872 20.9763 15.6587C20.9353 15.5301 20.8688 15.4112 20.7808 15.3091C20.6927 15.2069 20.5849 15.1236 20.4638 15.0642C20.3427 15.0048 20.2108 14.9705 20.0761 14.9634C19.9414 14.9563 19.8067 14.9765 19.68 15.0228C19.5533 15.0691 19.4373 15.1406 19.3389 15.2329C19.2406 15.3252 19.162 15.4365 19.1077 15.56C18.4582 16.897 17.4441 18.0232 16.1822 18.8088C14.9203 19.5944 13.4621 20.0073 11.9757 20C10.6802 20.0043 9.40304 19.6939 8.254 19.0955C7.10497 18.497 6.11845 17.6285 5.37927 16.5646C4.64009 15.5006 4.17035 14.2731 4.01045 12.9875C3.85055 11.7018 4.00526 10.3966 4.46129 9.18402C4.91731 7.97142 5.66101 6.8877 6.62844 6.02604C7.59588 5.16438 8.7581 4.55056 10.0152 4.23736C11.2723 3.92415 12.5866 3.92093 13.8452 4.22796C15.1039 4.53499 16.2691 5.1431 17.2407 6H16.0017C15.7365 6 15.4822 6.10536 15.2946 6.29289C15.1071 6.48043 15.0017 6.73478 15.0017 7Z" fill="#1A1A1A"/>
</svg>
