<svg width="24" height="24" viewBox="0 0 24 24" fill="none" xmlns="http://www.w3.org/2000/svg">
<g clip-path="url(#clip0_153_152)">
<path d="M12.5881 15.4261C12.7115 15.0948 12.6292 14.722 12.3778 14.4736L10.4818 12.6L10.5091 12.5727C12.0909 10.8091 13.2182 8.78182 13.8818 6.63636H15.6364C16.1384 6.63636 16.5455 6.22935 16.5455 5.72727C16.5455 5.2252 16.1384 4.81818 15.6364 4.81818H10.1818V3.90909C10.1818 3.40701 9.7748 3 9.27273 3C8.77065 3 8.36364 3.40701 8.36364 3.90909V4.81818H2.90455C2.40498 4.81818 2 5.22316 2 5.72273C2 6.22229 2.40498 6.62727 2.90455 6.62727H12.1545C11.5455 8.38182 10.5818 10.0455 9.27273 11.5C8.54657 10.6958 7.92771 9.82445 7.41615 8.90911C7.26171 8.63277 6.97362 8.45455 6.65704 8.45455C6.04537 8.45455 5.64038 9.08413 5.93633 9.61944C6.51826 10.672 7.22976 11.6727 8.06364 12.6L4.08852 16.5204C3.72908 16.875 3.72707 17.4543 4.08405 17.8113C4.43929 18.1666 5.01525 18.1666 5.37049 17.8113L9.27273 13.9091L11.1113 15.7476C11.5738 16.2102 12.3598 16.039 12.5881 15.4261ZM18.1524 10.9216C18.0061 10.5313 17.6329 10.2727 17.2161 10.2727H16.7839C16.3671 10.2727 15.9939 10.5313 15.8476 10.9216L12.4311 20.0323C12.2225 20.5885 12.6337 21.1818 13.2277 21.1818C13.5828 21.1818 13.9005 20.9613 14.0247 20.6286L14.8364 18.4545H19.1545L19.9741 20.6304C20.0991 20.9622 20.4165 21.1818 20.7711 21.1818C21.3657 21.1818 21.7773 20.5879 21.5685 20.0312L18.1524 10.9216ZM15.5273 16.6364L17 12.7L18.4727 16.6364H15.5273Z" fill="#1A1A1A"/>
</g>
<defs>
<clipPath id="clip0_153_152">
<rect width="24" height="24" fill="white"/>
</clipPath>
</defs>
</svg>
