<svg width="24" height="24" viewBox="0 0 24 24" fill="none" xmlns="http://www.w3.org/2000/svg">
<g clip-path="url(#clip0_150_166)">
<path d="M15 2C15.3788 2 15.7251 2.21395 15.8945 2.55273L17.6182 6H20C20.5523 6 21 6.44772 21 7C21 7.55228 20.5523 8 20 8H19V19C19 20.6569 17.6569 22 16 22H8C6.34315 22 5 20.6569 5 19V8H4C3.44772 8 3 7.55228 3 7C3 6.44772 3.44772 6 4 6H6.38184L8.10547 2.55273C8.27486 2.21395 8.62123 2 9 2H15ZM7 19C7 19.5523 7.44772 20 8 20H16C16.5523 20 17 19.5523 17 19V8H7V19ZM10 10C10.5523 10 11 10.4477 11 11V17C11 17.5523 10.5523 18 10 18C9.44772 18 9 17.5523 9 17V11C9 10.4477 9.44772 10 10 10ZM14 10C14.5523 10 15 10.4477 15 11V17C15 17.5523 14.5523 18 14 18C13.4477 18 13 17.5523 13 17V11C13 10.4477 13.4477 10 14 10ZM8.61816 6H15.3818L14.3818 4H9.61816L8.61816 6Z" fill="#1A1A1A"/>
</g>
<defs>
<clipPath id="clip0_150_166">
<rect width="24" height="24" fill="white"/>
</clipPath>
</defs>
</svg>
