<svg width="24" height="24" viewBox="0 0 24 24" fill="none" xmlns="http://www.w3.org/2000/svg">
<g clip-path="url(#clip0_150_297)">
<path d="M19 13C19 11.3432 17.6569 10 16 10H7.41406L8.70703 11.293C9.09756 11.6835 9.09756 12.3166 8.70703 12.7071C8.31651 13.0976 7.68349 13.0976 7.29297 12.7071L4.29297 9.70708C3.90244 9.31655 3.90244 8.68354 4.29297 8.29302L7.29297 5.29302C7.68349 4.90249 8.31651 4.90249 8.70703 5.29302C9.09756 5.68354 9.09756 6.31655 8.70703 6.70708L7.41406 8.00005H16C18.7614 8.00005 21 10.2386 21 13C21 15.7615 18.7614 18 16 18H5C4.44772 18 4 17.5523 4 17C4 16.4478 4.44772 16 5 16H16C17.6569 16 19 14.6569 19 13Z" fill="#1A1A1A"/>
</g>
<defs>
<clipPath id="clip0_150_297">
<rect width="24" height="24" fill="white"/>
</clipPath>
</defs>
</svg>
