<svg width="24" height="24" viewBox="0 0 24 24" fill="none" xmlns="http://www.w3.org/2000/svg">
<path fill-rule="evenodd" clip-rule="evenodd" d="M17 3C17 2.44772 16.5523 2 16 2C15.4477 2 15 2.44772 15 3H9C9 2.44772 8.55228 2 8 2C7.44772 2 7 2.44772 7 3H4C3.44772 3 3 3.44772 3 4V8V18C3 19.6569 4.34315 21 6 21H18C19.6569 21 21 19.6569 21 18V8V4C21 3.44772 20.5523 3 20 3H17ZM8 6C7.44772 6 7 5.55228 7 5H5V7H19V5H17C17 5.55228 16.5523 6 16 6C15.4477 6 15 5.55228 15 5H9C9 5.55228 8.55228 6 8 6ZM19 9H5V18C5 18.5523 5.44772 19 6 19H18C18.5523 19 19 18.5523 19 18V9ZM7.33334 10.25C7.10322 10.25 6.91668 10.4366 6.91668 10.6667V11.5C6.91668 11.7301 7.10322 11.9167 7.33334 11.9167H8.50001C8.73013 11.9167 8.91668 11.7301 8.91668 11.5V10.6667C8.91668 10.4366 8.73013 10.25 8.50001 10.25H7.33334ZM6.91668 16.5C6.91668 16.2699 7.10322 16.0833 7.33334 16.0833H8.50001C8.73013 16.0833 8.91668 16.2699 8.91668 16.5V17.3333C8.91668 17.5635 8.73013 17.75 8.50001 17.75H7.33334C7.10322 17.75 6.91668 17.5635 6.91668 17.3333V16.5ZM15.5 10.25C15.2699 10.25 15.0833 10.4366 15.0833 10.6667V11.5C15.0833 11.7301 15.2699 11.9167 15.5 11.9167H16.6667C16.8968 11.9167 17.0833 11.7301 17.0833 11.5V10.6667C17.0833 10.4366 16.8968 10.25 16.6667 10.25H15.5ZM15.0833 13.5833C15.0833 13.3532 15.2699 13.1666 15.5 13.1666H16.6667C16.8968 13.1666 17.0833 13.3532 17.0833 13.5833V14.4166C17.0833 14.6468 16.8968 14.8333 16.6667 14.8333H15.5C15.2699 14.8333 15.0833 14.6468 15.0833 14.4166V13.5833ZM11.4167 13.1666C11.1865 13.1666 11 13.3532 11 13.5833V14.4166C11 14.6468 11.1865 14.8333 11.4167 14.8333H12.5833C12.8134 14.8333 13 14.6468 13 14.4166V13.5833C13 13.3532 12.8134 13.1666 12.5833 13.1666H11.4167ZM6.91668 13.5833C6.91668 13.3532 7.10322 13.1666 7.33334 13.1666H8.50001C8.73013 13.1666 8.91668 13.3532 8.91668 13.5833V14.4166C8.91668 14.6468 8.73013 14.8333 8.50001 14.8333H7.33334C7.10322 14.8333 6.91668 14.6468 6.91668 14.4166V13.5833ZM11.4167 10.25C11.1865 10.25 11 10.4366 11 10.6667V11.5C11 11.7301 11.1865 11.9167 11.4167 11.9167H12.5833C12.8134 11.9167 13 11.7301 13 11.5V10.6667C13 10.4366 12.8134 10.25 12.5833 10.25H11.4167ZM11 16.5C11 16.2699 11.1865 16.0833 11.4167 16.0833H12.5833C12.8134 16.0833 13 16.2699 13 16.5V17.3333C13 17.5635 12.8134 17.75 12.5833 17.75H11.4167C11.1865 17.75 11 17.5635 11 17.3333V16.5ZM15.5 16.0833C15.2699 16.0833 15.0833 16.2699 15.0833 16.5V17.3333C15.0833 17.5635 15.2699 17.75 15.5 17.75H16.6667C16.8968 17.75 17.0833 17.5635 17.0833 17.3333V16.5C17.0833 16.2699 16.8968 16.0833 16.6667 16.0833H15.5Z" fill="#1A1A1A"/>
</svg>
