<svg width="24" height="24" viewBox="0 0 24 24" fill="none" xmlns="http://www.w3.org/2000/svg">
<path fill-rule="evenodd" clip-rule="evenodd" d="M16 2C16.5523 2 17 2.44772 17 3H20C20.5523 3 21 3.44772 21 4V8V18C21 19.6569 19.6569 21 18 21H6C4.34315 21 3 19.6569 3 18V8V4C3 3.44772 3.44772 3 4 3H7C7 2.44772 7.44772 2 8 2C8.55228 2 9 2.44772 9 3H15C15 2.44772 15.4477 2 16 2ZM7 5C7 5.55228 7.44772 6 8 6C8.55228 6 9 5.55228 9 5H15C15 5.55228 15.4477 6 16 6C16.5523 6 17 5.55228 17 5H19V7H5V5H7ZM5 9H19V18C19 18.5523 18.5523 19 18 19H6C5.44772 19 5 18.5523 5 18V9ZM17 11H7C6.44772 11 6 11.4477 6 12C6 12.5523 6.44772 13 7 13H17C17.5523 13 18 12.5523 18 12C18 11.4477 17.5523 11 17 11ZM7 15H12C12.5523 15 13 15.4477 13 16C13 16.5523 12.5523 17 12 17H7C6.44772 17 6 16.5523 6 16C6 15.4477 6.44772 15 7 15Z" fill="#1A1A1A"/>
</svg>
