<svg width="24" height="24" viewBox="0 0 24 24" fill="none" xmlns="http://www.w3.org/2000/svg">
<path d="M16 2C16.5523 2 17 2.44772 17 3H20C20.5523 3 21 3.44772 21 4V18C21 19.6569 19.6569 21 18 21H6C4.34315 21 3 19.6569 3 18V4C3 3.44772 3.44772 3 4 3H7C7 2.44772 7.44772 2 8 2C8.55228 2 9 2.44772 9 3H15C15 2.44772 15.4477 2 16 2ZM5 18C5 18.5523 5.44772 19 6 19H18C18.5523 19 19 18.5523 19 18V9H5V18ZM8 10C8.55228 10 9 10.4477 9 11V12C9 12.5523 8.55228 13 8 13H7C6.44772 13 6 12.5523 6 12V11C6 10.4477 6.44772 10 7 10H8ZM5 7H19V5H17C17 5.55228 16.5523 6 16 6C15.4477 6 15 5.55228 15 5H9C9 5.55228 8.55228 6 8 6C7.44772 6 7 5.55228 7 5H5V7Z" fill="#1A1A1A"/>
</svg>
