<svg width="24" height="24" viewBox="0 0 24 24" fill="none" xmlns="http://www.w3.org/2000/svg">
<g clip-path="url(#clip0_151_341)">
<path d="M10.4268 5.05396C11.5775 4.23823 13.2543 4.83732 13.5098 6.30298C13.832 8.15417 14 10.0583 14 12.0002C14 13.9421 13.8319 15.8454 13.5098 17.6965C13.2546 19.1625 11.5776 19.7623 10.4268 18.9465L7.94141 17.1838C7.77247 17.0641 7.57034 17.0003 7.36328 17.0002H5C3.34322 17.0002 2.00012 15.657 2 14.0002V10.0002C2 8.34339 3.34315 7.00024 5 7.00024H7.36328C7.57039 7.00019 7.77244 6.93545 7.94141 6.81567L10.4268 5.05396ZM9.09766 8.44751C8.59067 8.80683 7.98469 9.00019 7.36328 9.00024H5C4.44772 9.00024 4 9.44796 4 10.0002V14.0002C4.00012 14.5524 4.44779 15.0002 5 15.0002H7.36328C7.98478 15.0003 8.59063 15.1936 9.09766 15.553L11.5508 17.2913C11.8463 15.5726 12 13.8047 12 12.0002C12 10.1958 11.8463 8.42789 11.5508 6.70923L9.09766 8.44751ZM20.7041 7.00513C21.2536 6.95064 21.7433 7.35207 21.7979 7.90161C21.9317 9.24989 22 10.6173 22 12.0002C22 13.3832 21.9317 14.7505 21.7979 16.0989C21.7433 16.6484 21.2536 17.0498 20.7041 16.9954C20.1546 16.9408 19.7533 16.451 19.8076 15.9016C19.935 14.6188 20 13.3171 20 12.0002C20 10.6833 19.935 9.38171 19.8076 8.09888C19.7531 7.54929 20.1545 7.05969 20.7041 7.00513ZM16.7949 8.00317C17.3452 7.95789 17.8286 8.36787 17.874 8.91821C17.9579 9.93459 18 10.9627 18 12.0002C18 13.0379 17.9579 14.0658 17.874 15.0823C17.8286 15.6326 17.3453 16.0416 16.7949 15.9963C16.2447 15.9509 15.8347 15.4684 15.8799 14.9182C15.9592 13.9564 16 12.983 16 12.0002C16 11.0175 15.9592 10.0442 15.8799 9.08228C15.8345 8.53186 16.2445 8.04858 16.7949 8.00317Z" fill="#1A1A1A"/>
</g>
<defs>
<clipPath id="clip0_151_341">
<rect width="24" height="24" fill="white"/>
</clipPath>
</defs>
</svg>
