<svg width="24" height="24" viewBox="0 0 24 24" fill="none" xmlns="http://www.w3.org/2000/svg">
<g clip-path="url(#clip0_151_368)">
<path d="M10.4268 5.05396C11.5775 4.23823 13.2543 4.83732 13.5098 6.30298C13.832 8.15417 14 10.0583 14 12.0002C14 13.9421 13.8319 15.8454 13.5098 17.6965C13.2546 19.1625 11.5776 19.7623 10.4268 18.9465L7.94141 17.1838C7.77247 17.0641 7.57034 17.0003 7.36328 17.0002H5C3.34322 17.0002 2.00012 15.657 2 14.0002V10.0002C2 8.34339 3.34315 7.00024 5 7.00024H7.36328C7.57039 7.00019 7.77244 6.93545 7.94141 6.81567L10.4268 5.05396ZM9.09766 8.44751C8.59067 8.80683 7.98469 9.00019 7.36328 9.00024H5C4.44772 9.00024 4 9.44796 4 10.0002V14.0002C4.00012 14.5524 4.44779 15.0002 5 15.0002H7.36328C7.98478 15.0003 8.59063 15.1936 9.09766 15.553L11.5508 17.2913C11.8463 15.5726 12 13.8047 12 12.0002C12 10.1958 11.8463 8.42789 11.5508 6.70923L9.09766 8.44751ZM20.293 9.29321C20.6835 8.90269 21.3165 8.90269 21.707 9.29321C22.0974 9.68375 22.0975 10.3168 21.707 10.7073L20.4141 12.0002L21.707 13.2932C22.0974 13.6837 22.0975 14.3168 21.707 14.7073C21.3165 15.0977 20.6835 15.0977 20.293 14.7073L19 13.4143L17.707 14.7073C17.3165 15.0977 16.6835 15.0977 16.293 14.7073C15.9025 14.3168 15.9026 13.6837 16.293 13.2932L17.5859 12.0002L16.293 10.7073C15.9025 10.3168 15.9026 9.68375 16.293 9.29321C16.6835 8.90269 17.3165 8.90269 17.707 9.29321L19 10.5862L20.293 9.29321Z" fill="#1A1A1A"/>
</g>
<defs>
<clipPath id="clip0_151_368">
<rect width="24" height="24" fill="white"/>
</clipPath>
</defs>
</svg>
