<svg width="24" height="24" viewBox="0 0 24 24" fill="none" xmlns="http://www.w3.org/2000/svg">
<g clip-path="url(#clip0_151_351)">
<path fill-rule="evenodd" clip-rule="evenodd" d="M13.51 6.30342C13.2548 4.83743 11.5778 4.23805 10.4269 5.05386L7.94134 6.81585C7.77231 6.93567 7.57022 7.00003 7.36303 7.00003H5C3.34315 7.00003 2 8.34318 2 10V14C2 15.6569 3.34315 17 5 17H7.36303C7.57023 17 7.77231 17.0644 7.94134 17.1842L10.4269 18.9462C11.5778 19.762 13.2548 19.1626 13.51 17.6966C13.8322 15.8455 14 13.9419 14 12C14 10.0581 13.8322 8.15461 13.51 6.30342ZM21.7976 7.90123C21.743 7.35165 21.2533 6.95036 20.7037 7.00492C20.1541 7.05949 19.7528 7.54925 19.8074 8.09883C19.9348 9.38168 20 10.6831 20 12C20 13.317 19.9348 14.6184 19.8074 15.9012C19.7528 16.4508 20.1541 16.9406 20.7037 16.9951C21.2533 17.0497 21.743 16.6484 21.7976 16.0988C21.9315 14.7504 22 13.3831 22 12C22 10.617 21.9315 9.24963 21.7976 7.90123ZM17.8733 8.91781C17.8279 8.3674 17.3449 7.95801 16.7945 8.00342C16.2441 8.04882 15.8347 8.53183 15.8801 9.08225C15.9594 10.0441 15.9999 11.0172 15.9999 12C15.9999 12.9828 15.9594 13.9559 15.8801 14.9178C15.8347 15.4682 16.2441 15.9512 16.7945 15.9966C17.3449 16.0421 17.8279 15.6327 17.8733 15.0822C17.9572 14.0657 17.9999 13.0378 17.9999 12C17.9999 10.9623 17.9572 9.93433 17.8733 8.91781Z" fill="#1A1A1A"/>
</g>
<defs>
<clipPath id="clip0_151_351">
<rect width="24" height="24" fill="white"/>
</clipPath>
</defs>
</svg>
