<svg width="24" height="24" viewBox="0 0 24 24" fill="none" xmlns="http://www.w3.org/2000/svg">
<g clip-path="url(#clip0_151_378)">
<path fill-rule="evenodd" clip-rule="evenodd" d="M10.4269 5.05386C11.5778 4.23805 13.2548 4.83743 13.51 6.30342C13.8322 8.15461 14 10.0581 14 12C14 13.9419 13.8322 15.8455 13.51 17.6966C13.2548 19.1626 11.5778 19.762 10.4269 18.9462L7.94134 17.1842C7.77231 17.0644 7.57023 17 7.36303 17H5C3.34315 17 2 15.6569 2 14V10C2 8.34318 3.34315 7.00003 5 7.00003H7.36303C7.57022 7.00003 7.77231 6.93567 7.94134 6.81585L10.4269 5.05386ZM17.7074 9.29292C17.3168 8.9024 16.6837 8.9024 16.2931 9.29292C15.9026 9.68345 15.9026 10.3166 16.2931 10.7071L17.586 12L16.2931 13.2929C15.9026 13.6834 15.9026 14.3166 16.2931 14.7071C16.6837 15.0977 17.3168 15.0977 17.7074 14.7071L19.0002 13.4142L20.2931 14.7071C20.6837 15.0977 21.3168 15.0977 21.7074 14.7071C22.0979 14.3166 22.0979 13.6834 21.7074 13.2929L20.4145 12L21.7074 10.7071C22.0979 10.3166 22.0979 9.68345 21.7074 9.29292C21.3168 8.9024 20.6837 8.9024 20.2931 9.29292L19.0002 10.5858L17.7074 9.29292Z" fill="#1A1A1A"/>
</g>
<defs>
<clipPath id="clip0_151_378">
<rect width="24" height="24" fill="white"/>
</clipPath>
</defs>
</svg>
