<svg width="24" height="24" viewBox="0 0 24 24" fill="none" xmlns="http://www.w3.org/2000/svg">
<path d="M19.1154 4H4.88461C3.29402 4 2 5.29402 2 6.88461V17.6538C2 19.2444 3.29402 20.5384 4.88461 20.5384H19.1154C20.706 20.5384 22 19.2444 22 17.6538V6.88461C22 5.29402 20.706 4 19.1154 4ZM20.8462 14H16.6154C15.6611 14 14.8846 13.2236 14.8846 12.2692C14.8846 11.3148 15.661 10.5384 16.6154 10.5384H20.8462V14ZM20.8462 9.38461H16.6154C15.0248 9.38461 13.7308 10.6786 13.7308 12.2692C13.7308 13.8598 15.0248 15.1538 16.6154 15.1538H20.8462V17.6538C20.8462 18.6082 20.0698 19.3846 19.1154 19.3846H4.88461C3.93027 19.3846 3.15383 18.6082 3.15383 17.6538V6.88461C3.15383 5.93027 3.93023 5.15383 4.88461 5.15383H19.1154C20.0697 5.15383 20.8462 5.93024 20.8462 6.88461V9.38461Z" fill="#1A1A1A"/>
<path fill-rule="evenodd" clip-rule="evenodd" d="M4.88461 3.5H19.1154C20.9821 3.5 22.5 5.01788 22.5 6.88461V17.6538C22.5 19.5206 20.9821 21.0384 19.1154 21.0384H4.88461C3.01788 21.0384 1.5 19.5206 1.5 17.6538V6.88461C1.5 5.01788 3.01788 3.5 4.88461 3.5ZM16.6154 13.5H20.3462V11.0384H16.6154C15.9372 11.0384 15.3846 11.591 15.3846 12.2692C15.3846 12.9475 15.9372 13.5 16.6154 13.5ZM16.6154 8.88461H20.3462V6.88461C20.3462 6.20639 19.7936 5.65383 19.1154 5.65383H4.88461C4.20638 5.65383 3.65383 6.20641 3.65383 6.88461V17.6538C3.65383 18.3321 4.20641 18.8846 4.88461 18.8846H19.1154C19.7936 18.8846 20.3462 18.332 20.3462 17.6538V15.6538H16.6154C14.7487 15.6538 13.2308 14.136 13.2308 12.2692C13.2308 10.4025 14.7487 8.88461 16.6154 8.88461ZM4.88461 4H19.1154C20.706 4 22 5.29402 22 6.88461V17.6538C22 19.2444 20.706 20.5384 19.1154 20.5384H4.88461C3.29402 20.5384 2 19.2444 2 17.6538V6.88461C2 5.29402 3.29402 4 4.88461 4ZM20.8462 14V10.5384H16.6154C15.661 10.5384 14.8846 11.3148 14.8846 12.2692C14.8846 13.2236 15.6611 14 16.6154 14H20.8462ZM20.8462 9.38461V6.88461C20.8462 5.93024 20.0697 5.15383 19.1154 5.15383H4.88461C3.93023 5.15383 3.15383 5.93027 3.15383 6.88461V17.6538C3.15383 18.6082 3.93027 19.3846 4.88461 19.3846H19.1154C20.0698 19.3846 20.8462 18.6082 20.8462 17.6538V15.1538H16.6154C15.0248 15.1538 13.7308 13.8598 13.7308 12.2692C13.7308 10.6786 15.0248 9.38461 16.6154 9.38461H20.8462Z" fill="#1A1A1A"/>
</svg>
