<svg width="24" height="24" viewBox="0 0 24 24" fill="none" xmlns="http://www.w3.org/2000/svg">
<path fill-rule="evenodd" clip-rule="evenodd" d="M2.29289 1.29289C2.68342 0.902369 3.31658 0.902369 3.70711 1.29289L21.7694 21.0192C22.16 21.4097 22.16 22.0429 21.7694 22.4334C21.3789 22.8239 20.7458 22.8239 20.3552 22.4334L2.29289 2.70711C1.90237 2.31658 1.90237 1.68342 2.29289 1.29289Z" fill="#1A1A1A"/>
<path fill-rule="evenodd" clip-rule="evenodd" d="M11 20C11 19.4477 11.4477 19 12 19H12.01C12.5623 19 13.01 19.4477 13.01 20C13.01 20.5523 12.5623 21 12.01 21H12C11.4477 21 11 20.5523 11 20Z" fill="#1A1A1A" stroke="#1A1A1A" stroke-width="2" stroke-linecap="round" stroke-linejoin="round"/>
<path fill-rule="evenodd" clip-rule="evenodd" d="M12.0049 16.0013C10.9671 16.0013 9.95503 16.3242 9.10903 16.9252C8.6588 17.2451 8.03452 17.1394 7.71466 16.6892C7.39479 16.239 7.50047 15.6147 7.9507 15.2948C9.1351 14.4534 10.552 14.0013 12.0049 14.0013C13.4577 14.0013 14.8746 14.4534 16.059 15.2948C16.5093 15.6147 16.6149 16.239 16.2951 16.6892C15.9752 17.1394 15.3509 17.2451 14.9007 16.9252C14.0547 16.3242 13.0426 16.0013 12.0049 16.0013Z" fill="#1A1A1A"/>
<path fill-rule="evenodd" clip-rule="evenodd" d="M15.8213 10.6214C16.0635 10.1251 16.6622 9.91907 17.1585 10.1613C18.0525 10.5976 18.8885 11.1439 19.647 11.7875C20.0681 12.1448 20.1198 12.7759 19.7624 13.197C19.4051 13.6181 18.7741 13.6698 18.353 13.3125C17.7215 12.7767 17.0256 12.3219 16.2814 11.9587C15.785 11.7164 15.579 11.1177 15.8213 10.6214Z" fill="#1A1A1A"/>
<path fill-rule="evenodd" clip-rule="evenodd" d="M11.1557 9.99115C11.2489 10.5355 10.8832 11.0524 10.3389 11.1457C8.60881 11.442 6.98807 12.1913 5.64146 13.3172C5.21776 13.6714 4.5871 13.6151 4.23285 13.1914C3.87859 12.7678 3.93489 12.1371 4.35859 11.7828C5.97614 10.4304 7.92299 9.5304 10.0012 9.17437C10.5455 9.08111 11.0624 9.4468 11.1557 9.99115Z" fill="#1A1A1A"/>
<path fill-rule="evenodd" clip-rule="evenodd" d="M7.05021 5.75315C7.25282 6.26692 7.00058 6.84767 6.48681 7.05029C4.87276 7.68682 3.38219 8.60019 2.08222 9.74927C1.66842 10.115 1.03645 10.0761 0.67068 9.6623C0.304911 9.2485 0.343849 8.61653 0.75765 8.25077C2.232 6.94755 3.92251 5.91166 5.75306 5.18975C6.26684 4.98713 6.84759 5.23937 7.05021 5.75315Z" fill="#1A1A1A"/>
<path fill-rule="evenodd" clip-rule="evenodd" d="M16.7313 6.76565C14.8194 6.12941 12.7988 5.88491 10.7903 6.04675C10.2398 6.09111 9.7576 5.6808 9.71324 5.1303C9.66889 4.5798 10.0792 4.09757 10.6297 4.05321C12.906 3.86979 15.1959 4.14689 17.3628 4.86796C19.5297 5.58903 21.529 6.7393 23.2416 8.25009C23.6557 8.61546 23.6953 9.24739 23.3299 9.66154C22.9645 10.0757 22.3326 10.1152 21.9185 9.74988C20.4074 8.41682 18.6433 7.40189 16.7313 6.76565Z" fill="#1A1A1A"/>
</svg>
