<svg width="24" height="24" viewBox="0 0 24 24" fill="none" xmlns="http://www.w3.org/2000/svg">
<g clip-path="url(#clip0_152_279)">
<path fill-rule="evenodd" clip-rule="evenodd" d="M3.2821 9.40242C5.76317 7.03896 8.93876 5.75 12.21 5.75C15.4812 5.75 18.6568 7.03896 21.1378 9.40242C21.6377 9.87859 22.4289 9.85938 22.9051 9.35952C23.3812 8.85966 23.362 8.06844 22.8622 7.59228C19.9348 4.80367 16.1484 3.25 12.21 3.25C8.27151 3.25 4.48512 4.80367 1.55775 7.59228C1.05789 8.06844 1.03869 8.85966 1.51485 9.35952C1.99101 9.85938 2.78224 9.87859 3.2821 9.40242ZM12.2473 10.749C10.1871 10.749 8.17717 11.5286 6.56919 12.976C6.05609 13.4378 5.26572 13.3963 4.80386 12.8832C4.342 12.3701 4.38353 11.5797 4.89664 11.1178C6.94662 9.27258 9.54681 8.24902 12.2473 8.24902C14.9477 8.24902 17.5479 9.27258 19.5979 11.1178C20.111 11.5797 20.1525 12.3701 19.6907 12.8832C19.2288 13.3963 18.4384 13.4378 17.9253 12.976C16.3174 11.5286 14.3075 10.749 12.2473 10.749ZM9.76017 16.5983C10.4878 16.0396 11.3455 15.748 12.2145 15.748C13.0834 15.748 13.9412 16.0396 14.6688 16.5983C15.2164 17.0187 16.0011 16.9156 16.4215 16.368C16.8419 15.8204 16.7388 15.0357 16.1912 14.6153C15.04 13.7314 13.6502 13.248 12.2145 13.248C10.7787 13.248 9.38892 13.7314 8.2377 14.6153C7.69012 15.0357 7.58704 15.8204 8.00746 16.368C8.42788 16.9156 9.21259 17.0187 9.76017 16.5983ZM12.21 18.4971C11.6577 18.4971 11.21 18.9448 11.21 19.4971C11.21 20.0494 11.6577 20.4971 12.21 20.4971H12.2188C12.7711 20.4971 13.2188 20.0494 13.2188 19.4971C13.2188 18.9448 12.7711 18.4971 12.2188 18.4971H12.21Z" fill="#1A1A1A"/>
</g>
<defs>
<clipPath id="clip0_152_279">
<rect width="24" height="24" fill="white"/>
</clipPath>
</defs>
</svg>
