<svg width="24" height="24" viewBox="0 0 24 24" fill="none" xmlns="http://www.w3.org/2000/svg">
<path fill-rule="evenodd" clip-rule="evenodd" d="M5.75049 5.8067C7.48724 4.15227 9.71016 3.25 12 3.25C14.2898 3.25 16.5128 4.15227 18.2495 5.8067C18.5994 6.14001 19.1533 6.12657 19.4866 5.77667C19.8199 5.42676 19.8064 4.87291 19.4565 4.53959C17.4074 2.58757 14.7569 1.5 12 1.5C9.24308 1.5 6.59261 2.58757 4.54345 4.53959C4.19355 4.87291 4.18011 5.42676 4.51342 5.77667C4.84674 6.12657 5.40059 6.14001 5.75049 5.8067ZM12.0261 6.74932C10.584 6.74932 9.17704 7.29499 8.05146 8.30817C7.69229 8.63147 7.13903 8.60239 6.81573 8.24322C6.49242 7.88405 6.5215 7.33079 6.88067 7.00749C8.31566 5.71581 10.1358 4.99932 12.0261 4.99932C13.9164 4.99932 15.7366 5.71581 17.1716 7.00749C17.5307 7.33079 17.5598 7.88405 17.2365 8.24322C16.9132 8.60239 16.3599 8.63147 16.0008 8.30817C14.8752 7.29499 13.4683 6.74932 12.0261 6.74932ZM10.2851 10.8438C10.7945 10.4528 11.3949 10.2486 12.0032 10.2486C12.6114 10.2486 13.2119 10.4528 13.7212 10.8438C14.1045 11.1381 14.6538 11.0659 14.9481 10.6826C15.2424 10.2993 15.1702 9.75001 14.7869 9.45572C13.981 8.83701 13.0082 8.49863 12.0032 8.49863C10.9981 8.49863 10.0253 8.83701 9.21942 9.45572C8.83611 9.75001 8.76396 10.2993 9.05825 10.6826C9.35254 11.0659 9.90184 11.1381 10.2851 10.8438ZM12 12.1729C11.6134 12.1729 11.3 12.4863 11.3 12.8729C11.3 13.2595 11.6134 13.5729 12 13.5729H12.0062C12.3928 13.5729 12.7062 13.2595 12.7062 12.8729C12.7062 12.4863 12.3928 12.1729 12.0062 12.1729H12Z" fill="#1A1A1A"/>
<rect x="11" y="14.5" width="2" height="4.5" rx="1" fill="#1A1A1A"/>
<circle cx="11.9999" cy="21.1" r="1.1" fill="#1A1A1A"/>
</svg>
